<?xml version="1.0" encoding="utf-8"?>
<!-- Generator: Adobe Illustrator 26.0.1, SVG Export Plug-In . SVG Version: 6.00 Build 0)  -->
<svg version="1.1" id="Layer_1" xmlns="http://www.w3.org/2000/svg" xmlns:xlink="http://www.w3.org/1999/xlink" x="0px" y="0px"
	 viewBox="0 0 400 260" style="enable-background:new 0 0 400 260;" xml:space="preserve">
<style type="text/css">
	.st0{display:none;fill:#324087;}
	.st1{display:none;}
	.st2{display:inline;fill:#ECF7FE;}
	.st3{display:inline;fill:#F6FBFE;}
	.st4{display:inline;fill:#F5FAFE;}
	.st5{display:inline;fill:#F4FAFE;}
	.st6{display:inline;fill:#344288;}
	.st7{display:inline;fill:#EDF8FE;}
	.st8{display:inline;fill:#EDF7FE;}
	.st9{display:inline;fill:#EEF7FE;}
	.st10{display:none;fill:#EDF7FE;}
	.st11{fill:#F6F6F6;}
	.st12{fill:#F7F7F7;}
	.st13{fill:#F8F8F8;}
	.st14{fill:#F9F8F9;}
</style>
<rect x="-0.34" y="0.5" class="st0" width="400" height="260"/>
<g class="st1">
	<path class="st2" d="M257.97,153.98c9.66,10.71,13.35,23.87,14.87,37.69c1.07,9.76-4.04,17.72-8.8,25.84
		c-6.71,11.45-17.01,15.79-29.4,17.59c-6.68,0.97-13.54,2.4-19.65,5.13c-14.27,6.37-27.52,3.44-40.71-2.71
		c-3.52-1.64-7.09-2.35-10.97-2.73c-9.52-0.93-16.56-6.69-22.14-13.84c-8.29-10.62-9.78-22.93-6.98-35.87
		c1.89-8.72,3.89-17.41,5.84-26.11c0.75-0.81,0.5-2.72,2.44-2.23c12.39,8.3,26.31,13.22,40.2,18.26c8.64,3.13,17.25,4.11,26.3,1.62
		c12.97-3.57,25.95-6.96,37.79-13.66c4.01-2.27,7.22-5.21,9.78-8.97C257.02,153.66,257.49,153.65,257.97,153.98z"/>
	<path class="st2" d="M254.97,105.02c2.78,3.33,2.77,6.66,0,9.99c-0.32,0.49-0.73,0.88-1.23,1.18
		c-16.08,7.8-33.07,11.84-50.87,13.36c-18.84,1.6-37.16-0.65-55.31-5.4c-1.33-0.45-2.48-1.22-3.53-2.14
		c-3.42-1.29-5.23-3.28-2.99-6.99c0.47-0.37,0.99-0.6,1.58-0.7c15.7,1.51,31.36,3.81,47.18,3.22c19.19-0.72,38.17-2.69,55.64-11.74
		c2.21-1.15,4.57-2.02,7.16-1.88C253.52,104,254.27,104.45,254.97,105.02z"/>
	<path class="st3" d="M254.97,105.02c-0.67,0-1.33-0.01-2-0.01c-0.67-0.75-1.3-1.52-1.63-2.48c-5.4-15.75-12.81-30.63-19.93-45.63
		c-1.79-3.77-1.21-6.63,1.74-9.35c3.32-3.06,6.05-6.63,8.5-10.4c5.86-9.04,2.84-15.84-7.67-17.57c-10.13-1.66-20.16-1.71-30.01,1.69
		c-1.41,0.49-2.86,0.94-4.37,0.32c-0.2-0.17-0.39-0.34-0.59-0.51c3.59-3.41,8.35-4.31,12.82-4.61c9.51-0.64,19.26-1.76,28.37,2.29
		c7.28,3.24,9.26,8.95,5.78,16.21c-2.29,4.78-5.04,9.47-9.28,12.76c-4.02,3.12-3.82,6.3-1.74,10.32
		c5.55,10.74,10.45,21.79,15.02,32.98C251.84,95.62,253.87,100.16,254.97,105.02z"/>
	<path class="st4" d="M253.97,115.01c0.33,0,0.67,0,1,0c0.83,4.82,3.43,6,7.95,4.25c2.27-0.87,4.54-0.04,6.28,1.8
		c-2.88,0-5.71-0.17-8.5,0.06c-2.06,0.17-3.97,0.95-3.59,3.72c0.64,4.57,1.3,9.13,1.85,13.71c0.23,1.93,0.87,2.82,2.87,1.88
		c4.49-2.11,10.01-11.67,9.39-16.3c2.03,2.8,2.25,3.66,1.02,6.2c-2.14,4.42-5.17,8.77-9.37,10.67c-3.95,1.79-4.03,4.02-3.91,7.18
		c0.08,2,0.13,4-0.99,5.8c-0.33,0-0.66,0-0.99,0c-0.79-0.73-1.12-1.7-0.99-2.69c1.31-10.51-1.57-20.68-2.44-31.01
		C253.39,118.51,252.74,116.68,253.97,115.01z"/>
	<path class="st5" d="M144.02,122.01c1.1,0.03,2.28-0.18,3.01,0.99c-2.3,10.61-5.49,21.1-4.33,32.18c0.07,0.67-0.23,1.28-0.67,1.8
		c-0.66,0.67-1.33,1.33-1.99,2c0-1.49-0.12-2.98,0.02-4.46c0.33-3.58,0.34-6.92-4.83-7.88c3.81,0.77,4.8-0.77,4.89-3.84
		c0.08-2.76,0.67-5.53,1.25-8.25c1.44-6.82-0.88-9.25-7.95-8.17c-1.13,0.17-2.25,0.42-3.37,0.63l0,0c2.56-3.43,5.81-2.03,8.88-1.15
		C142.45,126.85,144.21,125.8,144.02,122.01z"/>
	<path class="st3" d="M173.69,43.29c-0.22-0.07-0.45-0.15-0.67-0.23c6.58-9.79,14.48-18.01,25.99-21.98c0,0,0,0,0,0
		c0.56,1.7-0.7,2.47-1.8,3.05c-7.71,4.06-13.51,10.36-19.53,16.41"/>
	<path class="st3" d="M142.03,115.01c-0.33,0-0.66,0-1,0c1.22-8,3.04-15.82,6.99-22.99c0.18,0.2,0.36,0.39,0.54,0.59
		c1.12,5.06-1.9,9.27-2.98,13.86C144.89,109.43,144.78,112.83,142.03,115.01z"/>
	<path class="st3" d="M130.03,127c-2.16,3.66-3.23,7.33,0,10.99c-0.29,0.37-0.39,0.93-1,1C124.91,133.09,125.13,130.42,130.03,127
		C130.03,127,130.03,127,130.03,127z"/>
	<path class="st4" d="M148.02,92.03c-0.22-3.12,0.9-5.74,3-7.99c0.17,0.2,0.34,0.39,0.5,0.59
		C151.76,87.75,151.85,90.81,148.02,92.03L148.02,92.03z"/>
	<path class="st3" d="M153.02,79.04c0.41-2.59,0.34-5.37,3-6.99c0,0,0,0,0,0c1.75,3.16,0.01,5.22-2.25,7.12
		C153.52,79.12,153.27,79.08,153.02,79.04z"/>
	<path class="st3" d="M129.03,138.99c0.33-0.33,0.66-0.67,1-1c0.82,1.73,2.68,2.93,2.62,5.48
		C130.4,142.6,129.95,140.6,129.03,138.99z"/>
	<path class="st4" d="M151.02,84.03c-0.06-1.96,0.41-3.7,2-5c0,0,0,0,0,0C154.28,81.47,154.08,83.32,151.02,84.03L151.02,84.03z"/>
	<path class="st6" d="M195.42,189.93c-4.32,0-8.65,0-12.97,0c-1.39,0-2.95-0.19-3-1.85c-0.06-2.01,1.64-2.38,3.2-2.09
		c10.84,2.03,21.52,0.42,32.23-1.14c1.47-0.22,3.8-0.94,4.05,1.4c0.22,2.07-2,2.38-3.61,2.62
		C208.72,189.86,202.09,190.22,195.42,189.93z"/>
	<path class="st7" d="M165.01,147.76c0.06-4.62,3.59-7.93,8.31-7.77c4.48,0.15,7.71,3.54,7.69,8.04c-0.03,4.86-3.6,8.09-8.79,7.94
		C167.83,155.85,164.95,152.56,165.01,147.76z"/>
	<path class="st7" d="M225.44,155.98c-4.66-0.02-8.38-3.56-8.39-7.98c-0.01-3.55,4.45-7.88,8.24-7.99c3.94-0.12,8.72,4.35,8.64,8.09
		C233.84,152.58,230.15,156,225.44,155.98z"/>
	<path class="st8" d="M198.49,170.92c-2.96,0.28-5.93,0.05-8.72-1.21c-1.22-0.55-2.47-1.33-2.39-2.87c0.06-1.27,1.1-2.17,2.19-2.48
		c6.35-1.81,12.71-2.41,18.96,0.42c1.06,0.48,2.29,1,2.08,2.44c-0.18,1.22-1.2,1.97-2.27,2.47
		C205.22,171.13,201.89,171.12,198.49,170.92z"/>
	<path class="st9" d="M239.99,129.94c3.09,0.38,6.2,1.05,6.88,4.96c0.25,1.41-0.4,2.67-2.12,2.77c-2.01,0.13-8.76-5.08-8.35-6.51
		C236.92,129.34,238.62,130.26,239.99,129.94z"/>
	<path class="st8" d="M161.75,132.2c-1.99,2.76-3.72,4.74-6.13,5.94c-1.46,0.73-3.3,1.76-4.29-0.33c-0.82-1.72-0.41-3.58,1.53-4.72
		C155.49,131.54,158.29,131.97,161.75,132.2z"/>
</g>
<path class="st10" d="M142.03,115.01c0,0,15.74-42.79,17.52-46.09c1.79-3.3,16.11-26.88,18.11-28.37
	c1.73-1.29,12.18-15.13,28.28-19.91l-1.38-2.86c0,0-12.2,5.97-14.89,7.88s-15.53,13.71-15.53,13.71l-9.14,14.54l-13.39,25.26
	l-9.59,30.17V115.01z"/>
<g>
	<path class="st11" d="M242.97,73.05c7.59,13.11,14.34,26.59,17.98,41.41c0.08,0.32,0.25,0.64,0.25,0.96
		c0.1,10.68,6.94,17.28,14.27,23.59c5.13,4.42,9.08,9.78,11.46,16.08c2.61,6.91,1.19,15.82-6.02,19.57
		c-4.14,2.16-7.58,1.62-10.26-2.23c-2.84-4.07-3.49-8.89-4.62-13.53c-0.35-1.42-0.14-2.99-1.73-4.13
		c-2.69,16.95-9.83,31.51-22.1,43.49c-7.43,7.26-16.19,12.14-26.2,14.57c-4,0.97-5.69,2.66-5.05,6.75c0.51,3.26,0.68,6.57,1.13,9.84
		c0.38,2.77,2.07,4.29,4.79,5.03c1.55,0.42,3.36,1.26,2.87,3.43c-0.4,1.81-1.79,2.25-3.49,1.64c-2.42-0.86-1.38,0.87-1.34,1.81
		c0.06,1.41-0.09,2.9-1.71,3.14c-1.76,0.26-1.96-1.37-2.38-2.63c-0.83-2.47-2.07-3.88-4.66-1.72c-0.8,0.67-1.88,1.08-2.64,0.1
		c-0.95-1.22-0.74-2.96,0.42-3.56c5.24-2.68,3.96-7.41,4.04-11.74c-0.04-4.33,0.09-8.23,0-12.99c1.24,0.21,3.54-0.84,5.49-1.14
		c12.26-1.88,34.66-19.82,43.15-40.53c2.33-5.68,4.09-11.58,4.34-17.8c2.02-14.42-0.39-28.37-4.52-42.12
		c-3.21-10.67-7.86-20.73-13.25-30.46c-0.96-1.73-2.2-3.35-1.95-5.5C241.53,73.55,241.93,72.88,242.97,73.05z"/>
	<path class="st11" d="M138.03,191.95c-8.27-8.22-12.34-18.56-14.97-29.63c-0.23-0.96-0.17-1.98-0.39-2.94
		c-0.18-0.79-0.57-1.53-1.01-2.69c-1.33,4.09-2.24,8-3.86,11.58c-1.55,3.43-3.49,7.12-8.28,6.57c-4.85-0.56-9.92-6.1-10.49-10.68
		c-1-8.03,2.2-14.61,7.01-20.52c3.21-3.95,6.24-8.07,10.68-10.97c4.65-3.03,6.51-7.72,7.47-13.28c1.98-11.44,5.76-22.37,11.85-32.38
		c1.12-0.21,1.45,0.54,1.71,1.39c0.24,2.48-1.15,4.44-2.14,6.5c-5.98,12.39-9.01,25.5-10.3,39.16c-0.64,6.79-1.25,13.5,0.07,20.25
		c0.82,11.3,4.61,21.53,11.14,30.78c1.23,1.74,2.77,3.32,3.03,5.58C139.38,191.53,139.06,192.16,138.03,191.95z"/>
	<path class="st12" d="M132.68,97.3c0.08-0.21,3.69-9.91,3.35-10.27c8.68-17.13,21.65-30.02,38.75-38.68
		c2.13-1.08,2.82-2.51,3.42-4.45c1.08-3.51,1.9-7.82,4.68-9.74c5.38-3.72,11.54-6.32,17.29-9.55c2.93-1.65,6.76,2.52,9.24,5.52
		c0.93,1.13,1.36,2.86,3.18,2.84c5.43-0.05,6.85,4.22,6.18,7.76c-1.42,7.52,2.86,10.61,7.98,14.36
		c6.45,4.73,12.57,10.66,16.29,18.01c-0.22,0.5-1.19,3.26-1.41,3.76c-0.9-1.3-2.47-4.08-3.43-5.4c-6.4-8.78-14.61-15.35-24.24-20.27
		c-9.74-4.97-18.02-3.89-25.73,3.97c-4.04,4.12-7.84,5.92-12.09-0.39c-1.98-2.94-3.98-1.33-5.92-0.03
		c-11.63,7.76-21.38,17.34-28.74,29.31c-1.04,1.69-5.1,9-7.29,13.97C134.16,98.05,132.67,97.31,132.68,97.3z"/>
	<path class="st11" d="M207.76,211.89c0.13,0.03,0.23,0.15,0.23,0.28c0.04,4.25,1.09,8.38,0,12.75c0.6-1.24,0.66-2.48,0.88-4.01
		c0.67-4.66-3.3-6.54-7.49-6.03c-1.97,0.24-3.99,0.04-5.98,0.04c-9.64,0-9.8-0.01-10.3,9.64c-0.22,4.2-1.67,9.17,4.24,11.32
		c0.99,0.36,1.93,1.59,1.39,2.89c-0.71,1.69-2.29,1.33-3.39,0.7c-2.76-1.59-3.94-0.58-4.3,2.22c-0.17,1.36-0.36,2.9-2.13,2.78
		c-1.7-0.11-1.84-1.66-1.88-3.02c-0.04-1.62-0.48-2.62-2.4-1.9c-0.93,0.35-1.88,0.35-2.31-0.66c-0.6-1.4,0.1-3.03,1.42-3.8
		c2.08-1.21,5.28-1.89,5.05-4.64c-0.48-5.88,3.05-11.67,0.23-17.52c-0.49-1.22-3.68-4.04-0.98-3.27c3.52,0.53,6.01,1.21,8.53,1.34
		c0.7,0.06,1.78,0.09,2.11,0.19c0.34,0.09,0.68,0.18,1.02,0.22C197.03,212.08,202.44,210.87,207.76,211.89z"/>
	<path class="st13" d="M182.01,210.94c-0.33,0.66-0.67,1.33-1,1.99c-16.3-2.95-31.81-7.52-42.98-20.98c0.33-0.33-1.7-4.68-1.37-5.02
		c1.31-0.52,4.68,4.21,5.48,5.01c9.68,9.69,22.37,13.16,34.91,16.94C178.77,209.4,180.69,209.45,182.01,210.94z"/>
	<path class="st14" d="M235.98,181.95c-3.58,1.33-7.17,2.51-11.1,2.02c-3.34-0.42-4.1,2.27-5.12,4.49
		c-8.22,17.87-30.6,19.36-42.88,10.45c-3.76-2.73-6.32-6.26-8.13-10.46c-1.08-2.52-2.49-4.42-5.81-4.56
		c-10.25-0.45-13.08-2.89-15.92-12.92c1.04-6.41,4.23-12.72,8.08-15.6c0.33,2.56-1.41,3.92-2.44,5.56
		c-4.04,6.47-3.6,13.84,1.03,18.24c1.89,1.8,3.98,2.82,6.67,2.83c4.71,0.03,8.18,1.43,10.55,6.35
		c5.32,11.08,14.83,14.73,26.81,13.68c9.7-0.85,16.03-6.08,19.8-14.43c2.04-4.53,5.46-5.29,9.49-5.61
		c9.73-0.78,14.24-8.18,10.32-17.18c-1.18-2.71-2.67-5.28-4.04-7.97C241.06,159.14,242.44,172.48,235.98,181.95z"/>
	<path class="st11" d="M169.01,110.46c0.02,5.46-3.88,9.47-9.31,9.54c-5.42,0.08-9.5-3.83-9.66-9.25c-0.13-4.68,4.75-9.69,9.47-9.71
		C164.86,101.01,168.99,105.11,169.01,110.46z"/>
	<path class="st11" d="M237.98,110.74c-0.09,5.41-4.12,9.31-9.59,9.26c-5.35-0.04-9.44-4.2-9.38-9.53c0.05-4.72,5.09-9.58,9.76-9.43
		C234.19,101.23,238.07,105.31,237.98,110.74z"/>
	<path class="st11" d="M205.66,124.55c0,1.38-0.67,1.88-1.39,2.29c-2.91,1.7-5.06,4.27-7.22,6.72c-2.46,2.81-4.27,2.29-6.28-0.29
		c-1.41-1.82-2.8-3.66-4.37-5.33c-3.44-3.68-3.29-5.71,1.41-7.19c5.51-1.74,11.08-1.22,16.15,1.91
		C204.74,123.14,205.24,124.07,205.66,124.55z"/>
</g>
</svg>
