<svg width="249" height="236" viewBox="0 0 249 236" fill="none" xmlns="http://www.w3.org/2000/svg">
<path d="M234.673 203.463C236.164 203.663 237.569 203.788 238.946 204.062C239.796 204.248 240.62 204.54 241.4 204.931C242.451 205.47 243.276 206.379 243.723 207.49C244.205 208.558 243.991 209.348 243.014 209.97C242.454 210.285 241.877 210.569 241.287 210.82C241.5 211.052 241.741 211.284 241.91 211.517C242.65 212.446 242.591 213.244 241.728 214.053C240.962 214.686 240.024 215.064 239.041 215.135C238.76 215.176 238.478 215.176 238.132 215.204C238.305 215.52 238.45 215.766 238.587 216.022C239.323 217.462 239.063 218.672 237.805 219.654C236.697 220.438 235.429 220.953 234.096 221.159C232.092 221.524 230.043 221.56 228.028 221.265C222.323 220.597 216.782 219.096 211.209 217.81C210.078 217.578 208.999 217.132 208.028 216.496C207.607 216.233 207.254 215.871 206.998 215.44C206.741 215.01 206.59 214.523 206.555 214.02C206.482 212.966 206.555 211.897 206.555 210.718C198.741 212.91 190.846 214.954 182.891 217.397L183.937 218.242C184.145 218.378 184.339 218.533 184.519 218.706C185.5 219.881 185.528 220.606 184.614 221.957C184.964 222.129 185.305 222.306 185.646 222.468C186.68 222.943 187.563 223.704 188.196 224.665C188.417 224.961 188.578 225.3 188.668 225.661C188.759 226.022 188.778 226.397 188.724 226.766C188.671 227.134 188.545 227.488 188.355 227.806C188.165 228.124 187.915 228.4 187.619 228.618C186.924 229.16 186.106 229.514 185.241 229.649C184.964 229.704 184.696 229.769 184.441 229.825C184.441 229.978 184.419 230.057 184.441 230.113C185.187 231.687 185 232.612 183.705 233.736C182.445 234.825 180.846 235.421 179.196 235.417C177.314 235.417 175.428 235.296 173.546 235.148C171.664 234.999 169.65 234.767 167.7 234.553C162.764 234.019 157.814 233.541 152.978 232.324C152.45 232.194 151.928 232.031 151.414 231.859C148.319 230.768 146.55 229.375 144.7 226.565C144.123 226.634 143.523 226.755 142.914 226.774C140.519 226.853 138.123 226.918 135.728 226.95C132.787 226.992 129.819 226.95 126.9 227.034C124.728 227.103 122.559 227.354 120.387 227.531C118.214 227.707 116.119 227.851 113.991 228.088C112.846 228.213 111.719 228.52 110.587 228.71C109.941 228.822 109.291 228.878 108.641 228.943C107.05 229.101 105.459 229.263 103.873 229.407C103.695 229.393 103.517 229.423 103.352 229.492C103.187 229.561 103.04 229.669 102.923 229.806C102.875 229.885 102.808 229.95 102.728 229.995C102.649 230.04 102.559 230.064 102.469 230.064C102.378 230.064 102.288 230.04 102.209 229.995C102.129 229.95 102.062 229.885 102.014 229.806C101.755 229.486 101.459 229.542 101.128 229.556C97.6087 229.736 94.0813 229.635 90.5777 229.254C87.7322 228.943 84.8868 228.576 82.0595 228.121C75.9448 227.066 69.9872 225.217 64.3322 222.617C54.1231 218.079 44.9686 211.86 36.4777 204.559C22.2095 192.289 12.1549 177.05 5.87767 159.164C3.24677 151.684 1.46242 143.921 0.559478 136.026C-0.704158 124.93 0.104932 114.02 3.7413 103.408C3.94584 102.813 4.19584 102.237 4.37766 101.634C4.47079 101.367 4.48813 101.079 4.42766 100.802C4.09585 99.7063 4.09585 99.6877 5.16858 99.474C6.16403 97.5094 7.09584 95.5355 8.14584 93.6313C10.4341 89.3085 13.5088 85.4717 17.2049 82.3267C21.1061 79.0195 25.7986 76.8329 30.8004 75.9917C34.9177 75.2735 39.1516 76.0193 42.7959 78.1049C47.9389 80.9051 52.0469 85.3439 54.4958 90.7471C55.4049 92.7628 56.1777 94.8482 56.9231 96.9382C58.4549 101.225 58.9413 105.712 59.1958 110.231C59.3822 113.528 59.4777 116.83 59.5277 120.133C59.6413 126.816 59.6004 133.504 59.8004 140.183C59.9731 145.853 60.2868 151.538 61.5231 157.102C62.5782 161.991 64.038 166.78 65.8868 171.417C66.7958 173.702 68.0004 175.875 69.0686 178.091C69.5146 179.032 70.0155 179.946 70.5686 180.826C70.4368 180.032 70.314 179.238 70.1731 178.448C69.3266 173.475 68.848 168.443 68.7413 163.396C68.557 157.122 68.7802 150.843 69.4095 144.599C70.3976 135.038 72.3177 125.602 75.1413 116.431C79.7095 101.383 85.964 87.0873 93.4549 73.3397C98.0004 65.0122 102.605 56.7173 107.164 48.3991C108.441 46.0768 109.655 43.7035 110.896 41.3534C111.1 40.9679 111.273 40.5685 111.496 40.0994C109.841 39.8533 108.314 39.6071 106.759 39.3935C102.796 38.8547 99.8186 36.7136 97.6049 33.4068C95.5277 30.3089 96.0231 26.872 98.8368 24.4523C100.773 22.7942 103.087 21.9629 105.559 21.5681C110.173 20.8343 114.419 21.8886 118.364 24.3548L118.782 24.6009C119.65 23.2587 120.441 21.8653 121.396 20.616C124.2 16.9654 127.655 14.0069 131.3 11.2853C137.309 6.75975 144.202 3.61197 151.509 2.05677C154.136 1.48574 156.807 1.15007 159.491 1.05357C162.1 0.974614 164.719 0.816703 167.328 0.904947C173.514 1.1093 179.6 1.94066 185.473 4.10033C193.343 6.99833 200.596 11.413 206.837 17.1048C207.559 17.7596 208.287 18.3959 208.928 19.0787C209.086 19.2824 209.305 19.4263 209.552 19.4878C209.799 19.5492 210.06 19.5245 210.291 19.4177C212.341 18.735 214.4 18.0012 216.514 17.4996C218.873 16.9376 221.273 16.5707 223.673 16.2038C225.681 15.9553 227.705 16.5185 229.312 17.7731C230.92 19.0278 231.984 20.8746 232.278 22.9196C232.414 23.7974 232.537 24.6799 232.632 25.5623C232.832 27.3876 232.137 28.9017 231.014 30.2253C229.719 31.7405 228.117 32.9496 226.319 33.7691C225.091 34.331 223.837 34.8187 222.6 35.3435C222.369 35.4364 222.146 35.5479 221.973 35.6268C223.037 37.9862 224.141 40.2713 225.119 42.6307C226.65 46.3137 228.209 50.0014 229.037 53.9399C230.25 59.7083 231.432 65.4813 232.159 71.338C232.573 74.6634 232.478 78.012 232.396 81.3514C232.311 85.067 232.173 88.7825 231.982 92.4981C231.846 95.1268 231.528 97.7509 231.414 100.394C231.206 103.769 231.3 107.156 231.696 110.514C232.069 113.417 232.509 116.315 232.778 119.232C232.991 121.517 232.991 123.825 233.064 126.124C233.046 126.321 233.071 126.52 233.139 126.706C233.207 126.892 233.315 127.06 233.455 127.197C238.323 131.846 241.646 137.512 243.741 143.977C245.578 149.495 246.874 155.187 247.609 160.967C247.979 164.358 248.102 167.774 247.978 171.184C247.899 175.604 247.435 180.007 246.591 184.342C245.524 189.951 242.872 195.117 238.964 199.204C237.582 200.677 236.141 202.014 234.673 203.463ZM134.369 157.019C134.1 156.81 133.796 156.601 133.528 156.35C133.262 156.098 133.011 155.831 132.773 155.551C128.95 151.274 126.759 146.285 126.714 140.452C126.637 134.177 127 127.905 127.8 121.684C127.845 121.39 127.906 121.098 127.982 120.811C127.992 120.727 128.018 120.646 128.06 120.574C128.102 120.501 128.159 120.438 128.226 120.39C128.294 120.341 128.37 120.308 128.451 120.291C128.532 120.275 128.615 120.276 128.696 120.295C129.1 120.365 129.191 120.699 129.178 121.052C129.157 121.35 129.121 121.646 129.069 121.939C128.3 127.977 127.942 134.062 127.996 140.15C127.955 142.198 128.249 144.238 128.864 146.188C131.25 153.373 136.078 158.231 142.796 161.231C144.041 161.767 145.395 161.986 146.741 161.868C148.619 161.724 150.482 161.403 152.35 161.148C153.396 161.004 154.428 160.804 155.473 160.683C157.378 160.47 158.369 161.124 158.846 163.005C159.187 164.296 159.431 165.611 159.578 166.939C159.796 169.076 159.869 171.231 160.032 173.376C160.118 174.863 160.424 176.327 160.941 177.719C161.09 178.173 161.338 178.587 161.665 178.929C161.993 179.272 162.392 179.534 162.832 179.698C163.908 180.057 165.059 180.113 166.164 179.86C168.087 179.428 169.237 178.086 169.923 176.312C171.226 173.07 171.89 169.598 171.878 166.094C171.823 162.569 171.541 159.048 171.373 155.528C171.367 154.878 171.197 154.241 170.878 153.678C170.559 153.116 170.103 152.647 169.555 152.319C168.114 151.39 166.737 150.354 165.35 149.337C163.077 147.665 161.055 145.662 159.35 143.392C154.477 136.905 150.734 129.609 148.287 121.823C147.591 119.645 147.146 117.383 146.591 115.158C146.558 115.071 146.544 114.977 146.55 114.883C146.555 114.79 146.581 114.699 146.624 114.616C146.667 114.533 146.727 114.461 146.8 114.404C146.872 114.347 146.956 114.306 147.046 114.285C147.123 114.255 147.206 114.241 147.289 114.244C147.372 114.248 147.453 114.269 147.528 114.306C147.602 114.343 147.669 114.395 147.723 114.46C147.776 114.524 147.817 114.599 147.841 114.68C147.938 114.92 148.005 115.171 148.041 115.428C148.453 118.104 149.145 120.728 150.105 123.254C150.207 123.5 150.323 123.74 150.45 123.973C151.705 121.8 152.846 119.64 154.15 117.597C157.4 112.525 161.469 108.252 166.605 105.191C172.005 101.977 177.814 100.584 184.05 101.369C188.093 101.902 191.983 103.284 195.478 105.428C200.56 108.47 204.619 112.595 208.055 117.425C208.3 117.769 208.564 118.103 208.86 118.488C209.287 117.903 209.646 117.397 210.028 116.905C210.184 116.656 210.392 116.445 210.637 116.287C210.754 116.228 210.883 116.197 211.014 116.197C211.145 116.197 211.274 116.228 211.391 116.287C211.462 116.4 211.507 116.528 211.524 116.661C211.541 116.794 211.53 116.93 211.491 117.058C211.432 117.29 211.196 117.471 211.037 117.676C209.871 119.097 209.024 120.761 208.555 122.552C207.583 126.435 206.297 130.229 204.71 133.894C202.169 139.932 198.887 145.44 194.255 150.015C192.388 151.853 191.097 154.216 190.546 156.805C189.692 160.725 189.386 164.748 189.637 168.755C189.707 169.939 189.889 171.113 190.178 172.262C190.293 172.795 190.561 173.281 190.948 173.657C191.336 174.034 191.824 174.284 192.35 174.375C193.096 174.553 193.87 174.561 194.619 174.401C195.368 174.24 196.074 173.915 196.687 173.446C198.327 172.177 199.418 170.304 199.728 168.226C200.125 165.769 200.936 163.401 202.123 161.227C202.531 160.437 203.105 159.75 203.803 159.214C204.502 158.679 205.308 158.308 206.164 158.129C207.373 157.883 208.591 157.692 209.8 157.465C211.759 157.098 213.732 156.782 215.669 156.331C217.033 156.051 218.293 155.385 219.305 154.409C222.164 151.566 224.432 148.259 226.528 144.813C228.23 141.957 229.487 138.849 230.255 135.599C231.669 129.928 231.519 124.192 231 118.442C230.764 115.818 230.464 113.203 230.25 110.579C230.096 108.693 229.991 106.805 229.937 104.913C229.887 103.32 229.873 101.717 229.978 100.134C230.155 97.4305 230.541 94.7413 230.664 92.0383C230.896 87.0316 231.023 82.0202 231.15 77.0135C231.208 74.3008 231.001 71.5889 230.532 68.9182C229.95 65.5231 229.291 62.1373 228.714 58.7376C227.432 51.0417 224.623 43.8986 221.082 37.0573C219.055 33.1467 216.364 29.6634 213.637 26.2311C209.077 20.4829 203.635 15.5281 197.523 11.5593C188.419 5.5392 177.826 2.29305 166.982 2.20075C164.405 2.16824 161.823 2.20075 159.255 2.39117C156.685 2.54796 154.128 2.87844 151.6 3.38044C140.514 5.78162 131.323 11.5965 123.591 19.9472C122.352 21.2573 121.309 22.7472 120.496 24.3687C120.259 24.8331 119.964 25.2976 120.309 25.9153C120.564 26.3797 120.132 26.807 119.614 26.663C119.272 26.5456 118.953 26.3697 118.669 26.1429C114.696 23.268 110.323 22.0697 105.487 22.8918C103.164 23.2912 100.982 24.0807 99.2504 25.8131C97.4322 27.6337 97.0413 29.9931 98.3731 32.2039C100.069 34.9905 102.369 37.1409 105.646 37.8144C107.987 38.2788 110.369 38.5668 112.732 38.9383C113.047 38.9674 113.355 39.0523 113.641 39.1891C113.735 39.2617 113.812 39.3548 113.867 39.4617C113.921 39.5686 113.951 39.6865 113.955 39.8068C113.955 39.9555 113.723 40.1737 113.55 40.2434C113.314 40.3117 113.069 40.3476 112.823 40.3502C112.296 41.3581 111.805 42.352 111.278 43.3227C106.278 52.4908 101.278 61.6682 96.2413 70.8224C90.0731 82.0248 84.5186 93.5152 80.1049 105.568C75.3004 118.688 71.7368 132.106 70.5231 146.114C69.9385 152.697 69.7987 159.314 70.1049 165.917C70.3725 172.264 71.2865 178.565 72.8322 184.718C73.8083 188.484 75.1104 192.154 76.7231 195.684C78.1069 198.742 79.8238 201.63 81.8413 204.295C86.1266 210.05 91.5683 214.801 97.8004 218.228C103.531 221.269 109.538 223.732 115.737 225.58C117.762 226.18 119.88 226.376 121.978 226.156C124.323 225.952 126.682 225.77 129.037 225.715C132.778 225.631 136.519 225.664 140.259 225.645C141.857 225.706 143.454 225.5 144.987 225.037C145.233 224.971 145.49 224.957 145.741 224.995C146.137 225.018 146.437 225.32 146.264 225.65C145.887 226.379 146.378 226.76 146.719 227.206C148.359 229.31 150.628 230.359 153.082 231.009C157.8 232.263 162.628 232.705 167.473 233.239C169.459 233.457 171.441 233.703 173.428 233.843C175.414 233.982 177.341 234.126 179.296 234.107C180.008 234.121 180.715 233.987 181.374 233.714C182.034 233.44 182.632 233.032 183.132 232.514C183.755 231.864 183.773 231.348 183.2 230.656C182.991 230.406 182.691 230.234 182.487 229.978C182.282 229.723 182.082 229.421 182.15 229.245C182.22 229.104 182.316 228.98 182.433 228.877C182.55 228.775 182.686 228.698 182.832 228.65C183.189 228.592 183.549 228.553 183.909 228.534C184.798 228.39 185.668 228.147 186.505 227.809C187.619 227.257 187.809 226.175 186.996 225.236C186.424 224.623 185.774 224.09 185.064 223.653C184.551 223.377 184.016 223.149 183.464 222.97C182.364 222.505 182.287 221.981 183.209 221.247L184.05 220.573C183.878 220.109 183.61 219.688 183.264 219.339C182.918 218.99 182.503 218.722 182.046 218.553C180.698 217.992 179.264 217.678 177.81 217.624C175.46 217.448 173.096 217.392 170.75 217.136C169.28 216.944 167.828 216.625 166.409 216.184C165.437 215.901 165.264 215.46 165.323 214.447C165.348 214.151 165.348 213.852 165.323 213.556C165.105 211.865 164.959 210.16 164.623 208.493C163.219 201.526 160.787 194.973 156.573 189.205C150.42 180.695 142.47 173.711 133.314 168.769C124.85 164.199 115.909 161.58 106.273 161.998C102.846 162.146 99.364 162.304 96.2958 164.255C96.1885 164.3 96.0716 164.317 95.9563 164.303C95.8409 164.289 95.7309 164.245 95.6368 164.176C95.564 164.062 95.5179 163.932 95.5021 163.797C95.4864 163.661 95.5013 163.524 95.5459 163.396C95.7218 163.115 95.9725 162.891 96.2686 162.75C96.8431 162.437 97.4421 162.172 98.0595 161.96C100.257 161.323 102.516 160.929 104.796 160.785C108.673 160.475 112.572 160.672 116.4 161.371C121.408 162.249 126.274 163.829 130.859 166.066C131.141 166.201 131.437 166.294 131.841 166.452C132.048 163.164 132.908 159.955 134.369 157.019V157.019ZM232.873 128.548C232.787 129.212 232.741 129.691 232.664 130.16C232.414 131.734 232.209 133.309 231.873 134.869C231.73 135.439 231.807 136.042 232.087 136.555C233.781 139.752 235.197 143.095 236.319 146.546C237.865 151.618 238.744 156.878 238.932 162.188C239.174 165.899 238.844 169.626 237.955 173.232C235.652 182.072 231.655 190.357 226.196 197.607C225.086 199.126 223.777 200.483 222.305 201.638C220.678 202.883 218.978 204.025 217.364 205.288C214.927 207.167 212.247 208.69 209.4 209.817C208.989 209.969 208.625 210.23 208.344 210.572C208.063 210.915 207.875 211.327 207.8 211.767C207.717 212.383 207.7 213.006 207.75 213.625C207.738 214.082 207.873 214.53 208.134 214.901C208.395 215.272 208.768 215.545 209.196 215.678C210.198 216.099 211.226 216.453 212.273 216.737C216.191 217.666 220.114 218.572 224.055 219.384C226.784 220.012 229.584 220.252 232.378 220.1C233.937 220.049 235.46 219.598 236.805 218.79C237.864 218.102 237.946 217.123 237.078 216.194C236.85 215.952 236.569 215.762 236.359 215.511C236.253 215.417 236.172 215.295 236.126 215.159C236.08 215.022 236.07 214.876 236.098 214.735C236.125 214.593 236.188 214.462 236.281 214.353C236.374 214.245 236.494 214.163 236.628 214.118C236.962 213.978 237.317 213.896 237.678 213.876C238.132 213.83 238.555 213.876 238.982 213.825C239.8 213.704 240.628 213.565 241.191 212.645C240.778 212.255 240.396 211.874 239.987 211.526C239.578 211.178 239.196 210.894 239.36 210.337C239.523 209.78 239.991 209.701 240.464 209.58C240.993 209.46 241.511 209.291 242.009 209.074C242.732 208.739 242.796 208.475 242.432 207.769C242.158 207.242 241.781 206.779 241.325 206.409C240.868 206.038 240.341 205.767 239.778 205.614C238.316 205.168 236.802 204.929 235.278 204.903C234.698 204.895 234.12 204.836 233.55 204.726C232.714 204.555 232.496 203.974 232.991 203.263C233.265 202.925 233.569 202.614 233.9 202.335C235.264 201.034 236.628 199.785 237.941 198.438C241.729 194.538 244.288 189.569 245.287 184.17C246.98 175.751 247.203 167.092 245.946 158.593C245.075 152.641 243.528 146.814 241.337 141.228C239.478 136.403 236.586 132.064 232.873 128.53V128.548ZM216.091 204.471C216.755 204.048 217.314 203.705 217.859 203.338C220.719 201.41 223.387 199.283 225.478 196.436C229.951 190.342 233.419 183.541 235.741 176.302C236.813 173.184 237.454 169.928 237.646 166.628C237.742 163.548 237.613 160.465 237.26 157.404C236.541 150.75 234.613 144.292 231.573 138.362C231.455 138.13 231.287 137.921 231.087 137.61C230.66 138.794 230.337 139.857 229.9 140.861C227.547 146.263 224.251 151.183 220.173 155.379C219.841 155.728 219.541 155.983 219.637 156.591C220.36 161.439 220.627 166.345 220.437 171.245C220.306 175.694 220.076 180.142 219.746 184.588C219.422 189.29 218.724 193.958 217.659 198.545C217.196 200.477 216.641 202.39 216.091 204.471ZM221.132 34.4843C223.191 33.6947 225.223 33.0027 227.064 31.8834C228.39 31.1162 229.546 30.0773 230.46 28.832C231.013 28.132 231.331 27.2692 231.369 26.3704C231.404 24.6566 231.105 22.9528 230.487 21.3591C229.537 18.9626 226.705 17.1512 224.196 17.4299C222.25 17.6156 220.317 17.9258 218.409 18.3588C216.059 18.9347 213.741 19.7289 211.432 20.4348C211.173 20.5092 210.932 20.6299 210.6 20.7646C214.489 25.0281 218.012 29.6244 221.132 34.5029V34.4843ZM32.3777 103.357C32.0277 103.111 31.8277 102.957 31.6186 102.827C28.2828 100.717 25.0934 98.3733 22.0731 95.8142C21.8529 95.5795 21.558 95.4327 21.2413 95.4004C20.9247 95.368 20.6072 95.4522 20.3458 95.6377C16.1441 97.8191 11.7769 99.6503 7.28675 101.114C7.02765 101.197 6.77766 101.318 6.40039 101.471C7.03675 102.279 7.55039 103.046 8.17312 103.705C10.6376 106.276 13.2808 108.662 16.0822 110.844C16.2537 111.006 16.4692 111.111 16.7004 111.146C16.9316 111.181 17.1677 111.143 17.3777 111.039C19.1958 110.254 21.0822 109.534 22.8959 108.693C26.1694 107.133 29.3371 105.35 32.3777 103.357V103.357ZM46.064 110.528C41.361 114.138 36.3813 117.357 31.1731 120.151C31.276 120.261 31.3886 120.36 31.5095 120.448C35.8046 122.501 40.2537 124.198 44.814 125.525C44.9843 125.582 45.1666 125.593 45.3422 125.555C45.5178 125.518 45.6805 125.434 45.814 125.311C46.5004 124.768 47.2049 124.243 47.9004 123.704C51.0822 121.224 54.0686 118.535 56.4822 115.237C56.7095 114.931 56.914 114.601 57.1049 114.308L46.064 110.528ZM18.014 112.223C18.264 112.446 18.4095 112.595 18.5731 112.715C21.8425 115.12 25.284 117.27 28.8686 119.148C29.121 119.285 29.4056 119.349 29.6911 119.332C29.9766 119.314 30.2519 119.217 30.4868 119.05C35.1147 116.571 39.5625 113.755 43.7958 110.625C44.0868 110.412 44.3595 110.161 44.7049 109.905C44.4049 109.757 44.1868 109.636 43.964 109.539C40.7526 108.162 37.6469 106.541 34.6731 104.69C34.3809 104.457 34.0209 104.331 33.6504 104.331C33.2798 104.331 32.9199 104.457 32.6277 104.69C28.2291 107.57 23.555 109.985 18.6777 111.898C18.4958 111.995 18.314 112.093 18.0231 112.223H18.014ZM2.65948 130.378L2.47766 130.661C2.85948 130.991 3.25948 131.307 3.61857 131.66C7.32312 135.283 11.6186 138.018 16.164 140.387C16.4231 140.547 16.7161 140.642 17.0183 140.662C17.3205 140.682 17.6231 140.628 17.9004 140.503C21.7095 138.878 25.5231 137.275 29.3322 135.654C29.625 135.515 29.9102 135.36 30.1868 135.19C29.8868 135.018 29.7322 134.907 29.5277 134.818C24.9215 132.642 20.4277 130.225 16.064 127.578C15.8355 127.44 15.5766 127.363 15.3113 127.354C15.046 127.345 14.7828 127.404 14.5458 127.526C10.6958 128.911 6.82312 130.243 2.66858 130.378H2.65948ZM17.0368 126.612C17.3413 126.821 17.4913 126.927 17.6322 127.02C21.9595 129.584 26.4049 131.92 30.9458 134.066C31.1976 134.204 31.4805 134.272 31.7662 134.263C32.0519 134.254 32.3302 134.169 32.5731 134.015C36.2896 131.923 39.8877 129.619 43.3504 127.113C43.514 126.992 43.6549 126.834 43.8049 126.704C43.7413 126.612 43.7322 126.565 43.7095 126.56C39.0224 125.134 34.4511 123.338 30.0368 121.187C29.8906 121.13 29.7347 121.104 29.5785 121.11C29.4223 121.117 29.2689 121.155 29.1277 121.224C25.2023 123.249 21.1686 125.048 17.0458 126.612H17.0368ZM15.2186 154.014C16.3413 154.529 17.3458 155.022 18.3731 155.458C22.464 157.181 26.7958 158.133 31.064 159.271C31.5481 159.41 32.0646 159.371 32.5231 159.16C36.3737 157.53 40.1111 155.633 43.7095 153.484C44.014 153.299 44.314 153.099 44.6867 152.857C44.4004 152.732 44.2322 152.63 44.0049 152.56C39.8186 151.134 35.614 149.773 31.4504 148.255C30.9728 148.06 30.46 147.972 29.9465 147.997C29.4329 148.022 28.9305 148.159 28.4731 148.399C24.3049 150.382 20.1368 152.374 15.7049 153.698C15.5321 153.792 15.3704 153.905 15.2231 154.037L15.2186 154.014ZM28.2458 120.328C27.8322 120.068 27.6868 119.961 27.5322 119.863C23.8848 117.943 20.3988 115.718 17.1095 113.212C16.9284 113.034 16.6987 112.915 16.4506 112.872C16.2024 112.829 15.9473 112.863 15.7186 112.971C15.4825 113.068 15.2412 113.152 14.9958 113.222C11.814 114.234 8.6322 115.242 5.30038 115.641C4.45947 115.744 3.62766 115.92 2.52312 116.106C3.57766 117.1 4.36857 118.043 5.33221 118.725C8.51402 120.996 11.764 123.165 14.9822 125.39C15.1739 125.528 15.3988 125.61 15.6326 125.627C15.8664 125.644 16.1004 125.596 16.3095 125.488C17.5504 124.981 18.8277 124.559 20.0595 124.006C22.714 122.85 25.3504 121.633 28.2458 120.328ZM57.114 142.537C56.464 142.454 56.0368 142.384 55.6095 142.352C55.0322 142.305 54.4458 142.314 53.8686 142.249C50.8794 141.905 47.9207 141.326 45.0186 140.517C44.763 140.445 44.4954 140.428 44.2331 140.468C43.9708 140.508 43.7196 140.604 43.4958 140.749C39.8322 142.709 36.1595 144.646 32.4913 146.592C32.2958 146.699 32.114 146.838 31.8322 147.024C32.1004 147.14 32.2231 147.21 32.3595 147.256C36.7231 148.727 41.0898 150.202 45.4595 151.682C45.7059 151.79 45.9764 151.826 46.2416 151.787C46.5068 151.749 46.7566 151.637 46.964 151.464C49.0095 149.862 51.1095 148.329 53.1186 146.68C54.5884 145.444 55.9275 144.054 57.114 142.533V142.537ZM43.4777 95.0154C39.5649 93.3524 35.793 91.3625 32.2004 89.0658C31.6777 88.7221 31.3549 88.9497 30.9367 89.2191C28.3867 90.8539 25.8231 92.4702 23.264 94.0958C23.0549 94.2258 22.8549 94.3698 22.6458 94.5045C22.6861 94.584 22.7349 94.6588 22.7913 94.7274C26.0419 97.4565 29.4694 99.9579 33.0504 102.214C33.2403 102.353 33.4721 102.419 33.705 102.4C33.9379 102.382 34.1568 102.28 34.3231 102.112C36.7686 100.254 39.2277 98.3965 41.6686 96.5387C42.2458 96.1068 42.7731 95.6052 43.4595 95.0107L43.4777 95.0154ZM44.9049 95.6656L35.0686 103.366C35.1622 103.456 35.2625 103.538 35.3686 103.612C38.5771 105.559 41.9192 107.266 45.3686 108.721C45.5777 108.819 45.8117 108.848 46.0376 108.803C46.2635 108.758 46.4698 108.641 46.6277 108.47C49.6979 105.975 52.5357 103.195 55.1049 100.166C55.2031 100.028 55.2926 99.8837 55.3731 99.7341L44.9049 95.6656ZM42.1277 79.2057C39.3373 82.448 36.2064 85.3667 32.7913 87.9094C36.5258 90.3082 40.4609 92.3645 44.5504 94.054C46.9303 91.9743 49.0658 89.6192 50.914 87.0362C48.5859 83.788 45.578 81.1113 42.1095 79.201L42.1277 79.2057ZM20.0458 165.286C20.6231 165.532 20.9549 165.685 21.2777 165.815C26.3958 167.859 31.7322 168.978 37.1277 169.958C37.663 170.067 38.2185 169.978 38.6958 169.707C41.6277 168.086 44.5731 166.493 47.5095 164.886C47.7822 164.738 48.0277 164.547 48.4186 164.278C47.4231 164.092 46.6004 163.962 45.8186 163.79C41.4958 162.861 37.1822 161.979 32.8549 161.032C32.226 160.885 31.5674 160.95 30.9777 161.217C29.1368 161.993 27.2822 162.741 25.414 163.437C23.7413 164.06 22.0049 164.608 20.0277 165.281L20.0458 165.286ZM28.2277 147.126L27.3186 146.754C24.1368 145.384 20.9549 144.033 17.814 142.626C17.2281 142.348 16.5614 142.304 15.9458 142.505C11.9186 143.652 7.96857 145.161 3.4822 145.343C4.36692 146.292 5.30486 147.189 6.29129 148.027C8.3322 149.564 10.4731 150.972 12.5458 152.463C12.8309 152.679 13.1645 152.82 13.5162 152.871C13.868 152.922 14.2266 152.882 14.5595 152.755C18.2278 151.587 21.8147 150.167 25.2959 148.505C26.2186 148.074 27.1368 147.637 28.2277 147.121V147.126ZM33.3277 135.102C36.64 136.561 40.0447 137.792 43.5186 138.785C43.7097 138.834 43.9091 138.841 44.1029 138.804C44.2967 138.767 44.4804 138.687 44.6413 138.571C48.6219 136.256 52.3346 133.491 55.7095 130.327C55.964 130.081 56.2049 129.812 56.5231 129.477C56.1004 129.375 55.8004 129.296 55.4958 129.231C52.514 128.609 49.5277 128.028 46.5595 127.336C46.2555 127.242 45.9338 127.223 45.6214 127.282C45.309 127.341 45.015 127.476 44.764 127.675C41.5033 130.094 38.1098 132.321 34.6004 134.345C34.2231 134.558 33.8504 134.786 33.3277 135.097V135.102ZM40.5322 197.89C40.8049 198.025 40.9868 198.131 41.1731 198.206C45.3018 199.712 49.5328 200.907 53.8322 201.782C54.1113 201.851 54.403 201.844 54.6787 201.762C54.9545 201.681 55.2047 201.528 55.4049 201.317C58.0989 198.767 60.5577 195.968 62.7504 192.957C62.8528 192.785 62.9352 192.601 62.9958 192.409C62.6686 192.409 62.4549 192.409 62.2413 192.409C58.2117 192.465 54.1833 192.228 50.1868 191.699C49.8729 191.65 49.5526 191.669 49.246 191.753C48.9394 191.836 48.6531 191.984 48.4049 192.186C46.0186 193.937 43.6049 195.651 41.2004 197.384C41.014 197.542 40.8049 197.695 40.5322 197.89ZM79.8231 204.68C78.7595 204.75 77.8277 204.87 76.8959 204.861C74.6459 204.861 72.3958 204.791 70.1458 204.708C69.8642 204.674 69.5789 204.72 69.3214 204.841C69.0638 204.962 68.8442 205.154 68.6868 205.395C66.5659 208.272 64.1758 210.93 61.5504 213.333C61.3944 213.502 61.2502 213.682 61.1186 213.871C66.247 214.902 71.4843 215.252 76.7004 214.912C78.4401 211.771 79.5047 208.288 79.8231 204.694V204.68ZM27.0095 176.525C27.464 176.683 27.7368 176.795 28.0322 176.892C32.826 178.453 37.7256 179.651 42.6913 180.478C43.0036 180.542 43.3253 180.541 43.6375 180.477C43.9497 180.412 44.2461 180.285 44.5095 180.102C47.2036 178.42 49.7563 176.512 52.1413 174.398C52.3437 174.246 52.5581 174.111 52.7822 173.994L52.6231 173.739C52.2777 173.669 51.9368 173.585 51.5913 173.53C47.4368 172.898 43.2822 172.294 39.1322 171.621C38.4639 171.492 37.7729 171.59 37.164 171.9C35.0731 172.926 32.9595 173.892 30.8413 174.863C29.6231 175.42 28.3822 175.931 27.0095 176.525ZM58.5913 155.718C57.4368 155.579 56.4186 155.528 55.4322 155.324C52.7049 154.752 49.9777 154.125 47.2504 153.498C47.0095 153.429 46.7569 153.413 46.5093 153.45C46.2618 153.488 46.0248 153.579 45.814 153.717C42.3279 155.92 38.6895 157.862 34.9277 159.527C34.7186 159.62 34.5277 159.764 34.1822 159.991C34.4822 160.089 34.6049 160.14 34.7322 160.168C37.7777 160.827 40.8186 161.515 43.8731 162.123C45.7913 162.508 47.7277 162.801 49.664 163.084C50.0515 163.137 50.4452 163.06 50.7868 162.866C53.8011 161.001 56.448 158.577 58.5913 155.718V155.718ZM45.4095 209.422C46.0186 209.705 46.4095 209.886 46.8095 210.063C50.5504 211.61 54.4549 212.552 58.3822 213.421C58.6937 213.498 59.0196 213.49 59.3269 213.397C59.6343 213.304 59.9121 213.129 60.1322 212.891C62.6991 210.596 65.0517 208.061 67.1595 205.321C67.2876 205.123 67.403 204.917 67.5049 204.703C66.6458 204.634 65.8913 204.582 65.1368 204.504C62.1095 204.183 59.0777 203.895 56.0459 203.496C55.7346 203.43 55.4126 203.437 55.1046 203.518C54.7966 203.598 54.5106 203.749 54.2686 203.96C51.7781 206.064 49.008 207.797 46.0413 209.106C45.9004 209.153 45.7549 209.241 45.4049 209.422H45.4095ZM16.6504 179.154C17.1049 179.902 17.4731 180.441 17.7822 181.012C17.9041 181.239 18.0697 181.438 18.2689 181.597C18.4681 181.757 18.6968 181.874 18.9413 181.941C19.8504 182.252 20.7004 182.633 21.5822 182.967C24.8004 184.198 28.0277 185.42 31.2458 186.655C31.5266 186.777 31.831 186.83 32.1354 186.812C32.4397 186.793 32.7358 186.703 33.0004 186.548C35.7277 185.048 38.4549 183.594 41.1822 182.117C41.3971 181.977 41.6022 181.822 41.7958 181.653L39.5231 181.212C34.7876 180.298 30.1214 179.042 25.5595 177.454C25.1861 177.338 24.7874 177.338 24.414 177.454C21.902 178.342 19.2933 178.913 16.6459 179.154H16.6504ZM35.614 171.259L35.5686 171.022C34.9367 170.892 34.3049 170.757 33.6686 170.632C28.4277 169.614 23.2731 168.272 18.3913 165.987C18.0306 165.848 17.6411 165.805 17.2595 165.862C15.9277 166.02 14.6049 166.257 13.2777 166.419C12.2868 166.54 11.2913 166.586 10.1958 166.675C10.307 167.059 10.4691 167.426 10.6777 167.766C11.0172 168.077 11.3722 168.37 11.7413 168.644C13.0467 169.881 14.4917 170.956 16.0458 171.844C18.7267 173.321 21.5135 174.588 24.3822 175.634C24.601 175.72 24.8348 175.76 25.0692 175.751C25.3036 175.742 25.5338 175.685 25.7458 175.583C27.9549 174.654 30.1686 173.725 32.3731 172.768C33.4595 172.29 34.5277 171.751 35.6095 171.24L35.614 171.259ZM42.3458 139.834L41.7322 139.611C38.7095 138.487 35.6731 137.396 32.6686 136.212C32.3951 136.095 32.0998 136.041 31.8036 136.053C31.5075 136.066 31.2177 136.146 30.9549 136.286C27.4822 137.856 23.9868 139.379 20.5004 140.907C19.9822 141.135 19.4458 141.316 18.7822 141.571C18.9598 141.698 19.145 141.812 19.3368 141.915C22.6822 143.308 26.0322 144.702 29.3686 146.141C29.5666 146.226 29.7813 146.262 29.9954 146.246C30.2094 146.23 30.4167 146.162 30.6004 146.049L41.6368 140.331C41.8815 140.178 42.1182 140.013 42.3458 139.834V139.834ZM56.4686 202.149C56.5881 202.204 56.7111 202.25 56.8368 202.288C60.5581 202.878 64.3099 203.245 68.0731 203.389C68.5822 203.417 68.7595 203.087 68.9822 202.748C70.9328 199.84 72.3882 196.616 73.2868 193.213C73.4186 192.693 73.4731 192.154 73.5731 191.559C73.1959 191.559 72.9504 191.559 72.7095 191.559C70.4004 191.773 68.1004 192.024 65.7868 192.196C65.487 192.194 65.1915 192.269 64.9266 192.412C64.6618 192.555 64.4357 192.764 64.2686 193.018C62.0841 196.117 59.6253 199.004 56.9231 201.643C56.7868 201.787 56.6549 201.954 56.4686 202.149ZM21.6731 80.7151C18.8634 82.4191 16.339 84.572 14.1958 87.0919L21.3868 93.6406C24.5201 91.9183 27.5553 90.0157 30.4777 87.9419C27.3369 85.8112 24.3929 83.3923 21.6822 80.7151H21.6731ZM6.92311 156.039L6.77312 156.359C7.07425 156.565 7.36267 156.79 7.63675 157.033C10.4305 159.747 13.5879 162.041 17.014 163.846C17.3392 164.033 17.6978 164.152 18.0687 164.195C18.4396 164.238 18.8151 164.205 19.1731 164.097C22.5566 163.139 25.8782 161.967 29.1186 160.586C29.278 160.495 29.43 160.39 29.5731 160.274C28.5458 159.991 27.664 159.726 26.7686 159.504C22.2868 158.393 17.9004 157.019 13.8458 154.72C13.6348 154.615 13.4055 154.555 13.1714 154.542C12.9372 154.529 12.7029 154.565 12.4822 154.645C10.9686 155.008 9.45039 155.356 7.93676 155.723C7.60494 155.807 7.27766 155.932 6.92311 156.039ZM34.2368 187.528L36.964 188.229C40.6549 189.158 44.4277 189.623 48.1822 190.189C48.395 190.227 48.6135 190.213 48.8197 190.147C49.026 190.082 49.2141 189.967 49.3686 189.813C51.4231 187.955 53.4913 186.098 55.5504 184.212C55.6955 184.047 55.8221 183.867 55.9277 183.673C52.0186 183.125 48.2004 182.582 44.3504 182.071C44.0356 182.042 43.7195 182.108 43.4413 182.261C40.4443 183.915 37.4564 185.579 34.4777 187.254C34.4231 187.287 34.3913 187.361 34.2549 187.528H34.2368ZM31.5459 87.1105C34.7822 84.9973 39.614 80.4643 40.7004 78.509C34.4958 75.8106 28.6822 77.1807 22.814 80.0324C25.5032 82.6714 28.4332 85.0415 31.564 87.1105H31.5459ZM71.5459 223.704C72.9338 223.896 74.3318 224.003 75.7322 224.024C78.8108 223.923 81.8773 223.581 84.9049 223.002C85.1536 222.966 85.3874 222.859 85.5807 222.696C85.774 222.532 85.9192 222.316 86.0004 222.073C86.8289 220.254 87.4438 218.342 87.8322 216.375C87.9413 215.78 87.9777 215.167 88.0549 214.517C87.7095 214.545 87.5277 214.517 87.3549 214.573C84.366 215.314 81.3274 215.828 78.264 216.11C78.0124 216.121 77.7687 216.204 77.5601 216.348C77.3515 216.492 77.1861 216.693 77.0822 216.927C75.7646 219.368 74.0027 221.53 71.8913 223.295C71.7769 223.422 71.6735 223.559 71.5822 223.704H71.5459ZM25.2549 190.552C25.5913 190.77 25.7095 190.858 25.8322 190.919C29.9807 192.944 34.1292 194.973 38.2777 197.007C38.4992 197.129 38.7517 197.179 39.0017 197.151C39.2517 197.123 39.4875 197.018 39.6777 196.849C42.0322 195.182 44.3913 193.524 46.7458 191.852C46.9116 191.713 47.0638 191.557 47.2004 191.388C46.7004 191.295 46.2913 191.197 45.9186 191.151C41.5643 190.64 37.2587 189.762 33.0458 188.527C32.5251 188.367 31.9654 188.403 31.4686 188.629C29.4881 189.543 27.3992 190.19 25.2549 190.552V190.552ZM60.3277 165.007C59.7504 165.007 59.3231 165.007 58.8958 165.007C56.5419 165.067 54.1869 164.947 51.8504 164.65C51.2495 164.504 50.6181 164.571 50.0595 164.84C46.9958 166.591 43.9049 168.295 40.8277 170.023C40.6415 170.149 40.4624 170.285 40.2913 170.432C40.4216 170.496 40.5569 170.549 40.6958 170.59C42.9458 170.957 45.1913 171.351 47.4458 171.677C49.4504 171.969 51.464 172.206 53.4777 172.42C53.824 172.464 54.1738 172.371 54.4549 172.16C56.675 170.016 58.6456 167.617 60.3277 165.012V165.007ZM53.2868 202.999C52.2231 202.753 51.3413 202.562 50.4595 202.349C46.7917 201.503 43.1907 200.379 39.6867 198.986C39.4919 198.89 39.2753 198.848 39.0595 198.866C38.8437 198.884 38.6365 198.961 38.4595 199.088C37.514 199.701 36.5367 200.272 35.5822 200.867C35.3504 201.016 35.1277 201.197 34.7822 201.471C37.5095 203.709 40.1368 205.855 42.7322 208.043C42.9649 208.268 43.2601 208.415 43.5775 208.462C43.8949 208.51 44.2188 208.455 44.5049 208.307C47.4425 207.132 50.1983 205.528 52.6868 203.547C52.8595 203.463 53.0049 203.282 53.2868 202.999ZM75.8686 216.291C75.4868 216.291 75.2459 216.291 75.0095 216.291C70.256 216.471 65.4982 216.084 60.8322 215.139C60.417 215.036 59.9845 215.029 59.5661 215.118C59.1478 215.207 58.7542 215.391 58.414 215.655C57.7277 216.152 56.9504 216.523 56.114 217.016C60.4489 219.477 64.9568 221.605 69.6004 223.383C72.2201 221.578 74.3725 219.151 75.8731 216.31L75.8686 216.291ZM68.5322 183.78C65.1913 183.78 62.0822 183.813 58.9868 183.757C58.6355 183.732 58.2831 183.785 57.9541 183.913C57.6251 184.042 57.3276 184.242 57.0822 184.5C55.2004 186.358 53.2413 188.109 51.314 189.906C51.1686 190.045 51.0368 190.208 50.8595 190.412C51.2038 190.505 51.5528 190.577 51.9049 190.631C55.0755 190.971 58.2625 191.126 61.4504 191.095C62.3595 191.067 63.3913 191.262 64.0958 190.858C64.8004 190.454 65.214 189.465 65.6868 188.666C66.6322 187.087 67.5549 185.466 68.5368 183.78H68.5322ZM45.6913 180.97C46.6731 181.114 47.3822 181.235 48.0958 181.318C50.9004 181.653 53.7095 181.95 56.5095 182.322C56.7532 182.372 57.0057 182.356 57.2412 182.274C57.4767 182.192 57.6869 182.049 57.8504 181.857C59.8467 179.856 61.6141 177.629 63.1186 175.22C63.264 174.983 63.3731 174.723 63.4913 174.491C60.6413 174.301 57.864 174.124 55.0822 173.92C54.8671 173.915 54.6538 173.96 54.4579 174.051C54.262 174.142 54.0885 174.276 53.9504 174.445C51.6313 176.64 49.1277 178.623 46.4686 180.371C46.2731 180.501 46.0868 180.664 45.6958 180.97H45.6913ZM5.53221 102.479C4.30948 104.769 2.21857 112.957 2.31857 114.787C6.69043 114.298 10.9902 113.282 15.1277 111.759C11.6958 108.847 8.25948 106.111 5.55948 102.488L5.53221 102.479ZM13.9186 126.296C9.76403 123.402 5.4322 121.047 1.97311 117.388C1.43674 119.078 1.06403 127.503 1.44585 128.999C3.90039 129.496 10.0549 127.949 13.9231 126.305L13.9186 126.296ZM14.9958 141.362C12.6004 139.857 10.1777 138.501 7.93676 136.88C5.69585 135.259 3.65948 133.383 1.45493 131.558C1.70196 135.754 2.26268 139.924 3.13221 144.033C6.36857 144.172 12.4413 142.249 15.0004 141.372L14.9958 141.362ZM58.1777 129.691C54.4689 133.452 50.2976 136.706 45.7686 139.37L48.264 139.96C51.2679 140.651 54.3279 141.057 57.4049 141.172C58.3958 141.223 58.4777 141.102 58.4595 140.122C58.3928 136.862 58.3201 133.601 58.2413 130.341C58.2368 130.22 58.214 130.081 58.1686 129.7L58.1777 129.691ZM13.4504 88.1416C11.4958 89.9436 6.88675 97.946 6.66857 99.9617C11.3077 98.4394 15.8217 96.5448 20.1686 94.2955L13.4504 88.1416ZM58.1004 115.367C57.764 115.762 57.564 115.999 57.3549 116.231C55.964 117.792 54.6595 119.445 53.1504 120.876C51.4004 122.538 49.4731 124.001 47.6277 125.562C47.4372 125.744 47.2581 125.938 47.0913 126.142C48.1095 126.393 48.9731 126.658 49.8595 126.821C52.2413 127.285 54.6277 127.703 57.0231 128.061C58.0231 128.214 58.2413 127.94 58.2413 126.89C58.2413 123.588 58.2413 120.286 58.2049 116.988C58.1913 116.533 58.1368 116.064 58.0913 115.377L58.1004 115.367ZM56.614 100.556L47.614 109.52C49.9595 110.793 56.7322 112.929 58.0413 112.771C57.956 108.664 57.4749 104.576 56.6049 100.565L56.614 100.556ZM58.5413 142.821C55.5595 146.662 51.9231 149.532 47.9822 152.374C51.964 153.461 55.7095 154.353 59.5731 154.371C59.2277 150.516 58.8913 146.801 58.5322 142.821H58.5413ZM93.8186 228.144C95.0959 225.673 96.5459 223.314 96.0913 220.248C95.2748 220.728 94.4325 221.161 93.5686 221.544C91.4686 222.338 89.3413 223.058 87.2049 223.783C86.8595 223.899 86.5277 223.941 86.3322 224.335C85.8777 225.264 85.3504 226.193 84.7731 227.308C87.8322 227.679 90.7868 228.181 93.8095 228.144H93.8186ZM97.3913 219.565C97.8459 222.854 96.6822 225.543 95.2595 228.19C96.9686 228.441 101.2 228.348 102.314 228.028C102.614 226.815 102.955 225.538 103.223 224.247C103.307 223.774 103.307 223.29 103.223 222.817C103.199 222.675 103.146 222.541 103.067 222.422C102.989 222.302 102.887 222.201 102.769 222.125C101.069 221.279 99.3277 220.48 97.3777 219.565H97.3913ZM45.9322 94.6299C49.264 96.0232 52.5413 97.2865 56.0731 98.5451C55.0649 94.9386 53.5881 91.4865 51.6822 88.2809C50.7095 89.4234 49.8368 90.501 48.9095 91.532C47.9822 92.5631 46.9868 93.5291 45.9231 94.6345L45.9322 94.6299ZM59.1958 182.322C61.4913 182.879 67.9458 182.628 69.3049 181.969L65.464 173.915C63.7429 176.985 61.6355 179.811 59.1958 182.322V182.322ZM74.4277 194.077C73.4487 197.412 71.9821 200.576 70.0777 203.463C73.3322 203.598 76.3504 203.719 79.3595 203.389L74.4277 194.077ZM81.0459 205.688C80.6302 208.878 79.6897 211.973 78.264 214.842C81.5534 214.477 84.8152 213.887 88.0277 213.077L81.0459 205.688ZM62.2231 164.859L56.0822 172.68C56.2286 172.741 56.381 172.786 56.5368 172.814C58.964 172.903 61.3958 173.01 63.8095 173.061C64.8504 173.084 64.9822 172.791 64.6186 171.756C63.914 169.731 63.2277 167.701 62.5322 165.676C62.4231 165.379 62.314 165.137 62.2049 164.845L62.2231 164.859ZM59.914 156.22C57.8349 158.961 55.3415 161.345 52.5277 163.284C52.6913 163.405 52.7413 163.475 52.7959 163.479C55.0413 163.558 57.2868 163.642 59.5322 163.693C60.0296 163.673 60.5249 163.615 61.014 163.521C61.1149 163.522 61.2145 163.498 61.304 163.451C61.3935 163.403 61.4702 163.334 61.5272 163.249C61.5843 163.164 61.62 163.066 61.6312 162.963C61.6424 162.861 61.6287 162.757 61.5913 162.662C61.0686 160.59 60.514 158.524 59.8959 156.206L59.914 156.22ZM89.3504 214.145C89.2231 217.025 88.4049 219.64 87.3277 222.403C90.4822 221.563 93.2822 220.545 95.8731 218.767L89.3504 214.145ZM73.0368 190.073C72.6504 188.764 72.2186 187.472 71.8913 186.149C71.614 185.025 70.8868 184.244 70.2368 183.325L65.9277 190.844C68.0822 190.923 71.5686 190.552 73.0368 190.083V190.073ZM103.741 227.991C104.8 228.209 112.491 227.062 113.8 226.597C113.878 226.003 113.409 225.975 113.05 225.849C110.323 224.921 107.588 223.984 104.846 223.04C104.824 223.033 104.8 223.033 104.778 223.04C104.409 224.693 104.069 226.342 103.741 227.991ZM22.9095 176.488C19.1459 174.923 15.5186 173.381 12.2822 170.994C13.3626 173.415 14.6033 175.758 15.9958 178.007C18.3549 177.64 20.6231 177.422 22.9095 176.488ZM23.7413 189.53C26.014 189.028 28.1686 188.815 30.0686 187.7L19.6504 183.655L19.5413 183.789L23.7413 189.53ZM33.8459 200.44L37.5913 198.117L26.8595 192.967C28.9864 195.645 31.3179 198.147 33.8322 200.449L33.8459 200.44ZM15.7186 164.914V164.566C12.5936 162.892 9.70141 160.799 7.11857 158.342L6.90948 158.524C7.77766 160.781 8.6413 163.043 9.5413 165.379L15.7186 164.914ZM11.5186 153.47L3.90948 147.897L5.87767 155.268C7.62312 154.06 9.72311 154.344 11.5186 153.48V153.47ZM76.2549 225.371C77.164 225.919 82.0913 226.992 83.8504 227.02C83.6186 225.975 84.7049 225.376 84.7595 224.461L76.2549 225.371ZM57.4777 214.61L48.8413 212.315L48.7595 212.478L55.3004 216.612C55.5595 215.279 56.9231 215.446 57.4777 214.61Z" fill="#F5F5F5"/>
<path d="M185.959 67.8897C185.904 65.8647 186.414 64.6385 187.723 63.7097C190.732 61.5918 193.882 59.7758 197.482 58.9723C200.117 58.4338 202.815 58.2929 205.491 58.5543C208.459 58.7826 211.386 59.4072 214.195 60.4121C216.227 61.1322 218.086 62.2846 219.65 63.7933C220.18 64.2454 220.568 64.8482 220.763 65.5253C220.958 66.2024 220.952 66.9234 220.745 67.5971C219.694 71.9979 218.078 76.2377 215.941 80.2068C214.959 82.0181 213.845 83.7598 212.704 85.4736C212.331 86.0957 211.807 86.6088 211.182 86.9636C210.558 87.3183 209.855 87.5025 209.141 87.4986C208.416 87.4927 207.693 87.407 206.986 87.2431C199.997 85.7245 193.735 81.7871 189.259 76.0964C187.398 73.7493 186.25 70.8961 185.959 67.8897V67.8897ZM209.195 86.2214C209.594 84.5335 209.747 82.7948 209.65 81.0614C209.618 80.0953 209.614 79.1293 209.65 78.1679C209.814 75.7221 209.763 73.2663 209.5 70.8296C209.136 67.6946 208.286 64.7268 206.468 62.1166C205.559 60.8347 204.436 59.7944 202.832 59.7665C201.462 59.7379 200.093 59.8358 198.741 60.0591C195.104 60.635 191.991 62.4324 188.941 64.4203C187.491 65.3491 187.145 66.645 187.364 68.2334C187.406 68.6032 187.467 68.9705 187.545 69.3341C187.928 70.9003 188.527 72.403 189.323 73.7974C189.564 73.333 189.727 73.0079 189.904 72.6874C190.134 72.2211 190.476 71.8221 190.899 71.528C191.321 71.2339 191.809 71.0543 192.318 71.0061C193.003 70.9069 193.7 70.9482 194.369 71.1276C195.038 71.307 195.665 71.621 196.214 72.0511C197.235 72.8233 198.161 73.7184 198.973 74.717C201.2 77.6245 203.304 80.6248 203.064 84.6887C205.004 85.4457 207.009 86.1238 209.195 86.2214ZM206.65 59.9476C206.9 60.3285 207.014 60.5143 207.141 60.6907C208.539 62.6853 209.563 64.9279 210.159 67.3045C210.945 70.6659 211.223 74.1307 210.982 77.578C210.936 78.5394 210.909 79.5055 210.886 80.4669C210.85 81.9113 210.823 83.3557 210.795 84.8002C210.795 85.0277 210.795 85.2646 210.795 85.7616C211.354 85.0788 211.75 84.6051 212.127 84.1221C212.218 84.0106 212.341 83.8295 212.304 83.7366C211.982 82.8866 212.45 82.1342 212.604 81.3679C213.203 78.0017 214.453 74.7916 216.282 71.9257C216.852 70.9661 217.629 70.1526 218.554 69.5477C218.765 69.4154 218.925 69.214 219.009 68.9765C219.232 68.2008 219.414 67.4066 219.577 66.6078C219.642 66.3338 219.628 66.0464 219.537 65.7802C219.446 65.5141 219.282 65.2805 219.064 65.1076C218.05 64.2763 217.095 63.3102 215.968 62.6879C213.123 61.1041 210.009 60.4121 206.65 59.9476Z" fill="#F5F5F5"/>
<path d="M163.286 57.5543C163.262 56.9277 163.362 56.3026 163.581 55.7167C163.8 55.1308 164.133 54.5962 164.559 54.1452C165.554 53.1358 166.825 52.458 168.204 52.201C169.583 51.944 171.007 52.1198 172.286 52.7054C175.045 54.0988 175.6 57.2524 173.486 59.5422C172.497 60.5616 171.226 61.246 169.844 61.5027C168.462 61.7594 167.036 61.576 165.759 60.9773C164.232 60.1877 163.286 58.9616 163.286 57.5543Z" fill="#F5F5F5"/>
<path d="M217.405 53.1195C217.884 53.1201 218.359 53.2204 218.8 53.4143C219.241 53.6082 219.639 53.8916 219.969 54.2474C220.299 54.6032 220.555 55.0238 220.722 55.4838C220.888 55.9438 220.961 56.4336 220.936 56.9233C220.948 57.8363 220.608 58.7174 219.992 59.3781C219.375 60.0387 218.529 60.4263 217.636 60.4578C216.664 60.4359 215.738 60.0254 215.058 59.3142C214.379 58.6031 213.999 57.648 214 56.6539C214.023 54.4432 215.786 52.9802 217.405 53.1195Z" fill="#F5F5F5"/>
</svg>
