<svg width="242" height="169" viewBox="0 0 242 169" fill="none" xmlns="http://www.w3.org/2000/svg">
<path d="M205.999 167.619H205.067C201.767 167.648 198.464 167.689 195.162 167.708C192.903 167.708 190.641 167.708 188.382 167.708C184.964 167.724 181.528 167.762 178.098 167.784L150.007 167.962L122.755 168.131L94.6646 168.303C89.7959 168.331 84.9272 168.347 80.0616 168.376C75.7118 168.401 71.3619 168.432 67.0121 168.468L41.1553 168.63C31.3433 168.689 21.5324 168.746 11.7224 168.799L3.37694 168.85H2.92953C1.91042 168.85 1.73021 168.652 1.68671 167.594C1.68671 167.063 1.66496 166.529 1.66185 166.004C1.61214 157.973 1.56243 149.943 1.51272 141.915C1.48579 137.546 1.45679 133.176 1.42571 128.803C1.36772 119.632 1.31282 110.46 1.26103 101.287C1.20511 91.6048 1.14919 81.9239 1.09326 72.244C1.07462 69.5766 1.00936 66.9092 0.990723 64.2418C0.990723 62.8206 1.02491 61.3804 1.05909 59.9752C1.05909 59.5237 1.14297 59.0755 1.16472 58.624C1.2455 56.7991 1.24551 54.9678 1.40707 53.1525C1.74574 49.3596 2.07819 45.5604 2.57221 41.7866C3.68142 33.282 5.36853 24.9078 8.37303 16.8547C9.49734 13.673 10.9978 10.6439 12.8409 7.83508C13.7071 6.52972 14.7359 5.34552 15.9014 4.31244C16.6601 3.61189 17.5723 3.10814 18.561 2.84361C19.2073 2.68464 19.8038 2.3381 20.4439 2.12827C20.9104 1.96411 21.3943 1.85739 21.8855 1.81034C22.6498 1.75948 23.439 1.79128 24.1941 1.7881C32.3407 1.74994 40.4884 1.71179 48.6371 1.67364C55.4912 1.64502 62.3484 1.63549 69.2025 1.60369C75.1649 1.57826 81.1242 1.53375 87.0866 1.50832C94.065 1.47653 101.044 1.45003 108.025 1.42884C113.839 1.40764 119.651 1.37797 125.462 1.33982L163.016 1.17132L202.211 0.99645C209.289 0.968896 216.368 0.946644 223.448 0.929688C223.888 0.964923 224.324 1.03616 224.753 1.1427C224.898 1.17426 225.044 1.19656 225.191 1.20947C227.018 1.26033 228.547 2.0329 229.898 3.23466C231.213 4.44385 232.331 5.85937 233.21 7.42813C235.053 10.5661 236.317 13.9584 237.343 17.4428C238.792 22.4116 239.842 27.4931 240.484 32.6366C240.711 34.3979 240.847 36.172 241.028 37.9396C241.046 38.1145 241.062 38.2925 241.09 38.4674C241.341 40.057 241.643 41.6657 241.835 43.2776C241.924 44.2891 241.958 45.3049 241.938 46.3202C241.938 47.3376 241.938 48.3518 241.938 49.3691C241.938 51.7059 242.009 54.0427 241.991 56.3635C241.972 58.8784 242.016 61.4027 241.807 63.9048C241.332 69.6593 241.466 75.4233 241.326 81.1842C241.254 84.0455 241.214 86.9068 241.158 89.7936C241.102 92.5384 241.047 95.2821 240.993 98.0248C240.877 103.714 240.764 109.402 240.652 115.091C240.58 118.588 240.493 122.086 240.425 125.605C240.327 130.431 240.242 135.258 240.167 140.087C240.168 140.389 240.098 140.688 239.963 140.958C239.829 141.228 239.633 141.461 239.393 141.638C234.089 146.127 228.786 150.613 223.485 155.096C218.266 159.519 213.033 163.935 207.789 168.344C207.627 168.501 207.453 168.642 207.267 168.767C206.732 169.066 206.294 168.869 206.129 168.268C206.074 168.093 206.055 167.915 205.999 167.619ZM3.10972 167.406H4.16301L31.0637 167.225L58.7163 167.047L86.8815 166.866L114.074 166.697L141.792 166.525C150.958 166.47 160.124 166.415 169.289 166.36L204.756 166.176C205.03 166.176 205.303 166.176 205.576 166.176C205.764 166.151 205.95 166.113 206.133 166.061C206.133 165.743 206.133 165.476 206.133 165.203C206.133 162.659 206.101 160.116 206.092 157.573C206.058 148.4 205.962 139.228 206.011 130.056C206.058 121.749 205.741 113.441 206.164 105.134C206.338 101.716 206.108 98.2759 206.105 94.8487C206.105 91.9873 206.176 89.1578 206.185 86.3123C206.2 80.7232 206.2 75.1329 206.185 69.5416C206.185 66.7969 206.152 64.0532 206.086 61.3105C206.073 60.7548 205.975 60.2046 205.797 59.6795C205.576 59.0437 205.085 58.8275 204.421 58.9292C204.08 58.9932 203.735 59.0335 203.389 59.05C196.237 59.1136 189.084 59.1708 181.932 59.2217C172.692 59.2853 163.452 59.3446 154.214 59.3998L124.697 59.5714C124.408 59.5714 124.119 59.6064 123.806 59.6223C123.806 59.848 123.774 59.9943 123.784 60.1405C123.92 62.0481 124.076 63.9366 124.2 65.8378C124.469 69.1817 124.512 72.5406 124.331 75.8907C124.261 77.5713 123.867 79.2212 123.172 80.7454C122.848 81.4672 122.375 82.1082 121.785 82.6238C121.194 83.1393 120.501 83.5171 119.754 83.7308C119.015 83.9494 118.259 84.1067 117.495 84.2013C113.773 84.611 110.031 84.801 106.288 84.7704C104.177 84.7971 102.068 84.6482 99.9808 84.3253C97.8629 84.0061 95.8108 83.3326 93.9065 82.3319C91.2687 80.8917 89.5349 78.7234 88.8141 75.719C88.3934 73.8875 88.1705 72.0143 88.1492 70.133C88.0808 66.9315 88.1088 63.7299 88.0933 60.5284C88.0933 60.3058 88.0684 60.0865 88.0498 59.7972C87.6925 59.7781 87.3755 59.7495 87.0617 59.7526C81.7984 59.8035 76.532 59.8703 71.2687 59.9053C62.0781 59.971 52.8885 60.0271 43.7 60.0738C31.9533 60.1331 20.2046 60.185 8.45382 60.2295C6.73874 60.2295 5.03609 60.2295 3.31169 60.2295C3.05069 60.2295 2.78659 60.2613 2.45103 60.2804C2.45103 60.5983 2.45103 60.8559 2.45103 61.1038C2.48832 62.1435 2.55977 63.1799 2.56288 64.2195C2.56288 65.8473 2.51628 67.4719 2.5256 69.0965C2.5722 76.8222 2.64057 84.5447 2.69028 92.2703C2.75242 101.622 2.80938 110.971 2.86116 120.318C2.91709 129.873 2.97199 139.426 3.02584 148.979C3.0507 154.775 3.04759 160.567 3.05691 166.36C3.06001 166.672 3.08488 166.971 3.10352 167.406H3.10972ZM205.337 57.4604C205.374 57.0725 205.418 56.7514 205.437 56.424C205.561 54.3225 205.607 52.2082 205.816 50.1163C206.207 46.2248 206.614 42.3334 207.152 38.461C207.984 32.3205 209.304 26.2597 211.101 20.3392C212.393 16.133 213.937 12.0381 216.184 8.25792C217.427 6.13417 218.915 4.19799 220.891 2.71008C220.983 2.60544 221.064 2.49022 221.13 2.36672H220.198C218.064 2.39215 215.926 2.43349 213.791 2.44303L175.193 2.61471L136.976 2.78321L98.5267 2.95171C85.7361 3.0047 72.9434 3.06087 60.1486 3.12021C49.6158 3.15836 39.084 3.19333 28.5532 3.22513C26.4466 3.22513 24.3401 3.35547 22.2366 3.39044C20.9256 3.38907 19.631 3.68853 18.448 4.2668C17.2651 4.84507 16.2239 5.68743 15.4011 6.73187C14.8188 7.42575 14.2713 8.14944 13.7606 8.90013C11.9213 11.6407 10.5977 14.6546 9.46672 17.7544C7.43497 23.4346 5.93885 29.3005 4.9988 35.2722C4.3774 39.1287 3.87405 43.0106 3.39867 46.8893C3.13147 49.0798 3.08798 51.2958 2.84252 53.4927C2.69649 54.8502 2.84252 56.23 2.47278 57.578C2.24286 58.4523 2.6157 58.8497 3.53538 58.8307C5.91848 58.8084 8.30157 58.7703 10.6816 58.7512C19.2984 58.6876 27.9163 58.6272 36.5352 58.57C46.2975 58.5064 56.0598 58.4491 65.8221 58.3983L87.2823 58.2902C87.5433 58.2902 87.8012 58.2457 88.1181 58.2171V57.2283C88.1181 55.1427 88.1181 53.0603 88.1181 50.9747C88.1337 48.0815 88.1989 45.182 88.1523 42.2889C88.1299 41.1464 88.3251 40.0104 88.7271 38.9443C88.9648 38.229 89.3851 37.5917 89.9445 37.0987C90.504 36.6056 91.1822 36.2747 91.9087 36.1402C93.0987 35.889 94.2856 35.5997 95.4787 35.3708C96.3993 35.1611 97.3341 35.0229 98.275 34.9575C101.127 34.8526 103.986 34.7699 106.841 34.7826C108.577 34.8023 110.311 34.9159 112.036 35.1228C114.096 35.3243 116.092 35.9643 117.896 37.0018C119.623 38.0255 120.888 39.4562 121.488 41.405C121.885 42.6341 122.169 43.8987 122.336 45.182C122.721 48.5616 122.995 51.9539 123.315 55.3557C123.398 56.2332 123.489 57.1107 123.588 58.0772H124.62C132.174 58.02 139.725 57.9638 147.273 57.9087C156.513 57.8493 165.754 57.7932 174.994 57.7402C183.215 57.6957 191.436 57.6575 199.658 57.6257C201.369 57.6257 203.075 57.5685 204.797 57.5367C204.955 57.5208 205.092 57.4922 205.337 57.4604ZM108.398 83.3429C110.383 83.2284 113.31 83.0917 116.231 82.8724C117.269 82.7777 118.297 82.597 119.307 82.3319C119.841 82.1964 120.34 81.9433 120.77 81.5902C121.199 81.2372 121.548 80.7927 121.792 80.2876C122.262 79.3609 122.577 78.3605 122.724 77.3277C123.141 74.832 123.103 72.3108 122.985 69.8023C122.836 66.6231 122.588 63.4661 122.364 60.2995C122.337 60.0753 122.296 59.8533 122.24 59.635C122.148 59.3521 122.093 59.0582 122.075 58.7607C122.126 57.5921 122.069 56.4211 121.904 55.2635C121.621 52.6406 121.444 50.005 121.199 47.3757C121.077 45.5741 120.754 43.7926 120.236 42.0663C119.722 40.4237 118.609 39.047 117.129 38.2226C116.015 37.6005 114.82 37.1445 113.58 36.8682C111.343 36.3341 109.06 36.2324 106.776 36.1879C105.238 36.1592 103.697 36.2896 102.159 36.2483C98.7411 36.1561 95.4383 36.7919 92.1417 37.574C91.7098 37.6527 91.3048 37.8433 90.9654 38.1277C90.626 38.4121 90.3635 38.7808 90.203 39.1986C89.9213 39.9004 89.7474 40.6425 89.6872 41.3987C89.6499 42.1458 89.653 42.9057 89.6406 43.6592C89.566 48.2564 89.5474 52.8536 89.5225 57.4509C89.5225 57.7688 89.6561 58.0867 89.6779 58.4046C89.7074 58.8047 89.7074 59.2064 89.6779 59.6064C89.6499 59.953 89.5008 60.2931 89.5008 60.6333C89.5287 64.1114 89.5008 67.5959 89.6406 71.0709C89.7121 72.5711 89.9201 74.0612 90.262 75.5219C90.7809 77.8714 92.1666 79.6168 94.2017 80.8249C95.4804 81.5623 96.852 82.1165 98.2781 82.4718C101.298 83.2666 104.377 83.3206 108.401 83.3429H108.398Z" fill="#F5F5F5"/>
<path d="M104.312 77.1376H97.756C96.1839 77.1376 95.9819 76.8705 96.3734 75.3476C97.552 70.7822 98.7264 66.2147 99.8968 61.645C100.117 60.7898 100.114 60.7898 99.4431 60.2843C98.0334 59.208 97.0967 57.605 96.8371 55.8249C96.5775 54.0449 97.0162 52.232 98.0574 50.7814C99.6109 48.5877 102.743 47.5227 105.458 48.4701C106.776 48.9191 107.919 49.7865 108.721 50.9461C109.524 52.1057 109.944 53.497 109.92 54.9177C109.932 55.8488 109.745 56.7713 109.374 57.6212C109.002 58.4711 108.453 59.228 107.767 59.8392C107.592 59.9723 107.469 60.1637 107.418 60.3804C107.366 60.597 107.391 60.8251 107.487 61.025C109.024 65.688 110.551 70.3594 112.067 75.0392C112.17 75.3572 112.281 75.6751 112.353 75.993C112.505 76.6893 112.238 77.0581 111.536 77.1344C111.315 77.1567 111.088 77.1344 110.865 77.1344H104.312V77.1376Z" fill="#F5F5F5"/>
</svg>
