<svg width="1920" height="5292" viewBox="0 0 1920 5292" fill="none" xmlns="http://www.w3.org/2000/svg">
<g clip-path="url(#clip0_207_169)">
<rect width="1920" height="5292" fill="#313F86"/>
<line x1="-0.557331" y1="-0.232474" x2="1919.44" y2="3655.77" stroke="#EDF8FF"/>
<line x1="-0.52305" y1="-0.150061" x2="1664.48" y2="5291.85" stroke="#EDF8FF"/>
<line x1="-0.506848" y1="-0.0824715" x2="884.493" y2="5291.92" stroke="#EDF8FF"/>
<line x1="-0.500678" y1="35.974" x2="273.499" y2="5291.97" stroke="#EDF8FF"/>
<line x1="-0.600565" y1="-0.300751" x2="1919.4" y2="2549.7" stroke="#EDF8FF"/>
<line x1="-0.653455" y1="-0.360426" x2="2235.47" y2="2149.64" stroke="#EDF8FF"/>
<line x1="-0.731664" y1="-0.421896" x2="2414.27" y2="1535.58" stroke="#EDF8FF"/>
<line x1="-0.881874" y1="-0.485846" x2="2475.12" y2="601.514" stroke="#EDF8FF"/>
<line x1="0.0279497" y1="-0.499218" x2="2447.03" y2="136.501" stroke="#EDF8FF"/>
<line x1="-0.815989" y1="-0.464909" x2="2523.18" y2="998.535" stroke="#EDF8FF"/>
<path d="M1656.5 426.5C1656.5 1033.44 1144.78 1525.5 513.5 1525.5C-117.78 1525.5 -629.5 1033.44 -629.5 426.5C-629.5 -180.443 -117.78 -672.5 513.5 -672.5C1144.78 -672.5 1656.5 -180.443 1656.5 426.5Z" stroke="#EDF8FF"/>
<path d="M1149.5 113.5C1149.5 592.865 745.456 981.5 247 981.5C-251.456 981.5 -655.5 592.865 -655.5 113.5C-655.5 -365.865 -251.456 -754.5 247 -754.5C745.456 -754.5 1149.5 -365.865 1149.5 113.5Z" stroke="#EDF8FF"/>
<path d="M745.474 150.916C545.81 510.761 69.7814 628.223 -317.798 413.171C-705.377 198.118 -857.626 -267.951 -657.962 -627.796C-458.298 -987.64 17.7299 -1105.1 405.309 -890.05C792.888 -674.997 945.137 -208.928 745.474 150.916Z" stroke="#EDF8FF"/>
<path d="M2049.5 691C2049.5 1493.18 1373.24 2143.5 539 2143.5C-295.245 2143.5 -971.5 1493.18 -971.5 691C-971.5 -111.175 -295.245 -761.5 539 -761.5C1373.24 -761.5 2049.5 -111.175 2049.5 691Z" stroke="#EDF8FF"/>
<path d="M2939.5 839.5C2939.5 2037.94 1929.25 3009.5 683 3009.5C-563.249 3009.5 -1573.5 2037.94 -1573.5 839.5C-1573.5 -358.94 -563.249 -1330.5 683 -1330.5C1929.25 -1330.5 2939.5 -358.94 2939.5 839.5Z" stroke="#EDF8FF"/>
<path d="M3265.5 1895.5C3265.5 3160.21 2199.28 4185.5 884 4185.5C-431.285 4185.5 -1497.5 3160.21 -1497.5 1895.5C-1497.5 630.786 -431.285 -394.5 884 -394.5C2199.28 -394.5 3265.5 630.786 3265.5 1895.5Z" stroke="#EDF8FF"/>
</g>
<defs>
<clipPath id="clip0_207_169">
<rect width="1920" height="5292" fill="white"/>
</clipPath>
</defs>
</svg>
