<svg width="768" height="754" viewBox="0 0 768 754" fill="none" xmlns="http://www.w3.org/2000/svg">
<rect width="192" height="126" fill="#313F86"/>
<rect y="126" width="192" height="126" fill="#313F86"/>
<rect y="252" width="192" height="126" fill="#313F86"/>
<rect y="378" width="192" height="126" fill="#313F86"/>
<rect y="504" width="192" height="126" fill="#313F86"/>
<rect y="628" width="192" height="126" fill="#313F86"/>
<rect x="192" width="192" height="126" fill="#313F86"/>
<rect x="192" y="126" width="192" height="126" fill="#313F86"/>
<rect x="192" y="252" width="192" height="126" fill="#313F86"/>
<rect x="192" y="378" width="192" height="126" fill="#313F86"/>
<rect x="192" y="504" width="192" height="126" fill="#313F86"/>
<rect x="192" y="628" width="192" height="126" fill="#313F86"/>
<rect x="384" width="192" height="126" fill="#313F86"/>
<rect x="384" y="126" width="192" height="126" fill="#313F86"/>
<rect x="384" y="252" width="192" height="126" fill="#313F86"/>
<rect x="384" y="378" width="192" height="126" fill="#313F86"/>
<rect x="384" y="504" width="192" height="126" fill="#313F86"/>
<rect x="576" width="192" height="126" fill="#313F86"/>
<rect x="576" y="126" width="192" height="126" fill="#313F86"/>
<rect x="576" y="252" width="192" height="126" fill="#313F86"/>
<rect x="576" y="378" width="192" height="126" fill="#313F86"/>
<rect x="576" y="504" width="192" height="126" fill="#313F86"/>
<path d="M177.051 33.1233C178.896 30.3803 180.058 27.2364 180.441 23.9533C180.551 23.0333 180.511 22.0933 180.651 21.1833C180.711 20.7933 181.061 20.1833 181.321 20.1833C181.554 20.1678 181.786 20.2109 181.998 20.3088C182.209 20.4066 182.393 20.5561 182.531 20.7433C183.02 21.7447 183.357 22.813 183.531 23.9133C183.811 26.2033 183.891 28.5233 184.081 30.8233C184.421 35.1367 184.778 39.44 185.151 43.7333C185.451 47.0033 185.771 50.2633 186.151 53.5233C186.301 54.8233 186.661 56.0933 186.921 57.3833C187.026 57.7934 187.096 58.2115 187.131 58.6333C187.131 59.7933 186.331 60.3733 185.291 59.8333C184.513 59.3324 183.783 58.7599 183.111 58.1233C182.721 57.8133 182.351 57.4933 181.941 57.1233C180.941 60.0633 179.821 62.8533 178.941 65.7033C175.777 75.4071 170.719 84.3869 164.061 92.1233C156.647 101.176 147.579 108.737 137.341 114.403C130.271 118.225 122.529 120.645 114.541 121.533C107.199 122.474 99.7471 122.088 92.5413 120.393C87.486 119.053 82.6689 116.938 78.2613 114.123C69.3113 108.613 62.1413 101.443 57.8213 91.7133C55.6091 86.7247 54.3767 81.3573 54.1913 75.9033C53.9362 71.4336 53.9362 66.953 54.1913 62.4833C55.0952 51.7696 58.6746 41.4542 64.6013 32.4833C69.9013 24.1833 77.1413 18.0633 85.6013 13.1833C91.5227 9.87719 97.8826 7.42619 104.491 5.90333C109.281 4.72333 114.071 4.90333 118.861 5.30333C122.779 5.56155 126.671 6.12324 130.501 6.98333C140.091 9.27333 149.431 12.3433 157.551 18.1833C163.931 22.7733 170.631 26.9633 176.271 32.5433C176.52 32.7509 176.781 32.9445 177.051 33.1233Z" fill="#EDF8FF"/>
<path d="M365.871 39.8744C366.675 38.6367 367.388 37.3419 368.005 36.0003C369.99 30.5485 371.865 25.0169 373.78 19.5751C373.85 19.3954 373.85 19.1658 373.969 19.026C374.306 18.6066 374.653 17.9376 375.06 17.8777C375.349 17.8723 375.635 17.9303 375.899 18.0475C376.163 18.1648 376.398 18.3385 376.588 18.5567C377.793 20.3399 378.531 22.4008 378.732 24.5476C379.556 29.6599 378.365 34.5325 376.747 39.2953C376.533 40.0345 376.278 40.7612 375.983 41.472C375.438 42.6634 375.145 43.9554 375.121 45.2666C375.097 46.5778 375.343 47.8798 375.844 49.0905C377.731 54.5373 378.236 60.3719 377.313 66.0648C377.22 66.7918 377.043 67.5055 376.787 68.1916C376.37 69.27 375.427 69.3998 374.802 68.4712C372.58 65.3759 369.404 63.6485 366.03 62.2106C365.819 62.1143 365.59 62.0611 365.358 62.0542C365.126 62.0473 364.895 62.0868 364.678 62.1703C364.461 62.2539 364.263 62.3799 364.095 62.5411C363.926 62.7023 363.792 62.8954 363.698 63.1093C362.984 64.2575 362.289 65.4058 361.575 66.5441C358.092 72.1256 354.549 77.6673 351.136 83.2888C348.368 87.8595 345.371 92.2852 342.155 96.5487C339.091 100.36 335.459 103.671 331.388 106.364C321.316 113.513 310.351 118.665 298.166 120.842C285.782 123.049 273.656 122.35 262.214 116.578C248.49 109.659 240.433 98.2761 237.198 83.3187C235.915 76.8837 235.661 70.284 236.444 63.7683C237.296 53.9162 240.1 44.3356 244.69 35.5909C253.422 19.4453 266.719 9.44048 284.72 6.02564C290.753 4.91808 296.914 4.70615 303.008 5.3966C321.922 7.39357 338.146 15.5712 352.743 27.3634C357.06 30.8581 360.94 34.892 365.018 38.6862C365.33 39.0618 365.615 39.4589 365.871 39.8744Z" fill="#EDF8FF"/>
<path d="M561.039 50.0475C561.259 50.1911 561.494 50.3117 561.739 50.4075C567.149 51.6275 570.959 59.1676 570.909 63.2076C570.818 65.9601 569.925 68.6262 568.339 70.8775C568.252 71.0537 568.131 71.2103 567.982 71.3375C567.833 71.4648 567.659 71.5599 567.471 71.6171C567.284 71.6744 567.086 71.6924 566.891 71.6701C566.697 71.6478 566.508 71.5857 566.339 71.4875C565.664 71.1275 565.034 70.6913 564.459 70.1875C562.859 68.7575 561.319 67.1875 559.719 65.7975C558.757 64.95 557.585 64.3752 556.327 64.1326C555.068 63.8899 553.767 63.9883 552.559 64.4176C548.559 65.5276 545.249 67.9076 541.959 70.3576C537.599 73.5976 534.719 78.0076 531.859 82.4476C528.441 87.9628 524.554 93.1722 520.239 98.0176C515.904 102.695 510.904 106.708 505.399 109.928C498.179 114.172 490.4 117.383 482.289 119.468C475.266 121.305 467.99 121.98 460.749 121.468C454.591 120.974 448.572 119.379 442.979 116.758C433.479 112.428 426.819 105.238 421.849 96.2775C420.159 93.2075 418.189 90.2775 417.519 86.7375C416.669 82.2475 415.819 77.7376 415.319 73.1976C415.023 69.7794 414.933 66.3465 415.049 62.9176C415.222 52.8295 418.025 42.9613 423.179 34.2876C426.929 27.7076 432.229 22.6276 437.819 17.7276C444.999 11.4189 453.92 7.43078 463.409 6.28755C467.592 5.6271 471.808 5.19977 476.039 5.00755C482.211 4.9189 488.37 5.61105 494.369 7.06755C506.149 9.82755 516.729 15.0676 526.699 21.7776C533.38 26.4411 539.71 31.5882 545.639 37.1776C547.089 38.5076 548.639 39.7575 550.069 41.0775C550.185 41.2216 550.332 41.3378 550.499 41.4176C550.666 41.4974 550.849 41.5388 551.034 41.5388C551.219 41.5388 551.401 41.4974 551.568 41.4176C551.735 41.3378 551.882 41.2216 551.999 41.0775C553.404 39.7073 554.707 38.2368 555.899 36.6776C559.059 32.1076 562.059 27.4276 565.139 22.8076C565.694 21.9266 566.309 21.0847 566.979 20.2876C567.899 19.2876 568.979 19.3576 569.369 20.6776C569.98 22.4915 570.354 24.3773 570.479 26.2876C570.527 29.4209 569.935 32.5312 568.739 35.4276C567.119 39.6817 565.033 43.7431 562.519 47.5376C561.979 48.3576 561.549 49.1975 561.039 50.0475Z" fill="#EDF8FF"/>
<path d="M652.061 5C665.771 5.43 677.441 7.81001 688.551 12.65C694.934 15.5984 700.93 19.3232 706.401 23.74C712.491 28.42 718.401 33.27 724.561 37.91C726.408 39.2169 728.377 40.3421 730.441 41.27C732.64 42.4286 735.156 42.8427 737.611 42.45C738.56 42.3552 739.462 41.9908 740.211 41.4C742.227 39.3921 744.139 37.2827 745.941 35.08C748.831 31.56 751.581 27.93 754.441 24.39C755.056 23.6481 755.777 23.0011 756.581 22.47C757.195 22.0152 757.957 21.8043 758.718 21.8782C759.479 21.9521 760.185 22.3054 760.701 22.87C763.021 24.96 763.071 27.6 762.441 30.34C760.939 36.4839 757.785 42.0999 753.321 46.58C752.501 47.44 751.721 48.35 750.921 49.24C750.331 49.89 750.381 50.44 751.011 51.11C753.411 53.68 755.821 56.24 758.081 58.92C761.541 63.03 761.691 67.92 758.671 72.36C757.241 74.44 755.191 74.71 753.401 72.88C751.611 71.05 750.091 69.21 748.491 67.34C746.907 65.3703 744.746 63.9468 742.311 63.27C741.353 63.0439 740.35 63.0959 739.421 63.42C734.411 65.4809 729.842 68.4815 725.961 72.26C720.631 77.12 715.531 82.26 710.261 87.17C706.411 90.79 702.441 94.28 698.541 97.84C692.087 103.838 684.888 108.98 677.121 113.14C671.38 116.237 665.203 118.449 658.801 119.7C654.421 120.52 650.011 121.26 645.581 121.7C643.154 121.802 640.723 121.675 638.321 121.32C632.582 120.903 626.962 119.475 621.721 117.1C611.292 112.347 602.928 103.992 598.161 93.57C595.814 88.6605 594.484 83.3269 594.251 77.89C594.091 73.54 593.961 69.18 594.011 64.82C594.106 58.2729 595.278 51.7861 597.481 45.62C600.561 36.97 604.691 28.9 611.201 22.31C619.611 13.78 629.941 8.73001 641.591 6.40001C645.561 5.61001 649.611 5.32 652.061 5Z" fill="#EDF8FF"/>
<path d="M170.586 179.303L171.786 179.883C175.664 181.653 179.271 183.966 182.496 186.753C184.437 188.478 185.828 190.735 186.496 193.243C186.581 193.503 186.581 193.783 186.496 194.043C185.766 195.855 184.89 197.604 183.876 199.273C182.786 200.853 180.936 200.833 179.236 200.273C177.915 199.854 176.636 199.312 175.416 198.653C170.256 195.843 164.976 193.353 159.146 192.223C156.118 191.525 152.938 191.989 150.236 193.523C145.366 196.313 141.236 199.983 137.066 203.693C130.266 209.803 123.546 216.013 116.826 222.213C110.306 228.213 102.896 233.053 95.506 237.903C91.436 240.563 87.326 243.243 82.576 244.503C78.4577 245.638 74.2685 246.496 70.036 247.073C65.6787 247.631 61.2888 247.895 56.896 247.863C49.0932 247.886 41.4587 245.596 34.956 241.283C26.776 235.903 19.776 229.433 14.956 220.793C12.868 216.839 11.4296 212.574 10.696 208.163C9.65425 203.141 9.08841 198.032 9.00599 192.903C8.85304 182.53 11.6331 172.325 17.026 163.463C21.4265 156.04 26.9869 149.369 33.496 143.703C40.4554 137.886 48.8155 133.99 57.746 132.403C64.5985 131.021 71.6173 130.657 78.576 131.323C92.7924 132.583 106.405 137.659 117.976 146.013C120.846 148.103 123.736 150.183 126.426 152.493C131.666 156.963 137.676 160.203 143.616 163.553C144.796 164.213 146.026 164.773 147.196 165.453C150.516 167.383 154.136 167.323 157.766 167.033C158.598 166.894 159.375 166.523 160.006 165.963C164.056 162.683 168.006 159.263 172.096 156.063C174.239 154.369 176.551 152.901 178.996 151.683C181.826 150.313 184.486 151.923 184.996 155.023C185.166 156.207 185.166 157.409 184.996 158.593C183.896 165.863 180.066 171.523 174.486 176.123L170.586 179.303Z" fill="#EDF8FF"/>
<path d="M362.791 181.082C366.261 183.922 369.621 186.572 372.881 189.352C375.763 191.725 377.793 194.972 378.661 198.602C378.942 199.711 378.893 200.877 378.522 201.958C378.151 203.04 377.473 203.99 376.571 204.692C375.844 205.342 374.942 205.765 373.978 205.909C373.013 206.053 372.027 205.912 371.141 205.502C368.965 204.628 366.856 203.596 364.831 202.412C360.581 199.992 356.401 197.412 352.171 194.982C347.751 192.412 343.051 192.422 338.281 193.672C335.001 194.532 332.341 196.582 329.681 198.552C323.401 203.212 317.941 208.802 312.441 214.322C305.683 221.101 298.419 227.356 290.711 233.032C287.379 235.656 283.852 238.023 280.161 240.112C273.37 243.727 265.917 245.931 258.251 246.592C247.731 247.462 237.351 246.782 227.461 242.592C216.781 238.102 208.141 231.192 202.681 220.822C199.846 215.541 198.024 209.775 197.311 203.822C197.02 200.327 196.933 196.818 197.051 193.312C197.051 190.082 197.201 186.842 197.481 183.612C197.847 178.61 199.044 173.702 201.021 169.092C203.817 163.105 207.551 157.602 212.081 152.792C220.341 143.562 230.181 136.632 242.161 133.092C248.522 131.293 255.153 130.647 261.741 131.182C267.362 131.456 272.952 132.169 278.461 133.312C292.231 136.297 304.887 143.084 314.991 152.902C316.671 154.542 318.391 156.162 320.121 157.762C326.691 163.842 334.601 167.142 343.301 168.762C344.282 168.873 345.274 168.703 346.161 168.272C351.481 165.792 356.071 162.202 360.681 158.632C363.546 156.276 366.807 154.448 370.311 153.232C375.311 151.622 377.471 154.632 377.831 158.702C378.191 162.772 376.581 166.562 374.531 170.072C372.651 173.302 369.861 175.682 366.961 177.952C365.621 179.032 364.211 180.032 362.791 181.082Z" fill="#EDF8FF"/>
<path d="M549.332 181.874C553.17 182.757 556.871 184.156 560.332 186.034C562.721 187.228 564.868 188.855 566.662 190.834C569.112 193.694 569.862 196.984 568.242 200.404C566.622 203.824 563.582 205.974 559.512 205.654C557.968 205.486 556.479 204.981 555.152 204.174C552.762 202.761 550.455 201.211 548.242 199.534C543.83 196.048 538.53 193.869 532.942 193.244C529.785 192.8 526.569 193.419 523.802 195.004C519.487 197.491 515.517 200.534 511.992 204.054C506.152 210.174 500.302 216.304 494.152 222.174C488.002 228.044 481.252 232.674 474.242 237.234C467.23 241.862 459.222 244.764 450.872 245.704C446.646 246.017 442.405 246.071 438.172 245.864C435.712 245.864 433.252 245.604 430.792 245.374C422.091 244.672 413.776 241.478 406.842 236.174C402.642 232.934 398.542 229.624 395.302 225.364C392.062 221.104 390.432 216.304 389.202 211.254C387.295 202.856 386.621 194.226 387.202 185.634C387.345 180.077 388.42 174.584 390.382 169.384C391.334 167.154 392.51 165.026 393.892 163.034C400.062 153.824 407.192 145.494 416.702 139.534C422.703 135.87 429.31 133.306 436.212 131.964C440.569 131.102 445.021 130.817 449.452 131.114C453.522 131.334 457.562 132.034 461.632 132.364C468.272 133.021 474.78 134.641 480.952 137.174C488.418 140.163 495.343 144.355 501.452 149.584C506.042 153.414 510.672 157.214 515.352 160.934C518.982 163.824 522.772 166.524 527.462 167.424C529.469 167.764 531.497 167.965 533.532 168.024C534.263 167.984 534.975 167.775 535.612 167.414C539.859 165.383 543.847 162.851 547.492 159.874C550.25 157.645 553.225 155.698 556.372 154.064C560.612 151.884 564.892 152.764 568.572 155.514C570.682 157.084 571.042 159.724 570.362 162.274C569.996 163.452 569.478 164.578 568.822 165.624C564.727 172.833 558.196 178.346 550.402 181.174C550.116 181.283 549.839 181.414 549.572 181.564C549.512 181.624 549.472 181.704 549.332 181.874Z" fill="#EDF8FF"/>
<path d="M746.355 182.078C751.605 183.958 756.195 186.388 759.715 190.488C761.866 192.911 763.069 196.028 763.105 199.268C763.151 200.273 762.963 201.275 762.555 202.195C762.147 203.114 761.531 203.927 760.755 204.568C760.11 205.19 759.28 205.586 758.391 205.694C757.501 205.802 756.6 205.618 755.825 205.168C751.725 203.028 747.615 200.908 743.555 198.688C739.907 196.513 735.923 194.962 731.765 194.098C729.166 193.604 726.495 193.631 723.907 194.177C721.318 194.723 718.863 195.777 716.685 197.278C713.047 199.63 709.787 202.519 707.015 205.848C699.555 215.028 690.655 222.628 681.355 229.848C675.346 234.636 668.715 238.589 661.645 241.598C653.152 245.109 643.901 246.383 634.775 245.298C629.775 244.728 624.825 244.078 619.945 243.028C612.885 241.518 606.945 237.668 601.435 233.158C598.771 231.07 596.243 228.816 593.865 226.408C589.655 221.938 587.635 216.298 586.085 210.468C585.015 206.405 584.398 202.236 584.245 198.038C584.065 193.538 583.915 189.038 584.055 184.518C584.254 173.798 588.485 163.547 595.905 155.808C599.705 151.748 603.325 147.538 607.675 144.028C615.239 137.786 624.295 133.617 633.955 131.928C638.813 131.018 643.772 130.776 648.695 131.208C657.545 132.108 666.465 132.518 674.945 135.628C682.079 138.368 688.853 141.968 695.115 146.348C702.268 151.286 708.995 156.816 715.225 162.878C719.125 166.588 723.705 168.348 728.795 169.248C729.634 169.351 730.485 169.208 731.245 168.838C733.618 167.724 735.952 166.538 738.245 165.278C742.065 163.178 745.795 160.918 749.645 158.878C752.155 157.494 754.952 156.713 757.815 156.598C761.235 156.488 762.815 158.598 763.015 161.508C763.425 167.588 760.715 172.278 756.275 176.158C753.731 178.3 750.892 180.064 747.845 181.398C747.395 181.558 746.965 181.778 746.355 182.078Z" fill="#EDF8FF"/>
<path d="M167.955 308.706C168.735 308.966 169.205 309.096 169.655 309.276C172.905 310.576 176.215 311.756 179.375 313.276C182.02 314.611 184.173 316.75 185.525 319.386C186.677 321.625 186.986 324.204 186.397 326.652C185.808 329.1 184.359 331.256 182.315 332.726C181.434 333.341 180.365 333.625 179.295 333.53C178.225 333.435 177.223 332.966 176.465 332.206C171.814 328.255 166.692 324.896 161.215 322.206C158.185 320.792 155.057 319.599 151.855 318.636C150.749 318.261 149.563 318.183 148.418 318.41C147.272 318.636 146.205 319.159 145.325 319.926C142.914 321.799 140.607 323.802 138.415 325.926C133.795 330.636 129.325 335.496 124.805 340.306C115.655 350.016 104.895 357.576 93.2448 363.946C86.9248 367.406 79.9848 369.086 72.9848 370.556C67.8484 371.478 62.5961 371.555 57.4348 370.786C52.9748 370.256 48.5248 369.486 44.1248 368.566C38.4848 367.386 33.7348 364.336 29.2548 360.866C23.2365 356.417 18.3456 350.618 14.9748 343.936C12.8048 339.476 11.7348 334.646 10.5248 329.876C8.96906 323.138 8.60019 316.181 9.43477 309.316C10.4676 297.562 15.5299 286.526 23.7648 278.076C26.5548 275.156 29.4448 272.306 32.4948 269.656C37.3548 265.426 43.2548 263.056 49.2548 261.006C57.3354 258.25 65.8279 256.897 74.3648 257.006C93.1248 257.196 109.705 263.516 124.275 275.136C131.275 280.736 138.055 286.676 144.875 292.536C147.055 294.406 149.725 294.976 152.305 295.816C153.751 296.312 155.294 296.459 156.807 296.245C158.321 296.031 159.763 295.463 161.015 294.586C165.721 291.506 170.468 288.476 175.255 285.496C176.417 284.751 177.684 284.185 179.015 283.816C182.865 282.816 185.385 284.676 185.675 288.636C186.025 293.436 183.325 301.996 176.375 304.816C174.375 305.626 172.375 306.516 170.435 307.396C169.665 307.706 168.965 308.146 167.955 308.706Z" fill="#EDF8FF"/>
<path d="M360.78 306.244C362.72 307.084 364.39 307.864 366.09 308.534C369.768 310.088 373.052 312.446 375.7 315.434C379.77 319.744 379.37 324.674 376.22 329.384C375.669 330.216 374.866 330.849 373.928 331.191C372.99 331.533 371.968 331.566 371.01 331.284C366.5 330.354 362.91 327.814 359.62 324.754C356.01 321.394 351.94 318.964 346.91 318.514C346.34 318.454 345.766 318.588 345.28 318.894C343.328 320.257 341.464 321.744 339.7 323.344C334.25 328.644 328.99 334.144 323.5 339.404C314.51 348.114 304.586 355.807 293.91 362.344C286.811 366.68 278.898 369.515 270.66 370.674C258.754 372.319 246.624 370.734 235.54 366.084C231.778 364.453 228.313 362.205 225.29 359.434C223.11 357.534 221.043 355.507 219.1 353.364C215.37 349.214 213.64 344.014 211.79 338.904C209.822 333.79 208.587 328.424 208.12 322.964C207.922 318.995 207.969 315.017 208.26 311.054C208.513 305.347 209.709 299.72 211.8 294.404C213.408 290.797 215.34 287.343 217.57 284.084C221.89 277.324 228.05 272.434 234.39 267.704C242.16 261.904 250.93 258.924 260.39 257.704C270.904 256.246 281.607 257.058 291.78 260.084C300.96 262.857 309.586 267.209 317.27 272.944C323.92 277.944 330.38 283.114 336.95 288.174C338.95 289.684 341.02 290.994 342.95 292.574C343.753 293.281 344.761 293.712 345.826 293.804C346.892 293.896 347.959 293.643 348.87 293.084C351.669 291.625 354.392 290.027 357.03 288.294C360.972 285.568 365.164 283.224 369.55 281.294C370.443 280.934 371.363 280.643 372.3 280.424C372.921 280.232 373.576 280.174 374.221 280.253C374.866 280.331 375.487 280.545 376.044 280.88C376.601 281.215 377.081 281.664 377.452 282.197C377.824 282.73 378.079 283.336 378.2 283.974C378.598 285.699 378.662 287.485 378.39 289.234C377.948 291.538 377.257 293.788 376.33 295.944C375.597 297.713 374.509 299.312 373.133 300.643C371.757 301.975 370.122 303.009 368.33 303.684C366.52 304.434 364.63 304.974 362.77 305.604C362.14 305.854 361.59 306.004 360.78 306.244Z" fill="#EDF8FF"/>
<path d="M554.046 304.316C554.616 304.546 555.046 304.736 555.456 304.896C560.354 306.796 564.581 310.101 567.606 314.396C569 316.228 569.746 318.471 569.728 320.773C569.71 323.075 568.928 325.306 567.506 327.116C566.7 328.343 565.446 329.208 564.012 329.526C562.577 329.843 561.076 329.588 559.826 328.816C557.256 327.266 554.926 325.336 552.456 323.616C548.686 321.006 544.886 318.446 541.106 315.846C540.775 315.576 540.363 315.424 539.935 315.415C539.507 315.406 539.089 315.54 538.746 315.796C537.601 316.497 536.526 317.307 535.536 318.216C530.116 323.816 524.786 329.516 519.366 335.116C512.406 342.266 505.966 349.916 498.306 356.326C492.606 361.136 486.606 365.516 479.506 368.156C474.93 369.802 470.148 370.812 465.296 371.156C457.646 371.776 450.156 371.106 443.066 368.056C436.246 365.116 429.756 361.576 424.286 356.406C415.473 348.199 409.64 337.293 407.706 325.406C405.596 313.196 408.406 301.736 413.566 290.776C419.026 279.186 427.136 269.856 438.426 263.506C443.938 260.457 450.01 258.556 456.276 257.916C461.165 257.226 466.1 256.925 471.036 257.016C480.106 257.406 488.686 259.346 496.646 263.956C505.336 268.956 513.256 275.056 521.146 281.196C523.886 283.326 526.646 285.436 529.366 287.596C531.447 289.271 533.877 290.461 536.476 291.076C538.684 291.577 540.998 291.279 543.006 290.236C546.176 288.596 549.146 286.566 552.236 284.756C554.656 283.326 557.046 281.816 559.586 280.626C561.097 279.96 562.717 279.577 564.366 279.496C565.187 279.442 566.009 279.558 566.782 279.835C567.556 280.113 568.264 280.546 568.863 281.109C569.463 281.672 569.94 282.351 570.265 283.106C570.591 283.86 570.758 284.674 570.756 285.496C570.956 289.496 569.296 292.706 566.856 295.606C563.626 299.456 559.856 302.536 554.856 303.956C554.578 304.056 554.307 304.176 554.046 304.316V304.316Z" fill="#EDF8FF"/>
<path d="M745.592 300.49C746.762 301.15 747.772 301.69 748.762 302.26C753.522 305.03 757.832 308.31 760.762 313.05C763.382 317.26 762.762 321.51 759.292 325.05C758.577 325.847 757.639 326.412 756.6 326.671C755.56 326.929 754.467 326.87 753.462 326.5C751.452 325.84 749.536 324.922 747.762 323.77C743.942 321.17 740.292 318.31 736.572 315.56C736.292 315.36 735.992 315.19 735.692 315.01C732.502 313.1 730.292 313.1 727.552 315.68C725.124 318.049 722.862 320.581 720.782 323.26C714.622 330.93 708.662 338.76 702.432 346.37C696.972 353.05 690.982 359.26 683.642 363.93C676.768 368.412 668.945 371.229 660.792 372.16C654.382 372.86 648.172 371.74 642.072 370.02C635.552 368.18 629.292 365.64 623.972 361.28C617.131 355.719 611.436 348.882 607.202 341.15C604.712 336.56 603.652 331.47 602.762 326.4C602.334 323.418 602.087 320.412 602.022 317.4C601.829 311.378 602.912 305.383 605.202 299.81C608.352 291.6 612.352 283.81 618.202 277.13C624.052 270.45 630.482 264.5 638.842 261.07C644.59 258.705 650.703 257.351 656.912 257.07C674.262 256.29 689.422 262.07 702.912 272.51C708.622 276.92 714.052 281.68 719.692 286.18C721.433 287.508 723.294 288.67 725.252 289.65C725.627 289.827 726.033 289.927 726.448 289.942C726.862 289.958 727.275 289.889 727.662 289.74C730.577 288.445 733.418 286.989 736.172 285.38C739.702 283.24 743.042 280.8 746.512 278.56C748.841 276.899 751.491 275.741 754.292 275.16C758.992 274.39 761.112 276.7 760.012 281.35C758.753 286.283 756.17 290.778 752.542 294.35C750.922 296.04 749.042 297.49 747.282 299.05L745.592 300.49Z" fill="#EDF8FF"/>
<path d="M170.888 423.906C173.931 425.022 176.889 426.359 179.738 427.906C182.531 429.505 184.641 432.072 185.669 435.122C186.697 438.171 186.573 441.492 185.318 444.456C184.947 445.554 184.164 446.466 183.135 446.999C182.105 447.532 180.909 447.646 179.798 447.316C176.421 446.668 173.212 445.338 170.368 443.406C167.538 441.466 164.818 439.406 161.828 437.656C161.165 437.266 160.386 437.125 159.628 437.256C155.125 437.943 150.939 439.987 147.628 443.116C143.58 446.83 140.18 451.193 137.568 456.026C133.738 462.616 130.128 469.356 125.768 475.626C120.358 483.426 113.678 489.716 104.848 493.676C96.0181 497.636 87.1181 498.286 77.8481 496.676C72.0608 495.758 66.4404 493.992 61.1681 491.436C54.3422 487.875 48.321 482.95 43.4781 476.966C36.1081 468.306 32.5581 458.046 31.2681 446.966C30.2681 438.476 32.1681 430.416 35.2681 422.566C38.9881 413.036 43.9881 404.326 51.1581 396.886C57.9079 389.898 66.7509 385.299 76.3481 383.786C87.9881 381.716 99.0581 383.916 109.818 388.276C118.712 392.033 127.023 397.044 134.498 403.156C138.126 406.092 141.915 408.823 145.848 411.336C146.802 411.981 147.894 412.395 149.036 412.545C150.179 412.694 151.34 412.574 152.428 412.196C157.595 410.483 162.461 407.969 166.848 404.746C169.14 402.985 171.549 401.381 174.058 399.946C176.309 398.575 178.892 397.845 181.528 397.836C183.858 397.916 184.838 398.956 184.968 401.266C185.16 406.078 183.826 410.827 181.158 414.836C179.745 417.007 177.913 418.873 175.768 420.326C174.066 421.413 172.436 422.609 170.888 423.906V423.906Z" fill="#EDF8FF"/>
<path d="M282.296 383.025C291.296 382.725 299.646 385.205 307.696 389.025C315.446 392.695 322.626 397.365 329.996 401.715C333.846 403.985 337.506 406.575 341.446 408.715C342.817 409.415 344.242 410.007 345.706 410.485C346.67 410.844 347.713 410.936 348.726 410.751C349.738 410.566 350.681 410.111 351.456 409.435C355.602 406.411 359.569 403.149 363.336 399.665C365.163 397.883 367.263 396.405 369.556 395.285C369.966 395.085 370.386 394.885 370.816 394.725C374.446 393.335 377.136 394.535 378.126 398.315C379.856 404.895 378.126 409.475 372.966 413.095C370.256 414.995 367.406 416.705 364.616 418.495C361.826 420.285 361.676 421.285 364.386 423.495C366.666 425.305 369.276 426.585 371.696 428.165C374.116 429.745 376.506 431.625 377.606 434.595C378.706 437.565 378.266 440.145 376.076 442.075C375.028 443.086 373.675 443.722 372.228 443.883C370.78 444.044 369.32 443.721 368.076 442.965C366.306 441.965 364.656 440.735 362.956 439.595C361.676 438.735 360.306 438.015 359.016 437.185C356.846 435.805 354.586 435.755 352.136 436.075C348.136 436.595 345.346 438.795 343.256 442.075C338.146 450.075 333.646 458.425 328.346 466.285C323.896 472.875 319.276 479.364 313.346 484.744C307.385 490.227 300.088 494.048 292.186 495.825C288.574 496.798 284.833 497.203 281.096 497.025C276.297 496.555 271.551 495.651 266.916 494.325C261.757 492.916 256.82 490.795 252.246 488.025C251.136 487.399 250.088 486.669 249.116 485.845C243.286 480.575 237.576 475.185 233.936 468.085C229.466 459.44 227.456 449.733 228.126 440.025C228.706 430.865 232.126 422.565 235.376 414.235C237.817 407.995 241.509 402.322 246.226 397.565C254.546 389.175 264.536 384.235 276.396 383.305C277.396 383.225 278.396 383.135 279.396 383.095C280.396 383.055 281.326 383.025 282.296 383.025Z" fill="#EDF8FF"/>
<path d="M483.24 383C492.18 383.11 500.55 385.53 508.64 389.19C516.92 393.087 524.59 398.167 531.41 404.27C532.89 405.56 534.41 406.77 535.96 408.03C536.638 408.638 537.475 409.039 538.374 409.186C539.272 409.333 540.194 409.22 541.03 408.86C544.77 407.389 548.202 405.232 551.15 402.5C553.41 400.5 555.42 398.26 557.48 396.06C559.1 394.193 560.999 392.587 563.11 391.3C564.166 390.654 565.364 390.276 566.6 390.2C567.336 390.092 568.087 390.248 568.72 390.639C569.353 391.031 569.828 391.633 570.06 392.34C571.115 395.151 571.115 398.249 570.06 401.06C568.595 405.409 565.795 409.184 562.06 411.85C560.25 413.23 558.36 414.5 556.66 416.02C556.364 416.266 556.087 416.533 555.83 416.82C554.93 417.9 555.13 418.82 556.46 419.18C557.96 419.65 559.46 420.02 561.04 420.36C565.36 421.36 567.83 424.19 568.94 428.25C570.05 432.31 568.6 435.61 566.02 438.59C564.64 440.19 562.83 440.28 560.93 439.7C559.767 439.285 558.674 438.695 557.69 437.95C556.69 437.28 555.69 436.68 554.69 435.95C550.69 432.95 544.57 434.35 541.69 437.18C538.81 440.01 536.77 443.76 535.03 447.51C531.88 454.28 529.03 461.19 525.78 467.91C519.24 481.39 508.45 489.91 494.21 493.91C477.51 498.56 462.42 494.53 448.84 484.17C437.58 475.57 431.37 464.05 429.44 450.17C428.637 443.767 428.935 437.273 430.32 430.97C431.76 423.97 433.54 416.91 437.39 410.8C445.73 397.54 456.78 387.61 472.63 384.15C476.119 383.409 479.673 383.023 483.24 383V383Z" fill="#EDF8FF"/>
<path d="M670.991 383.004C683.247 383.028 695.259 386.426 705.711 392.824C711.851 396.464 717.711 400.484 723.601 404.544C725.526 406.033 727.74 407.106 730.101 407.694C730.581 407.831 731.086 407.859 731.578 407.774C732.069 407.689 732.536 407.494 732.941 407.204C738.541 403.104 744.501 399.494 749.661 394.814C750.782 393.749 752.035 392.835 753.391 392.094C754.623 391.424 756.07 391.268 757.416 391.66C758.763 392.051 759.9 392.958 760.581 394.184C762.211 397.054 762.141 400.094 761.281 403.184C760.463 406.016 758.923 408.587 756.811 410.644C754.341 413.144 751.491 415.214 748.811 417.484C747.401 418.684 747.401 418.784 749.111 419.554C751.541 420.634 754.011 421.614 756.381 422.824C763.681 426.594 763.531 433.754 760.441 438.734C759.171 440.734 757.391 440.934 755.321 440.594C753.194 440.182 751.16 439.382 749.321 438.234C745.791 436.234 742.321 434.024 738.321 432.924C737.67 432.717 736.982 432.653 736.304 432.736C735.626 432.819 734.974 433.046 734.391 433.404C729.015 436.514 724.655 441.116 721.841 446.654C718.764 452.605 716.071 458.747 713.781 465.044C712.859 467.451 711.689 469.757 710.291 471.924C708.381 474.864 706.771 477.984 704.571 480.744C701.041 485.174 696.401 488.064 691.511 490.694C686.505 493.272 681.138 495.079 675.591 496.054C673.131 496.534 670.591 496.144 668.091 495.924C665.705 495.809 663.33 495.532 660.981 495.094C652.341 493.119 644.278 489.162 637.431 483.534C631.831 478.984 627.181 473.624 624.351 466.874C623.143 463.873 622.121 460.8 621.291 457.674C617.313 443.951 618.545 429.243 624.751 416.374C629.439 406.512 636.362 397.88 644.971 391.164C650.621 386.614 657.361 384.394 664.501 383.404C666.652 383.109 668.821 382.975 670.991 383.004Z" fill="#EDF8FF"/>
<path d="M104.619 509.055C116.669 508.445 129.709 512.975 142.219 519.475C148.379 522.675 154.219 526.475 160.079 530.135C163.929 532.515 163.809 532.135 166.759 529.435C169.239 527.135 170.889 524.165 173.049 521.605C175.209 519.045 177.419 516.235 180.269 514.145C183.119 512.055 185.269 513.815 185.919 516.145C186.943 519.844 186.465 523.797 184.589 527.145C183.31 529.391 181.849 531.528 180.219 533.535C179.208 534.847 178.299 536.234 177.499 537.685C176.349 539.895 176.499 541.455 178.149 543.295C179.799 545.135 181.629 547.295 183.219 549.455C184.809 551.41 185.87 553.742 186.299 556.225C186.699 559.035 185.469 560.855 182.719 561.525C181.335 561.89 179.89 561.963 178.476 561.737C177.062 561.511 175.711 560.993 174.509 560.215C173.369 559.495 172.259 558.725 171.149 557.955C168.849 556.365 166.039 555.535 163.149 558.485C162.007 559.629 161 560.901 160.149 562.275C155.629 569.775 152.659 577.955 149.269 585.975C146.039 593.615 141.849 600.745 135.859 606.585C129.468 612.989 121.333 617.371 112.469 619.185C109.229 619.845 106.009 620.765 102.689 620.835C98.9892 620.75 95.3264 620.075 91.8393 618.835C82.5208 616.026 74.0852 610.86 67.3492 603.835C62.8452 599.016 59.2325 593.437 56.6793 587.355C50.3793 573.205 50.7993 558.985 55.7993 544.585C58.83 536.079 64.094 528.546 71.0392 522.775C73.837 520.193 76.8476 517.851 80.0392 515.775C87.3574 511.085 95.9329 508.74 104.619 509.055V509.055Z" fill="#EDF8FF"/>
<path d="M756.15 531.098C756.53 529.098 756.84 527.298 757.23 525.508C757.75 523.178 758.32 520.858 758.88 518.508C758.917 518.315 759.02 518.142 759.172 518.018C759.324 517.894 759.514 517.826 759.71 517.828C759.986 517.809 760.258 517.894 760.475 518.066C760.691 518.238 760.836 518.485 760.88 518.758C761.25 520.178 761.58 521.598 761.88 523.038C762.727 527.63 762.963 532.314 762.58 536.968C762.19 542.778 761.94 548.598 761.65 554.408C761.474 558.377 761.076 562.333 760.46 566.258C760.34 566.975 760.159 567.681 759.92 568.368C759.57 569.368 758.78 569.178 757.92 568.878C757.868 572.667 757.255 576.428 756.1 580.038C753.49 589.228 748.3 596.808 741.45 603.338C731.443 613.442 717.879 619.228 703.66 619.458C701.315 619.445 698.974 619.247 696.66 618.868C687.585 617.592 679.086 613.676 672.22 607.608C662.97 599.458 656.13 589.648 653.37 577.458C650.53 564.968 652.2 552.888 657.51 541.258C660.842 533.719 665.74 526.977 671.88 521.478C676.04 517.798 680.96 515.478 685.99 513.218C693.804 509.802 702.358 508.426 710.85 509.218C716.33 509.678 721.55 511.368 726.78 513.008C736.65 516.098 745.14 521.468 752.78 528.288C753.84 529.238 754.97 530.088 756.15 531.098Z" fill="#EDF8FF"/>
<path d="M365.898 527.492C367.924 523.856 369.624 520.048 370.978 516.112C371.484 514.538 372.099 513.001 372.818 511.512C373.198 510.802 373.668 510.162 374.548 510.152C375.428 510.142 375.988 510.792 376.358 511.552C377.759 514.619 378.278 518.016 377.858 521.362C377.538 525.132 376.138 528.612 375.038 532.172C374.567 533.679 374.232 535.225 374.038 536.792C373.92 537.617 373.973 538.456 374.193 539.26C374.413 540.063 374.796 540.813 375.318 541.462C378.938 545.992 379.228 551.092 377.908 556.462C377.811 556.837 377.677 557.203 377.508 557.552C376.758 559.172 375.508 559.552 374.028 558.552C372.861 557.647 371.774 556.643 370.778 555.552C369.438 554.302 368.908 554.402 368.278 556.182C367.938 557.182 367.808 558.182 367.558 559.182C364.958 569.802 362.308 580.402 357.558 590.352C355.666 594.624 352.982 598.499 349.648 601.772C347.208 604.072 344.908 606.522 342.448 608.772C340.817 610.192 339.008 611.396 337.068 612.352C333.876 614.038 330.527 615.407 327.068 616.442C310.388 621.552 295.448 618.152 282.178 607.142C276.026 602 270.969 595.675 267.308 588.542C261.998 578.282 260.948 567.412 262.938 556.152C263.408 553.462 263.938 550.762 264.558 548.152C267.168 537.722 272.848 529.152 280.878 522.152C282.788 520.472 284.758 518.852 286.708 517.222C290.818 513.792 295.708 512.222 300.818 510.992C307.158 509.435 313.686 508.786 320.208 509.062C324.639 509.345 329.029 510.086 333.308 511.272C342.125 513.674 350.58 517.245 358.448 521.892C361.166 523.425 363.67 525.307 365.898 527.492V527.492Z" fill="#EDF8FF"/>
<path d="M570.242 550.486C570.459 552.752 570.436 555.034 570.172 557.296C569.992 558.986 569.792 559.126 568.112 559.236C567.522 559.236 567.742 559.746 567.722 560.026C567.502 562.516 567.372 565.026 567.112 567.516C566.131 575.811 563.346 583.791 558.952 590.896C556.102 595.706 552.843 600.263 549.212 604.516C543.201 611.509 534.954 616.205 525.872 617.806C519.554 619.105 513.089 619.546 506.652 619.116C499.012 618.536 492.192 615.616 485.822 611.476C478.822 606.896 473.562 600.626 469.212 593.556C464.883 586.733 462.149 579.021 461.212 570.996C460.826 566.695 460.967 562.362 461.632 558.096C462.379 551.303 464.29 544.69 467.282 538.546C472.178 529.188 479.644 521.424 488.802 516.166C495.724 512.148 503.5 509.831 511.492 509.406C513.682 509.256 515.882 508.956 518.072 509.006C521.034 509.157 523.975 509.596 526.852 510.316C533.112 511.716 538.852 514.466 544.572 517.216C549.391 519.383 553.986 522.015 558.292 525.076C559.872 526.256 561.812 526.806 563.572 527.676C564.202 527.986 564.182 527.496 564.202 527.116C564.342 524.846 564.472 522.576 564.612 520.306C564.692 519.076 564.772 517.846 564.892 516.616C564.972 515.846 565.232 515.106 566.142 515.076C567.052 515.046 567.292 515.726 567.462 516.436C568.354 520.466 568.91 524.563 569.122 528.686C569.582 534.566 569.902 540.456 570.252 546.336C570.312 547.706 570.242 549.096 570.242 550.486Z" fill="#EDF8FF"/>
<path d="M178.505 657.47C179.555 653.92 180.595 650.47 181.585 646.92C181.845 646.01 182.125 645.17 183.245 645.18C184.365 645.19 184.745 646.02 184.975 646.91C185.347 648.724 185.551 650.568 185.585 652.42C185.995 657.76 186.655 663.08 186.855 668.42C187.005 672.13 186.715 675.82 186.695 679.52C186.715 681.833 186.575 684.145 186.275 686.44C186.129 687.708 185.68 688.922 184.965 689.98C184.841 690.249 184.663 690.489 184.442 690.687C184.221 690.884 183.962 691.035 183.681 691.128C183.4 691.222 183.103 691.257 182.807 691.232C182.512 691.206 182.226 691.12 181.965 690.98C180.965 690.53 180.715 690.84 180.375 691.8C175.795 704.89 169.315 716.87 159.545 726.89C152.892 733.765 144.529 738.746 135.315 741.32C131.58 742.249 127.76 742.795 123.915 742.95C117.722 743.503 111.484 742.698 105.635 740.59C96.2648 737.13 87.9548 732.02 81.4248 724.33C75.9556 717.901 72.1171 710.248 70.2348 702.02C69.1746 697.156 68.7943 692.168 69.1048 687.2C69.4613 677.604 72.101 668.231 76.8048 659.86C80.8848 652.7 86.2448 646.43 93.3348 642.05C101.567 636.885 110.941 633.819 120.635 633.12C129.785 632.48 138.485 634.47 146.985 637.63C155.173 640.772 162.747 645.324 169.365 651.08C172.153 653.557 175.22 655.702 178.505 657.47V657.47Z" fill="#EDF8FF"/>
<path d="M378.845 673.685C379.075 676.795 379.075 680.385 379.075 683.975C379.075 684.435 379.075 684.895 379.075 685.355C378.925 687.795 377.585 688.625 375.425 687.485C373.864 686.758 372.342 685.95 370.865 685.065C370.075 684.525 369.215 685.065 368.395 685.165C367.595 685.225 366.826 685.497 366.165 685.952C365.505 686.407 364.977 687.029 364.635 687.755C362.976 691.27 361.589 694.908 360.485 698.635C358.485 704.575 356.485 710.525 353.485 716.065C349.725 722.875 344.175 727.935 338.115 732.645C331.265 737.985 323.415 740.585 315.045 742.065C303.134 744.234 290.84 742.029 280.425 735.855C273.425 731.855 267.425 726.855 263.085 720.065C257.838 712.117 254.737 702.947 254.085 693.445C253.575 684.735 255.405 676.445 258.135 668.285C261.635 657.755 268.315 649.645 277.235 643.135C283.298 638.864 290.201 635.932 297.485 634.535C308.204 632.179 319.342 632.54 329.885 635.585C340.025 638.485 348.615 644.125 356.045 651.585C357.722 653.449 359.559 655.162 361.535 656.705C364.025 658.455 365.085 658.385 367.535 656.595C370.675 654.335 372.195 651.045 373.385 647.545C373.745 646.545 373.985 645.395 374.385 644.335C374.655 643.545 374.875 642.575 376.025 642.735C377.175 642.895 377.125 643.825 377.195 644.615C377.455 647.615 377.615 650.615 377.905 653.615C378.515 660.115 378.745 666.665 378.845 673.685Z" fill="#EDF8FF"/>
</svg>
