<svg width="771" height="713" viewBox="0 0 771 713" fill="none" xmlns="http://www.w3.org/2000/svg">
<rect x="-0.5" y="-0.5" width="192" height="118" stroke="black"/>
<rect x="-0.5" y="118.5" width="192" height="118" stroke="black"/>
<rect x="-0.5" y="237.5" width="192" height="118" stroke="black"/>
<rect x="-0.5" y="356.5" width="192" height="118" stroke="black"/>
<rect x="-0.5" y="475.5" width="192" height="118" stroke="black"/>
<rect x="-0.5" y="594.5" width="192" height="118" stroke="black"/>
<rect x="192.5" y="-0.5" width="192" height="118" stroke="black"/>
<rect x="192.5" y="118.5" width="192" height="118" stroke="black"/>
<rect x="192.5" y="237.5" width="192" height="118" stroke="black"/>
<rect x="192.5" y="356.5" width="192" height="118" stroke="black"/>
<rect x="192.5" y="475.5" width="192" height="118" stroke="black"/>
<rect x="192.5" y="594.5" width="192" height="118" stroke="black"/>
<rect x="385.5" y="-0.5" width="192" height="118" stroke="black"/>
<rect x="385.5" y="118.5" width="192" height="118" stroke="black"/>
<rect x="385.5" y="237.5" width="192" height="118" stroke="black"/>
<rect x="385.5" y="356.5" width="192" height="118" stroke="black"/>
<rect x="385.5" y="475.5" width="192" height="118" stroke="black"/>
<rect x="578.5" y="-0.5" width="192" height="118" stroke="black"/>
<rect x="578.5" y="118.5" width="192" height="118" stroke="black"/>
<rect x="578.5" y="237.5" width="192" height="118" stroke="black"/>
<rect x="578.5" y="356.5" width="192" height="118" stroke="black"/>
<rect x="578.5" y="475.5" width="192" height="118" stroke="black"/>
<path d="M123.051 28.0999C124.896 25.3569 126.058 22.2129 126.441 18.9299C126.551 18.0099 126.511 17.0699 126.651 16.1599C126.711 15.7699 127.061 15.1599 127.321 15.1599C127.554 15.1444 127.786 15.1875 127.998 15.2853C128.209 15.3832 128.393 15.5326 128.531 15.7199C129.02 16.7212 129.357 17.7895 129.531 18.8899C129.811 21.1799 129.891 23.4999 130.081 25.7999C130.421 30.1132 130.778 34.4166 131.151 38.7099C131.451 41.9799 131.771 45.2399 132.151 48.4999C132.301 49.7999 132.661 51.0699 132.921 52.3599C133.026 52.77 133.096 53.1881 133.131 53.6099C133.131 54.7699 132.331 55.3499 131.291 54.8099C130.513 54.309 129.783 53.7365 129.111 53.0999C128.721 52.7899 128.351 52.4699 127.941 52.0999C126.941 55.0399 125.821 57.8299 124.941 60.6799C121.777 70.3836 116.719 79.3635 110.061 87.0999C102.647 96.1523 93.579 103.713 83.3413 109.38C76.2707 113.201 68.5292 115.622 60.5413 116.51C53.1989 117.451 45.7471 117.065 38.5413 115.37C33.486 114.03 28.6689 111.915 24.2613 109.1C15.3113 103.59 8.14127 96.4199 3.82127 86.6899C1.6091 81.7013 0.376738 76.3338 0.191276 70.8799C-0.0637585 66.4102 -0.0637585 61.9296 0.191276 57.4599C1.09524 46.7461 4.67465 36.4308 10.6013 27.4599C15.9013 19.1599 23.1413 13.0399 31.6013 8.15989C37.5227 4.85375 43.8825 2.40275 50.4913 0.87989C55.2813 -0.30011 60.0713 -0.120109 64.8613 0.279891C68.7789 0.538115 72.6705 1.0998 76.5013 1.95989C86.0913 4.24989 95.4313 7.31989 103.551 13.1599C109.931 17.7499 116.631 21.9399 122.271 27.5199C122.52 27.7274 122.781 27.9211 123.051 28.0999Z" fill="#EDF7FE"/>
<path d="M322.871 34.8744C323.675 33.6367 324.388 32.3419 325.005 31.0003C326.99 25.5485 328.865 20.0169 330.78 14.5751C330.85 14.3954 330.85 14.1658 330.969 14.026C331.306 13.6066 331.653 12.9376 332.06 12.8777C332.349 12.8723 332.635 12.9303 332.899 13.0475C333.163 13.1648 333.398 13.3385 333.588 13.5567C334.793 15.3399 335.531 17.4008 335.732 19.5476C336.556 24.6599 335.365 29.5325 333.747 34.2953C333.533 35.0345 333.278 35.7612 332.983 36.472C332.438 37.6634 332.145 38.9554 332.121 40.2666C332.097 41.5778 332.343 42.8798 332.844 44.0905C334.731 49.5373 335.236 55.3719 334.313 61.0648C334.22 61.7918 334.043 62.5055 333.787 63.1916C333.37 64.27 332.427 64.3998 331.802 63.4712C329.58 60.3759 326.404 58.6485 323.03 57.2106C322.819 57.1143 322.59 57.0611 322.358 57.0542C322.126 57.0473 321.895 57.0868 321.678 57.1703C321.461 57.2539 321.263 57.3799 321.095 57.5411C320.926 57.7023 320.792 57.8954 320.698 58.1093C319.984 59.2575 319.289 60.4058 318.575 61.5441C315.092 67.1256 311.549 72.6673 308.136 78.2888C305.368 82.8595 302.371 87.2852 299.155 91.5487C296.091 95.3596 292.459 98.6705 288.388 101.364C278.316 108.513 267.351 113.665 255.166 115.842C242.782 118.049 230.656 117.35 219.214 111.578C205.49 104.659 197.433 93.2761 194.198 78.3187C192.915 71.8837 192.661 65.284 193.444 58.7683C194.296 48.9162 197.1 39.3356 201.69 30.5909C210.422 14.4453 223.719 4.44048 241.72 1.02564C247.753 -0.0819183 253.914 -0.293852 260.008 0.396596C278.922 2.39357 295.146 10.5712 309.743 22.3634C314.06 25.8581 317.94 29.892 322.018 33.6862C322.33 34.0618 322.615 34.4589 322.871 34.8744Z" fill="#EDF7FE"/>
<path d="M532.039 45.0475C532.259 45.1911 532.494 45.3117 532.739 45.4075C538.149 46.6275 541.959 54.1675 541.909 58.2076C541.818 60.9601 540.925 63.6262 539.339 65.8775C539.252 66.0537 539.131 66.2103 538.982 66.3375C538.833 66.4648 538.659 66.5599 538.471 66.6171C538.284 66.6744 538.086 66.6924 537.891 66.6701C537.697 66.6478 537.508 66.5857 537.339 66.4875C536.664 66.1275 536.034 65.6913 535.459 65.1875C533.859 63.7575 532.319 62.1875 530.719 60.7975C529.757 59.95 528.585 59.3752 527.327 59.1326C526.068 58.8899 524.767 58.9883 523.559 59.4176C519.559 60.5276 516.249 62.9076 512.959 65.3576C508.599 68.5976 505.719 73.0076 502.859 77.4476C499.441 82.9628 495.554 88.1722 491.239 93.0176C486.904 97.695 481.904 101.708 476.399 104.928C469.179 109.172 461.4 112.383 453.289 114.468C446.266 116.305 438.99 116.98 431.749 116.468C425.591 115.974 419.572 114.379 413.979 111.758C404.479 107.428 397.819 100.238 392.849 91.2775C391.159 88.2075 389.189 85.2775 388.519 81.7375C387.669 77.2476 386.819 72.7376 386.319 68.1976C386.023 64.7794 385.933 61.3465 386.049 57.9176C386.222 47.8295 389.025 37.9613 394.179 29.2876C397.929 22.7076 403.229 17.6276 408.819 12.7276C415.999 6.41891 424.92 2.43078 434.409 1.28755C438.592 0.6271 442.808 0.199774 447.039 0.00755282C453.211 -0.0811035 459.37 0.61105 465.369 2.06755C477.149 4.82755 487.729 10.0676 497.699 16.7776C504.38 21.4411 510.71 26.5882 516.639 32.1776C518.089 33.5076 519.639 34.7575 521.069 36.0775C521.185 36.2216 521.332 36.3378 521.499 36.4176C521.666 36.4974 521.849 36.5388 522.034 36.5388C522.219 36.5388 522.401 36.4974 522.568 36.4176C522.735 36.3378 522.882 36.2216 522.999 36.0775C524.404 34.7073 525.707 33.2368 526.899 31.6776C530.059 27.1076 533.059 22.4276 536.139 17.8076C536.694 16.9266 537.309 16.0847 537.979 15.2876C538.899 14.2876 539.979 14.3576 540.369 15.6776C540.98 17.4915 541.354 19.3773 541.479 21.2876C541.527 24.4209 540.935 27.5312 539.739 30.4276C538.119 34.6817 536.033 38.7431 533.519 42.5376C532.979 43.3576 532.549 44.1975 532.039 45.0475Z" fill="#EDF7FE"/>
<path d="M637.061 0C650.771 0.43 662.441 2.81001 673.551 7.65001C679.934 10.5984 685.93 14.3232 691.401 18.74C697.491 23.42 703.401 28.27 709.561 32.91C711.408 34.2169 713.377 35.3421 715.441 36.27C717.64 37.4286 720.156 37.8427 722.611 37.45C723.56 37.3552 724.462 36.9908 725.211 36.4C727.227 34.3921 729.139 32.2827 730.941 30.08C733.831 26.56 736.581 22.93 739.441 19.39C740.056 18.6481 740.777 18.0011 741.581 17.47C742.195 17.0152 742.957 16.8043 743.718 16.8782C744.479 16.9521 745.185 17.3054 745.701 17.87C748.021 19.96 748.071 22.6 747.441 25.34C745.939 31.4839 742.785 37.0999 738.321 41.58C737.501 42.44 736.721 43.35 735.921 44.24C735.331 44.89 735.381 45.44 736.011 46.11C738.411 48.68 740.821 51.24 743.081 53.92C746.541 58.03 746.691 62.92 743.671 67.36C742.241 69.44 740.191 69.71 738.401 67.88C736.611 66.05 735.091 64.21 733.491 62.34C731.907 60.3703 729.746 58.9468 727.311 58.27C726.353 58.0439 725.35 58.0959 724.421 58.42C719.411 60.4809 714.842 63.4815 710.961 67.26C705.631 72.12 700.531 77.26 695.261 82.17C691.411 85.79 687.441 89.28 683.541 92.84C677.087 98.8379 669.888 103.98 662.121 108.14C656.38 111.237 650.203 113.449 643.801 114.7C639.421 115.52 635.011 116.26 630.581 116.7C628.154 116.802 625.723 116.675 623.321 116.32C617.582 115.903 611.962 114.475 606.721 112.1C596.292 107.347 587.928 98.9924 583.161 88.57C580.814 83.6605 579.484 78.3269 579.251 72.89C579.091 68.54 578.961 64.18 579.011 59.82C579.106 53.2729 580.278 46.7861 582.481 40.62C585.561 31.97 589.691 23.9 596.201 17.31C604.611 8.78001 614.941 3.73001 626.591 1.40001C630.561 0.610009 634.611 0.32 637.061 0Z" fill="#EDF7FE"/>
<path d="M161.586 167.303L162.786 167.883C166.664 169.653 170.271 171.966 173.496 174.753C175.437 176.478 176.828 178.735 177.496 181.243C177.581 181.503 177.581 181.783 177.496 182.043C176.766 183.855 175.89 185.604 174.876 187.273C173.786 188.853 171.936 188.833 170.236 188.273C168.915 187.854 167.636 187.312 166.416 186.653C161.256 183.843 155.976 181.353 150.146 180.223C147.118 179.525 143.938 179.989 141.236 181.523C136.366 184.313 132.236 187.983 128.066 191.693C121.266 197.803 114.546 204.013 107.826 210.213C101.306 216.213 93.896 221.053 86.506 225.903C82.436 228.563 78.326 231.243 73.576 232.503C69.4577 233.638 65.2684 234.496 61.036 235.073C56.6787 235.631 52.2888 235.895 47.896 235.863C40.0932 235.886 32.4587 233.596 25.956 229.283C17.776 223.903 10.776 217.433 5.956 208.793C3.86799 204.839 2.42961 200.574 1.69599 196.163C0.654251 191.141 0.0884102 186.032 0.00598785 180.903C-0.146964 170.53 2.6331 160.325 8.02599 151.463C12.4265 144.04 17.9869 137.369 24.496 131.703C31.4554 125.886 39.8155 121.99 48.746 120.403C55.5985 119.021 62.6173 118.657 69.576 119.323C83.7924 120.583 97.4048 125.659 108.976 134.013C111.846 136.103 114.736 138.183 117.426 140.493C122.666 144.963 128.676 148.203 134.616 151.553C135.796 152.213 137.026 152.773 138.196 153.453C141.516 155.383 145.136 155.323 148.766 155.033C149.598 154.894 150.375 154.523 151.006 153.963C155.056 150.683 159.006 147.263 163.096 144.063C165.239 142.369 167.551 140.901 169.996 139.683C172.826 138.313 175.486 139.923 175.996 143.023C176.166 144.207 176.166 145.409 175.996 146.593C174.896 153.863 171.066 159.523 165.486 164.123L161.586 167.303Z" fill="#EDF7FE"/>
<path d="M358.791 170.082C362.261 172.922 365.621 175.572 368.881 178.352C371.763 180.725 373.793 183.972 374.661 187.602C374.942 188.711 374.893 189.877 374.522 190.958C374.151 192.04 373.473 192.99 372.571 193.692C371.844 194.342 370.942 194.765 369.978 194.909C369.013 195.053 368.027 194.912 367.141 194.502C364.965 193.628 362.856 192.596 360.831 191.412C356.581 188.992 352.401 186.412 348.171 183.982C343.751 181.412 339.051 181.422 334.281 182.672C331.001 183.532 328.341 185.582 325.681 187.552C319.401 192.212 313.941 197.802 308.441 203.322C301.683 210.101 294.419 216.356 286.711 222.032C283.379 224.656 279.852 227.023 276.161 229.112C269.37 232.727 261.917 234.931 254.251 235.592C243.731 236.462 233.351 235.782 223.461 231.592C212.781 227.102 204.141 220.192 198.681 209.822C195.846 204.541 194.024 198.775 193.311 192.822C193.02 189.327 192.933 185.818 193.051 182.312C193.051 179.082 193.201 175.842 193.481 172.612C193.847 167.61 195.044 162.702 197.021 158.092C199.817 152.105 203.551 146.602 208.081 141.792C216.341 132.562 226.181 125.632 238.161 122.092C244.522 120.293 251.153 119.647 257.741 120.182C263.362 120.456 268.952 121.169 274.461 122.312C288.231 125.297 300.887 132.084 310.991 141.902C312.671 143.542 314.391 145.162 316.121 146.762C322.691 152.842 330.601 156.142 339.301 157.762C340.282 157.873 341.274 157.703 342.161 157.272C347.482 154.792 352.071 151.202 356.681 147.632C359.546 145.276 362.807 143.448 366.311 142.232C371.311 140.622 373.471 143.632 373.831 147.702C374.191 151.772 372.581 155.562 370.531 159.072C368.651 162.302 365.861 164.682 362.961 166.952C361.621 168.032 360.211 169.032 358.791 170.082Z" fill="#EDF7FE"/>
<path d="M548.332 171.874C552.17 172.757 555.871 174.156 559.332 176.034C561.721 177.228 563.868 178.855 565.662 180.834C568.112 183.694 568.862 186.984 567.242 190.404C565.622 193.824 562.582 195.974 558.512 195.654C556.968 195.486 555.479 194.981 554.152 194.174C551.762 192.761 549.455 191.211 547.242 189.534C542.83 186.048 537.53 183.869 531.942 183.244C528.785 182.8 525.569 183.419 522.802 185.004C518.487 187.491 514.517 190.534 510.992 194.054C505.152 200.174 499.302 206.304 493.152 212.174C487.002 218.044 480.252 222.674 473.242 227.234C466.23 231.862 458.222 234.764 449.872 235.704C445.646 236.017 441.405 236.071 437.172 235.864C434.712 235.864 432.252 235.604 429.792 235.374C421.091 234.672 412.776 231.478 405.842 226.174C401.642 222.934 397.542 219.624 394.302 215.364C391.062 211.104 389.432 206.304 388.202 201.254C386.295 192.856 385.621 184.226 386.202 175.634C386.345 170.077 387.42 164.584 389.382 159.384C390.334 157.154 391.51 155.026 392.892 153.034C399.062 143.824 406.192 135.494 415.702 129.534C421.703 125.87 428.31 123.306 435.212 121.964C439.569 121.102 444.021 120.817 448.452 121.114C452.522 121.334 456.562 122.034 460.632 122.364C467.272 123.021 473.78 124.641 479.952 127.174C487.418 130.163 494.343 134.355 500.452 139.584C505.042 143.414 509.672 147.214 514.352 150.934C517.982 153.824 521.772 156.524 526.462 157.424C528.469 157.764 530.497 157.965 532.532 158.024C533.263 157.984 533.975 157.775 534.612 157.414C538.859 155.383 542.847 152.851 546.492 149.874C549.25 147.645 552.225 145.698 555.372 144.064C559.612 141.884 563.892 142.764 567.572 145.514C569.682 147.084 570.042 149.724 569.362 152.274C568.996 153.452 568.478 154.578 567.822 155.624C563.727 162.833 557.196 168.346 549.402 171.174C549.116 171.283 548.839 171.414 548.572 171.564C548.512 171.624 548.472 171.704 548.332 171.874Z" fill="#EDF7FE"/>
<path d="M741.355 172.078C746.605 173.958 751.195 176.388 754.715 180.488C756.866 182.911 758.069 186.028 758.105 189.268C758.151 190.273 757.963 191.275 757.555 192.195C757.147 193.114 756.531 193.927 755.755 194.568C755.11 195.19 754.28 195.586 753.391 195.694C752.501 195.802 751.6 195.618 750.825 195.168C746.725 193.028 742.615 190.908 738.555 188.688C734.907 186.513 730.923 184.962 726.765 184.098C724.166 183.604 721.495 183.631 718.907 184.177C716.318 184.723 713.863 185.777 711.685 187.278C708.047 189.63 704.787 192.519 702.015 195.848C694.555 205.028 685.655 212.628 676.355 219.848C670.346 224.636 663.715 228.589 656.645 231.598C648.152 235.109 638.901 236.383 629.775 235.298C624.775 234.728 619.825 234.078 614.945 233.028C607.885 231.518 601.945 227.668 596.435 223.158C593.771 221.07 591.243 218.816 588.865 216.408C584.655 211.938 582.635 206.298 581.085 200.468C580.015 196.405 579.398 192.236 579.245 188.038C579.065 183.538 578.915 179.038 579.055 174.518C579.254 163.798 583.485 153.547 590.905 145.808C594.705 141.748 598.325 137.538 602.675 134.028C610.239 127.786 619.295 123.617 628.955 121.928C633.813 121.018 638.772 120.776 643.695 121.208C652.545 122.108 661.465 122.518 669.945 125.628C677.079 128.368 683.853 131.968 690.115 136.348C697.268 141.286 703.995 146.816 710.225 152.878C714.125 156.588 718.705 158.348 723.795 159.248C724.634 159.351 725.485 159.208 726.245 158.838C728.618 157.724 730.952 156.538 733.245 155.278C737.065 153.178 740.795 150.918 744.645 148.878C747.155 147.494 749.952 146.713 752.815 146.598C756.235 146.488 757.815 148.598 758.015 151.508C758.425 157.588 755.715 162.278 751.275 166.158C748.731 168.3 745.892 170.064 742.845 171.398C742.395 171.558 741.965 171.778 741.355 172.078Z" fill="#EDF7FE"/>
<path d="M158.955 291.706C159.735 291.966 160.205 292.096 160.655 292.276C163.905 293.576 167.215 294.756 170.375 296.276C173.02 297.611 175.173 299.75 176.525 302.386C177.677 304.625 177.986 307.204 177.397 309.652C176.808 312.1 175.359 314.256 173.315 315.726C172.434 316.341 171.365 316.625 170.295 316.53C169.225 316.435 168.223 315.966 167.465 315.206C162.814 311.255 157.692 307.896 152.215 305.206C149.185 303.792 146.057 302.599 142.855 301.636C141.749 301.261 140.563 301.183 139.418 301.41C138.272 301.636 137.205 302.159 136.325 302.926C133.914 304.799 131.607 306.802 129.415 308.926C124.795 313.636 120.325 318.496 115.805 323.306C106.655 333.016 95.8948 340.576 84.2448 346.946C77.9248 350.406 70.9848 352.086 63.9848 353.556C58.8484 354.478 53.5961 354.555 48.4348 353.786C43.9748 353.256 39.5248 352.486 35.1248 351.566C29.4848 350.386 24.7348 347.336 20.2548 343.866C14.2365 339.417 9.34556 333.618 5.97478 326.936C3.80478 322.476 2.73479 317.646 1.52479 312.876C-0.0309365 306.138 -0.399806 299.181 0.434774 292.316C1.46757 280.562 6.52985 269.526 14.7648 261.076C17.5548 258.156 20.4448 255.306 23.4948 252.656C28.3548 248.426 34.2548 246.056 40.2548 244.006C48.3354 241.25 56.8279 239.897 65.3648 240.006C84.1248 240.196 100.705 246.516 115.275 258.136C122.275 263.736 129.055 269.676 135.875 275.536C138.055 277.406 140.725 277.976 143.305 278.816C144.751 279.312 146.294 279.459 147.807 279.245C149.321 279.031 150.763 278.463 152.015 277.586C156.721 274.506 161.468 271.476 166.255 268.496C167.417 267.751 168.684 267.185 170.015 266.816C173.865 265.816 176.385 267.676 176.675 271.636C177.025 276.436 174.325 284.996 167.375 287.816C165.375 288.626 163.375 289.516 161.435 290.396C160.665 290.706 159.965 291.146 158.955 291.706Z" fill="#EDF7FE"/>
<path d="M345.78 289.244C347.72 290.084 349.39 290.864 351.09 291.534C354.768 293.088 358.052 295.446 360.7 298.434C364.77 302.744 364.37 307.674 361.22 312.384C360.669 313.216 359.866 313.849 358.928 314.191C357.99 314.533 356.968 314.566 356.01 314.284C351.5 313.354 347.91 310.814 344.62 307.754C341.01 304.394 336.94 301.964 331.91 301.514C331.34 301.454 330.766 301.588 330.28 301.894C328.328 303.257 326.464 304.744 324.7 306.344C319.25 311.644 313.99 317.144 308.5 322.404C299.51 331.114 289.586 338.807 278.91 345.344C271.811 349.68 263.898 352.515 255.66 353.674C243.754 355.319 231.624 353.734 220.54 349.084C216.778 347.453 213.313 345.205 210.29 342.434C208.11 340.534 206.043 338.507 204.1 336.364C200.37 332.214 198.64 327.014 196.79 321.904C194.822 316.79 193.587 311.424 193.12 305.964C192.922 301.995 192.969 298.017 193.26 294.054C193.513 288.347 194.709 282.72 196.8 277.404C198.408 273.797 200.34 270.343 202.57 267.084C206.89 260.324 213.05 255.434 219.39 250.704C227.16 244.904 235.93 241.924 245.39 240.704C255.904 239.246 266.607 240.058 276.78 243.084C285.96 245.857 294.586 250.209 302.27 255.944C308.92 260.944 315.38 266.114 321.95 271.174C323.95 272.684 326.02 273.994 327.95 275.574C328.753 276.281 329.761 276.712 330.826 276.804C331.892 276.896 332.959 276.643 333.87 276.084C336.669 274.625 339.392 273.027 342.03 271.294C345.972 268.568 350.164 266.224 354.55 264.294C355.443 263.934 356.363 263.643 357.3 263.424C357.921 263.232 358.576 263.174 359.221 263.253C359.866 263.331 360.487 263.545 361.044 263.88C361.601 264.215 362.081 264.664 362.452 265.197C362.824 265.73 363.079 266.336 363.2 266.974C363.598 268.699 363.662 270.485 363.39 272.234C362.948 274.538 362.257 276.788 361.33 278.944C360.597 280.713 359.509 282.312 358.133 283.643C356.757 284.975 355.122 286.009 353.33 286.684C351.52 287.434 349.63 287.974 347.77 288.604C347.14 288.854 346.59 289.004 345.78 289.244Z" fill="#EDF7FE"/>
<path d="M533.046 287.316C533.616 287.546 534.046 287.736 534.456 287.896C539.354 289.796 543.581 293.101 546.606 297.396C548 299.228 548.746 301.471 548.728 303.773C548.71 306.075 547.928 308.306 546.506 310.116C545.7 311.343 544.446 312.208 543.012 312.526C541.577 312.843 540.076 312.588 538.826 311.816C536.256 310.266 533.926 308.336 531.456 306.616C527.686 304.006 523.886 301.446 520.106 298.846C519.775 298.576 519.363 298.424 518.935 298.415C518.507 298.406 518.089 298.54 517.746 298.796C516.601 299.497 515.526 300.307 514.536 301.216C509.116 306.816 503.786 312.516 498.366 318.116C491.406 325.266 484.966 332.916 477.306 339.326C471.606 344.136 465.606 348.516 458.506 351.156C453.93 352.802 449.148 353.812 444.296 354.156C436.646 354.776 429.156 354.106 422.066 351.056C415.246 348.116 408.756 344.576 403.286 339.406C394.473 331.199 388.64 320.293 386.706 308.406C384.596 296.196 387.406 284.736 392.566 273.776C398.026 262.186 406.136 252.856 417.426 246.506C422.938 243.457 429.01 241.556 435.276 240.916C440.165 240.226 445.1 239.925 450.036 240.016C459.106 240.406 467.686 242.346 475.646 246.956C484.336 251.956 492.256 258.056 500.146 264.196C502.886 266.326 505.646 268.436 508.366 270.596C510.447 272.271 512.877 273.461 515.476 274.076C517.684 274.577 519.998 274.279 522.006 273.236C525.176 271.596 528.146 269.566 531.236 267.756C533.656 266.326 536.046 264.816 538.586 263.626C540.097 262.96 541.717 262.577 543.366 262.496C544.187 262.442 545.009 262.558 545.782 262.835C546.556 263.113 547.264 263.546 547.863 264.109C548.463 264.672 548.94 265.351 549.265 266.106C549.591 266.86 549.758 267.674 549.756 268.496C549.956 272.496 548.296 275.706 545.856 278.606C542.626 282.456 538.856 285.536 533.856 286.956C533.578 287.056 533.307 287.176 533.046 287.316Z" fill="#EDF7FE"/>
<path d="M722.592 282.49C723.762 283.15 724.772 283.69 725.762 284.26C730.522 287.03 734.832 290.31 737.762 295.05C740.382 299.26 739.762 303.51 736.292 307.05C735.577 307.847 734.639 308.412 733.6 308.671C732.56 308.929 731.467 308.87 730.462 308.5C728.452 307.84 726.536 306.922 724.762 305.77C720.942 303.17 717.292 300.31 713.572 297.56C713.292 297.36 712.992 297.19 712.692 297.01C709.502 295.1 707.292 295.1 704.552 297.68C702.124 300.049 699.862 302.581 697.782 305.26C691.622 312.93 685.662 320.76 679.432 328.37C673.972 335.05 667.982 341.26 660.642 345.93C653.768 350.412 645.945 353.229 637.792 354.16C631.382 354.86 625.172 353.74 619.072 352.02C612.552 350.18 606.292 347.64 600.972 343.28C594.131 337.719 588.436 330.882 584.202 323.15C581.712 318.56 580.652 313.47 579.762 308.4C579.334 305.418 579.087 302.412 579.022 299.4C578.829 293.378 579.912 287.383 582.202 281.81C585.352 273.6 589.352 265.81 595.202 259.13C601.052 252.45 607.482 246.5 615.842 243.07C621.59 240.705 627.703 239.351 633.912 239.07C651.262 238.29 666.422 244.07 679.912 254.51C685.622 258.92 691.052 263.68 696.692 268.18C698.433 269.508 700.294 270.67 702.252 271.65C702.627 271.827 703.033 271.927 703.448 271.942C703.862 271.958 704.275 271.889 704.662 271.74C707.577 270.445 710.418 268.989 713.172 267.38C716.702 265.24 720.042 262.8 723.512 260.56C725.841 258.899 728.491 257.741 731.292 257.16C735.992 256.39 738.112 258.7 737.012 263.35C735.753 268.283 733.17 272.778 729.542 276.35C727.922 278.04 726.042 279.49 724.282 281.05L722.592 282.49Z" fill="#EDF7FE"/>
<path d="M139.888 398.906C142.931 400.022 145.889 401.359 148.738 402.906C151.531 404.505 153.641 407.072 154.669 410.122C155.697 413.171 155.573 416.492 154.318 419.456C153.947 420.554 153.164 421.466 152.135 421.999C151.105 422.532 149.909 422.646 148.798 422.316C145.421 421.668 142.212 420.338 139.368 418.406C136.538 416.466 133.818 414.406 130.828 412.656C130.165 412.266 129.386 412.125 128.628 412.256C124.125 412.943 119.939 414.987 116.628 418.116C112.58 421.83 109.18 426.193 106.568 431.026C102.738 437.616 99.1281 444.356 94.7681 450.626C89.3581 458.426 82.6781 464.716 73.8481 468.676C65.0181 472.636 56.1181 473.286 46.8481 471.676C41.0608 470.758 35.4404 468.992 30.1681 466.436C23.3422 462.875 17.321 457.95 12.4781 451.966C5.10806 443.306 1.55807 433.046 0.26807 421.966C-0.73193 413.476 1.16807 405.416 4.26807 397.566C7.98807 388.036 12.9881 379.326 20.1581 371.886C26.9079 364.898 35.7509 360.299 45.3481 358.786C56.9881 356.716 68.0581 358.916 78.8181 363.276C87.7123 367.033 96.0232 372.044 103.498 378.156C107.126 381.092 110.915 383.823 114.848 386.336C115.802 386.981 116.894 387.395 118.036 387.545C119.179 387.694 120.34 387.574 121.428 387.196C126.595 385.483 131.461 382.969 135.848 379.746C138.14 377.985 140.549 376.381 143.058 374.946C145.309 373.575 147.892 372.845 150.528 372.836C152.858 372.916 153.838 373.956 153.968 376.266C154.16 381.078 152.826 385.827 150.158 389.836C148.745 392.007 146.913 393.873 144.768 395.326C143.066 396.413 141.436 397.609 139.888 398.906Z" fill="#EDF7FE"/>
<path d="M247.296 358.025C256.296 357.725 264.646 360.205 272.696 364.025C280.446 367.695 287.626 372.365 294.996 376.715C298.846 378.985 302.506 381.575 306.446 383.715C307.817 384.415 309.242 385.007 310.706 385.485C311.67 385.844 312.713 385.936 313.726 385.751C314.738 385.566 315.681 385.111 316.456 384.435C320.602 381.411 324.569 378.149 328.336 374.665C330.163 372.883 332.263 371.405 334.556 370.285C334.966 370.085 335.386 369.885 335.816 369.725C339.446 368.335 342.136 369.535 343.126 373.315C344.856 379.895 343.126 384.475 337.966 388.095C335.256 389.995 332.406 391.705 329.616 393.495C326.826 395.285 326.676 396.285 329.386 398.495C331.666 400.305 334.276 401.585 336.696 403.165C339.116 404.745 341.506 406.625 342.606 409.595C343.706 412.565 343.266 415.145 341.076 417.075C340.028 418.086 338.675 418.722 337.228 418.883C335.78 419.044 334.32 418.721 333.076 417.965C331.306 416.965 329.656 415.735 327.956 414.595C326.676 413.735 325.306 413.015 324.016 412.185C321.846 410.805 319.586 410.755 317.136 411.075C313.136 411.595 310.346 413.795 308.256 417.075C303.146 425.075 298.646 433.425 293.346 441.285C288.896 447.875 284.276 454.364 278.346 459.744C272.385 465.227 265.088 469.048 257.186 470.825C253.574 471.798 249.833 472.203 246.096 472.025C241.297 471.555 236.551 470.651 231.916 469.325C226.757 467.916 221.82 465.795 217.246 463.025C216.136 462.399 215.088 461.669 214.116 460.845C208.286 455.575 202.576 450.185 198.936 443.085C194.466 434.44 192.456 424.733 193.126 415.025C193.706 405.865 197.126 397.565 200.376 389.235C202.817 382.995 206.509 377.322 211.226 372.565C219.546 364.175 229.536 359.235 241.396 358.305C242.396 358.225 243.396 358.135 244.396 358.095C245.396 358.055 246.326 358.025 247.296 358.025Z" fill="#EDF7FE"/>
<path d="M440.24 359C449.18 359.11 457.55 361.53 465.64 365.19C473.92 369.087 481.59 374.167 488.41 380.27C489.89 381.56 491.41 382.77 492.96 384.03C493.638 384.638 494.475 385.039 495.374 385.186C496.272 385.333 497.194 385.22 498.03 384.86C501.77 383.389 505.202 381.232 508.15 378.5C510.41 376.5 512.42 374.26 514.48 372.06C516.1 370.193 517.999 368.587 520.11 367.3C521.166 366.654 522.364 366.276 523.6 366.2C524.336 366.092 525.087 366.248 525.72 366.639C526.353 367.031 526.828 367.633 527.06 368.34C528.115 371.151 528.115 374.249 527.06 377.06C525.595 381.409 522.795 385.184 519.06 387.85C517.25 389.23 515.36 390.5 513.66 392.02C513.364 392.266 513.087 392.533 512.83 392.82C511.93 393.9 512.13 394.82 513.46 395.18C514.96 395.65 516.46 396.02 518.04 396.36C522.36 397.36 524.83 400.19 525.94 404.25C527.05 408.31 525.6 411.61 523.02 414.59C521.64 416.19 519.83 416.28 517.93 415.7C516.767 415.285 515.674 414.695 514.69 413.95C513.69 413.28 512.69 412.68 511.69 411.95C507.69 408.95 501.57 410.35 498.69 413.18C495.81 416.01 493.77 419.76 492.03 423.51C488.88 430.28 486.03 437.19 482.78 443.91C476.24 457.39 465.45 465.91 451.21 469.91C434.51 474.56 419.42 470.53 405.84 460.17C394.58 451.57 388.37 440.05 386.44 426.17C385.637 419.767 385.935 413.273 387.32 406.97C388.76 399.97 390.54 392.91 394.39 386.8C402.73 373.54 413.78 363.61 429.63 360.15C433.119 359.409 436.673 359.023 440.24 359Z" fill="#EDF7FE"/>
<path d="M630.991 359.004C643.247 359.028 655.259 362.426 665.711 368.824C671.851 372.464 677.711 376.484 683.601 380.544C685.526 382.033 687.74 383.106 690.101 383.694C690.581 383.831 691.086 383.859 691.578 383.774C692.069 383.689 692.536 383.494 692.941 383.204C698.541 379.104 704.501 375.494 709.661 370.814C710.782 369.749 712.035 368.835 713.391 368.094C714.623 367.424 716.07 367.268 717.416 367.66C718.763 368.051 719.9 368.958 720.581 370.184C722.211 373.054 722.141 376.094 721.281 379.184C720.463 382.016 718.923 384.587 716.811 386.644C714.341 389.144 711.491 391.214 708.811 393.484C707.401 394.684 707.401 394.784 709.111 395.554C711.541 396.634 714.011 397.614 716.381 398.824C723.681 402.594 723.531 409.754 720.441 414.734C719.171 416.734 717.391 416.934 715.321 416.594C713.194 416.182 711.16 415.382 709.321 414.234C705.791 412.234 702.321 410.024 698.321 408.924C697.67 408.717 696.982 408.653 696.304 408.736C695.626 408.819 694.974 409.046 694.391 409.404C689.015 412.514 684.655 417.116 681.841 422.654C678.764 428.605 676.071 434.747 673.781 441.044C672.859 443.451 671.689 445.757 670.291 447.924C668.381 450.864 666.771 453.984 664.571 456.744C661.041 461.174 656.401 464.064 651.511 466.694C646.505 469.272 641.138 471.079 635.591 472.054C633.131 472.534 630.591 472.144 628.091 471.924C625.705 471.809 623.33 471.532 620.981 471.094C612.341 469.119 604.278 465.162 597.431 459.534C591.831 454.984 587.181 449.624 584.351 442.874C583.143 439.873 582.121 436.8 581.291 433.674C577.313 419.951 578.545 405.243 584.751 392.374C589.439 382.512 596.362 373.88 604.971 367.164C610.621 362.614 617.361 360.394 624.501 359.404C626.652 359.109 628.821 358.975 630.991 359.004Z" fill="#EDF7FE"/>
<path d="M52.6193 478.055C64.6693 477.445 77.7093 481.975 90.2193 488.475C96.3793 491.675 102.219 495.475 108.079 499.135C111.929 501.515 111.809 501.135 114.759 498.435C117.239 496.135 118.889 493.165 121.049 490.605C123.209 488.045 125.419 485.235 128.269 483.145C131.119 481.055 133.269 482.815 133.919 485.145C134.943 488.844 134.465 492.797 132.589 496.145C131.31 498.391 129.849 500.528 128.219 502.535C127.208 503.847 126.299 505.234 125.499 506.685C124.349 508.895 124.499 510.455 126.149 512.295C127.799 514.135 129.629 516.295 131.219 518.455C132.809 520.41 133.87 522.742 134.299 525.225C134.699 528.035 133.469 529.855 130.719 530.525C129.335 530.89 127.89 530.963 126.476 530.737C125.062 530.511 123.711 529.993 122.509 529.215C121.369 528.495 120.259 527.725 119.149 526.955C116.849 525.365 114.039 524.535 111.149 527.485C110.007 528.629 109 529.901 108.149 531.275C103.629 538.775 100.659 546.955 97.2693 554.975C94.0393 562.615 89.8493 569.745 83.8593 575.585C77.468 581.989 69.3335 586.371 60.4693 588.185C57.2293 588.845 54.0093 589.765 50.6893 589.835C46.9892 589.75 43.3264 589.075 39.8393 587.835C30.5208 585.026 22.0852 579.86 15.3492 572.835C10.8452 568.016 7.23249 562.437 4.67926 556.355C-1.62074 542.205 -1.20074 527.985 3.79926 513.585C6.82996 505.079 12.094 497.546 19.0392 491.775C21.837 489.193 24.8476 486.851 28.0392 484.775C35.3574 480.085 43.9329 477.74 52.6193 478.055Z" fill="#EDF7FE"/>
<path d="M296.898 498.492C298.924 494.856 300.624 491.048 301.978 487.112C302.484 485.538 303.099 484.001 303.818 482.512C304.198 481.802 304.668 481.162 305.548 481.152C306.428 481.142 306.988 481.792 307.358 482.552C308.759 485.619 309.278 489.016 308.858 492.362C308.538 496.132 307.138 499.612 306.038 503.172C305.567 504.679 305.232 506.225 305.038 507.792C304.92 508.617 304.973 509.456 305.193 510.26C305.413 511.063 305.796 511.813 306.318 512.462C309.938 516.992 310.228 522.092 308.908 527.462C308.811 527.837 308.677 528.203 308.508 528.552C307.758 530.172 306.508 530.552 305.028 529.552C303.861 528.647 302.774 527.643 301.778 526.552C300.438 525.302 299.908 525.402 299.278 527.182C298.938 528.182 298.808 529.182 298.558 530.182C295.958 540.802 293.308 551.402 288.558 561.352C286.666 565.624 283.982 569.499 280.648 572.772C278.208 575.072 275.908 577.522 273.448 579.772C271.817 581.192 270.008 582.396 268.068 583.352C264.876 585.038 261.527 586.407 258.068 587.442C241.388 592.552 226.448 589.152 213.178 578.142C207.026 573 201.969 566.675 198.308 559.542C192.998 549.282 191.948 538.412 193.938 527.152C194.408 524.462 194.938 521.762 195.558 519.152C198.168 508.722 203.848 500.152 211.878 493.152C213.788 491.472 215.758 489.852 217.708 488.222C221.818 484.792 226.708 483.222 231.818 481.992C238.158 480.435 244.686 479.786 251.208 480.062C255.639 480.345 260.029 481.086 264.308 482.272C273.125 484.674 281.58 488.245 289.448 492.892C292.166 494.425 294.67 496.307 296.898 498.492Z" fill="#EDF7FE"/>
<path d="M495.242 521.486C495.459 523.752 495.436 526.034 495.172 528.296C494.992 529.986 494.792 530.126 493.112 530.236C492.522 530.236 492.742 530.746 492.722 531.026C492.502 533.516 492.372 536.026 492.112 538.516C491.131 546.811 488.346 554.791 483.952 561.896C481.102 566.706 477.843 571.263 474.212 575.516C468.201 582.509 459.954 587.205 450.872 588.806C444.554 590.105 438.089 590.546 431.652 590.116C424.012 589.536 417.192 586.616 410.822 582.476C403.822 577.896 398.562 571.626 394.212 564.556C389.883 557.733 387.149 550.021 386.212 541.996C385.826 537.695 385.967 533.362 386.632 529.096C387.379 522.303 389.29 515.69 392.282 509.546C397.178 500.188 404.644 492.424 413.802 487.166C420.724 483.148 428.5 480.831 436.492 480.406C438.682 480.256 440.882 479.956 443.072 480.006C446.034 480.157 448.975 480.596 451.852 481.316C458.112 482.716 463.852 485.466 469.572 488.216C474.391 490.383 478.986 493.015 483.292 496.076C484.872 497.256 486.812 497.806 488.572 498.676C489.202 498.986 489.182 498.496 489.202 498.116C489.342 495.846 489.472 493.576 489.612 491.306C489.692 490.076 489.772 488.846 489.892 487.616C489.972 486.846 490.232 486.106 491.142 486.076C492.052 486.046 492.292 486.726 492.462 487.436C493.354 491.466 493.91 495.563 494.122 499.686C494.582 505.566 494.902 511.456 495.252 517.336C495.312 518.706 495.242 520.096 495.242 521.486Z" fill="#EDF7FE"/>
<path d="M683.15 501.098C683.53 499.098 683.84 497.298 684.23 495.508C684.75 493.178 685.32 490.858 685.88 488.508C685.917 488.315 686.02 488.142 686.172 488.018C686.324 487.894 686.514 487.826 686.71 487.828C686.986 487.809 687.258 487.894 687.475 488.066C687.691 488.238 687.836 488.485 687.88 488.758C688.25 490.178 688.58 491.598 688.88 493.038C689.727 497.63 689.963 502.314 689.58 506.968C689.19 512.778 688.94 518.598 688.65 524.408C688.474 528.377 688.076 532.333 687.46 536.258C687.34 536.975 687.159 537.681 686.92 538.368C686.57 539.368 685.78 539.178 684.92 538.878C684.868 542.667 684.255 546.428 683.1 550.038C680.49 559.228 675.3 566.808 668.45 573.338C658.443 583.442 644.879 589.228 630.66 589.458C628.315 589.445 625.974 589.247 623.66 588.868C614.585 587.592 606.086 583.676 599.22 577.608C589.97 569.458 583.13 559.648 580.37 547.458C577.53 534.968 579.2 522.888 584.51 511.258C587.842 503.719 592.74 496.977 598.88 491.478C603.04 487.798 607.96 485.478 612.99 483.218C620.804 479.802 629.358 478.426 637.85 479.218C643.33 479.678 648.55 481.368 653.78 483.008C663.65 486.098 672.14 491.468 679.78 498.288C680.84 499.238 681.97 500.088 683.15 501.098Z" fill="#EDF7FE"/>
<path d="M109.505 623.47C110.555 619.92 111.595 616.47 112.585 612.92C112.845 612.01 113.125 611.17 114.245 611.18C115.365 611.19 115.745 612.02 115.975 612.91C116.347 614.724 116.551 616.568 116.585 618.42C116.995 623.76 117.655 629.08 117.855 634.42C118.005 638.13 117.715 641.82 117.695 645.52C117.715 647.833 117.575 650.145 117.275 652.44C117.129 653.708 116.68 654.922 115.965 655.98C115.84 656.249 115.663 656.489 115.442 656.687C115.221 656.884 114.962 657.035 114.681 657.128C114.4 657.222 114.103 657.257 113.807 657.232C113.512 657.206 113.226 657.12 112.965 656.98C111.965 656.53 111.715 656.84 111.375 657.8C106.795 670.89 100.315 682.87 90.5448 692.89C83.8922 699.765 75.5291 704.746 66.3147 707.32C62.5801 708.249 58.7603 708.795 54.9148 708.95C48.7223 709.503 42.4835 708.698 36.6348 706.59C27.2648 703.13 18.9548 698.02 12.4248 690.33C6.95556 683.901 3.11709 676.248 1.23476 668.02C0.174631 663.156 -0.205664 658.168 0.104754 653.2C0.461271 643.604 3.10096 634.231 7.80477 625.86C11.8848 618.7 17.2448 612.43 24.3348 608.05C32.5674 602.885 41.9413 599.819 51.6348 599.12C60.7848 598.48 69.4848 600.47 77.9848 603.63C86.1729 606.772 93.7473 611.324 100.365 617.08C103.153 619.557 106.22 621.702 109.505 623.47Z" fill="#EDF7FE"/>
<path d="M317.845 639.685C318.075 642.795 318.075 646.385 318.075 649.975C318.075 650.435 318.075 650.895 318.075 651.355C317.925 653.795 316.585 654.625 314.425 653.485C312.864 652.758 311.342 651.95 309.865 651.065C309.075 650.525 308.215 651.065 307.395 651.165C306.595 651.225 305.826 651.497 305.165 651.952C304.505 652.407 303.977 653.029 303.635 653.755C301.976 657.27 300.589 660.908 299.485 664.635C297.485 670.575 295.485 676.525 292.485 682.065C288.725 688.875 283.175 693.935 277.115 698.645C270.265 703.985 262.415 706.585 254.045 708.065C242.134 710.234 229.84 708.029 219.425 701.855C212.425 697.855 206.425 692.855 202.085 686.065C196.838 678.117 193.737 668.947 193.085 659.445C192.575 650.735 194.405 642.445 197.135 634.285C200.635 623.755 207.315 615.645 216.235 609.135C222.298 604.864 229.201 601.932 236.485 600.535C247.204 598.179 258.342 598.54 268.885 601.585C279.025 604.485 287.615 610.125 295.045 617.585C296.722 619.449 298.559 621.162 300.535 622.705C303.025 624.455 304.085 624.385 306.535 622.595C309.675 620.335 311.195 617.045 312.385 613.545C312.745 612.545 312.985 611.395 313.385 610.335C313.655 609.545 313.875 608.575 315.025 608.735C316.175 608.895 316.125 609.825 316.195 610.615C316.455 613.615 316.615 616.615 316.905 619.615C317.515 626.115 317.745 632.665 317.845 639.685Z" fill="#EDF7FE"/>
</svg>
