<svg width="768" height="754" viewBox="0 0 768 754" fill="none" xmlns="http://www.w3.org/2000/svg">
<rect width="192" height="126" fill="#313F86"/>
<rect y="126" width="192" height="126" fill="#313F86"/>
<rect y="252" width="192" height="126" fill="#313F86"/>
<rect y="378" width="192" height="126" fill="#313F86"/>
<rect y="504" width="192" height="126" fill="#313F86"/>
<rect y="628" width="192" height="126" fill="#313F86"/>
<rect x="192" width="192" height="126" fill="#313F86"/>
<rect x="192" y="126" width="192" height="126" fill="#313F86"/>
<rect x="192" y="252" width="192" height="126" fill="#313F86"/>
<rect x="192" y="378" width="192" height="126" fill="#313F86"/>
<rect x="192" y="504" width="192" height="126" fill="#313F86"/>
<rect x="192" y="628" width="192" height="126" fill="#313F86"/>
<rect x="384" width="192" height="126" fill="#313F86"/>
<rect x="384" y="126" width="192" height="126" fill="#313F86"/>
<rect x="384" y="252" width="192" height="126" fill="#313F86"/>
<rect x="384" y="378" width="192" height="126" fill="#313F86"/>
<rect x="384" y="504" width="192" height="126" fill="#313F86"/>
<rect x="576" width="192" height="126" fill="#313F86"/>
<rect x="576" y="126" width="192" height="126" fill="#313F86"/>
<rect x="576" y="252" width="192" height="126" fill="#313F86"/>
<rect x="576" y="378" width="192" height="126" fill="#313F86"/>
<rect x="576" y="504" width="192" height="126" fill="#313F86"/>
<path d="M60.1936 24.0127C60.1413 23.5754 60.1215 23.1349 60.1027 22.7164C60.1007 22.6731 60.0988 22.6302 60.0968 22.5875C60.0756 22.1231 60.0514 21.6849 59.9859 21.2594C59.9688 21.1487 59.8982 20.9634 59.7977 20.8047C59.762 20.7483 59.7299 20.7073 59.7053 20.6803C59.5806 20.682 59.4573 20.7099 59.3435 20.7625C59.2207 20.8194 59.1127 20.9034 59.0274 21.0081C58.5739 21.949 58.2599 22.951 58.0954 23.9826C57.917 25.4441 57.8216 26.9033 57.7253 28.3776C57.6716 29.2004 57.6175 30.0279 57.5485 30.8632C57.2084 35.1777 56.8516 39.4821 56.4782 43.7766L56.478 43.779C56.1778 47.0509 55.8574 50.3154 55.4767 53.5812C55.3724 54.485 55.1651 55.3954 54.9648 56.2752C54.8714 56.6854 54.7795 57.089 54.7002 57.4821L54.6977 57.4947L54.6945 57.5071C54.5985 57.8832 54.5335 58.2666 54.5002 58.6533C54.5047 59.1165 54.6643 59.3583 54.8096 59.4563C54.9418 59.5454 55.1909 59.6009 55.59 59.3997C56.3344 58.9188 57.0328 58.37 57.6762 57.7604L57.692 57.7454L57.709 57.7319C58.0881 57.4306 58.4497 57.1179 58.8551 56.7521L59.4189 56.2433L59.6635 56.9623C60.0556 58.1152 60.472 59.2599 60.8867 60.4C61.5138 62.1239 62.137 63.8372 62.6667 65.5521C65.811 75.1916 70.8353 84.1119 77.4491 91.7972L77.4492 91.7971L77.4569 91.8065C84.8309 100.809 93.8485 108.329 104.03 113.965C111.043 117.755 118.722 120.156 126.645 121.036L126.645 121.036L126.654 121.037C133.934 121.971 141.323 121.588 148.469 119.908C153.472 118.581 158.239 116.488 162.601 113.702L162.601 113.702L162.608 113.698C171.492 108.228 178.583 101.129 182.853 91.5106C185.039 86.5806 186.257 81.2762 186.44 75.8863L186.44 75.8863L186.441 75.8748C186.695 71.4264 186.695 66.9671 186.441 62.5186C185.543 51.8907 181.992 41.6581 176.113 32.7589L176.113 32.759L176.109 32.7524C170.863 24.5373 163.691 18.4687 155.283 13.6182C149.404 10.3359 143.089 7.90256 136.528 6.39056L136.528 6.39061L136.52 6.38881C131.814 5.22942 127.093 5.40233 122.312 5.80159L122.312 5.80167L122.303 5.80225C118.412 6.0587 114.547 6.61643 110.743 7.47045C101.176 9.75518 91.9121 12.8067 83.8721 18.5892C82.414 19.6382 80.9442 20.6632 79.4775 21.686C74.4912 25.1633 69.5413 28.6153 65.2117 32.8988L65.1965 32.9138L65.1801 32.9275C64.9169 33.1468 64.6417 33.3514 64.3558 33.5404L63.9419 33.814L63.6651 33.4023C61.7767 30.5935 60.5865 27.3744 60.1936 24.0127ZM60.1936 24.0127L60.6901 23.9533M60.1936 24.0127C60.1936 24.0122 60.1935 24.0118 60.1935 24.0113L60.6901 23.9533M60.6901 23.9533C60.6401 23.5355 60.6211 23.1135 60.6021 22.6921C60.5793 22.1857 60.5565 21.68 60.4801 21.1833C60.4201 20.7933 60.0701 20.1833 59.8101 20.1833L63.8043 32.7062C63.8049 32.7058 63.8055 32.7054 63.8061 32.7051C62.1205 30.0627 61.0542 27.0707 60.6901 23.9533ZM59.6681 20.6457C59.6682 20.6459 59.6704 20.6477 59.6746 20.6504C59.6702 20.6467 59.668 20.6454 59.6681 20.6457Z" stroke="#EDF7FE"/>
<path d="M249.554 40.1372L249.139 40.809L248.709 40.1466C247.893 38.8886 247.168 37.5727 246.541 36.2093L246.532 36.1906L246.525 36.1713C245.217 32.5765 243.954 28.9439 242.698 25.3292C242.049 23.4612 241.402 21.598 240.75 19.7473C240.723 19.674 240.704 19.6036 240.691 19.5487C240.685 19.521 240.679 19.4934 240.673 19.4703L240.673 19.4677C240.667 19.4427 240.663 19.4224 240.658 19.4032C240.649 19.3636 240.641 19.3434 240.639 19.3356C240.544 19.2178 240.451 19.0862 240.368 18.9682L240.367 18.966C240.279 18.8407 240.199 18.7279 240.119 18.6274C240.039 18.526 239.973 18.4554 239.918 18.4105C239.897 18.3935 239.882 18.3835 239.872 18.3777C239.677 18.3818 239.484 18.4248 239.304 18.5045C239.116 18.5882 238.947 18.7105 238.807 18.8638C237.661 20.5712 236.958 22.5417 236.766 24.5943L236.764 24.6108L236.762 24.6272C235.958 29.615 237.115 34.3915 238.726 39.1345L238.73 39.1452L238.733 39.156C238.941 39.8747 239.189 40.5812 239.475 41.2724C240.046 42.524 240.354 43.8807 240.379 45.2575C240.404 46.6323 240.147 47.9975 239.624 49.2678C237.768 54.6324 237.272 60.3783 238.181 65.9848L238.182 65.9931L238.183 66.0014C238.271 66.689 238.438 67.3641 238.68 68.013C238.85 68.4519 239.074 68.5717 239.196 68.5888C239.31 68.6047 239.536 68.5586 239.783 68.1919L239.787 68.1857L239.792 68.1795C242.096 64.9707 245.376 63.1992 248.768 61.7529C249.039 61.6307 249.331 61.5633 249.627 61.5544C249.926 61.5455 250.223 61.5963 250.502 61.7038C250.781 61.8112 251.035 61.9732 251.251 62.1801C251.458 62.3782 251.625 62.6137 251.744 62.874C252.051 63.3674 252.351 63.856 252.65 64.3425C253.048 64.9893 253.443 65.6324 253.849 66.2783L253.849 66.2794C254.965 68.0663 256.087 69.8507 257.209 71.6357C259.589 75.42 261.971 79.2074 264.292 83.0292L264.292 83.0298C267.049 87.5838 270.036 91.9934 273.239 96.2414C276.27 100.01 279.862 103.283 283.887 105.947L283.894 105.951L283.901 105.956C293.925 113.071 304.822 118.188 316.922 120.35C329.231 122.543 341.241 121.842 352.561 116.132L352.561 116.132C366.135 109.288 374.106 98.0402 377.313 83.217C378.584 76.835 378.836 70.2899 378.06 63.8279L378.059 63.8197L378.058 63.8114C377.212 54.0264 374.427 44.5111 369.869 35.826C361.206 19.8101 348.034 9.90305 330.188 6.51715C324.204 5.4187 318.093 5.20856 312.048 5.89343L312.044 5.89383C293.25 7.8782 277.114 16.0039 262.571 27.7523C259.609 30.1504 256.864 32.7943 254.1 35.4563C252.86 36.6508 251.615 37.8489 250.346 39.03C250.058 39.3805 249.793 39.7504 249.554 40.1372Z" stroke="#EDF7FE"/>
<path d="M425.547 50.2036L425.299 49.7903C425.12 49.4908 424.943 49.1788 424.763 48.8626C424.46 48.3279 424.15 47.7811 423.808 47.2626L423.807 47.2614C421.313 43.4977 419.244 39.4692 417.638 35.2497L417.633 35.2366L417.633 35.2366C416.464 32.4071 415.884 29.3688 415.93 26.3078C416.053 24.4451 416.418 22.6062 417.014 20.8373L417.017 20.8283L417.02 20.8192C417.182 20.2707 417.434 20.1306 417.602 20.1082C417.807 20.0811 418.154 20.1847 418.555 20.6183C419.208 21.3953 419.807 22.2158 420.348 23.0742L420.354 23.085L420.355 23.0849C421.397 24.6483 422.432 26.2213 423.468 27.7962C425.486 30.8644 427.509 33.9394 429.599 36.9619L429.606 36.9717L429.613 36.9812C430.814 38.5524 432.127 40.0346 433.542 41.4164C433.702 41.607 433.9 41.7613 434.125 41.8687C434.359 41.9807 434.616 42.0388 434.876 42.0388C435.135 42.0388 435.392 41.9807 435.626 41.8687C435.848 41.7624 436.045 41.6102 436.204 41.4223C436.904 40.777 437.635 40.1472 438.374 39.5102L438.425 39.4667C439.155 38.8382 439.893 38.2022 440.609 37.546L440.614 37.5414C446.523 31.9698 452.833 26.8389 459.493 22.19C469.426 15.5053 479.95 10.2968 491.655 7.55437L491.659 7.55345C497.614 6.10749 503.728 5.42003 509.856 5.50739C514.065 5.69894 518.26 6.12428 522.423 6.78143L522.432 6.78286L522.441 6.78396C531.83 7.91512 540.656 11.8611 547.761 18.1032L547.761 18.1036C553.345 22.9984 558.59 28.0324 562.296 34.5351L562.301 34.543L562.301 34.543C567.41 43.1419 570.188 52.9251 570.361 62.9262L570.361 62.9344L570.361 62.9344C570.476 66.3414 570.386 69.7523 570.093 73.1487C569.595 77.6644 568.749 82.1537 567.899 86.6445L568.391 86.7375L567.899 86.6446C567.366 89.4599 565.992 91.8673 564.567 94.3623C564.252 94.9142 563.934 95.4703 563.623 96.0362C558.691 104.926 552.103 112.027 542.723 116.303L542.718 116.305C537.18 118.901 531.22 120.48 525.122 120.969C517.937 121.478 510.716 120.807 503.747 118.984L503.745 118.983C495.679 116.91 487.943 113.717 480.764 109.497L480.763 109.496C475.302 106.302 470.341 102.321 466.041 97.6813C461.746 92.8585 457.877 87.6735 454.476 82.1842L454.471 82.1768L454.471 82.1768C451.617 77.7463 448.692 73.2584 444.249 69.9562C440.97 67.5142 437.595 65.0807 433.501 63.9405C432.214 63.4864 430.829 63.3832 429.488 63.6416C428.142 63.901 426.89 64.5156 425.861 65.4216C425.861 65.4219 425.86 65.4221 425.86 65.4224L426.191 65.7975C425.317 66.5566 424.461 67.3693 423.603 68.1836C422.891 68.8605 422.177 69.5384 421.451 70.1875L425.547 50.2036ZM425.547 50.2036L425.143 50.4666C424.894 50.6287 424.629 50.7649 424.353 50.8732L424.317 50.887L424.281 50.8953C421.759 51.4638 419.549 53.5285 417.96 56.019C416.372 58.5064 415.479 61.3034 415.5 63.1962C415.589 65.8496 416.45 68.4193 417.979 70.5895L418.002 70.6221L418.02 70.6579C418.076 70.7725 418.155 70.8743 418.252 70.957C418.349 71.0398 418.462 71.1017 418.584 71.1389C418.706 71.1761 418.834 71.1878 418.961 71.1733C419.088 71.1588 419.21 71.1184 419.32 71.0546L419.328 71.0504L419.335 71.0465C419.975 70.7048 420.574 70.2909 421.119 69.8129L425.547 50.2036Z" stroke="#EDF7FE"/>
<path d="M650.698 24.1292L650.698 24.1291C656.136 19.7392 662.095 16.0369 668.439 13.1062C679.469 8.30182 691.062 5.9327 704.7 5.50102C705.404 5.59233 706.227 5.6805 707.132 5.77765C709.435 6.02454 712.277 6.32931 715.097 6.89039C726.662 9.2036 736.898 14.2117 745.228 22.6611L745.229 22.6614C751.668 29.1803 755.767 37.1759 758.833 45.7877L758.833 45.7882C761.018 51.9024 762.18 58.3345 762.274 64.8265C762.324 69.173 762.195 73.5222 762.035 77.8701C761.805 83.2391 760.491 88.5061 758.173 93.3543L758.17 93.362L758.17 93.3621C753.453 103.675 745.176 111.941 734.857 116.645C729.67 118.995 724.108 120.409 718.428 120.821L718.41 120.823L718.391 120.825C716.024 121.175 713.63 121.301 711.239 121.201C706.836 120.763 702.448 120.027 698.078 119.209C691.726 117.967 685.598 115.773 679.902 112.7L679.9 112.699C672.171 108.56 665.007 103.442 658.585 97.4738L658.581 97.4707C657.178 96.1896 655.768 94.9202 654.36 93.6519C651.845 91.3867 649.333 89.1249 646.867 86.8057L646.865 86.8042C644.565 84.6611 642.282 82.4596 639.995 80.2534C637.076 77.4378 634.149 74.6147 631.167 71.8961C627.241 68.0758 622.621 65.0417 617.555 62.9576L617.542 62.9524L617.529 62.9479C616.51 62.5924 615.41 62.5354 614.359 62.7834L614.35 62.7856L614.34 62.7883C611.807 63.4924 609.558 64.9726 607.909 67.0208C607.647 67.327 607.388 67.6316 607.13 67.935C605.806 69.491 604.511 71.0134 603.027 72.5304C602.206 73.3695 601.389 73.667 600.668 73.5891C599.941 73.5107 599.187 73.0379 598.527 72.0771C597.068 69.9325 596.391 67.7045 596.479 65.5364C596.566 63.3691 597.419 61.2227 599.087 59.242C601.183 56.7565 603.409 54.3738 605.646 51.9792C605.811 51.8036 605.975 51.6279 606.139 51.4521C606.486 51.0827 606.749 50.6706 606.776 50.1964C606.804 49.7085 606.578 49.2829 606.236 48.9058C605.994 48.6366 605.752 48.3628 605.508 48.0877C604.957 47.4655 604.399 46.8359 603.826 46.235L603.819 46.227L603.818 46.2271C599.419 41.8124 596.311 36.2787 594.831 30.2248C594.217 27.554 594.301 25.1493 596.419 23.2415L596.437 23.2252L596.454 23.2072C596.886 22.734 597.478 22.4378 598.116 22.3758C598.754 22.3139 599.392 22.4907 599.907 22.8719L599.918 22.8798L599.929 22.8872C600.691 23.3905 601.374 24.0036 601.957 24.7065C603.214 26.2617 604.46 27.8482 605.708 29.4381C607.278 31.4374 608.853 33.442 610.457 35.3965C610.457 35.3968 610.458 35.397 610.458 35.3973L610.844 35.08C612.646 37.2827 614.558 39.3921 616.574 41.4L650.698 24.1292ZM650.698 24.1292L650.689 24.1365C648.062 26.1554 645.456 28.2155 642.846 30.2792C639.433 32.9782 636.012 35.6831 632.525 38.3094L632.519 38.3139L632.513 38.3182C630.644 39.6407 628.651 40.7798 626.563 41.7197L650.698 24.1292Z" stroke="#EDF7FE"/>
<path d="M25.8979 179.412L25.2896 178.916L21.3916 175.737C15.8851 171.198 12.1362 165.642 11.0582 158.52C10.8955 157.386 10.8954 156.234 11.0578 155.099C11.2934 153.675 12.0118 152.643 12.9417 152.111C13.8651 151.583 15.0609 151.512 16.343 152.132C18.7562 153.335 21.0385 154.783 23.1535 156.456L23.1555 156.457C25.6115 158.379 28.0065 160.371 30.4098 162.37C32.0063 163.698 33.6064 165.03 35.2304 166.345C35.9304 166.963 36.7899 167.373 37.7112 167.526L37.7324 167.53L37.7538 167.532C41.3891 167.822 45.1496 167.9 48.6148 165.886C49.1869 165.553 49.7761 165.249 50.3775 164.941L50.5427 164.857C51.0879 164.578 51.6428 164.294 52.1877 163.99L52.1892 163.989C52.68 163.712 53.1718 163.436 53.6639 163.159C59.1124 160.098 64.6109 157.009 69.4581 152.874L69.4593 152.873C71.9684 150.718 74.6542 148.764 77.3533 146.799C77.5277 146.672 77.7022 146.545 77.8766 146.418C89.3748 138.117 102.901 133.073 117.028 131.821L117.031 131.821C123.941 131.16 130.91 131.521 137.715 132.893L137.726 132.896L137.726 132.896C146.569 134.467 154.847 138.324 161.739 144.084C168.206 149.714 173.731 156.342 178.103 163.718L178.106 163.723L178.106 163.723C183.45 172.505 186.205 182.617 186.054 192.896C185.972 197.993 185.409 203.07 184.374 208.062L184.372 208.071L184.37 208.081C183.646 212.438 182.226 216.649 180.164 220.555C175.395 229.101 168.463 235.516 160.329 240.866L160.327 240.867C153.907 245.125 146.369 247.385 138.665 247.363L138.66 247.363C134.29 247.395 129.923 247.133 125.589 246.578C121.379 246.003 117.212 245.149 113.116 244.021L113.112 244.02C108.452 242.784 104.408 240.152 100.327 237.485L100.053 237.305C92.749 232.512 85.4769 227.739 79.0726 221.846L25.8979 179.412ZM25.8979 179.412L25.1912 179.753L23.9912 180.333L23.9912 180.334L23.9811 180.338C20.147 182.088 16.5818 184.374 13.3929 187.13M25.8979 179.412L13.3929 187.13M13.3929 187.13C11.5268 188.788 10.1894 190.959 9.54674 193.372L9.5432 193.385L9.53894 193.398C9.48857 193.553 9.48706 193.719 9.53444 193.874C10.251 195.649 11.11 197.364 12.1031 199.001C12.9958 200.282 14.5295 200.338 16.1671 199.798L16.1724 199.797C17.4638 199.387 18.7139 198.857 19.906 198.213C25.0757 195.398 30.4069 192.88 36.3098 191.734C39.4573 191.01 42.7619 191.494 45.5705 193.088L45.5721 193.089C50.4945 195.909 54.662 199.615 58.8259 203.32L58.8278 203.321C65.2607 209.102 71.6218 214.971 77.9762 220.834L79.0722 221.845L13.3929 187.13Z" stroke="#EDF7FE"/>
<path d="M213.347 180.68L213.864 181.062L213.367 181.469C212.238 182.393 211.123 183.295 210.021 184.187C207.725 186.044 205.484 187.857 203.284 189.733L203.278 189.739C200.48 192.042 198.509 195.194 197.666 198.719L197.665 198.725C197.408 199.739 197.452 200.806 197.792 201.796C198.132 202.786 198.752 203.655 199.577 204.298L199.59 204.308L199.603 204.32C200.258 204.905 201.069 205.285 201.937 205.415C202.806 205.544 203.693 205.417 204.49 205.049L204.502 205.043L204.513 205.038C206.667 204.174 208.754 203.152 210.758 201.981L210.762 201.978C212.883 200.771 214.987 199.523 217.092 198.271L217.456 198.055C219.438 196.876 221.423 195.696 223.42 194.55C227.991 191.892 232.838 191.918 237.687 193.189L237.56 193.672L237.687 193.189C240.911 194.034 243.548 195.991 246.067 197.861C246.198 197.958 246.328 198.055 246.457 198.151L246.458 198.151C252.398 202.559 257.605 207.791 262.773 212.984C263.1 213.313 263.427 213.641 263.754 213.97C270.495 220.73 277.74 226.968 285.426 232.63L285.433 232.635L285.439 232.64C288.75 235.246 292.254 237.598 295.92 239.674C302.651 243.255 310.035 245.439 317.631 246.094C328.105 246.96 338.396 246.279 348.185 242.132L348.186 242.132C358.782 237.677 367.322 230.837 372.717 220.59L372.719 220.586C375.524 215.362 377.326 209.659 378.032 203.772C378.322 200.299 378.408 196.812 378.29 193.329L378.29 193.321V193.312C378.29 190.098 378.141 186.872 377.862 183.656L377.862 183.656L377.861 183.649C377.499 178.704 376.317 173.854 374.363 169.297C371.591 163.36 367.888 157.905 363.396 153.135L363.396 153.135L363.387 153.126C355.178 143.953 345.415 137.082 333.541 133.573C327.239 131.791 320.668 131.15 314.14 131.681L314.132 131.681L314.124 131.682C308.531 131.955 302.967 132.663 297.483 133.802C283.807 136.767 271.236 143.509 261.199 153.261C259.515 154.905 257.791 156.528 256.059 158.129C249.404 164.289 241.399 167.621 232.631 169.254L232.614 169.257L232.596 169.259C231.523 169.38 230.437 169.194 229.465 168.724C224.206 166.272 219.658 162.749 215.159 159.264L214.854 159.028L214.848 159.023L214.842 159.019C212.025 156.701 208.818 154.902 205.371 153.707C202.984 152.939 201.397 153.305 200.359 154.214C199.289 155.151 198.683 156.768 198.508 158.747C198.162 162.658 199.706 166.335 201.742 169.82L201.742 169.821C203.57 172.961 206.291 175.291 209.188 177.559L209.194 177.563C210.195 178.37 211.232 179.13 212.295 179.908C212.643 180.162 212.994 180.419 213.347 180.68Z" stroke="#EDF7FE"/>
<path d="M409.242 182.18L408.728 181.556C408.669 181.484 408.631 181.432 408.598 181.386L408.591 181.376C408.562 181.336 408.515 181.27 408.456 181.21L408.407 181.162L408.347 181.128C408.059 180.966 407.76 180.825 407.451 180.707L407.443 180.704C399.761 177.916 393.324 172.482 389.287 165.377L389.281 165.367L389.276 165.358C388.645 164.352 388.146 163.269 387.793 162.135C387.144 159.694 387.523 157.312 389.401 155.915L389.401 155.914C392.966 153.251 397.041 152.435 401.073 154.508C404.189 156.127 407.136 158.055 409.867 160.262C409.867 160.262 409.868 160.262 409.868 160.263L410.182 159.874C413.827 162.851 417.816 165.383 422.062 167.414L409.242 182.18ZM409.242 182.18L408.454 182.361C404.66 183.234 401.002 184.617 397.58 186.473L397.573 186.477L397.566 186.481C395.234 187.646 393.139 189.234 391.387 191.165C389.044 193.902 388.365 196.982 389.884 200.19C391.427 203.447 394.285 205.454 398.115 205.156C399.584 204.996 401 204.515 402.262 203.747L402.268 203.743C404.64 202.341 406.93 200.803 409.126 199.138C413.609 195.598 418.993 193.384 424.67 192.748C427.935 192.29 431.259 192.931 434.121 194.57L434.122 194.571C438.475 197.08 442.48 200.149 446.035 203.7L446.036 203.7L446.044 203.709C451.885 209.83 457.727 215.951 463.867 221.812C469.982 227.648 476.699 232.257 483.705 236.815L483.708 236.816C490.651 241.399 498.581 244.274 506.849 245.206C511.051 245.517 515.269 245.57 519.478 245.364L519.49 245.364H519.502C521.682 245.364 523.864 245.157 526.073 244.948C526.327 244.924 526.581 244.9 526.836 244.876L526.842 244.875C535.448 244.182 543.671 241.023 550.528 235.777C554.728 232.537 558.779 229.262 561.974 225.061C565.152 220.883 566.761 216.163 567.985 211.139C569.882 202.79 570.551 194.21 569.973 185.667L569.973 185.657L569.972 185.647C569.831 180.15 568.768 174.715 566.828 169.57C565.89 167.375 564.732 165.28 563.371 163.319L563.371 163.319L563.367 163.312C557.217 154.133 550.135 145.867 540.709 139.959C534.759 136.327 528.209 133.785 521.367 132.455L521.365 132.454C517.051 131.601 512.643 131.318 508.256 131.613V131.613L508.249 131.613C506.232 131.722 504.219 131.95 502.192 132.194C501.932 132.225 501.672 132.257 501.412 132.288C499.647 132.502 497.87 132.717 496.087 132.862C489.497 133.514 483.038 135.123 476.912 137.636L476.908 137.638C469.493 140.606 462.615 144.77 456.547 149.964L456.542 149.968C451.951 153.799 447.317 157.602 442.634 161.325C439 164.218 435.127 166.99 430.306 167.915L430.306 167.915L430.296 167.917C428.266 168.261 426.215 168.464 424.157 168.524L424.136 168.524L424.115 168.523C423.312 168.479 422.531 168.251 421.831 167.857L409.242 182.18Z" stroke="#EDF7FE"/>
<path d="M600.977 181.629L602.037 182.15L600.925 182.548C595.714 184.415 591.216 186.807 587.776 190.813L587.771 190.82C585.7 193.152 584.541 196.154 584.507 199.273L584.507 199.282L584.506 199.29C584.464 200.218 584.638 201.143 585.014 201.992C585.391 202.841 585.959 203.591 586.675 204.182L586.69 204.195L586.704 204.208C587.27 204.755 588 205.103 588.782 205.198C589.563 205.293 590.355 205.13 591.036 204.735L591.045 204.73L591.055 204.724C591.739 204.367 592.423 204.011 593.107 203.655C596.523 201.876 599.933 200.099 603.309 198.253C607.002 196.053 611.036 194.483 615.245 193.608L615.253 193.606C617.917 193.101 620.655 193.128 623.308 193.688C625.959 194.247 628.473 195.325 630.704 196.862C634.382 199.24 637.678 202.162 640.481 205.528L640.485 205.532C647.909 214.668 656.773 222.24 666.063 229.453L666.068 229.457C672.042 234.216 678.632 238.145 685.66 241.136C694.073 244.615 703.238 245.876 712.278 244.801L712.28 244.801C717.276 244.231 722.206 243.584 727.062 242.539L727.062 242.539C734.008 241.053 739.874 237.261 745.36 232.771L745.36 232.771L745.368 232.764C748.014 230.691 750.525 228.452 752.887 226.061C757.005 221.686 758.999 216.15 760.543 210.34C761.604 206.313 762.216 202.181 762.367 198.02L762.367 198.018C762.547 193.518 762.696 189.034 762.557 184.533H762.557L762.557 184.527C762.36 173.933 758.179 163.802 750.846 156.154L750.846 156.154L750.842 156.149C750.121 155.38 749.409 154.607 748.699 153.836C745.644 150.52 742.624 147.242 739.123 144.417L739.123 144.417L739.118 144.413C731.621 138.227 722.645 134.094 713.071 132.42L713.071 132.42L713.065 132.419C708.253 131.518 703.341 131.278 698.464 131.705C697.099 131.844 695.736 131.971 694.375 132.098C686.874 132.797 679.454 133.488 672.342 136.096C665.248 138.821 658.511 142.401 652.283 146.757L652.281 146.759C645.15 151.682 638.445 157.193 632.235 163.236L632.231 163.24C628.238 167.038 623.556 168.829 618.404 169.74L618.391 169.742L618.378 169.744C617.444 169.859 616.497 169.701 615.651 169.289C613.269 168.171 610.927 166.98 608.626 165.716L608.626 165.716C606.991 164.817 605.388 163.898 603.789 162.982C601.617 161.737 599.454 160.497 597.233 159.32L597.225 159.316C594.784 157.969 592.064 157.21 589.279 157.097C587.681 157.046 586.579 157.512 585.849 158.268C585.109 159.034 584.691 160.162 584.596 161.541C584.199 167.421 586.805 171.969 591.162 175.778C593.664 177.884 596.456 179.62 599.451 180.933C599.874 181.085 600.282 181.286 600.778 181.531C600.843 181.563 600.909 181.595 600.977 181.629Z" stroke="#EDF7FE"/>
<path d="M28.9713 308.821L27.9761 308.269C27.7394 308.138 27.5161 308.011 27.302 307.889C26.6357 307.51 26.0594 307.183 25.4506 306.936C23.5121 306.057 21.5079 305.165 19.5014 304.353C16.1736 303.002 13.8396 300.268 12.3761 297.25C10.9104 294.229 10.3444 290.976 10.5124 288.672C10.6505 286.787 11.3113 285.492 12.3029 284.77C13.2922 284.05 14.7156 283.825 16.5442 284.299C17.8248 284.654 19.045 285.2 20.1638 285.917L20.1694 285.921C24.9507 288.897 29.692 291.924 34.3934 295C35.7086 295.92 37.2223 296.516 38.8114 296.74C40.4016 296.965 42.0224 296.811 43.5419 296.29C43.9623 296.154 44.3912 296.023 44.8244 295.89C46.979 295.233 49.2436 294.542 51.1393 292.916L51.1396 292.915C52.3533 291.872 53.5654 290.827 54.7772 289.782C60.3795 284.952 65.9779 280.125 71.7255 275.527C86.2142 263.972 102.688 257.695 121.329 257.506L121.33 257.506C129.81 257.398 138.246 258.742 146.272 261.479C152.264 263.526 158.084 265.871 162.865 270.033L162.866 270.034C165.9 272.67 168.779 275.508 171.562 278.421L171.566 278.425L171.566 278.425C179.72 286.793 184.733 297.721 185.756 309.36L185.756 309.368L185.757 309.376C186.585 316.182 186.219 323.079 184.678 329.758C184.539 330.307 184.401 330.856 184.264 331.403C183.206 335.636 182.161 339.818 180.266 343.714C176.93 350.325 172.091 356.062 166.136 360.464L166.127 360.471L166.128 360.471C161.665 363.927 156.988 366.92 151.461 368.077C151.461 368.077 151.461 368.077 151.461 368.077L151.564 368.566C147.164 369.486 142.714 370.256 138.254 370.786L28.9713 308.821ZM28.9713 308.821L27.8918 309.18C27.5947 309.279 27.349 309.358 27.1357 309.426C26.7662 309.544 26.4938 309.631 26.2194 309.74C25.3489 310.089 24.4783 310.427 23.6101 310.764C21.2149 311.694 18.8383 312.617 16.5349 313.725M28.9713 308.821L16.5349 313.725M16.5349 313.725C13.9864 315.012 11.9115 317.074 10.6086 319.614L10.6083 319.615C9.51132 321.748 9.21654 324.203 9.77765 326.535C10.3385 328.866 11.717 330.918 13.6626 332.318C14.4465 332.864 15.3974 333.117 16.349 333.032C17.3017 332.947 18.1942 332.53 18.8698 331.853L18.8843 331.838L18.9 331.825C23.5821 327.848 28.7392 324.466 34.2532 321.757L34.2623 321.753C37.3116 320.33 40.4595 319.129 43.6817 318.16C44.8683 317.759 46.1391 317.677 47.3677 317.919C48.5946 318.162 49.7368 318.72 50.6813 319.54C53.1025 321.421 55.4194 323.433 57.6216 325.567L57.6217 325.567L57.6306 325.576C61.1003 329.113 64.4868 332.736 67.8686 336.354C68.9945 337.559 70.1199 338.763 71.2476 339.963C80.3519 349.625 91.0655 357.155 102.684 363.507L102.684 363.507C108.931 366.928 115.804 368.596 122.799 370.065L16.5349 313.725Z" stroke="#EDF7FE"/>
<path d="M226.03 305.765L227.35 306.156L226.086 306.703C225.463 306.973 224.864 307.238 224.281 307.496C223.067 308.034 221.92 308.542 220.767 308.997C217.16 310.522 213.939 312.835 211.342 315.766L211.337 315.772L211.331 315.777C209.373 317.851 208.514 320.043 208.5 322.262C208.486 324.493 209.325 326.806 210.863 329.106L210.864 329.108C211.357 329.85 212.074 330.416 212.911 330.721C213.749 331.027 214.662 331.056 215.517 330.804L215.536 330.798L215.557 330.794C219.936 329.891 223.445 327.422 226.707 324.388C230.365 320.983 234.534 318.48 239.71 318.016C240.39 317.946 241.075 318.106 241.654 318.471L241.664 318.477L241.674 318.484C243.644 319.86 245.524 321.359 247.304 322.974L247.31 322.98L247.316 322.986C249.806 325.407 252.239 327.852 254.669 330.294C257.591 333.231 260.508 336.163 263.514 339.043L263.516 339.045C272.48 347.73 282.374 355.4 293.018 361.917C300.059 366.218 307.907 369.029 316.077 370.179C327.894 371.811 339.932 370.238 350.932 365.624C354.642 364.015 358.058 361.798 361.04 359.065L361.04 359.065L361.049 359.057C363.214 357.17 365.267 355.157 367.196 353.029C370.633 349.205 372.341 344.465 374.082 339.636C374.19 339.336 374.298 339.035 374.407 338.734L374.407 338.734L374.411 338.724C376.361 333.657 377.586 328.34 378.049 322.93C378.245 318.985 378.199 315.031 377.909 311.091L377.908 311.083L377.908 311.076C377.658 305.428 376.475 299.859 374.406 294.597C372.811 291.022 370.897 287.597 368.685 284.366L368.681 284.36L368.676 284.353C364.41 277.678 358.319 272.835 351.979 268.105L351.979 268.105C344.292 262.367 335.608 259.411 326.214 258.2L326.209 258.199C315.767 256.752 305.136 257.558 295.031 260.563C285.908 263.319 277.335 267.644 269.697 273.344C265.583 276.437 261.547 279.592 257.509 282.748C255.021 284.693 252.532 286.638 250.023 288.57L250.019 288.573C249.205 289.188 248.378 289.77 247.562 290.346C247.367 290.483 247.173 290.619 246.98 290.756C245.975 291.467 244.99 292.179 244.041 292.955C243.159 293.729 242.054 294.201 240.885 294.302C239.718 294.402 238.551 294.128 237.551 293.519C234.743 292.055 232.01 290.451 229.363 288.712L229.363 288.712L229.353 288.705C225.44 285.999 221.278 283.672 216.923 281.755C216.057 281.405 215.164 281.123 214.254 280.911L214.237 280.907L214.22 280.902C213.666 280.731 213.083 280.679 212.508 280.749C211.932 280.819 211.378 281.01 210.882 281.309C210.385 281.607 209.957 282.007 209.626 282.483C209.295 282.958 209.067 283.498 208.959 284.068L208.957 284.077L208.955 284.086C208.573 285.747 208.51 287.465 208.77 289.149C209.206 291.415 209.886 293.627 210.797 295.746L210.799 295.752C211.507 297.458 212.556 299 213.883 300.284C215.21 301.568 216.786 302.566 218.514 303.216L218.521 303.219L218.529 303.222C219.782 303.741 221.063 304.155 222.367 304.576C222.926 304.756 223.49 304.938 224.058 305.13L224.07 305.135L224.082 305.139C224.594 305.342 225.047 305.475 225.674 305.66C225.787 305.693 225.905 305.728 226.03 305.765Z" stroke="#EDF8FF"/>
<path d="M422.497 305.362L422.498 305.362C422.718 305.276 422.957 305.176 423.217 305.067C423.434 304.976 423.666 304.879 423.914 304.779L423.727 304.316L423.962 303.875C423.68 303.724 423.387 303.594 423.086 303.485L423.07 303.479L423.053 303.475C418.182 302.091 414.491 299.088 411.3 295.284L411.299 295.284C408.905 292.438 407.325 289.348 407.516 285.521L407.517 285.508L407.517 285.495C407.515 284.741 407.668 283.996 407.967 283.304C408.265 282.612 408.702 281.989 409.252 281.474C409.801 280.958 410.45 280.56 411.159 280.306C411.868 280.052 412.622 279.946 413.374 279.995L413.382 279.995C414.968 280.073 416.526 280.441 417.98 281.081C420.002 282.029 421.926 283.181 423.872 284.345C424.34 284.626 424.81 284.907 425.282 285.186L425.284 285.187C426.385 285.832 427.484 286.514 428.589 287.2C430.539 288.409 432.507 289.63 434.537 290.68M422.497 305.362L434.767 290.236M422.497 305.362C417.692 307.227 413.544 310.47 410.575 314.684L410.57 314.691M422.497 305.362L410.57 314.691M434.537 290.68L434.767 290.236M434.537 290.68C434.537 290.68 434.536 290.68 434.536 290.679L434.767 290.236M434.537 290.68C436.65 291.778 439.085 292.091 441.407 291.563L441.412 291.562C444.083 290.93 446.58 289.708 448.719 287.986M434.767 290.236C436.775 291.279 439.089 291.577 441.297 291.076C443.896 290.461 446.326 289.271 448.407 287.596M448.719 287.986C448.718 287.987 448.718 287.987 448.717 287.987L448.407 287.596M448.719 287.986C450.607 286.487 452.513 285.013 454.421 283.537C455.258 282.889 456.096 282.241 456.933 281.59L456.934 281.59C464.826 275.448 472.72 269.369 481.376 264.389L481.377 264.388C489.249 259.83 497.743 257.904 506.752 257.516M448.719 287.986C448.719 287.986 448.72 287.986 448.72 287.985L448.407 287.596M448.407 287.596C450.298 286.094 452.208 284.616 454.118 283.139C454.955 282.492 455.792 281.845 456.627 281.196M456.627 281.196C464.517 275.056 472.437 268.956 481.127 263.956C489.087 259.346 497.667 257.406 506.737 257.016M456.627 281.196L458.407 335.116M456.627 281.196L506.752 257.516M506.737 257.016C511.673 256.925 516.608 257.226 521.497 257.916C527.763 258.556 533.835 260.457 539.347 263.506M506.737 257.016L506.758 257.515C506.756 257.515 506.754 257.515 506.752 257.516M506.737 257.016L506.746 257.516C506.748 257.516 506.75 257.516 506.752 257.516M539.347 263.506C550.637 269.856 558.747 279.186 564.207 290.776M539.347 263.506L539.105 263.943C539.104 263.943 539.104 263.943 539.103 263.942C539.103 263.942 539.102 263.942 539.101 263.942L539.347 263.506ZM564.207 290.776C569.367 301.736 572.177 313.196 570.067 325.406C568.133 337.293 562.3 348.199 553.487 356.406C548.017 361.576 541.527 365.116 534.707 368.056M564.207 290.776L563.754 290.989C563.754 290.989 563.754 290.989 563.754 290.989L564.207 290.776ZM534.707 368.056C527.617 371.106 520.127 371.776 512.477 371.156C507.625 370.812 502.843 369.802 498.267 368.156M534.707 368.056L534.509 367.597C534.509 367.597 534.509 367.596 534.509 367.596L534.707 368.056ZM498.267 368.156C491.167 365.516 485.167 361.136 479.467 356.326C474.053 351.796 469.249 346.646 464.44 341.492C462.445 339.353 460.448 337.213 458.407 335.116M498.267 368.156L498.436 367.685C498.436 367.685 498.437 367.686 498.438 367.686C498.439 367.686 498.44 367.687 498.441 367.687L498.267 368.156ZM458.407 335.116L458.765 334.767C458.765 334.767 458.765 334.767 458.765 334.767C458.765 334.768 458.766 334.768 458.766 334.768L458.407 335.116ZM410.57 314.691L410.565 314.698M410.57 314.691L410.565 314.698M410.565 314.698C409.238 316.443 408.528 318.578 408.545 320.769C408.562 322.96 409.306 325.084 410.66 326.807L410.673 326.823M410.565 314.698L410.673 326.823M410.673 326.823L410.684 326.841M410.673 326.823L410.684 326.841M410.684 326.841C411.42 327.96 412.562 328.748 413.869 329.037C415.176 329.327 416.545 329.095 417.684 328.39L417.688 328.388M410.684 326.841L417.688 328.388M417.688 328.388C419.316 327.406 420.825 326.286 422.357 325.148C423.232 324.499 424.114 323.844 425.031 323.205L425.032 323.205M417.688 328.388L425.032 323.205M425.032 323.205C427.172 321.723 429.327 320.254 431.48 318.786M425.032 323.205L431.48 318.786M431.48 318.786C433.112 317.674 434.744 316.561 436.368 315.444L431.48 318.786ZM439.306 315.381C439.313 315.385 439.319 315.39 439.325 315.395L439.027 315.796L439.287 315.369C439.294 315.373 439.3 315.377 439.306 315.381Z" stroke="#EDF7FE"/>
<path d="M619.655 300.574L619.11 300.109L617.428 298.676C617.426 298.675 617.425 298.674 617.424 298.672C616.853 298.166 616.278 297.679 615.708 297.195C614.487 296.16 613.289 295.143 612.197 294.004L612.192 293.999L612.187 293.994C608.625 290.487 606.088 286.074 604.852 281.231C604.318 278.972 604.606 277.442 605.418 276.561C606.229 275.683 607.717 275.281 609.995 275.652C612.724 276.22 615.306 277.349 617.576 278.967L617.585 278.974L617.595 278.98C618.967 279.866 620.333 280.793 621.706 281.725C623.762 283.121 625.83 284.525 627.947 285.808L627.954 285.812C630.723 287.43 633.581 288.894 636.513 290.197L636.524 290.202L636.536 290.207C636.986 290.38 637.467 290.46 637.949 290.442C638.431 290.424 638.904 290.308 639.34 290.102L639.35 290.097L639.35 290.097C641.336 289.103 643.224 287.924 644.989 286.577L644.998 286.571L644.998 286.571C647.427 284.633 649.801 282.66 652.171 280.691C655.34 278.058 658.5 275.432 661.772 272.906L661.772 272.905C675.184 262.526 690.23 256.796 707.443 257.569L619.655 300.574ZM619.655 300.574L619.032 300.925C618.512 301.218 618.032 301.484 617.572 301.738C616.981 302.064 616.424 302.371 615.866 302.693M619.655 300.574L615.866 302.693M615.866 302.693C611.137 305.445 606.909 308.674 604.041 313.313L604.04 313.314C602.781 315.337 602.319 317.338 602.563 319.237C602.808 321.14 603.768 322.991 605.443 324.7L605.451 324.708L605.458 324.716C606.106 325.439 606.957 325.951 607.899 326.185C608.841 326.42 609.832 326.366 610.743 326.031L610.752 326.028L610.76 326.025C612.727 325.379 614.602 324.481 616.339 323.354C619.019 321.53 621.609 319.581 624.21 317.625C625.305 316.801 626.402 315.976 627.509 315.158L627.515 315.153C627.76 314.978 628.022 314.823 628.265 314.679C628.321 314.646 628.375 314.613 628.429 314.581L628.429 314.581C630.058 313.605 631.514 313.069 632.957 313.162C634.41 313.256 635.753 313.983 637.169 315.316L637.169 315.316L637.175 315.322C639.618 317.706 641.895 320.254 643.988 322.95C646.607 326.21 649.182 329.491 651.756 332.769C655.251 337.221 658.743 341.668 662.333 346.053L662.333 346.054C667.778 352.715 673.729 358.879 681.004 363.508L681.009 363.511C687.817 367.95 695.566 370.741 703.64 371.663C709.959 372.353 716.098 371.251 722.17 369.539C728.658 367.708 734.844 365.192 740.089 360.893L740.091 360.892C746.881 355.372 752.534 348.586 756.737 340.911C759.183 336.401 760.233 331.387 761.122 326.321C761.547 323.361 761.792 320.379 761.856 317.389L761.856 317.384C762.047 311.432 760.976 305.508 758.713 300L758.713 300L758.709 299.989C755.571 291.811 751.597 284.079 745.8 277.459C739.969 270.801 733.6 264.919 725.346 261.533L725.346 261.532C719.651 259.189 713.595 257.848 707.443 257.569L615.866 302.693Z" stroke="#EDF7FE"/>
<path d="M46.4708 423.906L46.643 424.375C43.6242 425.482 40.6902 426.808 37.8643 428.342C35.18 429.881 33.152 432.349 32.1635 435.281C31.1743 438.215 31.2945 441.41 32.5013 444.261L32.5085 444.278L32.5145 444.296C32.8443 445.271 33.5395 446.081 34.454 446.555C35.3685 447.029 36.4311 447.13 37.4184 446.836L37.4423 446.829L37.4667 446.825C40.7763 446.19 43.9214 444.886 46.7091 442.993C47.498 442.452 48.283 441.898 49.071 441.342C51.0834 439.923 53.1148 438.491 55.2776 437.225C56.0411 436.776 56.9386 436.612 57.8111 436.762C62.4116 437.465 66.6885 439.554 70.0717 442.75C74.1574 446.499 77.5896 450.903 80.2269 455.781C81.1143 457.308 81.9884 458.84 82.8616 460.371C85.767 465.464 88.6618 470.538 92.0013 475.34L92.0017 475.341C97.3721 483.084 103.986 489.305 112.715 493.22C121.44 497.132 130.237 497.779 139.425 496.183L139.433 496.182C145.169 495.272 150.74 493.523 155.966 490.989C162.728 487.461 168.694 482.581 173.492 476.651L173.492 476.651L173.5 476.642C180.79 468.076 184.312 457.917 185.594 446.908L185.594 446.907C186.581 438.53 184.709 430.558 181.626 422.749L181.625 422.748C177.923 413.263 172.955 404.614 165.841 397.233C159.167 390.323 150.423 385.776 140.933 384.28L140.933 384.28L140.923 384.278C129.405 382.23 118.435 384.402 107.732 388.738C98.8829 392.477 90.6143 397.462 83.1773 403.543L83.1754 403.544C79.5348 406.491 75.7322 409.232 71.7855 411.754C70.7682 412.441 69.6047 412.881 68.3874 413.04C67.1692 413.2 65.9306 413.073 64.7701 412.669C59.5547 410.94 54.6431 408.402 50.2148 405.149L50.2062 405.142C47.9319 403.395 45.5419 401.804 43.0526 400.38L43.0525 400.38L43.0408 400.373C40.8702 399.051 38.3799 398.347 35.8386 398.336C34.7422 398.375 34.066 398.637 33.6414 399.066C33.2129 399.499 32.9527 400.192 32.8903 401.29C32.7037 405.995 34.008 410.639 36.6171 414.559L36.6199 414.563C37.9953 416.676 39.7788 418.493 41.8658 419.908C43.5836 421.006 45.229 422.213 46.7919 423.522L46.4708 423.906Z" stroke="#EDF7FE"/>
<path d="M324.479 383.525H324.471L324.463 383.524C315.568 383.228 307.299 385.677 299.294 389.476L299.293 389.476C293.462 392.238 287.962 395.563 282.435 398.905C280.641 399.99 278.845 401.076 277.034 402.145L277.033 402.145C275.454 403.077 273.907 404.062 272.351 405.053C272.02 405.263 271.688 405.475 271.356 405.685C269.466 406.885 267.554 408.075 265.568 409.154L265.568 409.154L265.557 409.16C264.165 409.871 262.72 410.472 261.234 410.957C260.188 411.344 259.057 411.443 257.96 411.243C256.867 411.043 255.847 410.554 255.007 409.826C250.852 406.794 246.876 403.524 243.1 400.032L243.1 400.032L243.09 400.023C241.301 398.278 239.245 396.83 237 395.734C236.59 395.534 236.19 395.344 235.785 395.193L235.781 395.191C234.042 394.526 232.614 394.513 231.53 395.032C230.454 395.548 229.604 396.643 229.133 398.441L229.133 398.442C228.285 401.665 228.298 404.348 229.117 406.647C229.934 408.944 231.577 410.917 234.096 412.685C235.99 414.012 237.946 415.243 239.914 416.481C240.751 417.008 241.591 417.536 242.429 418.074C243.136 418.527 243.709 418.951 244.115 419.374C244.522 419.799 244.802 420.267 244.836 420.805C244.87 421.344 244.651 421.848 244.289 422.332C243.929 422.814 243.393 423.321 242.705 423.882L242.7 423.886C241.534 424.812 240.289 425.598 239.044 426.345C238.697 426.553 238.351 426.757 238.007 426.961C237.108 427.492 236.22 428.017 235.353 428.583C232.946 430.154 230.679 431.959 229.638 434.768C229.112 436.19 228.967 437.483 229.191 438.628C229.414 439.768 230.01 440.8 231.03 441.699L231.038 441.707L231.047 441.715C232.015 442.649 233.265 443.237 234.603 443.386C235.941 443.535 237.29 443.236 238.44 442.537L238.446 442.533L238.453 442.529C239.699 441.826 240.874 441.013 242.072 440.184C242.556 439.85 243.044 439.513 243.541 439.179C244.194 438.74 244.868 438.339 245.532 437.948C245.6 437.907 245.668 437.867 245.736 437.827C246.333 437.476 246.919 437.131 247.489 436.764L247.491 436.763C249.808 435.289 252.211 435.253 254.704 435.579C258.883 436.122 261.791 438.431 263.941 441.806C266.135 445.24 268.217 448.74 270.293 452.229C270.639 452.812 270.986 453.394 271.333 453.976C273.758 458.045 276.202 462.087 278.844 466.005C283.293 472.593 287.884 479.038 293.765 484.374L293.768 484.376C299.665 489.8 306.883 493.579 314.699 495.337L314.709 495.339L314.72 495.342C318.277 496.301 321.962 496.7 325.643 496.526C330.407 496.059 335.12 495.161 339.722 493.844L339.728 493.842C344.842 492.446 349.736 490.344 354.27 487.597L354.277 487.593L354.284 487.589C355.364 486.98 356.384 486.27 357.33 485.468C363.161 480.197 368.802 474.863 372.394 467.856L372.395 467.855C376.823 459.292 378.814 449.676 378.151 440.059L378.15 440.056C377.607 431.472 374.544 423.645 371.455 415.75C371.281 415.306 371.107 414.861 370.934 414.416C368.518 408.241 364.863 402.626 360.194 397.917C351.953 389.605 342.072 384.723 330.34 383.803L330.34 383.803C330.171 383.789 330.003 383.776 329.836 383.762C329.003 383.694 328.182 383.627 327.359 383.594C326.361 383.554 325.439 383.525 324.479 383.525Z" stroke="#EDF8FF"/>
<path d="M468.77 404.647L468.775 404.643C475.557 398.572 483.185 393.52 491.421 389.644C499.466 386.005 507.764 383.61 516.613 383.5C520.143 383.523 523.662 383.905 527.116 384.639C542.797 388.062 553.746 397.883 562.038 411.066L562.038 411.067C565.836 417.094 567.602 424.076 569.041 431.071L569.043 431.077L569.043 431.077C570.416 437.324 570.711 443.759 569.915 450.104C568.001 463.864 561.853 475.26 550.708 483.773C537.232 494.053 522.301 498.03 505.776 493.429C491.665 489.465 480.995 481.035 474.521 467.692C472.661 463.846 470.942 459.96 469.219 456.065C467.927 453.144 466.632 450.218 465.275 447.299M468.77 404.647L464.821 447.51M468.77 404.647C467.558 405.703 466.318 406.707 465.065 407.722C464.783 407.95 464.499 408.18 464.216 408.411M468.77 404.647L464.216 408.411M465.275 447.299L464.821 447.51M465.275 447.299C465.275 447.299 465.275 447.299 465.275 447.3L464.821 447.51M465.275 447.299C463.529 443.538 461.459 439.719 458.512 436.823C456.984 435.322 454.629 434.225 452.149 433.883C449.666 433.542 446.995 433.951 444.864 435.548M464.821 447.51C463.081 443.76 461.041 440.01 458.161 437.18C455.281 434.35 449.161 432.95 445.161 435.95M444.864 435.548C444.865 435.547 444.865 435.547 444.866 435.546L445.161 435.95M444.864 435.548C444.225 436.014 443.598 436.419 442.958 436.832C442.605 437.06 442.248 437.29 441.883 437.535L441.871 437.543L441.859 437.551C440.919 438.263 439.875 438.828 438.764 439.225M444.864 435.548C444.863 435.549 444.862 435.549 444.861 435.55L445.161 435.95M445.161 435.95L438.764 439.225M438.764 439.225C438.768 439.224 438.772 439.223 438.775 439.222L438.921 439.7M438.764 439.225L442.161 437.95C441.177 438.695 440.084 439.285 438.921 439.7M438.764 439.225C438.761 439.226 438.757 439.228 438.753 439.229L438.921 439.7M438.764 439.225C437.863 439.499 437.023 439.601 436.267 439.47C435.52 439.34 434.826 438.977 434.21 438.263L434.209 438.263C431.692 435.355 430.343 432.223 431.393 428.382C431.931 426.414 432.791 424.772 434.017 423.505C435.239 422.242 436.847 421.329 438.92 420.848M438.921 439.7C437.021 440.28 435.211 440.19 433.831 438.59C431.251 435.61 429.801 432.31 430.911 428.25C432.021 424.19 434.491 421.36 438.811 420.36M438.92 420.848C438.919 420.848 438.918 420.849 438.916 420.849L438.811 420.36M438.92 420.848C438.921 420.848 438.923 420.847 438.924 420.847L438.811 420.36M438.92 420.848C440.505 420.507 442.016 420.134 443.532 419.66M438.811 420.36C440.391 420.02 441.891 419.65 443.391 419.18M443.391 419.18L443.522 419.663C443.525 419.662 443.528 419.661 443.532 419.66M443.391 419.18C444.721 418.82 444.921 417.9 444.021 416.82C443.764 416.533 443.487 416.266 443.191 416.02M443.391 419.18L443.541 419.657C443.538 419.658 443.535 419.659 443.532 419.66M443.532 419.66C444.27 419.458 444.86 419.054 445.027 418.393C445.189 417.751 444.894 417.086 444.405 416.5L444.4 416.493L444.394 416.486C444.123 416.184 443.83 415.901 443.518 415.641M443.518 415.641C443.52 415.643 443.522 415.645 443.524 415.647L443.191 416.02M443.518 415.641C443.516 415.639 443.513 415.637 443.511 415.636L443.191 416.02M443.518 415.641C442.315 414.566 441.007 413.606 439.721 412.662C439.171 412.258 438.626 411.858 438.094 411.452L438.088 411.448L438.082 411.443C434.432 408.839 431.697 405.149 430.265 400.9L430.262 400.892L430.259 400.884C429.247 398.187 429.247 395.213 430.259 392.516L430.263 392.506L430.266 392.496C430.462 391.901 430.861 391.394 431.394 391.064C431.927 390.735 432.559 390.604 433.179 390.695L433.199 390.698L433.22 390.699C434.375 390.77 435.494 391.123 436.48 391.726L436.481 391.727C438.547 392.987 440.407 394.559 441.994 396.388L442 396.395L442.006 396.402C442.324 396.742 442.642 397.083 442.961 397.426C444.691 399.286 446.439 401.165 448.366 402.871M443.191 416.02C442.005 414.959 440.726 414.021 439.447 413.081C438.893 412.674 438.338 412.267 437.791 411.85L448.701 402.5M448.366 402.871C448.364 402.869 448.363 402.868 448.361 402.867L448.701 402.5M448.366 402.871C448.367 402.872 448.368 402.873 448.37 402.874L448.701 402.5M448.366 402.871C451.356 405.641 454.837 407.83 458.631 409.322M448.701 402.5C451.649 405.232 455.081 407.389 458.821 408.86M458.631 409.322C458.628 409.321 458.626 409.32 458.624 409.319L458.821 408.86M458.631 409.322C459.553 409.718 460.568 409.841 461.558 409.679C462.547 409.517 463.468 409.077 464.216 408.411M458.631 409.322C458.633 409.323 458.636 409.324 458.638 409.325L458.821 408.86M458.821 408.86L464.216 408.411" stroke="#EDF7FE"/>
<path d="M710.465 383.504V383.504L710.459 383.504C698.296 383.528 686.374 386.9 675.999 393.25L675.993 393.254C669.874 396.882 664.031 400.889 658.143 404.948C656.169 406.473 653.899 407.573 651.478 408.177C650.928 408.333 650.35 408.364 649.787 408.267C649.221 408.169 648.684 407.945 648.217 407.61L648.213 407.607C646.485 406.342 644.711 405.117 642.931 403.887C638.993 401.165 635.023 398.423 631.452 395.184L631.452 395.184L631.444 395.176C630.355 394.142 629.137 393.253 627.82 392.533C626.703 391.927 625.393 391.785 624.173 392.14C622.953 392.494 621.923 393.316 621.305 394.427L621.303 394.431C619.762 397.144 619.811 400.033 620.649 403.047C621.444 405.795 622.938 408.29 624.987 410.286L624.994 410.292C626.669 411.987 628.505 413.47 630.368 414.974C631.231 415.671 632.1 416.373 632.961 417.102L632.962 417.103C633.309 417.398 633.6 417.651 633.798 417.87C633.974 418.066 634.206 418.369 634.154 418.748C634.101 419.129 633.795 419.358 633.57 419.498C633.317 419.656 632.964 419.82 632.544 420.01L632.541 420.011C631.799 420.34 631.059 420.659 630.322 420.975C628.622 421.707 626.939 422.43 625.297 423.268C621.777 425.086 620.096 427.691 619.635 430.409C619.171 433.147 619.938 436.06 621.432 438.468C622.008 439.374 622.675 439.842 623.411 440.062C624.166 440.287 625.038 440.266 626.04 440.102C628.105 439.701 630.079 438.924 631.863 437.81L631.873 437.804L631.882 437.799C632.395 437.508 632.91 437.211 633.427 436.913C636.427 435.181 639.512 433.401 642.986 432.444C643.703 432.218 644.46 432.148 645.206 432.239C645.953 432.331 646.672 432.581 647.314 432.974C652.772 436.132 657.197 440.804 660.053 446.425C663.14 452.394 665.84 458.554 668.137 464.869C669.047 467.243 670.2 469.516 671.578 471.652C672.24 472.67 672.856 473.694 673.468 474.709C674.658 476.682 675.828 478.624 677.269 480.432L677.269 480.432C680.732 484.778 685.295 487.628 690.171 490.251C695.132 492.805 700.45 494.595 705.945 495.561L705.945 495.561L705.954 495.563C707.938 495.95 709.972 495.75 712.077 495.543C712.486 495.503 712.899 495.462 713.314 495.426L713.324 495.425L713.334 495.424C715.694 495.311 718.044 495.037 720.367 494.604C728.928 492.646 736.916 488.724 743.701 483.147L743.703 483.146C749.258 478.632 753.846 473.335 756.636 466.684C757.836 463.703 758.851 460.651 759.675 457.545L759.675 457.545L759.678 457.535C763.622 443.931 762.4 429.349 756.248 416.591L756.247 416.588C751.593 406.797 744.719 398.226 736.171 391.558L736.171 391.558L736.165 391.553C730.608 387.078 723.963 384.881 716.88 383.899C714.754 383.608 712.61 383.476 710.465 383.504Z" stroke="#EDF7FE"/>
<path d="M78.6324 530.559L78.6304 530.56C77.6722 531.153 76.9299 531.593 76.318 531.866C75.7013 532.141 75.1572 532.274 74.6088 532.183C74.0673 532.094 73.602 531.8 73.1184 531.406C72.783 531.132 72.4024 530.779 71.9567 530.365C71.7668 530.188 71.5651 530.001 71.3499 529.804L71.3475 529.802C70.0715 528.618 69.0162 527.269 68.0197 525.914C67.777 525.583 67.5384 525.254 67.3011 524.926C66.556 523.897 65.8236 522.885 65.0154 521.927C64.7687 521.635 64.5221 521.34 64.2748 521.045C62.3386 518.731 60.3558 516.362 57.8818 514.548C56.5677 513.584 55.5144 513.567 54.7446 513.938C53.9385 514.326 53.3093 515.204 53.0094 516.278C52.021 519.85 52.4824 523.667 54.2934 526.9C55.5585 529.121 57.0042 531.235 58.6157 533.22L58.6158 533.22L58.6236 533.23C59.65 534.562 60.5733 535.971 61.3854 537.443L61.3855 537.443L61.3911 537.454C61.9901 538.605 62.2847 539.651 62.1694 540.684C62.0538 541.72 61.5349 542.664 60.6698 543.629C59.0258 545.462 57.2072 547.609 55.6302 549.751L55.623 549.761L55.6154 549.77C54.0811 551.657 53.0571 553.907 52.6415 556.303C52.4553 557.62 52.6588 558.64 53.1706 559.398C53.6832 560.156 54.5541 560.724 55.8459 561.039L55.8551 561.042C57.172 561.389 58.5471 561.458 59.8921 561.243C61.2371 561.029 62.5225 560.535 63.6658 559.795L63.6705 559.792C64.7999 559.079 65.901 558.315 67.0125 557.544L67.0132 557.544C68.1998 556.723 69.5727 556.059 71.0624 556.018C72.575 555.976 74.1284 556.578 75.6532 558.134C76.8217 559.304 77.8516 560.605 78.7226 562.012L78.7258 562.017C82.3192 567.979 84.9417 574.376 87.5514 580.742C88.2419 582.427 88.9316 584.109 89.6381 585.78C92.8518 593.382 97.0092 600.448 102.937 606.227L102.941 606.232C109.263 612.567 117.31 616.901 126.078 618.695C126.852 618.853 127.618 619.023 128.379 619.193C130.849 619.742 133.268 620.281 135.757 620.335C139.4 620.25 143.006 619.585 146.44 618.364L146.452 618.36L146.463 618.356C155.698 615.573 164.058 610.453 170.734 603.491C175.197 598.716 178.777 593.187 181.306 587.161L181.306 587.161L181.311 587.152C187.549 573.14 187.142 559.054 182.176 544.751C179.175 536.33 173.964 528.872 167.088 523.16L167.078 523.151L167.068 523.142C164.292 520.579 161.304 518.255 158.136 516.195C150.904 511.56 142.43 509.244 133.846 509.555L133.828 509.055L133.802 509.554C121.884 508.951 108.94 513.433 96.458 519.919L96.2275 519.475L96.458 519.919C91.3032 522.596 86.3745 525.695 81.4498 528.792C80.511 529.382 79.5724 529.972 78.6324 530.559Z" stroke="#EDF8FF"/>
<path d="M658.933 531.478L658.278 532.039L658.117 531.191C658.007 530.612 657.903 530.051 657.802 529.504C657.551 528.152 657.316 526.883 657.04 525.614C656.649 523.865 656.231 522.123 655.809 520.365C655.67 519.786 655.531 519.206 655.392 518.624L655.389 518.613L655.387 518.603C655.372 518.525 655.33 518.455 655.269 518.405C655.208 518.354 655.131 518.327 655.051 518.328L655.033 518.328L655.015 518.327C654.863 518.316 654.713 518.363 654.594 518.458C654.475 518.552 654.396 518.688 654.372 518.838L654.368 518.861L654.362 518.884C653.995 520.293 653.667 521.703 653.369 523.134C652.53 527.681 652.297 532.319 652.676 536.927L652.676 536.927L652.677 536.934C652.98 541.449 653.199 545.972 653.417 550.485C653.48 551.785 653.543 553.085 653.607 554.383L653.608 554.386C653.783 558.335 654.178 562.272 654.792 566.178C654.907 566.866 655.08 567.544 655.31 568.203C655.377 568.394 655.45 568.487 655.504 568.533C655.554 568.576 655.614 568.603 655.704 568.613C655.922 568.638 656.229 568.561 656.673 568.406L657.329 568.177L657.338 568.871C657.389 572.611 657.994 576.323 659.134 579.885L659.137 579.893L659.139 579.901C661.72 588.988 666.853 596.493 673.653 602.976L673.658 602.981L673.663 602.986C683.577 612.996 697.014 618.729 711.101 618.958C713.418 618.945 715.73 618.75 718.017 618.374L718.017 618.374L718.028 618.373C727.006 617.11 735.414 613.237 742.207 607.233L742.208 607.233C751.398 599.135 758.169 589.412 760.9 577.347L760.9 577.347C763.714 564.975 762.063 553.007 756.793 541.465L756.793 541.465L756.791 541.46C753.488 533.987 748.632 527.302 742.546 521.851C738.45 518.229 733.597 515.936 728.566 513.675C720.829 510.294 712.361 508.932 703.954 509.716L703.95 509.716C698.74 510.153 693.761 511.716 688.72 513.299C688.523 513.361 688.325 513.423 688.128 513.485L688.127 513.485C678.34 516.549 669.91 521.877 662.311 528.661C661.772 529.144 661.216 529.601 660.654 530.058C660.577 530.121 660.5 530.183 660.423 530.246C659.933 530.643 659.438 531.046 658.933 531.478Z" stroke="#EDF8FF"/>
<path d="M269.178 516.275L269.178 516.275C270.541 520.238 272.253 524.074 274.294 527.735L274.73 527.492L275.081 527.849C277.277 525.695 279.747 523.839 282.426 522.327L282.435 522.323L282.435 522.322C290.264 517.699 298.678 514.144 307.452 511.754L307.454 511.754C311.698 510.577 316.052 509.843 320.447 509.561C326.92 509.287 333.399 509.933 339.691 511.477L339.693 511.478C344.788 512.704 349.582 514.253 353.6 517.606C353.982 517.925 354.364 518.243 354.746 518.561C356.319 519.872 357.888 521.18 359.42 522.527L359.422 522.529C367.383 529.469 373.002 537.952 375.585 548.27C376.201 550.867 376.729 553.555 377.198 556.238L377.198 556.239C379.172 567.41 378.128 578.166 372.876 588.312L372.876 588.314C369.245 595.387 364.231 601.659 358.131 606.758C344.984 617.665 330.217 621.022 313.707 615.964L313.704 615.963C310.276 614.938 306.957 613.58 303.794 611.91L303.782 611.903L303.781 611.903C301.882 610.967 300.111 609.789 298.513 608.399C297.294 607.283 296.112 606.116 294.926 604.936C294.798 604.809 294.67 604.682 294.542 604.554C293.484 603.501 292.42 602.442 291.327 601.412C288.04 598.183 285.393 594.362 283.528 590.149L283.525 590.143L283.522 590.137C278.797 580.24 276.158 569.689 273.556 559.063L273.556 559.061C273.467 558.708 273.395 558.359 273.321 557.999C273.293 557.861 273.264 557.721 273.233 557.578C273.126 557.072 273.004 556.549 272.824 556.021L272.822 556.015C272.66 555.558 272.493 555.172 272.299 554.88C272.106 554.589 271.847 554.332 271.484 554.245C271.121 554.157 270.775 554.268 270.474 554.436C270.172 554.605 269.853 554.866 269.509 555.186L269.495 555.2L269.481 555.215C268.509 556.281 267.447 557.261 266.307 558.147C265.646 558.59 265.123 558.67 264.727 558.554C264.325 558.437 263.915 558.078 263.574 557.342L263.571 557.334L263.571 557.334C263.417 557.016 263.294 556.682 263.205 556.34C261.909 551.064 262.21 546.143 265.7 541.775C266.265 541.072 266.679 540.261 266.918 539.392C267.156 538.524 267.213 537.617 267.086 536.726C266.888 535.131 266.548 533.557 266.068 532.023M269.178 516.275L265.59 532.172M269.178 516.275L269.175 516.265C268.676 514.716 268.071 513.204 267.365 511.739M269.178 516.275L267.81 511.512M266.068 532.023C266.068 532.023 266.068 532.023 266.068 532.023L265.59 532.172M266.068 532.023C266.068 532.024 266.068 532.024 266.068 532.024L265.59 532.172M266.068 532.023C265.823 531.23 265.566 530.448 265.31 529.671C264.401 526.906 263.514 524.206 263.269 521.32L263.268 521.31L263.267 521.3C262.858 518.048 263.362 514.747 264.723 511.765M265.59 532.172C265.351 531.398 265.098 530.628 264.845 529.859C263.933 527.086 263.021 524.313 262.77 521.362C262.35 518.016 262.869 514.619 264.27 511.552M264.723 511.765C264.722 511.767 264.721 511.769 264.72 511.771L264.27 511.552M264.723 511.765C264.724 511.763 264.724 511.762 264.725 511.76L264.27 511.552M264.723 511.765C265.07 511.055 265.499 510.645 266.075 510.652C266.646 510.658 266.991 511.043 267.365 511.739M264.27 511.552C264.64 510.792 265.2 510.142 266.08 510.152C266.96 510.162 267.43 510.802 267.81 511.512M267.81 511.512L267.36 511.729C267.362 511.732 267.363 511.736 267.365 511.739M267.81 511.512L267.37 511.748C267.368 511.745 267.366 511.742 267.365 511.739M263.12 557.552C263.87 559.172 265.12 559.552 266.6 558.552C267.768 557.647 268.855 556.643 269.85 555.552L263.12 557.552ZM272.35 556.182C272.567 556.818 272.698 557.455 272.829 558.091C272.905 558.455 272.98 558.818 273.07 559.182C275.67 569.802 278.32 580.402 283.07 590.352C284.962 594.624 287.646 598.499 290.98 601.772C292.069 602.798 293.13 603.854 294.189 604.909C295.504 606.218 296.818 607.526 298.18 608.772L272.35 556.182Z" stroke="#EDF8FF"/>
<path d="M461.647 550.486V550.509L461.645 550.533C461.431 552.764 461.454 555.012 461.714 557.238L461.714 557.243C461.759 557.664 461.802 557.953 461.86 558.162C461.917 558.364 461.975 558.446 462.023 558.49C462.072 558.536 462.163 558.589 462.376 558.635C462.591 558.681 462.881 558.708 463.295 558.736C463.502 558.738 463.723 558.785 463.904 558.935C464.096 559.096 464.161 559.305 464.181 559.461C464.2 559.606 464.186 559.75 464.178 559.833L464.178 559.833C464.177 559.846 464.176 559.857 464.175 559.868C464.171 559.899 464.169 559.923 464.167 559.947C464.166 559.962 464.166 559.972 464.166 559.98C464.166 559.984 464.166 559.987 464.166 559.989C464.257 561.026 464.332 562.053 464.407 563.077C464.514 564.54 464.621 565.995 464.774 567.46C465.746 575.682 468.507 583.591 472.862 590.633L472.862 590.633L472.867 590.641C475.703 595.427 478.945 599.96 482.557 604.191C488.493 611.096 496.636 615.733 505.604 617.313L505.611 617.314L505.618 617.316C511.891 618.606 518.31 619.044 524.701 618.617C532.232 618.045 538.97 615.166 545.293 611.057C552.212 606.53 557.426 600.324 561.751 593.294L561.755 593.288C566.042 586.53 568.751 578.893 569.68 570.944C570.061 566.686 569.921 562.397 569.263 558.173L569.261 558.161L569.26 558.15C568.52 551.417 566.625 544.861 563.661 538.771C558.809 529.501 551.412 521.809 542.338 516.599L542.336 516.598C535.483 512.62 527.783 510.326 519.87 509.905L519.863 509.904C519.185 509.858 518.516 509.798 517.853 509.74C516.331 509.604 514.839 509.471 513.335 509.505C510.408 509.656 507.502 510.089 504.658 510.801L504.658 510.801L504.646 510.803C498.451 512.189 492.762 514.912 487.034 517.666L487.034 517.666L487.022 517.672C482.235 519.825 477.67 522.44 473.391 525.48C472.556 526.103 471.636 526.553 470.724 526.95C470.414 527.086 470.108 527.214 469.806 527.34C469.203 527.592 468.617 527.838 468.039 528.124L468.038 528.124C467.848 528.217 467.631 528.291 467.408 528.27C467.142 528.245 466.95 528.094 466.841 527.906C466.749 527.748 466.721 527.576 466.708 527.464C466.698 527.373 466.694 527.272 466.69 527.197C466.689 527.178 466.689 527.16 466.688 527.145C466.618 526.01 466.55 524.875 466.483 523.74V523.74C466.415 522.605 466.348 521.471 466.278 520.337C466.198 519.107 466.118 517.886 465.999 516.666C465.962 516.306 465.887 516.027 465.766 515.844C465.667 515.695 465.524 515.585 465.23 515.575C464.929 515.565 464.799 515.661 464.707 515.782C464.583 515.943 464.499 516.193 464.414 516.548C463.528 520.55 462.977 524.618 462.766 528.711L462.766 528.711L462.765 528.725C462.388 533.549 462.105 538.379 461.822 543.21C461.76 544.26 461.699 545.311 461.636 546.361C461.598 547.236 461.614 548.104 461.629 548.992C461.638 549.483 461.647 549.979 461.647 550.486Z" stroke="#EDF8FF"/>
<path d="M70.8126 652.429L70.8124 652.443L70.8112 652.458C70.6652 654.36 70.4885 656.25 70.3124 658.135C69.991 661.574 69.6713 664.995 69.5424 668.438L69.5423 668.44C69.4499 670.726 69.5249 672.979 69.6007 675.253C69.6477 676.662 69.6949 678.079 69.7028 679.517L69.7027 679.524C69.6826 681.814 69.8215 684.104 70.1185 686.375L70.1185 686.375L70.1194 686.383C70.2556 687.571 70.6767 688.709 71.3469 689.699L71.3696 689.733L71.3866 689.77C71.4823 689.977 71.6192 690.162 71.7891 690.314C71.959 690.466 72.1583 690.582 72.3746 690.654C72.5909 690.726 72.8197 690.753 73.0468 690.733C73.274 690.714 73.4947 690.648 73.6954 690.539L73.7112 690.531L73.7275 690.524C74.2372 690.294 74.7716 690.149 75.2369 690.435C75.4545 690.568 75.6008 690.766 75.709 690.961C75.8169 691.156 75.9075 691.388 75.994 691.633L75.9947 691.634C80.5575 704.675 87.0045 716.586 96.7107 726.541L96.712 726.542C103.301 733.352 111.584 738.286 120.711 740.836C124.41 741.757 128.194 742.297 132.003 742.45L132.015 742.45L132.027 742.452C138.147 742.999 144.312 742.203 150.091 740.12C159.4 736.682 167.63 731.616 174.092 724.006L174.092 724.006C179.508 717.638 183.31 710.059 185.175 701.911C186.225 697.093 186.601 692.152 186.294 687.231L186.294 687.231L186.293 687.218C185.94 677.702 183.322 668.408 178.658 660.106C174.608 653 169.302 646.801 162.3 642.475L162.297 642.473C154.134 637.352 144.839 634.311 135.227 633.618C126.174 632.985 117.55 634.952 109.089 638.097C100.957 641.218 93.4348 645.739 86.8625 651.455C84.046 653.958 80.9476 656.124 77.6297 657.91L77.3927 657.47L76.9132 657.611C76.7055 656.909 76.4981 656.211 76.2913 655.514C75.4538 652.693 74.6264 649.906 73.8315 647.055C73.6975 646.586 73.5832 646.241 73.4056 646.005C73.2607 645.812 73.0622 645.676 72.6572 645.68C72.2427 645.683 72.0081 645.828 71.8398 646.033C71.6507 646.262 71.5205 646.598 71.4099 647.023C71.0452 648.802 70.8453 650.612 70.8126 652.429Z" stroke="#EDF8FF"/>
<path d="M254.73 673.707L254.73 673.692C254.83 666.678 255.059 660.144 255.668 653.663C255.668 653.663 255.668 653.662 255.668 653.662L255.17 653.615C255.334 651.919 255.456 650.224 255.579 648.528C255.673 647.224 255.767 645.919 255.88 644.615L254.73 673.707ZM254.73 673.707L254.729 673.722C254.5 676.81 254.5 680.38 254.5 683.975V683.978V683.98V683.983V683.986V683.989V683.991V683.994V683.997V683.999V684.002V684.005V684.007V684.01V684.013V684.015V684.018V684.021V684.024V684.026V684.029V684.032V684.034V684.037V684.04V684.042V684.045V684.048V684.051V684.053V684.056V684.059V684.061V684.064V684.067V684.069V684.072V684.075V684.077V684.08V684.083V684.086V684.088V684.091V684.094V684.096V684.099V684.102V684.104V684.107V684.11V684.112V684.115V684.118V684.121V684.123V684.126V684.129V684.131V684.134V684.137V684.139V684.142V684.145V684.148V684.15V684.153V684.156V684.158V684.161V684.164V684.166V684.169V684.172V684.174V684.177V684.18V684.183V684.185V684.188V684.191V684.193V684.196V684.199V684.201V684.204V684.207V684.21V684.212V684.215V684.218V684.22V684.223V684.226V684.228V684.231V684.234V684.236V684.239V684.242V684.245V684.247V684.25V684.253V684.255V684.258V684.261V684.263V684.266V684.269V684.272V684.274V684.277V684.28V684.282V684.285V684.288V684.29V684.293V684.296V684.298V684.301V684.304V684.307V684.309V684.312V684.315V684.317V684.32V684.323V684.325V684.328V684.331V684.334V684.336V684.339V684.342V684.344V684.347V684.35V684.352V684.355V684.358V684.36V684.363V684.366V684.369V684.371V684.374V684.377V684.379V684.382V684.385V684.387V684.39V684.393V684.396V684.398V684.401V684.404V684.406V684.409V684.412V684.414V684.417V684.42V684.422V684.425V684.428V684.431V684.433V684.436V684.439V684.441V684.444V684.447V684.449V684.452V684.455V684.457V684.46V684.463V684.466V684.468V684.471V684.474V684.476V684.479V684.482V684.484V684.487V684.49V684.493V684.495V684.498V684.501V684.503V684.506V684.509V684.511V684.514V684.517V684.519V684.522V684.525V684.528V684.53V684.533V684.536V684.538V684.541V684.544V684.546V684.549V684.552V684.555V684.557V684.56V684.563V684.565V684.568V684.571V684.573V684.576V684.579V684.581V684.584V684.587V684.59V684.592V684.595V684.598V684.6V684.603V684.606V684.608V684.611V684.614V684.617V684.619V684.622V684.625V684.627V684.63V684.633V684.635V684.638V684.641V684.643V684.646V684.649V684.652V684.654V684.657V684.66V684.662V684.665V684.668V684.67V684.673V684.676V684.679V684.681V684.684V684.687V684.689V684.692V684.695V684.697V684.7V684.703V684.705V684.708V684.711V684.714V684.716V684.719V684.722V684.724V684.727V684.73V684.732V684.735V684.738V684.741V684.743V684.746V684.749V684.751V684.754V684.757V684.759V684.762V684.765V684.767V684.77V684.773V684.776V684.778V684.781V684.784V684.786V684.789V684.792V684.794V684.797V684.8V684.802V684.805V684.808V684.811V684.813V684.816V684.819V684.821V684.824V684.827V684.829V684.832V684.835V684.838V684.84V684.843V684.846V684.848V684.851V684.854V684.856V684.859V684.862V684.864V684.867V684.87V684.873V684.875V684.878V684.881V684.883V684.886V684.889V684.891V684.894V684.897V684.9V684.902V684.905V684.908V684.91V684.913V684.916V684.918V684.921V684.924V684.926V684.929V684.932V684.935V684.937V684.94V684.943V684.945V684.948V684.951V684.953V684.956V684.959V684.962V684.964V684.967V684.97V684.972V684.975V684.978V684.98V684.983V684.986V684.988V684.991V684.994V684.997V684.999V685.002V685.005V685.007V685.01V685.013V685.015V685.018V685.021V685.024V685.026V685.029V685.032V685.034V685.037V685.04V685.042V685.045V685.048V685.05V685.053V685.056V685.059V685.061V685.064V685.067V685.069V685.072V685.075V685.077V685.08V685.083V685.086V685.088V685.091V685.094V685.096V685.099V685.102V685.104V685.107V685.11V685.112V685.115V685.118V685.121V685.123V685.126V685.129V685.131V685.134V685.137V685.139V685.142V685.145V685.147V685.15V685.153V685.156V685.158V685.161V685.164V685.166V685.169V685.172V685.174V685.177V685.18V685.183V685.185V685.188V685.191V685.193V685.196V685.199V685.201V685.204V685.207V685.209V685.212V685.215V685.218V685.22V685.223V685.226V685.228V685.231V685.234V685.236V685.239V685.242V685.245V685.247V685.25V685.253V685.255V685.258V685.261V685.263V685.266V685.269V685.271V685.274V685.277V685.28V685.282V685.285V685.288V685.29V685.293V685.296V685.298V685.301V685.304V685.307V685.309V685.312V685.315V685.317V685.32V685.323V685.325V685.328V685.331V685.333V685.336V685.339V685.339C254.573 686.492 254.919 687.091 255.326 687.333C255.726 687.57 256.395 687.582 257.417 687.043L257.428 687.037L257.439 687.032C258.98 686.314 260.483 685.517 261.941 684.643C262.489 684.275 263.055 684.293 263.528 684.384C263.725 684.422 263.923 684.476 264.099 684.524C264.13 684.532 264.16 684.541 264.189 684.549C264.393 684.603 264.567 684.647 264.73 684.667C265.614 684.736 266.464 685.037 267.194 685.54C267.927 686.045 268.513 686.736 268.892 687.542C270.561 691.078 271.956 694.736 273.067 698.484L273.075 698.508C275.073 704.444 277.058 710.34 280.029 715.825C283.739 722.544 289.223 727.553 295.267 732.25L295.267 732.251C302.03 737.522 309.792 740.101 318.117 741.573L318.119 741.573C329.912 743.721 342.084 741.537 352.395 735.425L352.395 735.425L352.402 735.421C359.353 731.449 365.283 726.5 369.569 719.796L369.573 719.79C374.772 711.915 377.845 702.828 378.491 693.413C378.995 684.793 377.185 676.572 374.466 668.444L374.465 668.443C371.005 658.031 364.4 650.002 355.549 643.541C349.544 639.312 342.708 636.409 335.496 635.026L335.496 635.026L335.483 635.023C324.845 632.685 313.792 633.043 303.329 636.065L303.327 636.066C293.289 638.937 284.773 644.522 277.393 651.929C275.699 653.811 273.843 655.541 271.848 657.099L271.838 657.107L271.827 657.114C270.573 657.996 269.569 658.504 268.512 658.477C267.462 658.451 266.474 657.897 265.246 657C261.977 654.646 260.415 651.231 259.218 647.71C259.044 647.227 258.898 646.713 258.756 646.211L258.724 646.099C258.569 645.553 258.414 645.019 258.222 644.512L258.219 644.504L258.217 644.497C258.192 644.424 258.169 644.355 258.146 644.288C258.032 643.944 257.942 643.675 257.795 643.472C257.719 643.367 257.641 643.303 257.555 643.265C257.468 643.228 257.334 643.2 257.119 643.23C256.898 643.261 256.772 643.323 256.697 643.381C256.624 643.438 256.568 643.514 256.524 643.624C256.478 643.74 256.448 643.885 256.427 644.068C256.414 644.186 256.406 644.293 256.398 644.409C256.392 644.486 256.386 644.567 256.378 644.659L254.73 673.707Z" stroke="#EDF8FF"/>
</svg>
