<svg width="768" height="754" viewBox="0 0 768 754" fill="none" xmlns="http://www.w3.org/2000/svg">
<rect width="192" height="126" fill="#313F86"/>
<rect y="126" width="192" height="126" fill="#313F86"/>
<rect y="252" width="192" height="126" fill="#313F86"/>
<rect y="378" width="192" height="126" fill="#313F86"/>
<rect y="504" width="192" height="126" fill="#313F86"/>
<rect y="628" width="192" height="126" fill="#313F86"/>
<rect x="192" width="192" height="126" fill="#313F86"/>
<rect x="192" y="126" width="192" height="126" fill="#313F86"/>
<rect x="192" y="252" width="192" height="126" fill="#313F86"/>
<rect x="192" y="378" width="192" height="126" fill="#313F86"/>
<rect x="192" y="504" width="192" height="126" fill="#313F86"/>
<rect x="192" y="628" width="192" height="126" fill="#313F86"/>
<rect x="384" width="192" height="126" fill="#313F86"/>
<rect x="384" y="126" width="192" height="126" fill="#313F86"/>
<rect x="384" y="252" width="192" height="126" fill="#313F86"/>
<rect x="384" y="378" width="192" height="126" fill="#313F86"/>
<rect x="384" y="504" width="192" height="126" fill="#313F86"/>
<rect x="576" width="192" height="126" fill="#313F86"/>
<rect x="576" y="126" width="192" height="126" fill="#313F86"/>
<rect x="576" y="252" width="192" height="126" fill="#313F86"/>
<rect x="576" y="378" width="192" height="126" fill="#313F86"/>
<rect x="576" y="504" width="192" height="126" fill="#313F86"/>
<path d="M64.0801 33.1233C62.2358 30.3803 61.0736 27.2364 60.6901 23.9533C60.5801 23.0333 60.6201 22.0933 60.4801 21.1833C60.4201 20.7933 60.0701 20.1833 59.8101 20.1833C59.5776 20.1678 59.345 20.2109 59.1335 20.3088C58.9221 20.4066 58.7387 20.5561 58.6001 20.7433C58.1116 21.7447 57.7746 22.813 57.6001 23.9133C57.3201 26.2033 57.2401 28.5233 57.0501 30.8233C56.7101 35.1367 56.3534 39.44 55.9801 43.7333C55.6801 47.0033 55.3601 50.2633 54.9801 53.5233C54.8301 54.8233 54.4701 56.0933 54.2101 57.3833C54.1054 57.7934 54.0351 58.2115 54.0001 58.6333C54.0001 59.7933 54.8001 60.3733 55.8401 59.8333C56.6184 59.3324 57.3482 58.7599 58.0201 58.1233C58.4101 57.8133 58.7801 57.4933 59.1901 57.1233C60.1901 60.0633 61.3101 62.8533 62.1901 65.7033C65.3548 75.4071 70.4123 84.3869 77.0701 92.1233C84.4848 101.176 93.5523 108.737 103.79 114.403C110.861 118.225 118.602 120.645 126.59 121.533C133.932 122.474 141.384 122.088 148.59 120.393C153.645 119.053 158.462 116.938 162.87 114.123C171.82 108.613 178.99 101.443 183.31 91.7133C185.522 86.7247 186.755 81.3573 186.94 75.9033C187.195 71.4336 187.195 66.953 186.94 62.4833C186.036 51.7696 182.457 41.4542 176.53 32.4833C171.23 24.1833 163.99 18.0633 155.53 13.1833C149.609 9.87719 143.249 7.42619 136.64 5.90333C131.85 4.72333 127.06 4.90333 122.27 5.30333C118.352 5.56155 114.461 6.12324 110.63 6.98333C101.04 9.27333 91.7001 12.3433 83.5801 18.1833C77.2001 22.7733 70.5001 26.9633 64.8601 32.5433C64.611 32.7509 64.3506 32.9445 64.0801 33.1233Z" fill="#EDF8FF"/>
<path d="M249.129 39.8744C248.325 38.6367 247.612 37.3419 246.995 36.0003C245.01 30.5485 243.135 25.0169 241.22 19.5751C241.15 19.3954 241.15 19.1658 241.031 19.026C240.694 18.6066 240.347 17.9376 239.94 17.8777C239.651 17.8723 239.365 17.9303 239.101 18.0475C238.837 18.1648 238.602 18.3385 238.412 18.5567C237.207 20.3399 236.469 22.4008 236.268 24.5476C235.444 29.6599 236.635 34.5325 238.253 39.2953C238.467 40.0345 238.722 40.7612 239.017 41.472C239.562 42.6634 239.855 43.9554 239.879 45.2666C239.903 46.5778 239.657 47.8798 239.156 49.0905C237.269 54.5373 236.764 60.3719 237.687 66.0648C237.78 66.7918 237.957 67.5055 238.213 68.1916C238.63 69.27 239.573 69.3998 240.198 68.4712C242.42 65.3759 245.596 63.6485 248.97 62.2106C249.181 62.1143 249.41 62.0611 249.642 62.0542C249.874 62.0473 250.105 62.0868 250.322 62.1703C250.539 62.2539 250.737 62.3799 250.905 62.5411C251.074 62.7023 251.208 62.8954 251.302 63.1093C252.016 64.2575 252.711 65.4058 253.425 66.5441C256.908 72.1256 260.451 77.6673 263.864 83.2888C266.632 87.8595 269.629 92.2852 272.845 96.5487C275.909 100.36 279.541 103.671 283.612 106.364C293.684 113.513 304.649 118.665 316.834 120.842C329.218 123.049 341.344 122.35 352.786 116.578C366.51 109.659 374.567 98.2761 377.802 83.3187C379.085 76.8837 379.339 70.284 378.556 63.7683C377.704 53.9162 374.9 44.3356 370.31 35.5909C361.578 19.4453 348.281 9.44048 330.28 6.02564C324.247 4.91808 318.086 4.70615 311.992 5.3966C293.078 7.39357 276.854 15.5712 262.257 27.3634C257.94 30.8581 254.06 34.892 249.982 38.6862C249.67 39.0618 249.385 39.4589 249.129 39.8744Z" fill="#EDF8FF"/>
<path d="M424.871 50.0475C424.65 50.1911 424.416 50.3117 424.171 50.4075C418.761 51.6275 414.951 59.1676 415.001 63.2076C415.091 65.9601 415.984 68.6262 417.571 70.8775C417.657 71.0537 417.778 71.2103 417.927 71.3375C418.077 71.4648 418.25 71.5599 418.438 71.6171C418.626 71.6744 418.823 71.6924 419.018 71.6701C419.213 71.6478 419.401 71.5857 419.571 71.4875C420.245 71.1275 420.876 70.6913 421.451 70.1875C423.051 68.7575 424.591 67.1875 426.191 65.7975C427.153 64.95 428.324 64.3752 429.583 64.1326C430.842 63.8899 432.142 63.9883 433.351 64.4176C437.351 65.5276 440.661 67.9076 443.951 70.3576C448.311 73.5976 451.191 78.0076 454.051 82.4476C457.468 87.9628 461.356 93.1722 465.671 98.0176C470.005 102.695 475.006 106.708 480.511 109.928C487.73 114.172 495.509 117.383 503.621 119.468C510.643 121.305 517.92 121.98 525.161 121.468C531.318 120.974 537.337 119.379 542.931 116.758C552.431 112.428 559.091 105.238 564.061 96.2775C565.751 93.2075 567.721 90.2775 568.391 86.7375C569.241 82.2475 570.091 77.7376 570.591 73.1976C570.886 69.7794 570.976 66.3465 570.861 62.9176C570.687 52.8295 567.885 42.9613 562.731 34.2876C558.981 27.7076 553.681 22.6276 548.091 17.7276C540.911 11.4189 531.99 7.43078 522.501 6.28755C518.318 5.6271 514.101 5.19977 509.871 5.00755C503.698 4.9189 497.539 5.61105 491.541 7.06755C479.761 9.82755 469.181 15.0676 459.211 21.7776C452.529 26.4411 446.199 31.5882 440.271 37.1776C438.821 38.5076 437.271 39.7575 435.841 41.0775C435.724 41.2216 435.577 41.3378 435.41 41.4176C435.243 41.4974 435.061 41.5388 434.876 41.5388C434.69 41.5388 434.508 41.4974 434.341 41.4176C434.174 41.3378 434.027 41.2216 433.911 41.0775C432.506 39.7073 431.202 38.2368 430.011 36.6776C426.851 32.1076 423.851 27.4276 420.771 22.8076C420.215 21.9266 419.601 21.0847 418.931 20.2876C418.011 19.2876 416.931 19.3576 416.541 20.6776C415.929 22.4915 415.556 24.3773 415.431 26.2876C415.382 29.4209 415.974 32.5312 417.171 35.4276C418.79 39.6817 420.876 43.7431 423.391 47.5376C423.931 48.3576 424.361 49.1975 424.871 50.0475Z" fill="#EDF8FF"/>
<path d="M704.724 5C691.014 5.43 679.344 7.81001 668.234 12.65C661.851 15.5984 655.855 19.3232 650.384 23.74C644.294 28.42 638.384 33.27 632.224 37.91C630.377 39.2169 628.408 40.3421 626.344 41.27C624.145 42.4286 621.629 42.8427 619.174 42.45C618.225 42.3552 617.323 41.9908 616.574 41.4C614.558 39.3921 612.646 37.2827 610.844 35.08C607.954 31.56 605.204 27.93 602.344 24.39C601.729 23.6481 601.008 23.0011 600.204 22.47C599.59 22.0152 598.828 21.8043 598.067 21.8782C597.306 21.9521 596.6 22.3054 596.084 22.87C593.764 24.96 593.714 27.6 594.344 30.34C595.846 36.4839 599 42.0999 603.464 46.58C604.284 47.44 605.064 48.35 605.864 49.24C606.454 49.89 606.404 50.44 605.774 51.11C603.374 53.68 600.964 56.24 598.704 58.92C595.244 63.03 595.094 67.92 598.114 72.36C599.544 74.44 601.594 74.71 603.384 72.88C605.174 71.05 606.694 69.21 608.294 67.34C609.878 65.3703 612.039 63.9468 614.474 63.27C615.432 63.0439 616.435 63.0959 617.364 63.42C622.374 65.4809 626.943 68.4815 630.824 72.26C636.154 77.12 641.254 82.26 646.524 87.17C650.374 90.79 654.344 94.28 658.244 97.84C664.698 103.838 671.897 108.98 679.664 113.14C685.406 116.237 691.582 118.449 697.984 119.7C702.364 120.52 706.774 121.26 711.204 121.7C713.631 121.802 716.062 121.675 718.464 121.32C724.203 120.903 729.823 119.475 735.064 117.1C745.493 112.347 753.858 103.992 758.624 93.57C760.972 88.6605 762.302 83.3269 762.534 77.89C762.694 73.54 762.824 69.18 762.774 64.82C762.679 58.2729 761.507 51.7861 759.304 45.62C756.224 36.97 752.094 28.9 745.584 22.31C737.174 13.78 726.844 8.73001 715.194 6.40001C711.224 5.61001 707.174 5.32 704.724 5Z" fill="#EDF8FF"/>
<path d="M24.9736 179.303L23.7736 179.883C19.8953 181.653 16.289 183.966 13.0636 186.753C11.1228 188.478 9.73178 190.735 9.06358 193.243C8.97881 193.503 8.97881 193.783 9.06358 194.043C9.7936 195.855 10.6698 197.604 11.6836 199.273C12.7736 200.853 14.6236 200.833 16.3236 200.273C17.6449 199.854 18.9238 199.312 20.1436 198.653C25.3036 195.843 30.5836 193.353 36.4136 192.223C39.4416 191.525 42.6214 191.989 45.3236 193.523C50.1936 196.313 54.3236 199.983 58.4936 203.693C65.2936 209.803 72.0136 216.013 78.7336 222.213C85.2536 228.213 92.6636 233.053 100.054 237.903C104.124 240.563 108.234 243.243 112.984 244.503C117.102 245.638 121.291 246.496 125.524 247.073C129.881 247.631 134.271 247.895 138.664 247.863C146.466 247.886 154.101 245.596 160.604 241.283C168.784 235.903 175.784 229.433 180.604 220.793C182.692 216.839 184.13 212.574 184.864 208.163C185.905 203.141 186.471 198.032 186.554 192.903C186.707 182.53 183.926 172.325 178.534 163.463C174.133 156.04 168.573 149.369 162.064 143.703C155.104 137.886 146.744 133.99 137.814 132.403C130.961 131.021 123.942 130.657 116.984 131.323C102.767 132.583 89.1548 137.659 77.5836 146.013C74.7136 148.103 71.8236 150.183 69.1336 152.493C63.8936 156.963 57.8836 160.203 51.9436 163.553C50.7636 164.213 49.5336 164.773 48.3636 165.453C45.0436 167.383 41.4236 167.323 37.7936 167.033C36.9612 166.894 36.1848 166.523 35.5536 165.963C31.5036 162.683 27.5536 159.263 23.4636 156.063C21.3208 154.369 19.0085 152.901 16.5636 151.683C13.7336 150.313 11.0736 151.923 10.5636 155.023C10.3936 156.207 10.3936 157.409 10.5636 158.593C11.6636 165.863 15.4936 171.523 21.0736 176.123L24.9736 179.303Z" fill="#EDF8FF"/>
<path d="M213.05 181.082C209.58 183.922 206.22 186.572 202.96 189.352C200.078 191.725 198.049 194.972 197.18 198.602C196.9 199.711 196.948 200.877 197.319 201.958C197.69 203.04 198.368 203.99 199.27 204.692C199.997 205.342 200.899 205.765 201.864 205.909C202.829 206.053 203.814 205.912 204.7 205.502C206.876 204.628 208.985 203.596 211.01 202.412C215.26 199.992 219.44 197.412 223.67 194.982C228.09 192.412 232.79 192.422 237.56 193.672C240.84 194.532 243.5 196.582 246.16 198.552C252.44 203.212 257.9 208.802 263.4 214.322C270.159 221.101 277.423 227.356 285.13 233.032C288.462 235.656 291.989 238.023 295.68 240.112C302.472 243.727 309.924 245.931 317.59 246.592C328.11 247.462 338.49 246.782 348.38 242.592C359.06 238.102 367.7 231.192 373.16 220.822C375.996 215.541 377.817 209.775 378.53 203.822C378.822 200.327 378.909 196.818 378.79 193.312C378.79 190.082 378.64 186.842 378.36 183.612C377.994 178.61 376.798 173.702 374.82 169.092C372.024 163.105 368.291 157.602 363.76 152.792C355.5 143.562 345.66 136.632 333.68 133.092C327.319 131.293 320.688 130.647 314.1 131.182C308.48 131.456 302.889 132.169 297.38 133.312C283.611 136.297 270.955 143.084 260.85 152.902C259.17 154.542 257.45 156.162 255.72 157.762C249.15 163.842 241.24 167.142 232.54 168.762C231.559 168.873 230.568 168.703 229.68 168.272C224.36 165.792 219.77 162.202 215.16 158.632C212.295 156.276 209.034 154.448 205.53 153.232C200.53 151.622 198.37 154.632 198.01 158.702C197.65 162.772 199.26 166.562 201.31 170.072C203.19 173.302 205.98 175.682 208.88 177.952C210.22 179.032 211.63 180.032 213.05 181.082Z" fill="#EDF8FF"/>
<path d="M408.342 181.874C404.504 182.757 400.804 184.156 397.342 186.034C394.953 187.228 392.807 188.855 391.012 190.834C388.562 193.694 387.812 196.984 389.432 200.404C391.052 203.824 394.092 205.974 398.162 205.654C399.706 205.486 401.195 204.981 402.522 204.174C404.912 202.761 407.22 201.211 409.432 199.534C413.844 196.048 419.144 193.869 424.732 193.244C427.89 192.8 431.105 193.419 433.872 195.004C438.187 197.491 442.158 200.534 445.682 204.054C451.522 210.174 457.372 216.304 463.522 222.174C469.672 228.044 476.422 232.674 483.432 237.234C490.444 241.862 498.453 244.764 506.802 245.704C511.028 246.017 515.269 246.071 519.502 245.864C521.962 245.864 524.422 245.604 526.882 245.374C535.584 244.672 543.899 241.478 550.832 236.174C555.032 232.934 559.132 229.624 562.372 225.364C565.612 221.104 567.242 216.304 568.472 211.254C570.38 202.856 571.053 194.226 570.472 185.634C570.329 180.077 569.254 174.584 567.292 169.384C566.34 167.154 565.164 165.026 563.782 163.034C557.612 153.824 550.482 145.494 540.972 139.534C534.971 135.87 528.364 133.306 521.462 131.964C517.105 131.102 512.654 130.817 508.222 131.114C504.152 131.334 500.112 132.034 496.042 132.364C489.403 133.021 482.894 134.641 476.722 137.174C469.257 140.163 462.331 144.355 456.222 149.584C451.632 153.414 447.002 157.214 442.322 160.934C438.692 163.824 434.902 166.524 430.212 167.424C428.205 167.764 426.177 167.965 424.142 168.024C423.411 167.984 422.699 167.775 422.062 167.414C417.816 165.383 413.827 162.851 410.182 159.874C407.424 157.645 404.449 155.698 401.302 154.064C397.062 151.884 392.782 152.764 389.102 155.514C386.992 157.084 386.632 159.724 387.312 162.274C387.679 163.452 388.196 164.578 388.852 165.624C392.948 172.833 399.478 178.346 407.272 181.174C407.558 181.283 407.835 181.414 408.102 181.564C408.162 181.624 408.202 181.704 408.342 181.874Z" fill="#EDF8FF"/>
<path d="M600.757 182.078C595.507 183.958 590.917 186.388 587.397 190.488C585.246 192.911 584.042 196.028 584.007 199.268C583.961 200.273 584.149 201.275 584.557 202.195C584.965 203.114 585.581 203.927 586.357 204.568C587.001 205.19 587.831 205.586 588.721 205.694C589.611 205.802 590.512 205.618 591.287 205.168C595.387 203.028 599.497 200.908 603.557 198.688C607.204 196.513 611.189 194.962 615.347 194.098C617.946 193.604 620.617 193.631 623.205 194.177C625.794 194.723 628.248 195.777 630.427 197.278C634.064 199.63 637.325 202.519 640.097 205.848C647.557 215.028 656.457 222.628 665.757 229.848C671.766 234.636 678.396 238.589 685.467 241.598C693.959 245.109 703.211 246.383 712.337 245.298C717.337 244.728 722.287 244.078 727.167 243.028C734.227 241.518 740.167 237.668 745.677 233.158C748.341 231.07 750.869 228.816 753.247 226.408C757.457 221.938 759.477 216.298 761.027 210.468C762.097 206.405 762.714 202.236 762.867 198.038C763.047 193.538 763.197 189.038 763.057 184.518C762.858 173.798 758.626 163.547 751.207 155.808C747.407 151.748 743.787 147.538 739.437 144.028C731.873 137.786 722.817 133.617 713.157 131.928C708.299 131.018 703.34 130.776 698.417 131.208C689.567 132.108 680.647 132.518 672.167 135.628C665.033 138.368 658.259 141.968 651.997 146.348C644.843 151.286 638.116 156.816 631.887 162.878C627.987 166.588 623.407 168.348 618.317 169.248C617.478 169.351 616.627 169.208 615.867 168.838C613.493 167.724 611.16 166.538 608.867 165.278C605.047 163.178 601.317 160.918 597.467 158.878C594.957 157.494 592.16 156.713 589.297 156.598C585.877 156.488 584.297 158.598 584.097 161.508C583.687 167.588 586.397 172.278 590.837 176.158C593.381 178.3 596.22 180.064 599.267 181.398C599.717 181.558 600.147 181.778 600.757 182.078Z" fill="#EDF8FF"/>
<path d="M27.7337 308.706C26.9537 308.966 26.4837 309.096 26.0337 309.276C22.7837 310.576 19.4737 311.756 16.3137 313.276C13.6689 314.611 11.5156 316.75 10.1637 319.386C9.0119 321.625 8.70238 324.204 9.29152 326.652C9.88065 329.1 11.3293 331.256 13.3737 332.726C14.2545 333.341 15.3235 333.625 16.3933 333.53C17.463 333.435 18.4651 332.966 19.2237 332.206C23.8743 328.255 28.9967 324.896 34.4737 322.206C37.5037 320.792 40.6318 319.599 43.8337 318.636C44.9399 318.261 46.125 318.183 47.2708 318.41C48.4166 318.636 49.483 319.159 50.3637 319.926C52.7745 321.799 55.0812 323.802 57.2737 325.926C61.8937 330.636 66.3637 335.496 70.8837 340.306C80.0337 350.016 90.7937 357.576 102.444 363.946C108.764 367.406 115.704 369.086 122.704 370.556C127.84 371.478 133.092 371.555 138.254 370.786C142.714 370.256 147.164 369.486 151.564 368.566C157.204 367.386 161.954 364.336 166.434 360.866C172.452 356.417 177.343 350.618 180.714 343.936C182.884 339.476 183.954 334.646 185.164 329.876C186.719 323.138 187.088 316.181 186.254 309.316C185.221 297.562 180.159 286.526 171.924 278.076C169.134 275.156 166.244 272.306 163.194 269.656C158.334 265.426 152.434 263.056 146.434 261.006C138.353 258.25 129.861 256.897 121.324 257.006C102.564 257.196 85.9837 263.516 71.4137 275.136C64.4137 280.736 57.6337 286.676 50.8137 292.536C48.6337 294.406 45.9637 294.976 43.3837 295.816C41.9377 296.312 40.3949 296.459 38.8813 296.245C37.3676 296.031 35.9259 295.463 34.6737 294.586C29.967 291.506 25.2204 288.476 20.4337 285.496C19.2715 284.751 18.004 284.185 16.6737 283.816C12.8237 282.816 10.3037 284.676 10.0137 288.636C9.66372 293.436 12.3637 301.996 19.3137 304.816C21.3137 305.626 23.3137 306.516 25.2537 307.396C26.0237 307.706 26.7237 308.146 27.7337 308.706Z" fill="#EDF8FF"/>
<path d="M225.888 306.244C223.948 307.084 222.278 307.864 220.578 308.534C216.899 310.088 213.616 312.446 210.968 315.434C206.898 319.744 207.298 324.674 210.448 329.384C210.999 330.216 211.802 330.849 212.74 331.191C213.678 331.533 214.7 331.566 215.658 331.284C220.168 330.354 223.758 327.814 227.048 324.754C230.658 321.394 234.728 318.964 239.758 318.514C240.328 318.454 240.902 318.588 241.388 318.894C243.34 320.257 245.204 321.744 246.968 323.344C252.418 328.644 257.678 334.144 263.168 339.404C272.158 348.114 282.082 355.807 292.758 362.344C299.857 366.68 307.77 369.515 316.008 370.674C327.914 372.319 340.044 370.734 351.128 366.084C354.89 364.453 358.355 362.205 361.378 359.434C363.558 357.534 365.625 355.507 367.568 353.364C371.298 349.214 373.028 344.014 374.878 338.904C376.846 333.79 378.081 328.424 378.548 322.964C378.746 318.995 378.699 315.017 378.408 311.054C378.155 305.347 376.959 299.72 374.868 294.404C373.26 290.797 371.328 287.343 369.098 284.084C364.778 277.324 358.618 272.434 352.278 267.704C344.508 261.904 335.738 258.924 326.278 257.704C315.764 256.246 305.061 257.058 294.888 260.084C285.708 262.857 277.082 267.209 269.398 272.944C262.748 277.944 256.288 283.114 249.718 288.174C247.718 289.684 245.648 290.994 243.718 292.574C242.915 293.281 241.907 293.712 240.842 293.804C239.776 293.896 238.709 293.643 237.798 293.084C234.999 291.625 232.276 290.027 229.638 288.294C225.696 285.568 221.504 283.224 217.118 281.294C216.225 280.934 215.305 280.643 214.368 280.424C213.747 280.232 213.092 280.174 212.447 280.253C211.802 280.331 211.181 280.545 210.624 280.88C210.067 281.215 209.587 281.664 209.216 282.197C208.844 282.73 208.589 283.336 208.468 283.974C208.07 285.699 208.006 287.485 208.278 289.234C208.72 291.538 209.411 293.788 210.338 295.944C211.071 297.713 212.159 299.312 213.535 300.643C214.911 301.975 216.546 303.009 218.338 303.684C220.148 304.434 222.038 304.974 223.898 305.604C224.528 305.854 225.078 306.004 225.888 306.244Z" fill="#EDF8FF"/>
<path d="M423.727 304.316C423.157 304.546 422.727 304.736 422.317 304.896C417.419 306.796 413.192 310.101 410.167 314.396C408.773 316.228 408.027 318.471 408.045 320.773C408.063 323.075 408.844 325.306 410.267 327.116C411.073 328.343 412.327 329.208 413.761 329.526C415.196 329.843 416.697 329.588 417.947 328.816C420.517 327.266 422.847 325.336 425.317 323.616C429.087 321.006 432.887 318.446 436.667 315.846C436.998 315.576 437.41 315.424 437.838 315.415C438.265 315.406 438.684 315.54 439.027 315.796C440.172 316.497 441.247 317.307 442.237 318.216C447.657 323.816 452.987 329.516 458.407 335.116C465.367 342.266 471.807 349.916 479.467 356.326C485.167 361.136 491.167 365.516 498.267 368.156C502.843 369.802 507.625 370.812 512.477 371.156C520.127 371.776 527.617 371.106 534.707 368.056C541.527 365.116 548.017 361.576 553.487 356.406C562.3 348.199 568.133 337.293 570.067 325.406C572.177 313.196 569.367 301.736 564.207 290.776C558.747 279.186 550.637 269.856 539.347 263.506C533.835 260.457 527.763 258.556 521.497 257.916C516.608 257.226 511.673 256.925 506.737 257.016C497.667 257.406 489.087 259.346 481.127 263.956C472.437 268.956 464.517 275.056 456.627 281.196C453.887 283.326 451.127 285.436 448.407 287.596C446.326 289.271 443.896 290.461 441.297 291.076C439.089 291.577 436.775 291.279 434.767 290.236C431.597 288.596 428.627 286.566 425.537 284.756C423.117 283.326 420.727 281.816 418.187 280.626C416.676 279.96 415.056 279.577 413.407 279.496C412.586 279.442 411.764 279.558 410.99 279.835C410.217 280.113 409.509 280.546 408.909 281.109C408.31 281.672 407.833 282.351 407.508 283.106C407.182 283.86 407.015 284.674 407.017 285.496C406.817 289.496 408.477 292.706 410.917 295.606C414.147 299.456 417.917 302.536 422.917 303.956C423.195 304.056 423.466 304.176 423.727 304.316V304.316Z" fill="#EDF8FF"/>
<path d="M618.786 300.49C617.616 301.15 616.606 301.69 615.616 302.26C610.856 305.03 606.546 308.31 603.616 313.05C600.996 317.26 601.616 321.51 605.086 325.05C605.801 325.847 606.739 326.412 607.778 326.671C608.818 326.929 609.911 326.87 610.916 326.5C612.926 325.84 614.842 324.922 616.616 323.77C620.436 321.17 624.086 318.31 627.806 315.56C628.086 315.36 628.386 315.19 628.686 315.01C631.876 313.1 634.086 313.1 636.826 315.68C639.254 318.049 641.516 320.581 643.596 323.26C649.756 330.93 655.716 338.76 661.946 346.37C667.406 353.05 673.396 359.26 680.736 363.93C687.61 368.412 695.433 371.229 703.586 372.16C709.996 372.86 716.206 371.74 722.306 370.02C728.826 368.18 735.086 365.64 740.406 361.28C747.247 355.719 752.942 348.882 757.176 341.15C759.666 336.56 760.726 331.47 761.616 326.4C762.044 323.418 762.291 320.412 762.356 317.4C762.549 311.378 761.466 305.383 759.176 299.81C756.026 291.6 752.026 283.81 746.176 277.13C740.326 270.45 733.896 264.5 725.536 261.07C719.788 258.705 713.675 257.351 707.466 257.07C690.116 256.29 674.956 262.07 661.466 272.51C655.756 276.92 650.326 281.68 644.686 286.18C642.945 287.508 641.084 288.67 639.126 289.65C638.751 289.827 638.344 289.927 637.93 289.942C637.516 289.958 637.103 289.889 636.716 289.74C633.801 288.445 630.96 286.989 628.206 285.38C624.676 283.24 621.336 280.8 617.866 278.56C615.537 276.899 612.887 275.741 610.086 275.16C605.386 274.39 603.266 276.7 604.366 281.35C605.625 286.283 608.208 290.778 611.836 294.35C613.456 296.04 615.336 297.49 617.096 299.05L618.786 300.49Z" fill="#EDF8FF"/>
<path d="M46.4708 423.906C43.4275 425.022 40.4696 426.359 37.6208 427.906C34.8279 429.505 32.7179 432.072 31.6897 435.122C30.6615 438.171 30.7864 441.492 32.0408 444.456C32.4121 445.554 33.1946 446.466 34.224 446.999C35.2534 447.532 36.4495 447.646 37.5608 447.316C40.9377 446.668 44.1466 445.338 46.9908 443.406C49.8208 441.466 52.5408 439.406 55.5308 437.656C56.1938 437.266 56.9733 437.125 57.7308 437.256C62.2338 437.943 66.42 439.987 69.7308 443.116C73.7788 446.83 77.1788 451.193 79.7908 456.026C83.6208 462.616 87.2308 469.356 91.5908 475.626C97.0008 483.426 103.681 489.716 112.511 493.676C121.341 497.636 130.241 498.286 139.511 496.676C145.298 495.758 150.918 493.992 156.191 491.436C163.017 487.875 169.038 482.95 173.881 476.966C181.251 468.306 184.801 458.046 186.091 446.966C187.091 438.476 185.191 430.416 182.091 422.566C178.371 413.036 173.371 404.326 166.201 396.886C159.451 389.898 150.608 385.299 141.011 383.786C129.371 381.716 118.301 383.916 107.541 388.276C98.6466 392.033 90.3357 397.044 82.8608 403.156C79.2331 406.092 75.4438 408.823 71.5108 411.336C70.5567 411.981 69.465 412.395 68.3226 412.545C67.1803 412.694 66.0189 412.574 64.9308 412.196C59.7639 410.483 54.8979 407.969 50.5108 404.746C48.2187 402.985 45.8098 401.381 43.3008 399.946C41.0497 398.575 38.4666 397.845 35.8308 397.836C33.5008 397.916 32.5208 398.956 32.3908 401.266C32.1992 406.078 33.5326 410.827 36.2008 414.836C37.6138 417.007 39.4464 418.873 41.5908 420.326C43.2926 421.413 44.9227 422.609 46.4708 423.906V423.906Z" fill="#EDF8FF"/>
<path d="M324.479 383.025C315.479 382.725 307.129 385.205 299.079 389.025C291.329 392.695 284.149 397.365 276.779 401.715C272.929 403.985 269.269 406.575 265.329 408.715C263.958 409.415 262.534 410.007 261.069 410.485C260.105 410.844 259.062 410.936 258.05 410.751C257.038 410.566 256.094 410.111 255.319 409.435C251.173 406.411 247.207 403.149 243.439 399.665C241.612 397.883 239.512 396.405 237.219 395.285C236.809 395.085 236.389 394.885 235.959 394.725C232.329 393.335 229.639 394.535 228.649 398.315C226.919 404.895 228.649 409.475 233.809 413.095C236.519 414.995 239.369 416.705 242.159 418.495C244.949 420.285 245.099 421.285 242.389 423.495C240.109 425.305 237.499 426.585 235.079 428.165C232.659 429.745 230.269 431.625 229.169 434.595C228.069 437.565 228.509 440.145 230.699 442.075C231.747 443.086 233.1 443.722 234.548 443.883C235.995 444.044 237.455 443.721 238.699 442.965C240.469 441.965 242.119 440.735 243.819 439.595C245.099 438.735 246.469 438.015 247.759 437.185C249.929 435.805 252.189 435.755 254.639 436.075C258.639 436.595 261.429 438.795 263.519 442.075C268.629 450.075 273.129 458.425 278.429 466.285C282.879 472.875 287.499 479.364 293.429 484.744C299.391 490.227 306.687 494.048 314.589 495.825C318.201 496.798 321.943 497.203 325.679 497.025C330.478 496.555 335.224 495.651 339.859 494.325C345.018 492.916 349.956 490.795 354.529 488.025C355.639 487.399 356.687 486.669 357.659 485.845C363.489 480.575 369.199 475.185 372.839 468.085C377.309 459.44 379.319 449.733 378.649 440.025C378.069 430.865 374.649 422.565 371.399 414.235C368.959 407.995 365.266 402.322 360.549 397.565C352.229 389.175 342.239 384.235 330.379 383.305C329.379 383.225 328.379 383.135 327.379 383.095C326.379 383.055 325.449 383.025 324.479 383.025Z" fill="#EDF8FF"/>
<path d="M516.611 383C507.671 383.11 499.301 385.53 491.211 389.19C482.931 393.087 475.261 398.167 468.441 404.27C466.961 405.56 465.441 406.77 463.891 408.03C463.213 408.638 462.376 409.039 461.477 409.186C460.579 409.333 459.657 409.22 458.821 408.86C455.081 407.389 451.649 405.232 448.701 402.5C446.441 400.5 444.431 398.26 442.371 396.06C440.751 394.193 438.852 392.587 436.741 391.3C435.685 390.654 434.487 390.276 433.251 390.2C432.515 390.092 431.764 390.248 431.131 390.639C430.498 391.031 430.024 391.633 429.791 392.34C428.736 395.151 428.736 398.249 429.791 401.06C431.256 405.409 434.056 409.184 437.791 411.85C439.601 413.23 441.491 414.5 443.191 416.02C443.487 416.266 443.764 416.533 444.021 416.82C444.921 417.9 444.721 418.82 443.391 419.18C441.891 419.65 440.391 420.02 438.811 420.36C434.491 421.36 432.021 424.19 430.911 428.25C429.801 432.31 431.251 435.61 433.831 438.59C435.211 440.19 437.021 440.28 438.921 439.7C440.084 439.285 441.177 438.695 442.161 437.95C443.161 437.28 444.161 436.68 445.161 435.95C449.161 432.95 455.281 434.35 458.161 437.18C461.041 440.01 463.081 443.76 464.821 447.51C467.971 454.28 470.821 461.19 474.071 467.91C480.611 481.39 491.401 489.91 505.641 493.91C522.341 498.56 537.431 494.53 551.011 484.17C562.271 475.57 568.481 464.05 570.411 450.17C571.214 443.767 570.916 437.273 569.531 430.97C568.091 423.97 566.311 416.91 562.461 410.8C554.121 397.54 543.071 387.61 527.221 384.15C523.733 383.409 520.178 383.023 516.611 383V383Z" fill="#EDF8FF"/>
<path d="M710.458 383.004C698.203 383.028 686.191 386.426 675.738 392.824C669.598 396.464 663.738 400.484 657.848 404.544C655.924 406.033 653.71 407.106 651.348 407.694C650.869 407.831 650.364 407.859 649.872 407.774C649.38 407.689 648.914 407.494 648.508 407.204C642.908 403.104 636.948 399.494 631.788 394.814C630.668 393.749 629.414 392.835 628.058 392.094C626.826 391.424 625.38 391.268 624.033 391.66C622.687 392.051 621.55 392.958 620.868 394.184C619.238 397.054 619.308 400.094 620.168 403.184C620.986 406.016 622.527 408.587 624.638 410.644C627.108 413.144 629.958 415.214 632.638 417.484C634.048 418.684 634.048 418.784 632.338 419.554C629.908 420.634 627.438 421.614 625.068 422.824C617.768 426.594 617.918 433.754 621.008 438.734C622.278 440.734 624.058 440.934 626.128 440.594C628.256 440.182 630.29 439.382 632.128 438.234C635.658 436.234 639.128 434.024 643.128 432.924C643.779 432.717 644.467 432.653 645.146 432.736C645.824 432.819 646.476 433.046 647.058 433.404C652.435 436.514 656.795 441.116 659.608 446.654C662.686 452.605 665.378 458.747 667.668 465.044C668.591 467.451 669.761 469.757 671.158 471.924C673.068 474.864 674.678 477.984 676.878 480.744C680.408 485.174 685.048 488.064 689.938 490.694C694.945 493.272 700.312 495.079 705.858 496.054C708.318 496.534 710.858 496.144 713.358 495.924C715.744 495.809 718.12 495.532 720.468 495.094C729.109 493.119 737.171 489.162 744.018 483.534C749.618 478.984 754.268 473.624 757.098 466.874C758.306 463.873 759.328 460.8 760.158 457.674C764.137 443.951 762.904 429.243 756.698 416.374C752.011 406.512 745.087 397.88 736.478 391.164C730.828 386.614 724.088 384.394 716.948 383.404C714.798 383.109 712.629 382.975 710.458 383.004Z" fill="#EDF8FF"/>
<path d="M133.828 509.055C121.778 508.445 108.738 512.975 96.2275 519.475C90.0675 522.675 84.2275 526.475 78.3675 530.135C74.5175 532.515 74.6375 532.135 71.6875 529.435C69.2075 527.135 67.5575 524.165 65.3975 521.605C63.2375 519.045 61.0275 516.235 58.1775 514.145C55.3275 512.055 53.1775 513.815 52.5275 516.145C51.5039 519.844 51.9818 523.797 53.8575 527.145C55.1366 529.391 56.5982 531.528 58.2275 533.535C59.2384 534.847 60.1477 536.234 60.9475 537.685C62.0975 539.895 61.9475 541.455 60.2975 543.295C58.6475 545.135 56.8175 547.295 55.2275 549.455C53.6375 551.41 52.5769 553.742 52.1475 556.225C51.7475 559.035 52.9775 560.855 55.7275 561.525C57.1118 561.89 58.5571 561.963 59.9709 561.737C61.3846 561.511 62.7357 560.993 63.9375 560.215C65.0775 559.495 66.1875 558.725 67.2975 557.955C69.5975 556.365 72.4075 555.535 75.2975 558.485C76.4397 559.629 77.4463 560.901 78.2975 562.275C82.8175 569.775 85.7875 577.955 89.1775 585.975C92.4075 593.615 96.5975 600.745 102.588 606.585C108.979 612.989 117.113 617.371 125.978 619.185C129.218 619.845 132.438 620.765 135.758 620.835C139.458 620.75 143.12 620.075 146.608 618.835C155.926 616.026 164.362 610.86 171.098 603.835C175.602 599.016 179.214 593.437 181.768 587.355C188.068 573.205 187.648 558.985 182.648 544.585C179.617 536.079 174.353 528.546 167.408 522.775C164.61 520.193 161.599 517.851 158.408 515.775C151.089 511.085 142.514 508.74 133.828 509.055V509.055Z" fill="#EDF8FF"/>
<path d="M658.608 531.098C658.228 529.098 657.918 527.298 657.528 525.508C657.008 523.178 656.438 520.858 655.878 518.508C655.841 518.315 655.737 518.142 655.586 518.018C655.434 517.894 655.244 517.826 655.048 517.828C654.772 517.809 654.499 517.894 654.283 518.066C654.067 518.238 653.922 518.485 653.878 518.758C653.508 520.178 653.178 521.598 652.878 523.038C652.031 527.63 651.795 532.314 652.178 536.968C652.568 542.778 652.818 548.598 653.108 554.408C653.284 558.377 653.681 562.333 654.298 566.258C654.418 566.975 654.598 567.681 654.838 568.368C655.188 569.368 655.978 569.178 656.838 568.878C656.89 572.667 657.503 576.428 658.658 580.038C661.268 589.228 666.458 596.808 673.308 603.338C683.315 613.442 696.879 619.228 711.098 619.458C713.443 619.445 715.784 619.247 718.098 618.868C727.173 617.592 735.672 613.676 742.538 607.608C751.788 599.458 758.628 589.648 761.388 577.458C764.228 564.968 762.558 552.888 757.248 541.258C753.916 533.719 749.017 526.977 742.878 521.478C738.718 517.798 733.798 515.478 728.768 513.218C720.953 509.802 712.4 508.426 703.908 509.218C698.428 509.678 693.208 511.368 687.978 513.008C678.108 516.098 669.618 521.468 661.978 528.288C660.918 529.238 659.788 530.088 658.608 531.098Z" fill="#EDF8FF"/>
<path d="M274.73 527.492C272.704 523.856 271.004 520.048 269.65 516.112C269.144 514.538 268.529 513.001 267.81 511.512C267.43 510.802 266.96 510.162 266.08 510.152C265.2 510.142 264.64 510.792 264.27 511.552C262.869 514.619 262.35 518.016 262.77 521.362C263.09 525.132 264.49 528.612 265.59 532.172C266.062 533.679 266.396 535.225 266.59 536.792C266.708 537.617 266.656 538.456 266.435 539.26C266.215 540.063 265.832 540.813 265.31 541.462C261.69 545.992 261.4 551.092 262.72 556.462C262.818 556.837 262.952 557.203 263.12 557.552C263.87 559.172 265.12 559.552 266.6 558.552C267.768 557.647 268.855 556.643 269.85 555.552C271.19 554.302 271.72 554.402 272.35 556.182C272.69 557.182 272.82 558.182 273.07 559.182C275.67 569.802 278.32 580.402 283.07 590.352C284.962 594.624 287.646 598.499 290.98 601.772C293.42 604.072 295.72 606.522 298.18 608.772C299.812 610.192 301.62 611.396 303.56 612.352C306.753 614.038 310.102 615.407 313.56 616.442C330.24 621.552 345.18 618.152 358.45 607.142C364.602 602 369.659 595.675 373.32 588.542C378.63 578.282 379.68 567.412 377.69 556.152C377.22 553.462 376.69 550.762 376.07 548.152C373.46 537.722 367.78 529.152 359.75 522.152C357.84 520.472 355.87 518.852 353.92 517.222C349.81 513.792 344.92 512.222 339.81 510.992C333.471 509.435 326.943 508.786 320.42 509.062C315.989 509.345 311.599 510.086 307.32 511.272C298.504 513.674 290.049 517.245 282.18 521.892C279.463 523.425 276.958 525.307 274.73 527.492V527.492Z" fill="#EDF8FF"/>
<path d="M461.147 550.486C460.93 552.752 460.954 555.034 461.217 557.296C461.397 558.986 461.597 559.126 463.277 559.236C463.867 559.236 463.647 559.746 463.667 560.026C463.887 562.516 464.017 565.026 464.277 567.516C465.258 575.811 468.043 583.791 472.437 590.896C475.288 595.706 478.546 600.263 482.177 604.516C488.188 611.509 496.435 616.205 505.517 617.806C511.835 619.105 518.301 619.546 524.737 619.116C532.377 618.536 539.197 615.616 545.567 611.476C552.567 606.896 557.827 600.626 562.177 593.556C566.506 586.733 569.24 579.021 570.177 570.996C570.563 566.695 570.422 562.362 569.757 558.096C569.01 551.303 567.099 544.69 564.107 538.546C559.212 529.188 551.745 521.424 542.587 516.166C535.665 512.148 527.889 509.831 519.897 509.406C517.707 509.256 515.507 508.956 513.317 509.006C510.355 509.157 507.414 509.596 504.537 510.316C498.277 511.716 492.537 514.466 486.817 517.216C481.999 519.383 477.404 522.015 473.097 525.076C471.517 526.256 469.577 526.806 467.817 527.676C467.187 527.986 467.207 527.496 467.187 527.116C467.047 524.846 466.917 522.576 466.777 520.306C466.697 519.076 466.617 517.846 466.497 516.616C466.417 515.846 466.157 515.106 465.247 515.076C464.337 515.046 464.097 515.726 463.927 516.436C463.035 520.466 462.479 524.563 462.267 528.686C461.807 534.566 461.487 540.456 461.137 546.336C461.077 547.706 461.147 549.096 461.147 550.486Z" fill="#EDF8FF"/>
<path d="M77.3927 657.47C76.3427 653.92 75.3027 650.47 74.3127 646.92C74.0527 646.01 73.7727 645.17 72.6527 645.18C71.5327 645.19 71.1527 646.02 70.9227 646.91C70.5502 648.724 70.346 650.568 70.3127 652.42C69.9027 657.76 69.2427 663.08 69.0427 668.42C68.8927 672.13 69.1827 675.82 69.2027 679.52C69.1824 681.833 69.3228 684.145 69.6227 686.44C69.7681 687.708 70.2175 688.922 70.9327 689.98C71.057 690.249 71.2349 690.489 71.4557 690.687C71.6765 690.884 71.9354 691.035 72.2165 691.128C72.4975 691.222 72.7948 691.257 73.09 691.232C73.3851 691.206 73.672 691.12 73.9327 690.98C74.9327 690.53 75.1827 690.84 75.5227 691.8C80.1027 704.89 86.5827 716.87 96.3527 726.89C103.005 733.765 111.368 738.746 120.583 741.32C124.317 742.249 128.137 742.795 131.983 742.95C138.175 743.503 144.414 742.698 150.263 740.59C159.633 737.13 167.943 732.02 174.473 724.33C179.942 717.901 183.78 710.248 185.663 702.02C186.723 697.156 187.103 692.168 186.793 687.2C186.436 677.604 183.797 668.231 179.093 659.86C175.013 652.7 169.653 646.43 162.563 642.05C154.33 636.885 144.956 633.819 135.263 633.12C126.113 632.48 117.413 634.47 108.913 637.63C100.725 640.772 93.1501 645.324 86.5327 651.08C83.7447 653.557 80.6773 655.702 77.3927 657.47V657.47Z" fill="#EDF8FF"/>
<path d="M254.23 673.685C254 676.795 254 680.385 254 683.975C254 684.435 254 684.895 254 685.355C254.15 687.795 255.49 688.625 257.65 687.485C259.211 686.758 260.733 685.95 262.21 685.065C263 684.525 263.86 685.065 264.68 685.165C265.48 685.225 266.249 685.497 266.91 685.952C267.571 686.407 268.099 687.029 268.44 687.755C270.099 691.27 271.486 694.908 272.59 698.635C274.59 704.575 276.59 710.525 279.59 716.065C283.35 722.875 288.9 727.935 294.96 732.645C301.81 737.985 309.66 740.585 318.03 742.065C329.941 744.234 342.235 742.029 352.65 735.855C359.65 731.855 365.65 726.855 369.99 720.065C375.238 712.117 378.338 702.947 378.99 693.445C379.5 684.735 377.67 676.445 374.94 668.285C371.44 657.755 364.76 649.645 355.84 643.135C349.777 638.864 342.874 635.932 335.59 634.535C324.871 632.179 313.734 632.54 303.19 635.585C293.05 638.485 284.46 644.125 277.03 651.585C275.353 653.449 273.516 655.162 271.54 656.705C269.05 658.455 267.99 658.385 265.54 656.595C262.4 654.335 260.88 651.045 259.69 647.545C259.33 646.545 259.09 645.395 258.69 644.335C258.42 643.545 258.2 642.575 257.05 642.735C255.9 642.895 255.95 643.825 255.88 644.615C255.62 647.615 255.46 650.615 255.17 653.615C254.56 660.115 254.33 666.665 254.23 673.685Z" fill="#EDF8FF"/>
</svg>
