<svg width="205" height="318" viewBox="0 0 205 318" fill="none" xmlns="http://www.w3.org/2000/svg">
<path d="M71.7566 145.42C67.9343 145.42 64.2149 145.358 60.6131 145.235C43.7802 144.647 30.1992 142.768 20.2494 139.629L19.7378 139.468L19.8495 138.948C19.923 138.607 27.2648 104.525 44.0712 70.571C53.9505 50.6035 65.1234 34.5884 77.2784 22.9544C92.5235 8.37221 109.348 0.678852 127.307 0.0915727C150.487 -0.660145 164.013 3.37153 167.5 12.0985C170.025 18.4147 167.309 26.8803 159.426 37.2605C155.746 42.0284 151.676 46.4834 147.259 50.58C150.049 56.3705 177.203 113.034 178.967 125.191C179.134 126.365 178.523 127.54 177.153 128.715C170.261 134.549 142.311 140.704 109.186 143.675C96.3047 144.829 83.5705 145.42 71.7566 145.42ZM21.1168 138.666C39.6579 144.351 72.4593 145.787 109.068 142.501C141.975 139.565 169.655 133.51 176.379 127.819C177.423 126.938 177.896 126.11 177.791 125.361C176.026 112.993 146.312 51.3141 146.012 50.6945L145.821 50.2951L146.151 50.0015C146.412 49.7695 172.087 26.7188 166.409 12.5331C163.122 4.31117 149.979 0.523223 127.345 1.26613C87.3105 2.56989 60.5425 39.9502 45.1356 71.0731C29.5259 102.601 22.1076 134.247 21.1168 138.669V138.666Z" fill="#EDF7FE"/>
<path d="M98.9393 229.632C92.068 229.632 72.9035 223.428 57.1144 217.135C49.1992 213.99 23.134 203.155 19.8997 196.296C15.0601 186.018 24.8481 148.89 25.2686 147.313L25.4156 146.756L25.9801 146.897C73.9296 158.936 112.738 155.386 136.848 150.276C162.975 144.741 177.958 136.246 178.105 136.161L178.785 135.771L178.97 136.528C179.061 136.895 187.938 173.483 183.154 193.186C180.508 204.051 160.285 213.112 143.775 218.794C125.681 225.022 105.755 229.298 99.4392 229.621C99.2863 229.629 99.1128 229.632 98.9393 229.632ZM26.2536 148.177C25.0246 152.945 16.6096 186.57 20.9611 195.796C22.987 200.098 37.009 207.856 57.5525 216.057C75.5321 223.225 93.0765 228.473 98.954 228.473C99.104 228.473 99.2481 228.473 99.3833 228.473C104.755 228.197 124.055 224.362 143.39 217.708C159.62 212.129 179.496 203.287 182.007 192.933C186.347 175.057 179.232 142.874 178.002 137.576C174.768 139.294 160.293 146.527 137.133 151.436C121.284 154.742 105.127 156.351 88.9366 156.234C68.4284 156.143 47.3439 153.43 26.2536 148.177Z" fill="#EDF7FE"/>
<path d="M16.3479 184.038C16.042 184.037 15.7369 184.007 15.4364 183.95C11.1172 183.146 7.96233 178.218 3.18738 170.757C2.77574 170.114 2.35235 169.45 1.91425 168.772C-0.367379 165.228 -0.617301 161.431 1.20565 158.098C3.0286 154.765 6.8421 152.272 10.2146 152.272C15.6628 152.272 23.6574 155.182 23.9955 155.309L24.46 155.476L20.3643 178.224C20.3643 178.721 20.3378 181.748 18.6001 183.216C17.9759 183.757 17.1742 184.05 16.3479 184.038ZM10.2146 153.45C7.29195 153.45 3.86363 155.69 2.23768 158.665C1.0998 160.747 0.291236 164.083 2.90217 168.138C3.34125 168.819 3.7666 169.483 4.17824 170.129C8.78854 177.329 11.8229 182.089 15.6452 182.799C16.5625 182.97 17.28 182.823 17.8357 182.344C19.2529 181.131 19.1794 178.233 19.1794 178.198V178.136V178.075L23.134 156.248C21.3316 155.626 14.7278 153.45 10.2146 153.45Z" fill="#EDF7FE"/>
<path d="M186.517 175.702C186.055 175.717 185.594 175.639 185.163 175.472C184.731 175.305 184.338 175.053 184.006 174.73C182.386 173.136 182.56 170.114 182.598 169.615L180.066 146.644L180.54 146.506C180.884 146.406 189.067 144.042 194.494 144.415C197.861 144.644 201.474 147.351 203.086 150.84C204.697 154.328 204.171 158.06 201.651 161.44L200.245 163.337C194.973 170.455 191.489 175.156 187.123 175.67C186.922 175.694 186.72 175.704 186.517 175.702ZM181.342 147.513L183.78 169.618V169.68C183.78 169.709 183.506 172.616 184.838 173.908C185.362 174.422 186.067 174.619 186.994 174.495C190.854 174.046 194.215 169.503 199.307 162.635C199.76 162.019 200.231 161.387 200.713 160.735C203.597 156.865 203.018 153.485 202.024 151.339C200.604 148.262 197.337 145.792 194.421 145.592C189.913 145.278 183.177 147.002 181.342 147.501V147.513Z" fill="#EDF7FE"/>
<path d="M59.9869 197.84C53.7419 197.84 48.6641 191.051 48.6641 182.708C48.6641 174.366 53.7419 167.577 59.9869 167.577C66.232 167.577 71.3098 174.366 71.3098 182.708C71.3098 191.051 66.2291 197.84 59.9869 197.84ZM59.9869 168.752C54.4005 168.752 49.8402 175.012 49.8402 182.708C49.8402 190.405 54.3917 196.665 59.9869 196.665C65.5822 196.665 70.1337 190.405 70.1337 182.708C70.1337 175.012 65.5822 168.746 59.9869 168.746V168.752Z" fill="#EDF7FE"/>
<path d="M141.664 197.84C135.419 197.84 130.341 191.051 130.341 182.708C130.341 174.366 135.419 167.577 141.664 167.577C147.909 167.577 152.987 174.366 152.987 182.708C152.987 191.051 147.906 197.84 141.664 197.84ZM141.664 168.752C136.077 168.752 131.517 175.012 131.517 182.708C131.517 190.405 136.069 196.665 141.664 196.665C147.259 196.665 151.811 190.405 151.811 182.708C151.811 175.012 147.259 168.746 141.664 168.746V168.752Z" fill="#EDF7FE"/>
<path d="M100.9 215.84C109.856 215.84 117.116 213.557 117.116 210.742C117.116 207.927 109.856 205.645 100.9 205.645C91.9447 205.645 84.6848 207.927 84.6848 210.742C84.6848 213.557 91.9447 215.84 100.9 215.84Z" fill="#EDF7FE"/>
<path d="M100.9 216.427C92.753 216.427 84.0969 214.434 84.0969 210.742C84.0969 207.051 92.753 205.055 100.9 205.055C109.048 205.055 117.704 207.049 117.704 210.742C117.704 214.436 109.045 216.427 100.9 216.427ZM100.9 206.229C91.6916 206.229 85.273 208.608 85.273 210.742C85.273 212.877 91.6916 215.253 100.9 215.253C110.109 215.253 116.528 212.874 116.528 210.742C116.528 208.611 110.109 206.229 100.9 206.229Z" fill="#EDF7FE"/>
<path d="M20.4259 139.068C20.4259 139.068 15.4098 145.052 25.83 147.466C36.2503 149.879 104.546 172.055 178.393 136.669C178.393 136.669 186.179 132.47 178.373 125.272C170.566 118.075 148.344 157.661 20.4259 139.068Z" fill="#EDF7FE"/>
<path d="M89.7626 157.124C87.969 157.124 86.1715 157.102 84.3702 157.059C57.6463 156.41 37.4292 151.098 28.7996 148.837C27.4823 148.491 26.4474 148.218 25.7035 148.044C21.8459 147.163 19.529 145.654 18.8498 143.593C18.0118 141.091 19.8994 138.798 19.9788 138.701L20.1905 138.448L20.5169 138.495C45.1473 142.075 65.8731 143.487 83.3264 143.487C131.823 143.487 155.068 132.599 166.785 127.12C172.96 124.227 176.37 122.633 178.775 124.85C181.475 127.337 182.695 129.786 182.398 132.126C181.989 135.374 178.814 137.118 178.678 137.194C151.034 150.429 121.158 157.124 89.7626 157.124ZM20.6904 139.699C20.2964 140.286 19.4643 141.755 19.9612 143.223C20.511 144.847 22.5839 146.118 25.9622 146.899C26.7179 147.072 27.7675 147.348 29.0936 147.698C82.6325 161.769 132.778 157.881 178.14 136.146C178.14 136.146 180.898 134.616 181.228 131.968C181.469 130.029 180.372 127.924 177.973 125.71C176.147 124.027 173.183 125.416 167.279 128.18C159.217 131.953 145.724 138.269 122.682 141.881C94.9756 146.218 60.66 145.484 20.6904 139.699Z" fill="#EDF7FE"/>
<path d="M182.577 193.048C177.773 212.842 111.109 228.434 99.4096 229.033C87.7103 229.632 25.2301 206.244 20.4258 196.046C20.4258 196.046 9.6145 236.832 9.6145 252.425C9.6145 289.611 43.8478 306.404 52.8567 304.607C61.8656 302.81 89.4892 325.6 117.116 314.204C133.555 307.421 172.775 302.129 178.393 296.209C192.057 281.821 203.409 265.621 203.409 249.427C203.409 220.036 186.779 194.249 182.577 193.048ZM130.929 248.839C99.6977 271.03 76.8785 246.44 76.8785 246.44C76.8785 246.44 162.157 226.634 130.929 248.828V248.839Z" fill="#EDF7FE"/>
<path d="M100.595 318C97.0159 317.982 93.4471 317.624 89.9363 316.931C81.3214 315.272 73.3562 311.939 66.9553 309.297C60.7044 306.692 55.7648 304.636 52.9715 305.186C52.4577 305.282 51.9359 305.328 51.4132 305.324C46.4148 305.324 37.4441 301.8 29.2937 295.137C21.7255 288.938 9.02075 275.149 9.02075 252.424C9.02075 236.935 19.7438 196.304 19.8497 195.896L20.2642 194.337L20.9523 195.805C22.9781 200.107 37.0001 207.865 57.5436 216.066C75.9819 223.407 93.9673 228.751 99.3744 228.472C104.782 228.193 124.046 224.361 143.381 217.707C159.611 212.128 179.487 203.287 181.998 192.933L182.142 192.346L182.73 192.513C185.083 193.188 190.375 200.083 195.097 210.452C198.417 217.737 203.988 232.475 203.988 249.456C203.988 263.36 195.756 278.793 178.811 296.644C175.577 300.05 162.099 303.151 147.83 306.431C136.419 309.056 124.619 311.769 117.331 314.776C112.021 316.948 106.332 318.044 100.595 318ZM53.9565 303.905C57.129 303.905 61.7452 305.832 67.4081 308.19C80.5745 313.678 98.6041 321.189 116.889 313.648C124.269 310.603 136.116 307.881 147.574 305.244C161.046 302.146 174.977 298.943 177.967 295.792C194.691 278.174 202.821 263.001 202.821 249.415C202.821 220.826 187.385 196.806 182.954 193.87C179.643 204.441 159.926 213.221 143.769 218.782C125.681 225.022 105.755 229.297 99.4391 229.62C93.0412 229.949 73.3062 223.586 57.1143 217.135C49.6461 214.16 26.0212 204.359 20.6553 197.499C18.8206 204.593 10.1968 238.656 10.1968 252.424C10.1968 274.665 22.6253 288.16 30.0347 294.227C38.8554 301.442 48.4965 304.877 52.7334 304.029C53.1365 303.952 53.5461 303.915 53.9565 303.917V303.905ZM104.67 258.685C100.352 258.679 96.0667 257.939 91.9974 256.497C82.3622 253.114 76.6846 247.077 76.4464 246.822L75.7643 246.085L76.7493 245.856C76.8933 245.823 91.2888 242.493 105.911 240.121C114.511 238.726 121.512 237.927 126.719 237.751C133.643 237.516 137.304 238.338 138.186 240.335C139.132 242.429 136.933 245.28 131.27 249.306C124.067 254.424 116.701 257.484 109.38 258.409C107.817 258.601 106.244 258.695 104.67 258.691V258.685ZM78.0547 246.757C82.2176 250.576 87.1086 253.517 92.4355 255.405C101.059 258.423 114.681 259.645 130.588 248.357L130.929 248.836L130.588 248.346C137.127 243.7 137.483 241.633 137.112 240.814C136.524 239.534 132.358 237.017 106.093 241.278C93.7762 243.278 81.6242 245.958 78.0547 246.763V246.757Z" fill="#EDF7FE"/>
<path d="M34.2392 168.159C34.9125 177.262 49.2521 162.459 49.2521 162.459C49.2521 162.459 33.6364 160.063 34.2392 168.159Z" fill="#EDF7FE"/>
<path d="M36.5827 171.705C36.2435 171.71 35.9062 171.656 35.586 171.544C34.4363 171.127 33.7836 170.008 33.6513 168.214C33.5248 166.49 34.057 165.063 35.2331 163.977C39.1378 160.374 48.9258 161.827 49.3463 161.889L50.4724 162.062L49.6815 162.879C48.7406 163.833 40.9813 171.705 36.5827 171.705ZM34.8185 168.126C34.9156 169.418 35.3066 170.196 35.9946 170.44C38.5938 171.379 44.8977 165.935 47.9908 162.911C45.3123 162.644 38.7908 162.3 36.0417 164.84C35.1185 165.671 34.7245 166.746 34.8244 168.114L34.8185 168.126Z" fill="#EDF7FE"/>
<path d="M167.412 166.068C166.735 175.171 152.399 160.371 152.399 160.371C152.399 160.371 168.011 157.972 167.412 166.068Z" fill="#EDF7FE"/>
<path d="M165.065 169.606C160.655 169.606 152.91 161.743 151.975 160.78L151.184 159.96L152.308 159.787C152.722 159.722 162.513 158.269 166.421 161.872C167.597 162.961 168.132 164.385 168.003 166.109C167.87 167.903 167.22 169.025 166.071 169.442C165.748 169.554 165.407 169.61 165.065 169.606ZM153.666 160.797C156.759 163.822 163.06 169.266 165.662 168.326C166.338 168.082 166.729 167.304 166.838 166.015C166.938 164.647 166.544 163.572 165.63 162.726C162.866 160.198 156.347 160.548 153.681 160.809L153.666 160.797Z" fill="#EDF7FE"/>
</svg>
