<svg width="290" height="177" viewBox="0 0 290 177" fill="none" xmlns="http://www.w3.org/2000/svg">
<g clip-path="url(#clip0_137_806)">
<path d="M146.903 177C141.359 176.828 135.805 176.771 130.266 176.479C113.504 175.534 96.9089 173.348 80.5904 169.29C68.3803 166.259 56.4938 162.31 45.2703 156.556C38.5936 153.139 32.3084 149.143 26.8272 143.983C23.0209 140.521 19.9144 136.361 17.6761 131.729C16.3919 128.985 15.802 126.048 15.066 123.153C10.6357 106.153 6.21243 89.148 1.79611 72.1378C1.49334 70.9693 1.10704 69.8268 0.825147 68.653C-0.881871 61.5321 0.16218 54.7555 3.47181 48.3076C6.08193 43.1899 9.73609 38.9174 13.9801 35.0466C20.2444 29.3603 27.3283 24.9312 34.8611 21.1908C45.0145 16.1201 55.6638 12.3797 66.5793 9.41133C76.7959 6.6286 87.1886 4.53716 97.6867 3.1512C104.217 2.30086 110.763 1.50791 117.325 0.991452C123.887 0.474991 130.402 0.193285 136.948 0.0785159C143.494 -0.0362532 150.051 0.0159165 156.592 0.292406C163.295 0.579328 170.003 1.0697 176.679 1.74267C193.635 3.4642 210.35 6.52645 226.684 11.4615C237.845 14.8368 248.677 19.0311 258.882 24.7121C265.872 28.6091 272.424 33.1111 278.083 38.7974C281.664 42.3095 284.638 46.3904 286.884 50.8742C289.698 56.4721 290.637 62.8256 289.562 68.9973C289.123 71.5327 288.293 74.0002 287.636 76.4938C283.13 93.5631 278.573 110.617 274.141 127.702C272.639 133.453 269.69 138.726 265.575 143.018C260.767 148.157 255.072 152.137 248.969 155.538C240.617 160.234 231.742 163.703 222.581 166.52C212.852 169.477 202.926 171.743 192.878 173.302C185.997 174.401 179.088 175.239 172.148 175.816C164.996 176.411 157.834 176.781 150.656 176.818C149.404 176.818 148.156 176.818 146.903 176.818V177ZM147.253 124.832V124.54C149.675 124.54 152.092 124.54 154.514 124.54C162.026 124.441 169.522 124.071 176.993 123.267C183.168 122.6 189.338 121.875 195.488 121.003C205.146 119.613 214.703 117.599 224.1 114.973C235.016 111.957 245.639 108.165 255.74 103C262.787 99.3955 269.443 95.1751 275.316 89.854C279.607 85.9466 283.298 81.5645 285.85 76.2904C287.522 72.9206 288.511 69.2546 288.763 65.5021C289.102 59.9723 287.719 54.8442 285.109 50.003C282.41 44.9793 278.719 40.7589 274.491 36.9611C269.12 32.2568 263.21 28.2064 256.883 24.8947C247.226 19.6779 237.046 15.7706 226.564 12.604C206.795 6.63079 186.535 3.39117 165.967 1.92525C160.977 1.5653 155.971 1.30446 150.97 1.21577C144.966 1.11839 138.96 1.15143 132.949 1.31489C127.28 1.4714 121.606 1.7218 115.958 2.20696C109.693 2.72864 103.429 3.50072 97.196 4.33541C86.4915 5.78044 75.9003 7.96631 65.4987 10.8772C54.1029 14.0543 43.0517 18.066 32.5642 23.6479C25.7779 27.2579 19.404 31.3948 13.8131 36.6898C9.58993 40.6807 5.98275 45.1358 3.63364 50.4934C0.956291 56.3064 0.43091 62.8804 2.15109 69.0443C3.54369 73.866 5.92598 78.3449 9.14621 82.1958C13.5364 87.6421 18.882 92.0137 24.6869 95.8533C33.3264 101.592 42.6602 105.88 52.3541 109.448C68.3072 115.317 84.7927 119.021 101.586 121.447C110.132 122.678 118.719 123.586 127.348 124.013C133.993 124.373 140.628 124.577 147.253 124.832Z" fill="#F5F5F5"/>
<path d="M148.463 119.757C143.535 119.647 139.197 119.637 134.891 119.433C129.644 119.193 124.393 118.912 119.167 118.39C112.381 117.712 105.595 116.945 98.8083 115.896C82.1035 113.288 65.7537 109.328 50.046 102.974C41.2082 99.3957 32.7462 95.1179 25.0515 89.4369C20.228 85.8738 15.8535 81.8412 12.382 76.9166C9.6619 73.2017 7.81349 68.9225 6.97383 64.3963C6.09443 59.2684 6.78776 53.9946 8.96274 49.2677C10.9551 44.938 13.726 41.0108 17.1376 37.6812C22.5249 32.261 28.784 28.0302 35.5025 24.3784C44.5909 19.4851 54.2014 15.8699 64.0676 12.9015C72.5975 10.3371 81.2825 8.31928 90.0696 6.86051C95.4465 5.97366 100.839 5.14941 106.252 4.45036C110.131 3.92868 114.041 3.63654 117.946 3.35484C123.098 2.98444 128.261 2.59318 133.424 2.44712C139.166 2.29061 144.94 2.32713 150.697 2.4106C155.156 2.4732 159.619 2.63492 164.067 2.93228C169.287 3.29223 174.444 3.81913 179.623 4.33559C187.453 5.12332 195.231 6.35448 202.952 7.87778C218.535 10.987 233.673 15.2908 248.128 21.9631C255.374 25.3175 262.28 29.2666 268.534 34.259C273.357 38.1142 277.633 42.4754 280.76 47.8539C283.459 52.4864 284.936 57.4476 284.753 62.8626C284.618 66.3327 283.799 69.7419 282.342 72.8945C279.909 78.273 276.208 82.6916 271.854 86.6041C265.381 92.4313 257.963 96.7977 250.127 100.502C240.303 105.139 230.045 108.53 219.547 111.248C211.523 113.305 203.401 114.955 195.21 116.194C191.097 116.827 186.966 117.348 182.818 117.759C177.723 118.277 172.617 118.703 167.501 119.037C163.55 119.303 159.588 119.397 155.631 119.559C153.047 119.637 150.463 119.699 148.463 119.757ZM143.452 20.4606C137.908 20.6224 132.359 20.6954 126.815 20.9823C119.068 21.3631 111.342 22.0987 103.647 23.1316C93.2745 24.4781 83.0002 26.4977 72.8898 29.1779C62.5172 31.9741 52.4108 35.5058 42.8369 40.4357C36.5726 43.6701 30.5798 47.3949 25.3334 52.1891C21.8226 55.291 18.8888 58.9893 16.6678 63.113C14.5287 67.0582 13.5224 71.5176 13.7601 75.9984C13.7701 76.6665 14.016 77.3095 14.4544 77.8139C15.415 78.9094 16.3076 80.0675 17.3047 81.1317C22.0394 86.2077 27.6094 90.2246 33.5605 93.7355C42.5393 99.0201 52.1185 102.954 62.0004 106.172C76.6171 110.925 91.5939 113.997 106.816 115.954C112.391 116.674 117.993 117.216 123.594 117.675C128.371 118.061 133.163 118.338 137.955 118.432C147.216 118.614 156.476 118.708 165.727 118.035C170.174 117.712 174.601 117.43 179.059 117.023C183 116.658 186.942 116.272 190.852 115.677C196.528 114.818 202.186 113.844 207.828 112.756C218.007 110.799 228.012 108.025 237.745 104.461C246.484 101.253 254.914 97.382 262.708 92.2383C267.701 89.0347 272.212 85.1388 276.109 80.6674C276.822 79.8527 277.225 78.8127 277.247 77.7304C277.423 73.883 276.691 70.0481 275.111 66.5352C273.22 62.388 270.58 58.6247 267.323 55.4339C262.301 50.3371 256.46 46.3463 250.227 42.9136C240.616 37.5978 230.39 33.753 219.892 30.6803C203.714 25.9435 187.213 23.189 170.456 21.7022C161.477 20.9093 152.476 20.4954 143.452 20.4606Z" fill="#F5F5F5"/>
<path d="M82.6469 68.664C83.2264 67.9232 83.7588 67.2346 84.2965 66.5773C86.54 63.7186 89.1458 61.1636 92.0486 58.9764C94.1771 57.3543 96.6307 56.2102 99.242 55.622C100.71 55.2668 102.246 55.3046 103.695 55.7316C105.835 56.415 106.942 57.98 106.958 60.218C106.916 62.2187 106.412 64.1827 105.485 65.9565C103.501 70.0093 100.816 73.6807 97.5559 76.8022C97.206 77.0969 96.84 77.3721 96.4597 77.6264C97.1957 78.1481 97.6864 78.5393 98.1928 78.8889C99.7275 79.9583 101.252 81.059 102.823 82.0763C103.438 82.4359 103.935 82.9658 104.255 83.6018C104.574 84.2379 104.703 84.9528 104.624 85.6602C104.488 88.1226 103.486 90.251 102.197 92.2647C99.8163 95.979 96.4283 97.7423 91.9755 97.5701C88.7113 97.5006 85.5027 96.7115 82.579 95.2591C80.872 94.3931 79.1807 93.4802 77.5311 92.5099C73.5329 90.116 70.3089 86.6225 68.2443 82.4467C66.9024 80.0117 66.5118 77.1659 67.148 74.4598C67.4243 73.3727 67.87 72.3358 68.4687 71.3871C69.806 69.3169 71.438 67.4523 73.3131 65.8521C73.6566 65.5486 74.029 65.2795 74.425 65.0488C75.9493 64.1567 77.4476 64.1723 78.8361 65.3252C79.9272 66.2277 80.9764 67.1824 82.0466 68.1162L82.6469 68.664Z" fill="#F5F5F5"/>
<path d="M206.387 73.4579C207.27 74.23 207.865 74.809 208.522 75.3098C210.089 76.494 211.707 77.5948 213.221 78.8207C214.207 79.5836 215.1 80.459 215.883 81.4291C217.272 83.2341 217.115 84.9504 215.538 86.6041C214.15 88.1325 212.262 89.118 210.214 89.3847C208.828 89.5276 207.438 89.1563 206.309 88.3413C204.853 87.3658 203.469 86.2911 202.029 85.2947C200.932 84.5383 199.826 83.7923 198.667 83.1402C197.711 82.6185 197.685 82.7542 196.855 83.4689C194.767 85.2634 192.679 87.0684 190.481 88.6856C188.665 90.0316 186.634 89.8698 184.739 88.7587C182.934 87.719 181.501 86.1404 180.641 84.2446C179.78 82.3488 179.536 80.2312 179.942 78.1895C180.133 77.0389 180.459 75.9147 180.913 74.8403C183.218 69.623 186.892 65.1256 191.546 61.8245C193.927 60.0453 196.775 58.9975 199.742 58.8092C202.135 58.6258 204.521 59.2384 206.528 60.5516C207.912 61.5521 209.22 62.6523 210.444 63.8434C210.944 64.2712 211.276 64.8629 211.38 65.5126C211.484 66.1624 211.354 66.828 211.013 67.3908C210.376 68.6532 209.707 69.9053 208.977 71.1155C208.62 71.6233 208.192 72.0782 207.708 72.4667C207.348 72.811 206.915 73.0718 206.387 73.4579Z" fill="#F5F5F5"/>
<path d="M152.118 93.8658C153.162 94.8309 154.206 95.6969 155.156 96.6151C156.387 97.6887 157.342 99.041 157.944 100.559C158.361 101.722 158.387 102.776 157.51 103.819C156.2 105.384 155.036 107.064 153.741 108.64C151.507 111.368 148.626 112.025 145.311 111.071C144.508 110.849 143.723 110.569 142.962 110.231C138.3 108.061 133.805 105.614 130.104 101.957C128.766 100.637 127.624 99.1316 126.716 97.4863C125.322 94.9613 125.39 92.5147 127.238 90.2767C128.538 88.7117 129.958 87.2353 131.383 85.7746C132.808 84.3139 134.515 84.3974 136.17 84.9034C137.373 85.3551 138.528 85.9229 139.621 86.5989C140.461 87.0475 141.244 87.6109 142.105 88.0282C142.967 88.4456 143.15 88.3569 143.635 87.5848C144.381 86.4267 145.065 85.2373 145.843 84.1C147.722 81.3508 149.602 78.6015 151.549 75.8992C152.593 74.4594 154.196 74.1151 156.038 74.8924C158.113 75.8207 159.801 77.4395 160.815 79.4727C161.049 79.9203 161.171 80.4179 161.171 80.923C161.171 81.4281 161.049 81.9257 160.815 82.3733C160.418 83.2424 159.932 84.0677 159.364 84.8356C157.103 87.7205 154.78 90.574 152.483 93.412L152.118 93.8658Z" fill="#F5F5F5"/>
<path d="M124.498 46.3194C124.372 43.4762 125.39 41.4052 127.656 39.908C130.746 37.928 134.199 36.5804 137.814 35.9432C141.001 35.265 144.295 35.265 147.482 35.9432C150.118 36.5209 152.441 38.0661 153.992 40.2731C155.37 42.1616 155.558 44.2692 154.947 46.4654C154.781 47.0281 154.504 47.5524 154.134 48.0081C153.764 48.4637 153.308 48.8419 152.791 49.1208C152.003 49.5799 151.152 49.9346 150.327 50.3206C148.798 51.0353 148.485 51.4735 148.761 53.1481C149.043 54.7392 149.482 56.3095 149.884 57.8798C150.181 59.0431 150.531 60.2012 150.855 61.3593C151.04 61.9225 151.031 62.5316 150.828 63.0888C150.625 63.646 150.241 64.1191 149.737 64.432C148.028 65.6395 146.012 66.3394 143.922 66.4509C143.397 66.5034 142.869 66.3915 142.411 66.1307C141.953 65.87 141.587 65.4732 141.364 64.9954C141.009 64.2913 140.724 63.5539 140.513 62.794C140.043 61.0672 139.668 59.3144 139.203 57.5772C139.006 56.8585 138.742 56.1599 138.415 55.4905C138.222 55.0434 137.878 54.6791 137.442 54.4622C137.006 54.2454 136.507 54.1901 136.034 54.3063C134.849 54.5149 133.664 54.7497 132.49 55.0262C130.339 55.5479 128.606 54.901 127.056 53.3464C125.093 51.317 124.445 48.8652 124.498 46.3194Z" fill="#F5F5F5"/>
<path d="M47.9843 75.6691C48.7313 75.7124 49.4597 75.9188 50.1181 76.274C50.7765 76.6291 51.349 77.1243 51.7951 77.7245C52.2441 78.3192 52.4685 79.013 52.0039 79.6912C51.7935 79.9792 51.5013 80.1974 51.1653 80.3174C50.8292 80.4374 50.4649 80.4537 50.1194 80.3642C48.7432 80.1741 47.4929 79.4624 46.6271 78.3766C46.1729 77.808 45.8597 77.1559 46.2617 76.4255C46.4341 76.1357 46.6928 75.907 47.0017 75.7714C47.3106 75.6358 47.6541 75.6 47.9843 75.6691Z" fill="#F5F5F5"/>
<path d="M193.65 50.4616C192.287 50.4616 191.358 49.653 191.337 48.4062C191.352 47.6922 191.649 47.013 192.162 46.5159C192.675 46.0187 193.363 45.7439 194.078 45.7509C194.369 45.7426 194.659 45.792 194.931 45.8962C195.204 46.0004 195.452 46.1574 195.663 46.3582C195.875 46.559 196.044 46.7995 196.161 47.066C196.279 47.3324 196.343 47.6195 196.349 47.9106C196.315 48.6017 196.016 49.253 195.513 49.7284C195.01 50.2038 194.342 50.4665 193.65 50.4616Z" fill="#F5F5F5"/>
<path d="M172.858 96.041C173.583 96.274 174.283 96.5799 174.946 96.9539C175.813 97.5695 175.787 98.5972 175.03 99.3276C174.405 99.8174 173.641 100.096 172.848 100.122C172.055 100.148 171.274 99.9211 170.619 99.4736C169.726 98.7276 169.695 97.5904 170.671 96.9383C171.368 96.5677 172.101 96.2671 172.858 96.041Z" fill="#F5F5F5"/>
<path d="M89.6735 42.4282C89.922 42.4456 90.1684 42.4858 90.4096 42.5482C90.6476 42.5984 90.8675 42.7121 91.0461 42.8772C91.2246 43.0423 91.3551 43.2527 91.4236 43.486C91.4922 43.7192 91.4962 43.9667 91.4353 44.202C91.3744 44.4374 91.2508 44.6519 91.0778 44.8227C90.6512 45.3409 90.0916 45.7331 89.4588 45.9574C88.826 46.1816 88.1441 46.2294 87.4862 46.0956C86.2073 45.8713 85.8471 44.5984 86.7606 43.6385C87.1373 43.2482 87.5903 42.9393 88.0913 42.7312C88.5924 42.523 89.1309 42.4198 89.6735 42.4282Z" fill="#F5F5F5"/>
<path d="M241.551 63.4522C241.862 63.4138 242.178 63.4699 242.457 63.6132C242.737 63.7564 242.966 63.9802 243.117 64.2556C243.269 64.5559 243.324 64.8963 243.273 65.2292C243.223 65.5622 243.069 65.871 242.835 66.1127C242.516 66.5282 242.098 66.8572 241.619 67.0695C241.141 67.2819 240.616 67.3708 240.094 67.3283C239.808 67.3335 239.527 67.2565 239.283 67.1065C239.04 66.9564 238.844 66.7396 238.721 66.4819C238.597 66.2241 238.55 65.9362 238.585 65.6525C238.62 65.3688 238.736 65.1012 238.92 64.8816C239.201 64.4404 239.59 64.0778 240.051 63.8278C240.511 63.5778 241.027 63.4486 241.551 63.4522Z" fill="#F5F5F5"/>
</g>
<defs>
<clipPath id="clip0_137_806">
<rect width="290" height="177" fill="white"/>
</clipPath>
</defs>
</svg>
