<svg width="171" height="25" viewBox="0 0 171 25" fill="none" xmlns="http://www.w3.org/2000/svg">
<path d="M11.9723 6.02001C12.185 5.37183 12.4964 4.69241 12.623 3.97914C12.8205 2.84937 12.2837 1.93046 11.2507 1.49573C9.73156 0.855358 8.29851 1.18596 7.21993 2.3756C5.33874 4.45812 3.65756 6.67601 3.11068 9.58894C2.67519 11.8953 2.01943 14.1705 2.20173 16.5576C2.3663 18.7442 3.21448 20.5092 5.06529 21.7457C7.9643 23.672 11.8811 22.0346 13.1926 20.0302C13.5851 19.4315 13.7649 18.6609 13.9396 17.9477C14.0588 17.3004 14.1433 16.6469 14.1927 15.9901C14.6434 12.606 17.0057 10.9374 20.2693 11.7209C20.7073 11.8276 21.1301 11.9812 21.6947 12.1765C21.9866 11.7084 22.2407 11.2165 22.4543 10.7057C22.753 9.81801 22.905 8.88348 23.2138 7.9958C24.5203 4.26549 28.3992 3.04981 31.445 5.42389C31.9369 5.84022 32.3264 6.36999 32.5818 6.97016C33.387 8.76634 34.101 10.6016 34.101 12.6424C34.1393 13.0313 34.213 13.4157 34.3212 13.7904C35.1188 13.8477 35.8404 13.8555 36.5493 13.9622C38.6685 14.2772 39.7698 15.3263 40.2712 17.4817C40.4408 18.2132 40.5243 18.9629 40.694 19.6944C40.7918 20.2482 40.948 20.7894 41.1599 21.3083C41.6662 22.3834 42.9727 22.5891 43.6132 21.5999C44.3485 20.5258 44.9198 19.3424 45.3071 18.0908C46.0666 15.3809 46.5907 12.6086 47.2516 9.87007C47.4607 8.95727 47.7479 8.06526 48.1099 7.20445C48.6517 5.95754 49.6467 5.40306 50.9886 5.48636C52.4597 5.57748 53.1306 6.13195 53.4319 7.63657C53.918 10.0653 54.0421 12.4967 53.2851 14.8994C52.8271 16.3395 52.7736 17.8833 53.1306 19.3534C53.2624 19.7682 53.4171 20.1749 53.5939 20.5716C54.1231 20.3113 54.6827 20.1864 55.0169 19.8349C56.8803 17.8774 57.6602 15.3862 58.1868 12.7674C58.521 11.1196 58.9033 9.47179 59.3945 7.86565C59.7554 6.77902 60.5149 5.88038 61.5111 5.36141C62.9062 4.56745 64.2051 5.1011 64.3443 6.70985C64.4394 8.02156 64.3602 9.34047 64.1089 10.6302C63.7164 12.7544 63.1341 14.8395 62.6581 16.948C62.4935 17.6769 62.2859 18.4344 62.3264 19.1659C62.3847 20.2072 62.6075 21.2771 63.7215 21.7196C64.8355 22.1622 65.9166 22.1517 66.8509 21.3864C67.4326 20.9326 67.9105 20.3533 68.251 19.6892C69.0469 17.9982 69.7585 16.2666 70.3829 14.5011C70.8766 13.0876 71.1273 11.5882 71.5678 10.1538C71.9501 8.90075 72.4032 7.67171 72.9249 6.47296C73.0608 6.16849 73.299 5.92471 73.5958 5.78649C73.8926 5.64826 74.228 5.62488 74.5402 5.72065C74.8067 5.79571 75.0453 5.9507 75.2257 6.16584C75.4061 6.38098 75.52 6.6465 75.553 6.92851C75.6328 7.57871 75.6455 8.23574 75.591 8.88869C75.5074 10.2033 75.3555 11.5127 75.277 12.8299C75.2695 13.3402 75.2924 13.8505 75.3454 14.3579C76.1581 15.0634 76.9329 14.8135 77.5329 14.4829C78.2621 14.1106 78.8869 13.5533 79.3483 12.8637C79.8925 11.8831 80.308 10.8327 80.5838 9.73992C80.9434 8.47739 81.1383 7.168 81.427 5.88205C81.5257 5.44732 81.6979 5.02821 81.8371 4.58047C82.9258 4.99697 83.1689 5.24427 83.0271 6.10331C82.7385 7.86044 82.3891 9.61236 82.0144 11.3539C81.546 13.5613 81.0219 15.7532 80.5509 17.9581C80.4309 18.5099 80.3748 19.0743 80.3838 19.6397C80.4142 21.1443 81.5763 22.1127 82.9815 21.7222C84.7539 21.2302 86.0856 20.1473 86.7515 18.3381C87.2022 17.1042 87.6174 15.8573 88.0681 14.6234C88.2549 14.0932 88.4783 13.5773 88.7365 13.0798C89.5999 11.4658 90.7924 10.435 92.7369 10.7942C92.9636 10.7833 93.1873 10.7368 93.4002 10.6562C93.5673 10.2215 93.7876 9.7217 93.9522 9.20106C94.5295 7.37886 95.3625 5.73366 96.6917 4.37222C99.3147 1.68837 102.796 2.52658 103.966 6.1762C104.424 7.60273 104.746 9.07611 104.472 10.6198C104.394 11.2239 104.356 11.8326 104.356 12.442C104.517 12.6125 104.696 12.7636 104.89 12.8923C107.503 14.0065 107.556 14.1002 107.343 17.0574C107.303 17.6197 107.199 18.2132 107.323 18.7416C107.479 19.3647 107.753 19.9502 108.128 20.4649C108.564 21.0636 109.285 21.0688 109.82 20.582C110.805 19.7244 111.535 18.5971 111.924 17.3307C112.256 16.1601 112.515 14.9689 112.701 13.7644C113.053 11.5309 113.352 9.29218 114.187 7.17581C114.357 6.74109 114.498 6.29074 114.693 5.87424C115.111 4.98135 115.706 4.23945 116.759 4.26809C117.876 4.30193 118.603 5.04904 119.038 6.04604C119.262 6.56222 119.378 7.12084 119.38 7.68603C119.386 9.09421 119.311 10.5015 119.155 11.9005C118.977 13.2958 118.595 14.6625 118.347 16.0656C118.149 17.1615 117.841 18.2704 118.385 19.5668C118.906 19.408 119.458 19.3742 119.851 19.0956C120.795 18.4292 121.312 17.3984 121.573 16.2868C121.957 14.6417 122.266 12.9782 122.557 11.3148C122.894 9.36506 123.127 7.37886 124.191 5.66859C124.615 4.95375 125.149 4.31459 125.773 3.77609C126.71 3.01337 127.685 3.18518 128.452 4.09107C129.335 5.13234 129.789 6.31156 129.578 7.73549C129.216 10.1538 128.966 12.593 128.092 14.8994C127.656 15.933 127.476 17.0618 127.568 18.1845C127.584 18.515 127.684 18.8355 127.857 19.1141C128.031 19.3927 128.273 19.6197 128.558 19.7725C129.115 20.0614 129.958 19.8349 130.546 19.1972C131.581 18.07 132.044 16.6409 132.518 15.2065C133.277 12.8897 134.037 10.5703 134.921 8.29777C135.322 7.24599 135.87 6.26023 136.549 5.37183C137.169 4.54955 137.963 3.88283 138.87 3.42197C139.778 2.96112 140.775 2.71815 141.787 2.71141C143.846 2.66715 145.041 3.6173 145.643 5.63214C146.107 7.17321 146.36 8.75592 146.109 10.3673C145.838 12.1322 145.544 13.8893 145.291 15.6517C145.169 16.5833 145.115 17.5231 145.129 18.4631C145.129 19.2831 145.836 19.7647 146.669 19.6553C147.783 19.52 148.502 18.7885 148.99 17.8618C149.73 16.4587 150.393 14.9983 151.036 13.5535C152.246 10.8124 153.408 8.04787 154.616 5.30414C154.902 4.60674 155.322 3.97625 155.852 3.45091C156.381 2.92557 157.009 2.51634 157.697 2.24804C159.288 1.62068 160.229 1.86017 161.356 3.19559C162.432 4.46333 163.007 5.93151 162.827 7.60794C162.597 9.75554 162.27 11.8901 161.961 14.0273C161.771 15.3289 161.485 16.6305 161.341 17.932C161.235 18.9212 161.989 19.4757 162.956 19.2336C164.26 18.89 165.182 18.0466 165.994 16.9585C167.26 15.243 168.64 13.603 169.987 11.9448C170.304 11.6247 170.642 11.328 171 11.0571C170.949 11.5986 171 11.9031 170.894 12.0984C169.628 14.1627 168.344 16.2322 167.012 18.2548C166.103 19.6319 164.734 20.4389 163.255 20.9907C161.209 21.7561 159.51 20.4909 159.569 18.2522C159.596 17.1329 159.855 16.0161 160.037 14.902C160.328 13.1396 160.68 11.3877 160.936 9.62017C161.169 8.02184 161.189 6.4235 160.358 4.9345C159.617 3.60949 158.619 3.40124 157.391 4.30454C156.378 5.04643 155.791 6.12674 155.338 7.2487C154.398 9.59154 153.565 11.989 152.588 14.3267C151.91 15.9667 151.127 17.5676 150.309 19.1451C149.983 19.7112 149.571 20.22 149.089 20.6523C147.846 21.8628 146.382 22.183 144.772 21.5634C144.094 21.3031 143.456 20.9361 142.658 20.5508C142.134 20.9153 141.539 21.3318 140.957 21.7431C139.713 22.6385 138.402 22.649 137.032 22.1127C135.442 21.4879 134.797 20.1916 135.341 18.5073C135.782 17.0585 136.671 15.7973 137.873 14.915C138.992 14.095 140.093 13.2516 141.197 12.4134C141.704 12.0229 142.21 11.5882 142.732 11.2263C144.757 9.84925 144.582 8.05047 143.514 5.73106C143.086 4.80434 142.177 4.42949 141.185 4.59869C139.698 4.83297 138.311 5.37964 137.47 6.74369C136.767 7.8414 136.173 9.00917 135.698 10.2293C135.055 11.989 134.685 13.8451 134.055 15.6126C133.532 17.113 132.91 18.575 132.194 19.9885C131.606 21.1469 130.523 21.6806 129.267 21.8394C127.105 22.1153 125.256 20.3061 125.598 18.0934C125.829 16.7022 126.182 15.3352 126.651 14.0091C127.328 12.0307 127.52 9.96899 127.836 7.92812C127.865 7.74224 127.876 7.55392 127.869 7.36584C127.849 6.5849 127.685 5.86122 126.93 5.46554C126.424 5.20523 125.725 5.63214 125.312 6.64737C124.889 7.68627 124.558 8.76224 124.322 9.86226C123.894 11.8823 123.656 13.9518 123.165 15.9536C122.837 17.1249 122.363 18.2476 121.755 19.2935C121.15 20.3657 120.194 21.1822 119.058 21.5973C117.851 22.0789 116.843 21.5973 116.542 20.2671C116.361 19.4441 116.314 18.5963 116.402 17.7576C116.559 16.4498 116.791 15.1528 117.099 13.8737C117.543 11.9473 117.714 9.96476 117.605 7.98799C117.548 7.52866 117.424 7.08094 117.235 6.66039C117.111 6.33239 116.499 6.22045 116.294 6.48598C116.018 6.84521 115.673 7.22007 115.572 7.64438C115.093 9.64881 114.559 11.6532 114.288 13.6941C113.946 16.2686 113.22 18.6401 111.756 20.7669C111.597 20.9959 111.45 21.238 111.275 21.4541C110.237 22.7557 109.133 23.1826 107.931 22.7791C106.412 22.2715 105.541 21.0793 105.525 19.4236C105.525 18.4813 105.604 17.539 105.579 16.5992C105.563 15.9354 105.442 15.2534 104.657 15.0556C103.956 14.8811 103.333 15.2482 102.915 16.0968C102.662 16.5992 102.535 17.1641 102.267 17.6587C101.32 19.3742 100.477 21.173 99.335 22.7427C97.7905 24.8694 96.4031 25.2287 94.6358 24.3774C92.4001 23.3023 91.6988 21.9461 91.9976 19.4158C92.1723 17.9216 92.3141 16.4222 92.39 14.9202C92.38 14.3607 92.2843 13.8064 92.1065 13.2776C91.99 12.8455 91.3469 12.6789 90.9468 12.908C90.1873 13.3557 89.7822 14.0846 89.5189 14.9046C89.0884 16.2452 88.653 17.5832 88.2656 18.9395C87.6149 21.2146 86.0375 22.5604 84.0171 23.4299C83.4223 23.6683 82.7865 23.779 82.1485 23.7553C79.9787 23.7084 79.1913 22.9353 79.0191 20.7096C78.9558 19.8714 79.0698 19.0202 79.0596 18.1741C79.0596 17.5442 78.9685 16.9142 78.9027 16.0916C77.8443 16.2868 76.9582 16.4352 76.0771 16.6122C75.6667 16.6876 75.289 16.8912 74.9953 17.1955C74.7017 17.4997 74.5065 17.8896 74.4364 18.3121C74.3271 18.9599 74.2636 19.615 74.2465 20.2723C74.1984 20.9283 74.2136 21.5921 74.1199 22.2403C74.006 23.0212 73.3401 23.5705 72.8261 23.3518C72.2084 23.0915 72.1121 22.524 72.1957 21.9409C72.4489 20.2697 72.6464 18.5828 73.0059 16.935C73.5908 14.272 73.8338 11.583 74.0009 8.83663C73.0641 8.9017 73.2135 9.61757 73.0667 10.0783C72.1805 12.8481 71.3728 15.6439 70.4436 18.3954C70.0692 19.4561 69.5764 20.4685 68.9751 21.4125C67.5649 23.685 65.4634 24.3827 63.0252 23.495C61.1466 22.8103 60.268 21.376 60.6756 19.3143C61.182 16.7346 61.8428 14.1835 62.4277 11.6168C62.6378 10.7031 62.8632 9.79458 62.9999 8.85745C63.0365 8.39323 62.9971 7.926 62.8834 7.47517C62.7923 7.01442 62.1061 6.75931 61.7821 7.08991C61.339 7.54286 60.8073 8.01403 60.6047 8.58672C60.0915 9.99092 59.6951 11.4374 59.4198 12.9106C59.0056 15.325 58.1184 17.6277 56.812 19.6788C56.2638 20.5456 55.5793 21.3127 54.7865 21.9487C53.4192 23.029 52.09 22.5032 51.6444 20.8085C51.1409 18.9853 51.1452 17.0534 51.657 15.2326C52.0962 13.5958 52.2673 11.8952 52.1634 10.2007C52.1234 9.54491 52.0182 8.89507 51.8495 8.26133C51.8054 7.97935 51.6679 7.7217 51.4603 7.53196C51.2526 7.34222 50.9877 7.23204 50.7101 7.22007C50.1075 7.18102 49.5657 7.40228 49.3252 7.93853C48.9863 8.70565 48.7217 9.50521 48.5352 10.3256C47.8972 13.0693 47.3604 15.8391 46.6743 18.5698C46.3781 19.7438 45.8413 20.8606 45.3476 21.9721C45.1088 22.4811 44.7973 22.9506 44.4235 23.3648C42.8739 25.148 40.732 24.9007 39.7445 22.7687C39.3192 21.8472 39.1217 20.8085 38.8685 19.8115C38.6837 19.0852 38.6305 18.3199 38.4279 17.6014C38.1115 16.4899 37.3013 15.8417 36.1999 15.8651C34.7567 15.8938 33.468 16.2947 32.8705 17.8539C32.1539 19.723 31.007 21.2797 29.7157 22.7713C28.5359 24.1354 27.0269 24.6976 25.3786 24.9605C24.0165 25.1792 23.0999 24.479 22.7024 23.1071C22.3479 21.8888 22.4973 20.668 22.7733 19.4627C23.1936 17.6535 22.5632 16.1072 21.6821 14.6521C20.5706 12.8299 18.2767 12.2806 16.6613 13.3739C15.3954 14.2304 14.9675 15.4122 15.5422 16.9897C15.6645 17.2872 15.7234 17.6081 15.7151 17.9309C15.7068 18.2537 15.6315 18.5709 15.4941 18.8614C14.2763 21.7248 12.0837 23.4794 9.32392 24.5284C6.99965 25.4135 4.96908 24.4243 3.1841 23.0446C1.02187 21.3708 -0.168115 19.0826 0.0192442 16.2035C0.345857 11.1925 1.71561 6.5901 5.03238 2.75566C6.71102 0.81631 8.6631 -0.391553 11.3165 0.116062C12.9369 0.423234 13.7193 1.24843 13.8661 2.93528C13.9674 4.08327 13.9066 5.21043 13.1066 6.12934C12.7622 6.54064 12.3672 6.59531 11.9723 6.02001ZM28.3181 5.35881C27.3054 5.31976 26.7078 5.61913 25.9103 6.2543C24.0342 7.76412 23.0417 12.4732 24.138 14.6052C24.6874 15.6881 25.4039 16.4743 26.5154 16.7606C28.5181 17.2812 30.3133 16.6955 31.883 15.3862C32.202 15.1258 32.3742 14.6052 32.5084 14.1757C33.268 11.6532 32.6122 9.33122 31.4146 7.14718C30.7158 5.89506 29.4473 5.53322 28.3181 5.35881ZM103.178 9.20106C103.077 8.68043 102.925 7.76152 102.713 6.85823C102.373 5.43691 101.447 4.57787 100.077 4.29412C98.9274 4.05463 98.1501 4.83558 97.5146 5.62954C95.3776 8.30037 94.7827 11.5257 94.5801 14.8499C94.5269 15.7115 95.0738 16.266 95.8764 16.4274C96.9577 16.655 98.0806 16.5435 99.0995 16.1072C101.94 14.9098 102.933 12.5279 103.176 9.20106H103.178ZM143.828 12.7518C141.549 14.1601 139.45 15.4122 137.82 17.3359C137.647 17.5531 137.501 17.7919 137.387 18.0466C137.134 18.5672 136.931 19.0878 137.242 19.6423C137.554 20.1968 138.524 20.6706 139.141 20.4857C139.67 20.3511 140.162 20.0958 140.582 19.7386C142.2 18.1767 143.491 16.3858 143.916 14.0768C143.975 13.7384 143.871 13.3687 143.825 12.7518H143.828ZM24.4595 17.9398C24.3051 19.2414 24.1152 20.1551 24.1076 21.0636C24.0899 22.826 25.2419 23.6668 26.8446 22.9587C28.746 22.1309 30.1841 20.7513 30.8298 18.6505C30.85 18.5906 30.7614 18.4969 30.6424 18.2522C28.7587 18.7104 26.799 18.8874 24.4595 17.9398ZM94.137 18.2002C93.9066 19.1269 93.6129 19.7412 93.6306 20.3478C93.6788 22.0164 95.5549 23.495 96.8335 22.8312C98.6792 21.8732 99.7401 20.241 100.282 17.8253C98.1804 18.536 96.3296 18.8457 94.1472 18.2054L94.137 18.2002Z" fill="#2F4187"/>
</svg>
