<svg width="46" height="45" viewBox="0 0 46 45" fill="none" xmlns="http://www.w3.org/2000/svg">
<path d="M23.2796 43.6308C24.2154 44.6785 25.9113 44.4606 26.5515 43.2104L32.0074 32.5548C32.217 32.1455 32.5613 31.8209 32.9823 31.6358L43.9435 26.8157C45.2302 26.2499 45.5469 24.5682 44.5542 23.5728L36.102 15.0974C35.777 14.7715 35.5743 14.3434 35.5282 13.8855L34.3281 1.97887C34.1873 0.580876 32.6866 -0.240076 31.4335 0.395301L20.7518 5.81123C20.3418 6.01913 19.8727 6.0794 19.4233 5.98192L7.71818 3.44243C6.34497 3.14451 5.10092 4.31812 5.3185 5.70627L7.17158 17.529C7.24285 17.9837 7.1551 18.449 6.92315 18.8465L0.891352 29.183C0.182946 30.3969 0.915044 31.9438 2.30311 32.166L14.1279 34.0583C14.5821 34.131 14.9974 34.358 15.3038 34.701L23.2796 43.6308Z" fill="#EDF8FF"/>
</svg>
