<svg width="55" height="57" viewBox="0 0 55 57" fill="none" xmlns="http://www.w3.org/2000/svg">
<path d="M17.4016 53.5847C17.6663 56.0188 20.5793 57.1266 22.3964 55.4842L33.0554 45.8499C33.7668 45.2069 34.7428 44.9424 35.6814 45.1384L49.7475 48.0745C52.1459 48.5751 54.1017 46.146 53.0999 43.9109L47.227 30.8079C46.8347 29.9328 46.8848 28.9226 47.3618 28.0903L54.5022 15.6299C55.7201 13.5047 54.0154 10.8957 51.5797 11.1571L37.289 12.6905C36.3358 12.7927 35.3912 12.4335 34.7472 11.7238L25.0923 1.08385C23.4468 -0.729648 20.4377 0.0866078 19.9335 2.48325L16.9776 16.535C16.7801 17.4737 16.1455 18.2615 15.2703 18.6547L2.16598 24.5405C-0.0693418 25.5445 -0.224387 28.6585 1.90023 29.878L14.3608 37.03C15.1923 37.5073 15.7454 38.3533 15.849 39.3063L17.4016 53.5847Z" fill="#EDF8FF"/>
</svg>
