<svg width="46" height="45" viewBox="0 0 46 45" fill="none" xmlns="http://www.w3.org/2000/svg">
<path d="M23.2795 43.6313C24.2153 44.6791 25.9112 44.4611 26.5514 43.2109L32.0073 32.5553C32.2169 32.146 32.5612 31.8214 32.9822 31.6363L43.9434 26.8162C45.2301 26.2504 45.5468 24.5687 44.5541 23.5733L36.1019 15.0979C35.7769 14.772 35.5742 14.3439 35.528 13.886L34.328 1.97938C34.1871 0.581386 32.6865 -0.239569 31.4333 0.39581L20.7517 5.81174C20.3417 6.01963 19.8726 6.07991 19.4232 5.98243L7.71808 3.44294C6.34486 3.14501 5.10082 4.31863 5.31839 5.70677L7.17147 17.5295C7.24274 17.9842 7.155 18.4495 6.92305 18.847L0.891248 29.1835C0.182842 30.3975 0.91494 31.9444 2.303 32.1665L14.1278 34.0588C14.582 34.1315 14.9973 34.3585 15.3037 34.7015L23.2795 43.6313Z" fill="#EDF8FF"/>
</svg>
