<svg width="68" height="67" viewBox="0 0 68 67" fill="none" xmlns="http://www.w3.org/2000/svg">
<path d="M9.62488 7.16768C9.11713 4.80956 11.4588 2.84686 13.692 3.7589L30.5148 10.6296C31.376 10.9813 32.3516 10.9136 33.156 10.4464L48.8692 1.31893C50.955 0.107329 53.5453 1.72793 53.3679 4.13357L52.0321 22.2562C51.9637 23.184 52.3295 24.0909 53.0225 24.7115L66.5588 36.8351C68.3557 38.4444 67.6149 41.4087 65.2722 41.9835L47.6237 46.3132C46.7202 46.5348 45.9707 47.163 45.5946 48.0138L38.2473 64.6341C37.272 66.8403 34.2239 67.0517 32.9534 65.0013L23.3819 49.5545C22.8919 48.7638 22.0629 48.2451 21.1375 48.1503L3.06022 46.2986C0.660603 46.0528 -0.482398 43.2192 1.07506 41.3772L12.808 27.5009C13.4087 26.7905 13.6458 25.8418 13.45 24.9324L9.62488 7.16768Z" fill="#EDF8FF"/>
</svg>
