<svg width="56" height="57" viewBox="0 0 56 57" fill="none" xmlns="http://www.w3.org/2000/svg">
<path d="M21.7225 2.013L32.3813 11.6431C33.4487 12.6075 34.9127 13.0041 36.3207 12.7103L50.385 9.7758C51.5844 9.52555 52.5626 10.7403 52.0616 11.8578L46.19 24.9522C45.6013 26.265 45.6766 27.7805 46.3925 29.0292L53.5317 41.4823C54.1408 42.5448 53.2887 43.8491 52.0707 43.7185L37.7799 42.1857C36.3503 42.0324 34.9337 42.5709 33.9679 43.6349L24.3129 54.2706C23.4901 55.177 21.9855 54.7687 21.7333 53.5705L18.7779 39.5269C18.4816 38.1186 17.5292 36.9366 16.2157 36.3469L3.11456 30.4649C1.99653 29.963 1.91876 28.4059 2.98125 27.7963L15.4402 20.648C16.6875 19.9324 17.5171 18.6639 17.6726 17.2346L19.2252 2.96236C19.3576 1.74563 20.8138 1.19202 21.7225 2.013Z" stroke="#EDF8FF" stroke-width="3"/>
</svg>
