<svg width="68" height="66" viewBox="0 0 68 66" fill="none" xmlns="http://www.w3.org/2000/svg">
<path d="M54.7921 3.20995C56.3793 2.355 58.1985 3.87133 57.6434 5.58654L51.2989 25.1917C51.0625 25.9221 51.2651 26.7234 51.8202 27.2537L66.7202 41.4877C68.0238 42.733 67.1438 44.9317 65.341 44.9338L44.7348 44.9582C43.9671 44.9591 43.2677 45.3993 42.9349 46.0911L34.0019 64.6604C33.2204 66.285 30.8573 66.1276 30.2982 64.4137L23.9074 44.8235C23.6693 44.0937 23.0345 43.5645 22.2737 43.4618L1.85277 40.7043C0.0662011 40.463 -0.514296 38.167 0.942939 37.1056L17.5994 24.9739C18.22 24.5219 18.527 23.7546 18.3897 22.9993L14.7018 2.72578C14.3792 0.952093 16.3835 -0.309509 17.8432 0.748422L34.5283 12.8408C35.1499 13.2913 35.9745 13.3462 36.6504 12.9822L54.7921 3.20995Z" fill="#EDF8FF"/>
</svg>
