<svg width="124" height="114" viewBox="0 0 124 114" fill="none" xmlns="http://www.w3.org/2000/svg">
<path d="M83.3628 111.794C86.6648 114.62 91.7522 112.182 91.6134 107.839L90.7262 80.0884C90.6566 77.9109 92.0057 75.9396 94.0611 75.2155L120.262 65.9857C124.362 64.5413 124.791 58.9154 120.958 56.8639L96.4729 43.7603C94.5502 42.7314 93.5157 40.576 93.9162 38.4335L99.017 11.1491C99.8156 6.8774 95.1566 3.69026 91.463 5.98152L67.8594 20.6236C66.0078 21.7722 63.6249 21.5897 61.9692 20.1724L40.8685 2.11039C37.5664 -0.71611 32.479 1.72234 32.6179 6.065L33.5051 33.8156C33.5747 35.9931 32.2255 37.9644 30.1702 38.6885L3.96897 47.9183C-0.131123 49.3627 -0.560225 54.9886 3.27324 57.0401L27.7584 70.1437C29.681 71.1726 30.7155 73.328 30.315 75.4705L25.2142 102.755C24.4156 107.027 29.0746 110.214 32.7682 107.922L56.3718 93.2804C58.2234 92.1318 60.6063 92.3143 62.262 93.7316L83.3628 111.794Z" fill="#EDF8FF"/>
</svg>
