<svg width="63" height="61" viewBox="0 0 63 61" fill="none" xmlns="http://www.w3.org/2000/svg">
<path d="M32.1597 58.386L41.373 43.087C41.8619 42.2752 42.659 41.6964 43.5821 41.4827L60.9872 37.4544C61.3544 37.3694 61.4991 36.924 61.2519 36.6394L49.5417 23.1584C48.9199 22.4425 48.6151 21.505 48.6971 20.5603L50.2418 2.77419C50.2744 2.39876 49.8957 2.12357 49.5487 2.27049L33.0959 9.23607C32.2237 9.60534 31.2391 9.60534 30.3669 9.23607L13.9141 2.27048C13.5671 2.12357 13.1885 2.39876 13.2211 2.77418L14.7657 20.5603C14.8477 21.505 14.543 22.4425 13.9211 23.1584L2.21092 36.6394C1.9637 36.924 2.10837 37.3694 2.47565 37.4544L19.8807 41.4827C20.8039 41.6964 21.6009 42.2752 22.0898 43.087L31.3031 58.386C31.4974 58.7088 31.9654 58.7088 32.1597 58.386Z" fill="#313F86" stroke="#EDF8FF" stroke-width="3"/>
</svg>
