<svg width="124" height="114" viewBox="0 0 124 114" fill="none" xmlns="http://www.w3.org/2000/svg">
<path d="M83.3595 2.2072C86.6614 -0.618689 91.7481 1.81943 91.6097 6.16164L90.7255 33.9032C90.6561 36.0804 92.0051 38.0515 94.0603 38.7755L120.257 48.0046C124.357 49.4492 124.786 55.0755 120.952 57.1267L96.4767 70.2211C94.5535 71.25 93.5188 73.4059 93.9197 75.5488L99.0215 102.82C99.8206 107.092 95.1616 110.279 91.4677 107.988L67.8675 93.349C66.0161 92.2006 63.6334 92.383 61.9778 93.8L40.8822 111.854C37.5803 114.68 32.4936 112.242 32.632 107.9L33.5162 80.158C33.5856 77.9808 32.2366 76.0097 30.1815 75.2857L3.98469 66.0566C-0.11558 64.612 -0.54428 58.9857 3.28964 56.9345L27.765 43.8401C29.6882 42.8112 30.7229 40.6553 30.322 38.5124L25.2203 11.2414C24.4211 6.96953 29.0801 3.78182 32.774 6.07311L56.3743 20.7122C58.2257 21.8606 60.6083 21.6782 62.264 20.2612L83.3595 2.2072Z" fill="#EDF8FF"/>
</svg>
