<svg width="110" height="106" viewBox="0 0 110 106" fill="none" xmlns="http://www.w3.org/2000/svg">
<path d="M54.0915 1.79498C55.3315 -0.00389436 58.0169 0.0835831 59.1372 1.95934L75.5099 29.3736C75.8953 30.019 76.509 30.4962 77.2295 30.7107L107.833 39.8216C109.927 40.445 110.674 43.026 109.236 44.6711L88.2232 68.7139C87.7286 69.2799 87.4644 70.0111 87.483 70.7626L88.2752 102.684C88.3294 104.868 86.1054 106.376 84.0965 105.517L54.737 92.9619C54.0458 92.6663 53.2689 92.641 52.5599 92.8909L22.4456 103.509C20.3851 104.235 18.2639 102.586 18.4602 100.41L21.3281 68.6076C21.3956 67.8589 21.1795 67.1121 20.7227 66.5151L1.31891 41.1557C-0.00874861 39.4206 0.904294 36.8936 3.03442 36.4078L34.1664 29.3079C34.8993 29.1408 35.5428 28.7045 35.9694 28.0856L54.0915 1.79498Z" fill="#EDF8FF"/>
</svg>
