<svg width="97" height="96" viewBox="0 0 97 96" fill="none" xmlns="http://www.w3.org/2000/svg">
<path d="M18.326 13.0302L38.9489 24.8707C41.523 26.3486 44.8054 25.5174 46.366 22.9925L58.8682 2.76391C60.1905 0.624428 63.4888 1.55712 63.4948 4.07224L63.5521 27.8525C63.5592 30.8207 65.9203 33.2477 68.8872 33.3367L92.6568 34.0497C95.1708 34.1251 96.0122 37.4478 93.837 38.7106L73.2714 50.6503C70.7044 52.1406 69.783 55.3989 71.1894 58.0128L82.4568 78.9544C83.6484 81.1693 81.1916 83.5593 79.0104 82.307L58.3875 70.4665C55.8134 68.9885 52.5309 69.8197 50.9704 72.3446L38.4682 92.5732C37.1459 94.7127 33.8476 93.78 33.8416 91.2649L33.7843 67.4847C33.7771 64.5165 31.4161 62.0894 28.4492 62.0004L4.6796 61.2874C2.1656 61.212 1.32421 57.8893 3.49935 56.6265L24.065 44.6868C26.632 43.1965 27.5533 39.9382 26.147 37.3243L14.8796 16.3828C13.6879 14.1679 16.1448 11.7779 18.326 13.0302Z" fill="#313F86" stroke="#EDF8FF" stroke-width="3"/>
</svg>
