<svg width="140" height="124" viewBox="0 0 140 124" fill="none" xmlns="http://www.w3.org/2000/svg">
<path d="M2.95927 64.8979C-0.82066 63.0184 -0.714205 57.5898 3.13651 55.8599L32.6062 42.6211C34.5053 41.768 35.677 39.8274 35.5476 37.7496L33.5407 5.50518C33.2784 1.29191 38.0329 -1.3302 41.4564 1.13969L67.6564 20.0418C69.3448 21.2599 71.6112 21.3043 73.346 20.1534L100.267 2.29309C103.785 -0.0406664 108.433 2.76583 108.005 6.96559L104.736 39.1065C104.525 41.1777 105.62 43.1627 107.484 44.0896L136.412 58.4737C140.192 60.3532 140.085 65.7818 136.235 67.5117L106.765 80.7505C104.866 81.6036 103.694 83.5442 103.823 85.622L105.83 117.866C106.093 122.08 101.338 124.702 97.9147 122.232L71.7147 103.33C70.0264 102.112 67.7599 102.067 66.0251 103.218L39.1042 121.079C35.5865 123.412 30.9384 120.606 31.3657 116.406L34.6354 84.2651C34.8461 82.1939 33.7514 80.2089 31.8872 79.282L2.95927 64.8979Z" fill="#EDF8FF"/>
</svg>
