<svg width="38" height="40" viewBox="0 0 38 40" fill="none" xmlns="http://www.w3.org/2000/svg">
<path d="M19.4555 1.39156C20.2504 -0.456365 22.9691 -0.107189 23.2703 1.88152L24.5363 10.2423C24.6978 11.309 25.6764 12.0551 26.748 11.9285L35.1516 10.9357C37.1502 10.6995 38.2062 13.2303 36.6326 14.4852L30.0251 19.7545C29.1805 20.428 29.0231 21.6504 29.6697 22.5154L34.7279 29.283C35.9325 30.8947 34.27 33.0763 32.3962 32.3428L24.5173 29.2587C23.5127 28.8655 22.377 29.34 21.9506 30.3312L18.6084 38.1002C17.8134 39.9481 15.0947 39.5989 14.7936 37.6102L13.5275 29.2494C13.366 28.1827 12.3874 27.4366 11.3159 27.5632L2.91224 28.5561C0.91362 28.7922 -0.142314 26.2614 1.43126 25.0065L8.03876 19.7373C8.88339 19.0637 9.04072 17.8414 8.39414 16.9763L3.33595 10.2087C2.13135 8.59706 3.79385 6.41538 5.66766 7.14887L13.5465 10.233C14.5512 10.6262 15.6869 10.1517 16.1133 9.16051L19.4555 1.39156Z" fill="#EDF8FF"/>
</svg>
