<svg width="124" height="114" viewBox="0 0 124 114" fill="none" xmlns="http://www.w3.org/2000/svg">
<path d="M83.363 111.793C86.665 114.619 91.7525 112.181 91.6136 107.838L90.7264 80.0877C90.6568 77.9102 92.006 75.9389 94.0613 75.2148L120.263 65.985C124.363 64.5406 124.792 58.9147 120.958 56.8632L96.4731 43.7596C94.5504 42.7307 93.516 40.5753 93.9165 38.4328L99.0173 11.1484C99.8158 6.87671 95.1569 3.68957 91.4633 5.98083L67.8597 20.6229C66.0081 21.7715 63.6252 21.589 61.9695 20.1717L40.8687 2.10969C37.5667 -0.716804 32.4793 1.72165 32.6181 6.0643L33.5053 33.8149C33.5749 35.9924 32.2258 37.9637 30.1704 38.6878L3.96923 47.9177C-0.130871 49.362 -0.559973 54.9879 3.27349 57.0394L27.7586 70.143C29.6813 71.1719 30.7158 73.3273 30.3152 75.4698L25.2145 102.754C24.4159 107.026 29.0748 110.213 32.7685 107.922L56.3721 93.2797C58.2236 92.1311 60.6065 92.3136 62.2622 93.7309L83.363 111.793Z" fill="#EDF8FF"/>
</svg>
