<svg width="71" height="74" viewBox="0 0 71 74" fill="none" xmlns="http://www.w3.org/2000/svg">
<path d="M26.9943 72.2212L43.369 58.0449C44.138 57.3791 45.1586 57.0806 46.1651 57.227L67.6024 60.3453C67.9879 60.4014 68.2868 60.0146 68.1351 59.6558L59.705 39.7156C59.3089 38.7785 59.3403 37.7153 59.7912 36.803L69.3831 17.393C69.5556 17.0438 69.2803 16.6403 68.8922 16.6735L47.3062 18.5241C46.2931 18.611 45.2924 18.2531 44.5644 17.5437L29.054 2.42747C28.7751 2.15568 28.3061 2.29301 28.2178 2.67233L23.3092 23.7571C23.0784 24.7482 22.4278 25.5899 21.5267 26.063L2.35092 36.1315C2.00591 36.3126 1.99138 36.8011 2.32501 37.0022L20.8751 48.1833C21.746 48.7083 22.3454 49.5861 22.5171 50.5884L26.1742 71.9279C26.2399 72.3116 26.6999 72.4761 26.9943 72.2212Z" fill="#313F86" stroke="#EDF8FF" stroke-width="3"/>
</svg>
