<svg width="63" height="61" viewBox="0 0 63 61" fill="none" xmlns="http://www.w3.org/2000/svg">
<path d="M32.1595 58.387L41.3728 43.0879C41.8616 42.2762 42.6587 41.6973 43.5819 41.4837L60.9869 37.4553C61.3542 37.3703 61.4989 36.9249 61.2517 36.6403L49.5414 23.1593C48.9196 22.4435 48.6148 21.506 48.6969 20.5613L50.2415 2.77516C50.2741 2.39973 49.8955 2.12455 49.5485 2.27147L33.0957 9.23705C32.2235 9.60632 31.2388 9.60632 30.3666 9.23705L13.9139 2.27146C13.5669 2.12455 13.1882 2.39973 13.2208 2.77516L14.7654 20.5613C14.8475 21.506 14.5427 22.4435 13.9209 23.1593L2.21067 36.6403C1.96345 36.9249 2.10813 37.3703 2.4754 37.4553L19.8804 41.4837C20.8036 41.6973 21.6007 42.2762 22.0895 43.0879L31.3028 58.387C31.4972 58.7097 31.9651 58.7097 32.1595 58.387Z" stroke="#EDF8FF" stroke-width="3"/>
</svg>
