<svg width="100" height="102" viewBox="0 0 100 102" fill="none" xmlns="http://www.w3.org/2000/svg">
<path d="M32.186 3.53041C31.9891 0.630917 35.6175 -0.826602 37.4811 1.4034L58.0583 26.0266C58.8917 27.0239 60.2725 27.3711 61.4785 26.8867L91.2553 14.9256C93.952 13.8423 96.4594 16.8428 94.9144 19.3043L77.8551 46.4833C77.1641 47.5841 77.2606 49.0047 78.094 50.0019L98.6712 74.6251C100.535 76.8551 98.456 80.167 95.6376 79.4583L64.5171 71.6327C63.2567 71.3157 61.9355 71.8464 61.2446 72.9473L44.1852 100.126C42.6402 102.588 38.8481 101.634 38.6512 98.7347L36.477 66.7191C36.389 65.4225 35.476 64.3299 34.2155 64.013L3.09507 56.1873C0.276646 55.4786 0.0117125 51.5774 2.70845 50.4941L32.4852 38.533C33.6912 38.0486 34.4482 36.8427 34.3601 35.546L32.186 3.53041Z" fill="#EDF8FF"/>
</svg>
