<svg width="49" height="50" viewBox="0 0 49 50" fill="none" xmlns="http://www.w3.org/2000/svg">
<path d="M47.5242 25.267C49.0406 24.4316 48.851 22.1948 47.2156 21.6262L34.2695 17.1249C33.595 16.8904 33.0967 16.3141 32.962 15.6129L30.3776 2.15813C30.0511 0.458623 27.8667 -0.0524928 26.8204 1.32582L18.5331 12.2429C18.1017 12.8112 17.4001 13.1066 16.692 13.0181L3.08748 11.3165C1.36975 11.1016 0.209029 13.0223 1.19787 14.4432L9.02359 25.6887C9.43163 26.2751 9.49599 27.0345 9.19244 27.6811L3.3707 40.0816C2.63507 41.6485 4.1025 43.3467 5.75961 42.8462L18.884 38.8824C19.5671 38.6761 20.3084 38.8494 20.8293 39.3371L30.8358 48.7059C32.0992 49.8887 34.1665 49.0178 34.2023 47.2876L34.4855 33.5901C34.5003 32.8762 34.8946 32.2244 35.5199 31.8799L47.5242 25.267Z" fill="#EDF8FF"/>
</svg>
