<svg width="63" height="61" viewBox="0 0 63 61" fill="none" xmlns="http://www.w3.org/2000/svg">
<path d="M30.018 1.78787C30.7955 0.497326 32.6668 0.497324 33.4443 1.78787L42.6577 17.0808C42.9371 17.5445 43.3926 17.8752 43.92 17.9972L61.324 22.0236C62.7934 22.3636 63.3721 24.1457 62.3828 25.2841L50.6742 38.7577C50.3187 39.1668 50.1444 39.7027 50.1913 40.2426L51.7358 58.0198C51.8663 59.5214 50.3519 60.6222 48.9639 60.0348L32.5106 53.0719C32.0124 52.861 31.45 52.861 30.9517 53.0719L14.4985 60.0348C13.1104 60.6222 11.5961 59.5214 11.7265 58.0198L13.271 40.2426C13.3179 39.7027 13.1437 39.1668 12.7882 38.7577L1.07949 25.2841C0.0902159 24.1457 0.668955 22.3636 2.13833 22.0236L19.5423 17.9972C20.0698 17.8752 20.5252 17.5445 20.8046 17.0808L30.018 1.78787Z" fill="#EDF8FF"/>
</svg>
