<svg width="73" height="70" viewBox="0 0 73 70" fill="none" xmlns="http://www.w3.org/2000/svg">
<path d="M12.6135 4.52512C12.0873 2.02116 14.7397 0.0522967 16.988 1.27792L34.6529 10.9076C35.5692 11.4071 36.6794 11.3952 37.5846 10.8763L55.0367 0.870307C57.2581 -0.403291 59.9536 1.50971 59.4814 4.02469L55.7724 23.7792C55.58 24.8043 55.9346 25.8558 56.7089 26.5558L71.6279 40.0433C73.5272 41.7603 72.5405 44.9115 70.0006 45.24L50.0427 47.8214C49.0078 47.9552 48.1169 48.6165 47.69 49.5677L39.4579 67.9116C38.4103 70.246 35.1051 70.2807 34.0073 67.9687L25.3834 49.8085C24.9359 48.866 24.0302 48.2234 22.9921 48.1117L2.98702 45.9599C0.440122 45.686 -0.615872 42.556 1.24576 40.7988L15.8716 26.9936C16.6302 26.2776 16.9618 25.2192 16.7474 24.1986L12.6135 4.52512Z" fill="#EDF8FF"/>
</svg>
