<svg width="107" height="108" viewBox="0 0 107 108" fill="none" xmlns="http://www.w3.org/2000/svg">
<path d="M89.7401 93.4885C92.1068 94.2797 94.3496 92.0063 93.5244 89.6527L84.456 63.7896C84.0527 62.6394 84.3861 61.3596 85.2995 60.5519L105.837 42.3915C107.706 40.7389 106.857 37.6612 104.405 37.1986L77.4576 32.1153C76.2591 31.8892 75.3168 30.9608 75.0735 29.7665L69.6043 2.91212C69.1066 0.468295 66.0151 -0.336002 64.3881 1.55503L46.509 22.3347C45.7139 23.2589 44.4381 23.6102 43.2814 23.2236L17.2746 14.5297C14.9079 13.7386 12.6651 16.0119 13.4904 18.3655L22.5588 44.2286C22.9621 45.3788 22.6287 46.6586 21.7153 47.4663L1.17762 65.6267C-0.69138 67.2793 0.157305 70.357 2.60961 70.8196L29.5572 75.903C30.7556 76.129 31.698 77.0574 31.9412 78.2518L37.4104 105.106C37.9081 107.55 40.9996 108.354 42.6267 106.463L60.5057 85.6835C61.3009 84.7593 62.5767 84.408 63.7333 84.7946L89.7401 93.4885Z" fill="#EDF8FF"/>
</svg>
