<svg width="88" height="98" viewBox="0 0 88 98" fill="none" xmlns="http://www.w3.org/2000/svg">
<path d="M3.53434 26.2182C1.81183 23.9811 3.85195 20.8199 6.59997 21.468L30.5438 27.1148C31.9775 27.4529 33.4445 26.7002 34.006 25.3383L43.3824 2.59462C44.4585 -0.0156583 48.2162 0.170569 49.0289 2.87446L56.1106 26.4338C56.5346 27.8445 57.92 28.7386 59.3801 28.5439L83.7649 25.2922C86.5636 24.919 88.2811 28.2664 86.3459 30.3222L69.4837 48.2348C68.4741 49.3073 68.3924 50.9542 69.2911 52.1214L84.2995 71.6134C86.022 73.8505 83.9819 77.0116 81.2339 76.3636L57.2901 70.7168C55.8564 70.3786 54.3893 71.1314 53.8279 72.4932L44.4515 95.237C43.3754 97.8472 39.6177 97.661 38.805 94.9571L31.7233 71.3977C31.2993 69.9871 29.9139 69.093 28.4538 69.2877L4.06893 72.5393C1.2703 72.9125 -0.447263 69.5652 1.48799 67.5093L18.3502 49.5968C19.3598 48.5242 19.4415 46.8773 18.5428 45.7102L3.53434 26.2182Z" fill="#EDF8FF"/>
</svg>
