<svg width="68" height="62" viewBox="0 0 68 62" fill="none" xmlns="http://www.w3.org/2000/svg">
<path d="M50.2135 3.76988C51.5089 3.24922 52.9257 4.18248 52.9588 5.57825L53.2904 19.581C53.3187 20.7762 53.8801 21.8961 54.8209 22.6338L65.8426 31.2772C66.9412 32.1387 66.8414 33.8324 65.6492 34.5589L53.6883 41.8474C52.6673 42.4695 51.9782 43.5157 51.8097 44.6993L49.8351 58.5661C49.6383 59.9483 48.1217 60.7086 46.8964 60.0394L34.6039 53.3252C33.5547 52.7521 32.3041 52.6784 31.1948 53.1242L18.1986 58.3476C16.9031 58.8683 15.4863 57.935 15.4533 56.5393L15.1216 42.5366C15.0933 41.3414 14.5319 40.2215 13.5911 39.4837L2.56942 30.8403C1.47078 29.9788 1.57062 28.2852 2.76287 27.5587L14.7238 20.2701C15.7447 19.648 16.4338 18.6018 16.6024 17.4182L18.5769 3.55146C18.7737 2.16923 20.2903 1.40889 21.5156 2.07815L33.8081 8.79232C34.8574 9.36541 36.1079 9.43913 37.2172 8.99328L50.2135 3.76988Z" stroke="#EDF8FF" stroke-width="2"/>
</svg>
