<svg width="95" height="93" viewBox="0 0 95 93" fill="none" xmlns="http://www.w3.org/2000/svg">
<path d="M81.7805 10.5687L70.782 35.3191C69.8144 37.4966 70.359 40.0494 72.1308 41.6425L92.2712 59.751C94.0721 61.3702 92.7489 64.3479 90.3402 64.0965L63.4024 61.2847C61.0325 61.0373 58.7729 62.3441 57.8053 64.5215L46.8069 89.272C45.8234 91.4851 42.5825 91.1468 42.0773 88.7783L36.4272 62.29C35.9302 59.9597 33.9891 58.2145 31.6192 57.9671L4.68146 55.1553C2.27274 54.9039 1.59298 51.717 3.68946 50.5046L27.1353 36.9458C29.198 35.753 30.258 33.3676 29.7609 31.0373L24.1109 4.54902C23.6057 2.1805 26.4265 0.549219 28.2274 2.16844L48.3678 20.2769C50.1396 21.87 52.7358 22.141 54.7985 20.9481L78.2443 7.38932C80.3408 6.17691 82.7639 8.35556 81.7805 10.5687Z" stroke="#EDF8FF" stroke-width="3"/>
</svg>
