<svg width="72" height="73" viewBox="0 0 72 73" fill="none" xmlns="http://www.w3.org/2000/svg">
<path d="M13.939 9.23411C13.4461 6.74973 16.0636 4.81035 18.2969 6.00519L30.7625 12.6745C32.0104 13.3422 33.5551 13.0469 34.4688 11.9661L43.5957 1.16922C45.2308 -0.765064 48.379 0.0721738 48.8373 2.56316L51.3952 16.4674C51.6512 17.8594 52.8452 18.883 54.2599 18.9234L68.3918 19.3274C70.9235 19.3998 72.2318 22.3832 70.57 24.2946L61.294 34.9636C60.3654 36.0316 60.3096 37.6034 61.16 38.7346L69.6552 50.0352C71.1771 52.0597 69.6603 54.9427 67.1298 54.8352L53.005 54.2349C51.591 54.1748 50.3273 55.1111 49.9731 56.4814L46.4346 70.169C45.8007 72.6212 42.601 73.2328 41.1073 71.1873L32.7699 59.7698C31.9353 58.6269 30.4154 58.2226 29.1232 58.8L16.2156 64.5676C13.9032 65.6009 11.43 63.4806 12.0979 61.0375L15.8262 47.4003C16.1994 46.0352 15.5678 44.5948 14.3107 43.9446L1.75367 37.4491C-0.495962 36.2854 -0.380261 33.0298 1.9463 32.0287L14.9328 26.441C16.2328 25.8816 16.9651 24.4897 16.6897 23.1015L13.939 9.23411Z" fill="#EDF8FF"/>
</svg>
