<svg width="48" height="47" viewBox="0 0 48 47" fill="none" xmlns="http://www.w3.org/2000/svg">
<path d="M7.78488 39.7334C7.37382 41.3444 8.99544 42.7237 10.5212 42.0606L20.1926 37.8578C20.9382 37.5338 21.8059 37.693 22.3877 38.2604L29.9349 45.6216C31.1255 46.7828 33.1319 46.0687 33.3202 44.4167L34.5136 33.9461C34.6057 33.1387 35.1776 32.4672 35.9604 32.2474L46.1127 29.3964C47.7145 28.9466 48.0991 26.8533 46.7617 25.8644L38.284 19.5958C37.6304 19.1126 37.3345 18.2821 37.5354 17.4948L40.1411 7.28237C40.5522 5.67132 38.9306 4.29209 37.4048 4.9551L27.7334 9.1579C26.9878 9.48192 26.1201 9.32279 25.5383 8.75532L17.9911 1.39419C16.8005 0.232933 14.7941 0.947005 14.6058 2.59902L13.4124 13.0697C13.3203 13.8771 12.7484 14.5485 11.9656 14.7684L1.81331 17.6193C0.211533 18.0691 -0.17314 20.1625 1.16427 21.1514L9.64203 27.4199C10.2956 27.9031 10.5915 28.7336 10.3906 29.521L7.78488 39.7334Z" fill="#EDF8FF"/>
</svg>
