<svg width="99" height="96" viewBox="0 0 99 96" fill="none" xmlns="http://www.w3.org/2000/svg">
<path d="M47.3768 2.76471C49.4439 -0.967731 54.9355 -0.562764 56.4327 3.43253L65.4096 27.3858C66.0198 29.0141 67.4322 30.2085 69.1393 30.5396L94.2512 35.4115C98.4397 36.2241 99.7516 41.572 96.4145 44.2306L76.4076 60.1701C75.0475 61.2536 74.3481 62.966 74.5606 64.6918L77.6872 90.0802C78.2087 94.3148 73.5279 97.215 69.9682 94.8629L48.6265 80.7607C47.1757 79.802 45.331 79.666 43.7553 80.4015L20.5757 91.2204C16.7094 93.025 12.5047 89.4695 13.6418 85.3572L20.4588 60.7021C20.9222 59.0261 20.4815 57.2297 19.2951 55.9583L1.84281 37.2565C-1.06816 34.1371 1.01396 29.0395 5.2764 28.8501L30.8313 27.7146C32.5685 27.6374 34.1408 26.6632 34.9833 25.142L47.3768 2.76471Z" fill="#EDF8FF"/>
</svg>
