<svg width="39" height="42" viewBox="0 0 39 42" fill="none" xmlns="http://www.w3.org/2000/svg">
<path d="M36.2821 8.1225C38.0344 7.69884 39.4087 9.6276 38.4361 11.1455L32.627 20.2115C32.2128 20.8579 32.2052 21.6843 32.6073 22.3383L38.248 31.51C39.1925 33.0456 37.7828 34.9487 36.0386 34.4927L25.6212 31.7694C24.8785 31.5753 24.0901 31.8234 23.5925 32.408L16.6127 40.6068C15.4441 41.9795 13.1986 41.2269 13.0932 39.4272L12.464 28.6782C12.4192 27.9118 11.9396 27.2387 11.2299 26.946L1.27543 22.8415C-0.39123 22.1542 -0.36936 19.786 1.30971 19.1297L11.3383 15.2097C12.0533 14.9302 12.5452 14.2661 12.6042 13.5007L13.4318 2.76505C13.5704 0.967593 15.8294 0.256587 16.9725 1.65066L23.7996 9.97702C24.2864 10.5707 25.07 10.8333 25.8162 10.6529L36.2821 8.1225Z" fill="#EDF8FF"/>
</svg>
