<svg width="68" height="62" viewBox="0 0 68 62" fill="none" xmlns="http://www.w3.org/2000/svg">
<path d="M52.4589 5.59009L52.7905 19.5928C52.8224 20.9374 53.454 22.1973 54.5124 23.0273L65.5341 31.6706C66.358 32.3168 66.2832 33.587 65.389 34.1319L53.4281 41.4204C52.2795 42.1203 51.5043 43.2973 51.3147 44.6288L49.3401 58.4956C49.1925 59.5323 48.0551 60.1025 47.1361 59.6006L34.8436 52.8864C33.6632 52.2417 32.2563 52.1587 31.0083 52.6603L18.0121 57.8837C17.0405 58.2742 15.9779 57.5743 15.9531 56.5274L15.6215 42.5247C15.5897 41.1801 14.958 39.9202 13.8997 39.0903L2.87796 30.4469C2.05399 29.8007 2.12887 28.5305 3.02305 27.9856L14.9839 20.6971C16.1325 19.9972 16.9078 18.8203 17.0974 17.4887L19.0719 3.62194C19.2195 2.58527 20.357 2.01502 21.2759 2.51696L33.5684 9.23113C34.7488 9.87586 36.1557 9.95879 37.4037 9.45721L50.3999 4.23381C51.3715 3.84331 52.4341 4.54326 52.4589 5.59009Z" fill="#313F86" stroke="#EDF8FF" stroke-width="3"/>
</svg>
