<svg width="48" height="47" viewBox="0 0 48 47" fill="none" xmlns="http://www.w3.org/2000/svg">
<path d="M7.78498 7.18382C7.37384 5.57311 8.99568 4.19425 10.5217 4.85712L20.1923 9.05783C20.938 9.38178 21.8058 9.22271 22.3877 8.65538L29.9342 1.29799C31.125 0.136995 33.1318 0.85104 33.3202 2.50276L34.5134 12.9677C34.6055 13.775 35.1775 14.4464 35.9606 14.6662L46.1115 17.5156C47.7136 17.9653 48.0985 20.0583 46.7608 21.047L38.2839 27.3123C37.6303 27.7954 37.3344 28.6257 37.5353 29.4129L40.1408 39.6202C40.5519 41.2309 38.9301 42.6098 37.4041 41.9469L27.7335 37.7462C26.9877 37.4222 26.1199 37.5813 25.538 38.1486L17.9916 45.506C16.8007 46.667 14.7939 45.953 14.6056 44.3012L13.4123 33.8363C13.3202 33.029 12.7482 32.3576 11.9651 32.1378L1.81425 29.2884C0.212101 28.8387 -0.172761 26.7457 1.1649 25.757L9.6418 19.4917C10.2955 19.0086 10.5914 18.1783 10.3904 17.3911L7.78498 7.18382Z" fill="#EDF8FF"/>
</svg>
