<svg width="107" height="108" viewBox="0 0 107 108" fill="none" xmlns="http://www.w3.org/2000/svg">
<path d="M92.1074 17.6505L83.0396 43.5013C82.4345 45.2263 82.9348 47.1456 84.3051 48.3569L104.841 66.5087C105.776 67.3349 105.352 68.8734 104.125 69.1046L77.1795 74.1856C75.3814 74.5246 73.9676 75.917 73.6027 77.7081L68.1338 104.55C67.8849 105.771 66.3389 106.173 65.5252 105.228L47.6473 84.4583C46.4543 83.0723 44.5403 82.5454 42.8049 83.1252L16.7998 91.815C15.6162 92.2105 14.4946 91.0741 14.9073 89.8975L23.9751 64.0467C24.5802 62.3217 24.08 60.4024 22.7096 59.1911L2.17329 41.0393C1.2386 40.2131 1.66302 38.6746 2.88942 38.4434L29.8353 33.3624C31.6333 33.0233 33.0471 31.631 33.412 29.8399L38.8809 2.99823C39.1298 1.77657 40.6759 1.37452 41.4896 2.31984L59.3674 23.0897C60.5604 24.4757 62.4745 25.0026 64.2098 24.4227L90.2149 15.733C91.3985 15.3375 92.5201 16.4739 92.1074 17.6505Z" stroke="#EDF8FF" stroke-width="3"/>
</svg>
