<svg width="86" height="85" viewBox="0 0 86 85" fill="none" xmlns="http://www.w3.org/2000/svg">
<path d="M10.4011 9.65829C9.86312 7.384 12.0172 5.39513 14.2414 6.11251L37.3236 13.5571C38.1534 13.8247 39.0585 13.7181 39.8034 13.2651L60.5246 0.661815C62.5213 -0.55266 65.0785 0.881387 65.0836 3.21844L65.1361 27.4714C65.138 28.3433 65.5191 29.1712 66.1802 29.7396L84.5698 45.552C86.3418 47.0757 85.7682 49.9509 83.5471 50.6779L60.4974 58.2224C59.6687 58.4936 58.9991 59.1119 58.6628 59.9163L49.307 82.2921C48.4055 84.4483 45.4938 84.7912 44.116 82.9035L29.818 63.3133C29.304 62.609 28.509 62.1632 27.6401 62.0919L3.46829 60.1086C1.13905 59.9175 -0.0868335 57.2543 1.28276 55.3606L15.4958 35.7086C16.0067 35.0022 16.1851 34.1084 15.9843 33.2599L10.4011 9.65829Z" fill="#EDF8FF"/>
</svg>
