<svg width="71" height="74" viewBox="0 0 71 74" fill="none" xmlns="http://www.w3.org/2000/svg">
<path d="M26.9941 72.2222L43.3687 58.0459C44.1378 57.3801 45.1584 57.0816 46.1649 57.228L67.6021 60.3463C67.9877 60.4024 68.2866 60.0156 68.1349 59.6568L59.7048 39.7165C59.3086 38.7795 59.3401 37.7163 59.7909 36.804L69.3828 17.3939C69.5554 17.0447 69.2801 16.6412 68.8919 16.6745L47.306 18.5251C46.2928 18.612 45.2921 18.2541 44.5641 17.5446L29.0537 2.42845C28.7749 2.15665 28.3059 2.29399 28.2176 2.6733L23.3089 23.7581C23.0782 24.7491 22.4275 25.5908 21.5264 26.064L2.35067 36.1325C2.00566 36.3136 1.99113 36.8021 2.32477 37.0032L20.8748 48.1843C21.7458 48.7093 22.3451 49.5871 22.5169 50.5893L26.1739 71.9289C26.2397 72.3126 26.6996 72.4771 26.9941 72.2222Z" stroke="#EDF8FF" stroke-width="3"/>
</svg>
