<svg width="64" height="63" viewBox="0 0 64 63" fill="none" xmlns="http://www.w3.org/2000/svg">
<path d="M31.0184 2.51662C32.1212 -0.172203 36.0204 0.120952 36.7087 2.94443L40.8344 19.868C41.1422 21.1307 42.2281 22.0515 43.5241 22.149L60.8942 23.4549C63.7922 23.6728 64.7184 27.4717 62.2458 28.9989L47.4254 38.1523C46.3197 38.8352 45.7794 40.1525 46.0872 41.4152L50.2129 58.3387C50.9012 61.1622 47.5744 63.217 45.3579 61.3373L32.0728 50.0709C31.0815 49.2303 29.6618 49.1235 28.556 49.8065L13.7357 58.9599C11.2631 60.487 8.28086 57.958 9.3836 55.2691L15.9933 39.1527C16.4864 37.9502 16.1492 36.567 15.158 35.7263L1.87282 24.4599C-0.343638 22.5803 1.14009 18.9625 4.03809 19.1804L21.4082 20.4863C22.7042 20.5837 23.9156 19.8355 24.4088 18.6331L31.0184 2.51662Z" fill="#EDF8FF"/>
</svg>
