<svg width="84" height="82" viewBox="0 0 84 82" fill="none" xmlns="http://www.w3.org/2000/svg">
<path d="M70.5862 13.2791L66.8797 30.4618C66.4687 32.3673 67.097 34.348 68.5312 35.6682L81.4642 47.5729C82.8736 48.8703 82.3601 51.2058 80.5364 51.7923L63.8024 57.1737C61.9467 57.7705 60.5455 59.3049 60.1193 61.2071L56.276 78.3598C55.8572 80.2291 53.5778 80.9521 52.1581 79.666L39.1306 67.8647C37.686 66.5559 35.6565 66.1097 33.7961 66.6917L17.0198 71.9396C15.1915 72.5115 13.4257 70.8991 13.8296 69.0265L17.5361 51.8437C17.9472 49.9382 17.3189 47.9575 15.8847 46.6374L2.95167 34.7326C1.54222 33.4352 2.05576 31.0998 3.87943 30.5133L20.6134 25.1318C22.4691 24.5351 23.8703 23.0006 24.2965 21.0985L28.1398 3.94579C28.5587 2.07648 30.838 1.35348 32.2578 2.63959L45.2852 14.4409C46.7299 15.7496 48.7593 16.1959 50.6198 15.6139L67.3961 10.3659C69.2243 9.79403 70.9902 11.4065 70.5862 13.2791Z" fill="#313F86" stroke="#EDF8FF" stroke-width="3"/>
</svg>
