<svg width="68" height="62" viewBox="0 0 68 62" fill="none" xmlns="http://www.w3.org/2000/svg">
<path d="M51.6814 57.6019L37.2837 50.2448C36.1129 49.6465 34.7056 49.7548 33.6402 50.5252L20.5382 59.9994C20.217 60.2316 19.7662 60.0157 19.7459 59.6198L18.9185 43.4724C18.8512 42.1594 18.0537 40.9948 16.8538 40.4574L2.09798 33.8477C1.73624 33.6857 1.69787 33.1873 2.03055 32.9718L15.6009 24.1815C16.7043 23.4667 17.3142 22.1938 17.1797 20.886L15.5258 4.80224C15.4853 4.40794 15.8978 4.12549 16.2507 4.30586L30.6485 11.663C31.8192 12.2612 33.2265 12.1529 34.2919 11.3825L47.3939 1.90835C47.7151 1.67609 48.166 1.89208 48.1863 2.28794L49.0137 18.4353C49.081 19.7483 49.8784 20.9129 51.0783 21.4504L65.8341 28.06C66.1959 28.222 66.2343 28.7204 65.9016 28.9359L52.3313 37.7262C51.2278 38.441 50.618 39.7139 50.7524 41.0218L52.4063 57.1055C52.4468 57.4998 52.0344 57.7822 51.6814 57.6019Z" fill="#313F86" stroke="#EDF8FF" stroke-width="3"/>
</svg>
