<svg width="71" height="74" viewBox="0 0 71 74" fill="none" xmlns="http://www.w3.org/2000/svg">
<path d="M24.7126 1.8585C24.9757 0.323947 26.8152 -0.333591 27.9932 0.685839L44.3677 14.8562C44.8072 15.2365 45.3905 15.4071 45.9656 15.3235L67.4017 12.2066C68.9443 11.9823 70.1402 13.5298 69.5333 14.9648L61.104 34.8949C60.8776 35.4303 60.8956 36.038 61.1533 36.5594L70.7445 55.9601C71.435 57.3567 70.3339 58.9704 68.7814 58.8374L47.1953 56.9876C46.6165 56.938 46.0448 57.1423 45.6289 57.5475L30.1183 72.6576C29.0027 73.7444 27.1267 73.1948 26.7734 71.6777L21.8651 50.603C21.7332 50.0367 21.3612 49.5556 20.846 49.2852L1.67223 39.2219C0.291723 38.4974 0.233298 36.5432 1.5681 35.739L20.1172 24.5631C20.6149 24.2632 20.9574 23.7617 21.0555 23.1892L24.7126 1.8585Z" fill="#EDF8FF"/>
</svg>
