<svg width="49" height="50" viewBox="0 0 49 50" fill="none" xmlns="http://www.w3.org/2000/svg">
<path d="M47.5223 24.7172C49.0391 25.5524 48.8494 27.7897 47.2136 28.3583L34.2697 32.8569C33.5951 33.0913 33.0966 33.6676 32.9619 34.3689L30.3776 47.8172C30.0511 49.5164 27.8671 50.0277 26.8207 48.6498L18.533 37.7368C18.1016 37.1688 17.4003 36.8735 16.6924 36.962L3.08814 38.6629C1.37029 38.8777 0.209793 36.9568 1.19899 35.5359L9.02312 24.2974C9.43143 23.7109 9.49585 22.9512 9.19209 22.3044L3.37153 9.91154C2.63564 8.34472 4.10302 6.64615 5.76024 7.14645L18.8843 11.1086C19.5672 11.3147 20.3083 11.1415 20.8292 10.654L30.8361 1.28872C32.0996 0.106267 34.1665 0.977173 34.2023 2.70709L34.4855 16.398C34.5003 17.1119 34.8946 17.7637 35.5201 18.1082L47.5223 24.7172Z" fill="#EDF8FF"/>
</svg>
