<svg width="1440" height="4489" viewBox="0 0 1440 4489" fill="none" xmlns="http://www.w3.org/2000/svg">
<g clip-path="url(#clip0_202_2)">
<rect width="1440" height="4489" fill="#313F86"/>
<line x1="-17.5573" y1="-29.2325" x2="1902.44" y2="3626.77" stroke="#EDF8FF"/>
<line x1="-17.5229" y1="-29.1495" x2="1601.48" y2="5137.85" stroke="#EDF8FF"/>
<line x1="-17.5067" y1="-29.0813" x2="1380.73" y2="8453.06" stroke="#EDF8FF"/>
<line x1="-17.5005" y1="6.97765" x2="360.5" y2="8453.98" stroke="#EDF8FF"/>
<line x1="-17.6006" y1="-29.3008" x2="1902.4" y2="2520.7" stroke="#EDF8FF"/>
<line x1="-17.6535" y1="-29.3604" x2="2218.47" y2="2120.64" stroke="#EDF8FF"/>
<line x1="-17.7317" y1="-29.4219" x2="2397.27" y2="1506.58" stroke="#EDF8FF"/>
<line x1="-17.8819" y1="-29.4858" x2="2458.12" y2="572.514" stroke="#EDF8FF"/>
<line x1="-16.9721" y1="-29.4992" x2="2430.03" y2="107.501" stroke="#EDF8FF"/>
<line x1="-17.816" y1="-29.4649" x2="2506.18" y2="969.535" stroke="#EDF8FF"/>
<path d="M1638.5 272.5C1638.5 1017.54 1044.6 1621.5 312 1621.5C-420.598 1621.5 -1014.5 1017.54 -1014.5 272.5C-1014.5 -472.54 -420.598 -1076.5 312 -1076.5C1044.6 -1076.5 1638.5 -472.54 1638.5 272.5Z" stroke="#EDF8FF"/>
<path d="M1132.5 84.5C1132.5 563.865 728.456 952.5 230 952.5C-268.456 952.5 -672.5 563.865 -672.5 84.5C-672.5 -394.865 -268.456 -783.5 230 -783.5C728.456 -783.5 1132.5 -394.865 1132.5 84.5Z" stroke="#EDF8FF"/>
<path d="M728.474 121.916C528.81 481.761 52.7814 599.223 -334.798 384.171C-722.377 169.118 -874.626 -296.951 -674.962 -656.796C-475.298 -1016.64 0.729871 -1134.1 388.309 -919.05C775.888 -703.997 928.137 -237.928 728.474 121.916Z" stroke="#EDF8FF"/>
<path d="M2019.5 888.5C2019.5 1744.55 1340.31 2438.5 502.5 2438.5C-335.306 2438.5 -1014.5 1744.55 -1014.5 888.5C-1014.5 32.4484 -335.306 -661.5 502.5 -661.5C1340.31 -661.5 2019.5 32.4484 2019.5 888.5Z" stroke="#EDF8FF"/>
<path d="M2663.5 1152.5C2663.5 2350.94 1653.25 3322.5 407 3322.5C-839.249 3322.5 -1849.5 2350.94 -1849.5 1152.5C-1849.5 -45.9397 -839.249 -1017.5 407 -1017.5C1653.25 -1017.5 2663.5 -45.9397 2663.5 1152.5Z" stroke="#EDF8FF"/>
<path d="M2825.5 2111C2825.5 3424.04 1718.54 4488.5 353 4488.5C-1012.54 4488.5 -2119.5 3424.04 -2119.5 2111C-2119.5 797.961 -1012.54 -266.5 353 -266.5C1718.54 -266.5 2825.5 797.961 2825.5 2111Z" stroke="#EDF8FF"/>
<path d="M3484.5 2554.5C3484.5 4400.25 2025.16 5896.5 225 5896.5C-1575.16 5896.5 -3034.5 4400.25 -3034.5 2554.5C-3034.5 708.753 -1575.16 -787.5 225 -787.5C2025.16 -787.5 3484.5 708.753 3484.5 2554.5Z" stroke="#EDF8FF"/>
</g>
<defs>
<clipPath id="clip0_202_2">
<rect width="1440" height="4489" fill="white"/>
</clipPath>
</defs>
</svg>
